M48
; DRILL file KiCad 10.0.6 date 2026-10-05T01:53:50
; FORMAT={-:-/ absolute / metric / decimal}
; #@! TF.CreationDate,2026-10-05T01:53:50+02:00
; #@! TF.GenerationSoftware,Kicad,Pcbnew,10.0.6
; #@! TF.FileFunction,Plated,1,2,PTH
FMAT,2
METRIC
; #@! TA.AperFunction,Plated,PTH,ViaDrill
T1C0.300
; #@! TA.AperFunction,Plated,PTH,ComponentDrill
T2C0.950
; #@! TA.AperFunction,Plated,PTH,ComponentDrill
T3C1.000
%
G90
G05
T1
X31.0Y-20.258
X43.895Y-83.105
X45.0Y-56.828
X51.462Y-34.468
X51.978Y-40.007
X54.481Y-41.983
X54.678Y-41.066
X55.331Y-36.608
X57.2Y-70.0
X57.2Y-74.0
X58.506Y-41.596
X58.8Y-70.0
X58.8Y-74.0
X61.318Y-35.148
X62.0Y-84.0
X62.0Y-86.0
X64.0Y-49.5
X64.495Y-46.147
X65.178Y-25.865
X65.596Y-63.77
X65.596Y-70.143
X65.898Y-47.78
X66.0Y-43.5
X66.252Y-83.903
X66.966Y-56.51
X73.0Y-48.0
X73.012Y-82.738
X75.939Y-35.148
X78.0Y-17.0
X79.0Y-21.0
X81.0Y-25.0
X81.864Y-46.438
X82.0Y-17.0
X84.053Y-40.107
X86.0Y-25.0
X86.0Y-28.0
X87.0Y-22.5
X88.0Y-20.0
X88.05Y-48.713
X90.0Y-26.0
X90.843Y-46.791
X91.126Y-38.113
X94.0Y-84.0
X94.0Y-86.0
X96.0Y-39.78
X98.384Y-82.74
X102.0Y-34.7
T2
X25.0Y-24.0
X25.0Y-26.5
X25.0Y-29.0
T3
X25.0Y-70.5
X25.0Y-73.0
X98.0Y-22.0
X98.0Y-24.54
X98.0Y-27.08
X98.0Y-29.62
X98.0Y-32.16
X98.0Y-34.7
X98.0Y-37.24
X98.0Y-39.78
X98.0Y-42.32
X98.0Y-44.86
X98.0Y-47.4
X98.0Y-49.94
X98.0Y-52.48
X98.0Y-55.02
X98.0Y-57.56
X98.0Y-60.1
X98.0Y-62.64
X98.0Y-65.18
X98.0Y-67.72
X98.0Y-70.26
X98.0Y-72.8
X98.0Y-75.34
X123.4Y-22.0
X123.4Y-24.54
X123.4Y-27.08
X123.4Y-29.62
X123.4Y-32.16
X123.4Y-34.7
X123.4Y-37.24
X123.4Y-39.78
X123.4Y-42.32
X123.4Y-44.86
X123.4Y-47.4
X123.4Y-49.94
X123.4Y-52.48
X123.4Y-55.02
X123.4Y-57.56
X123.4Y-60.1
X123.4Y-62.64
X123.4Y-65.18
X123.4Y-67.72
X123.4Y-70.26
X123.4Y-72.8
X123.4Y-75.34
M30
