%TF.GenerationSoftware,KiCad,Pcbnew,10.0.6*%
%TF.CreationDate,2026-10-05T01:53:50+02:00*%
%TF.ProjectId,BMW-E9x-KCAN-Bidirectional,424d572d-4539-4782-9d4b-43414e2d4269,3H-A*%
%TF.SameCoordinates,Original*%
%TF.FileFunction,Soldermask,Top*%
%TF.FilePolarity,Negative*%
%FSLAX46Y46*%
G04 Gerber Fmt 4.6, Leading zero omitted, Abs format (unit mm)*
G04 Created by KiCad (PCBNEW 10.0.6) date 2026-10-05 01:53:50*
%MOMM*%
%LPD*%
G01*
G04 APERTURE LIST*
G04 Aperture macros list*
%AMRoundRect*
0 Rectangle with rounded corners*
0 $1 Rounding radius*
0 $2 $3 $4 $5 $6 $7 $8 $9 X,Y pos of 4 corners*
0 Add a 4 corners polygon primitive as box body*
4,1,4,$2,$3,$4,$5,$6,$7,$8,$9,$2,$3,0*
0 Add four circle primitives for the rounded corners*
1,1,$1+$1,$2,$3*
1,1,$1+$1,$4,$5*
1,1,$1+$1,$6,$7*
1,1,$1+$1,$8,$9*
0 Add four rect primitives between the rounded corners*
20,1,$1+$1,$2,$3,$4,$5,0*
20,1,$1+$1,$4,$5,$6,$7,0*
20,1,$1+$1,$6,$7,$8,$9,0*
20,1,$1+$1,$8,$9,$2,$3,0*%
G04 Aperture macros list end*
%ADD10RoundRect,0.250000X-0.250000X-0.475000X0.250000X-0.475000X0.250000X0.475000X-0.250000X0.475000X0*%
%ADD11RoundRect,0.087500X0.425000X0.087500X-0.425000X0.087500X-0.425000X-0.087500X0.425000X-0.087500X0*%
%ADD12RoundRect,0.250000X-0.262500X-0.450000X0.262500X-0.450000X0.262500X0.450000X-0.262500X0.450000X0*%
%ADD13C,3.200000*%
%ADD14RoundRect,0.250000X0.750000X-0.600000X0.750000X0.600000X-0.750000X0.600000X-0.750000X-0.600000X0*%
%ADD15O,2.000000X1.700000*%
%ADD16C,1.500000*%
%ADD17R,1.700000X1.700000*%
%ADD18C,1.700000*%
%ADD19RoundRect,0.250000X-0.325000X-0.650000X0.325000X-0.650000X0.325000X0.650000X-0.325000X0.650000X0*%
%ADD20RoundRect,0.150000X-0.675000X-0.150000X0.675000X-0.150000X0.675000X0.150000X-0.675000X0.150000X0*%
%ADD21R,2.650000X3.000000*%
%ADD22RoundRect,0.250000X-0.400000X-1.450000X0.400000X-1.450000X0.400000X1.450000X-0.400000X1.450000X0*%
%ADD23RoundRect,0.250000X-1.000000X-0.650000X1.000000X-0.650000X1.000000X0.650000X-1.000000X0.650000X0*%
%ADD24RoundRect,0.250000X0.725000X-0.600000X0.725000X0.600000X-0.725000X0.600000X-0.725000X-0.600000X0*%
%ADD25O,1.950000X1.700000*%
%ADD26RoundRect,0.150000X0.150000X-0.825000X0.150000X0.825000X-0.150000X0.825000X-0.150000X-0.825000X0*%
%ADD27RoundRect,0.250000X-0.312500X-0.625000X0.312500X-0.625000X0.312500X0.625000X-0.312500X0.625000X0*%
G04 APERTURE END LIST*
D10*
%TO.C,C1*%
X50050000Y-65000000D03*
X51950000Y-65000000D03*
%TD*%
D11*
%TO.C,U2*%
X84837500Y-22650000D03*
X84837500Y-22000000D03*
X84837500Y-21350000D03*
X83162500Y-21350000D03*
X83162500Y-22000000D03*
X83162500Y-22650000D03*
%TD*%
D12*
%TO.C,R12*%
X66087500Y-52000000D03*
X67912500Y-52000000D03*
%TD*%
D13*
%TO.C,MH4*%
X136000000Y-86000000D03*
%TD*%
D14*
%TO.C,J1*%
X25000000Y-73000000D03*
D15*
X25000000Y-70500000D03*
%TD*%
D10*
%TO.C,C7*%
X87050000Y-26000000D03*
X88950000Y-26000000D03*
%TD*%
D12*
%TO.C,R15*%
X38087500Y-34000000D03*
X39912500Y-34000000D03*
%TD*%
D16*
%TO.C,TP1*%
X43000000Y-84000000D03*
%TD*%
%TO.C,TP13*%
X24000000Y-19000000D03*
%TD*%
D12*
%TO.C,R8*%
X73087500Y-35000000D03*
X74912500Y-35000000D03*
%TD*%
%TO.C,R5*%
X91087500Y-48000000D03*
X92912500Y-48000000D03*
%TD*%
D13*
%TO.C,MH2*%
X136000000Y-14000000D03*
%TD*%
D16*
%TO.C,TP3*%
X91000000Y-74000000D03*
%TD*%
%TO.C,TP9*%
X65000000Y-84000000D03*
%TD*%
D10*
%TO.C,C3*%
X64050000Y-57000000D03*
X65950000Y-57000000D03*
%TD*%
D17*
%TO.C,H1*%
X98000000Y-22000000D03*
D18*
X98000000Y-24540000D03*
X98000000Y-27080000D03*
X98000000Y-29620000D03*
X98000000Y-32160000D03*
X98000000Y-34700000D03*
X98000000Y-37240000D03*
X98000000Y-39780000D03*
X98000000Y-42320000D03*
X98000000Y-44860000D03*
X98000000Y-47400000D03*
X98000000Y-49940000D03*
X98000000Y-52480000D03*
X98000000Y-55020000D03*
X98000000Y-57560000D03*
X98000000Y-60100000D03*
X98000000Y-62640000D03*
X98000000Y-65180000D03*
X98000000Y-67720000D03*
X98000000Y-70260000D03*
X98000000Y-72800000D03*
X98000000Y-75340000D03*
%TD*%
D12*
%TO.C,R6*%
X73087500Y-31000000D03*
X74912500Y-31000000D03*
%TD*%
D19*
%TO.C,C4*%
X68525000Y-61000000D03*
X71475000Y-61000000D03*
%TD*%
D10*
%TO.C,C8*%
X79050000Y-17000000D03*
X80950000Y-17000000D03*
%TD*%
D12*
%TO.C,R4*%
X88087500Y-55000000D03*
X89912500Y-55000000D03*
%TD*%
D16*
%TO.C,TP12*%
X78000000Y-25000000D03*
%TD*%
D12*
%TO.C,R11*%
X66087500Y-49000000D03*
X67912500Y-49000000D03*
%TD*%
%TO.C,R7*%
X80087500Y-31000000D03*
X81912500Y-31000000D03*
%TD*%
D20*
%TO.C,U3*%
X55375000Y-70095000D03*
X55375000Y-71365000D03*
X55375000Y-72635000D03*
X55375000Y-73905000D03*
X60625000Y-73905000D03*
X60625000Y-72635000D03*
X60625000Y-71365000D03*
X60625000Y-70095000D03*
D21*
X58000000Y-72000000D03*
%TD*%
D22*
%TO.C,F1*%
X33775000Y-73000000D03*
X38225000Y-73000000D03*
%TD*%
D10*
%TO.C,C5*%
X50050000Y-54000000D03*
X51950000Y-54000000D03*
%TD*%
D16*
%TO.C,TP7*%
X91000000Y-19000000D03*
%TD*%
D12*
%TO.C,R10*%
X66087500Y-46000000D03*
X67912500Y-46000000D03*
%TD*%
D10*
%TO.C,C6*%
X83050000Y-41000000D03*
X84950000Y-41000000D03*
%TD*%
D13*
%TO.C,MH3*%
X24000000Y-86000000D03*
%TD*%
D12*
%TO.C,R9*%
X80087500Y-35000000D03*
X81912500Y-35000000D03*
%TD*%
%TO.C,R2*%
X68087500Y-38000000D03*
X69912500Y-38000000D03*
%TD*%
D16*
%TO.C,TP5*%
X64000000Y-19000000D03*
%TD*%
D10*
%TO.C,C2*%
X64050000Y-65000000D03*
X65950000Y-65000000D03*
%TD*%
D16*
%TO.C,TP2*%
X65000000Y-74000000D03*
%TD*%
%TO.C,TP14*%
X31000000Y-19000000D03*
%TD*%
%TO.C,TP11*%
X70000000Y-25000000D03*
%TD*%
D23*
%TO.C,D1*%
X44000000Y-73000000D03*
X48000000Y-73000000D03*
%TD*%
D24*
%TO.C,J2*%
X25000000Y-29000000D03*
D25*
X25000000Y-26500000D03*
X25000000Y-24000000D03*
%TD*%
D12*
%TO.C,R13*%
X66087500Y-55000000D03*
X67912500Y-55000000D03*
%TD*%
%TO.C,R14*%
X38087500Y-28000000D03*
X39912500Y-28000000D03*
%TD*%
D17*
%TO.C,H2*%
X123400000Y-22000000D03*
D18*
X123400000Y-24540000D03*
X123400000Y-27080000D03*
X123400000Y-29620000D03*
X123400000Y-32160000D03*
X123400000Y-34700000D03*
X123400000Y-37240000D03*
X123400000Y-39780000D03*
X123400000Y-42320000D03*
X123400000Y-44860000D03*
X123400000Y-47400000D03*
X123400000Y-49940000D03*
X123400000Y-52480000D03*
X123400000Y-55020000D03*
X123400000Y-57560000D03*
X123400000Y-60100000D03*
X123400000Y-62640000D03*
X123400000Y-65180000D03*
X123400000Y-67720000D03*
X123400000Y-70260000D03*
X123400000Y-72800000D03*
X123400000Y-75340000D03*
%TD*%
D26*
%TO.C,U1*%
X52190000Y-43475000D03*
X53460000Y-43475000D03*
X54730000Y-43475000D03*
X56000000Y-43475000D03*
X57270000Y-43475000D03*
X58540000Y-43475000D03*
X59810000Y-43475000D03*
X59810000Y-38525000D03*
X58540000Y-38525000D03*
X57270000Y-38525000D03*
X56000000Y-38525000D03*
X54730000Y-38525000D03*
X53460000Y-38525000D03*
X52190000Y-38525000D03*
%TD*%
D16*
%TO.C,TP8*%
X98000000Y-84000000D03*
%TD*%
%TO.C,TP10*%
X73000000Y-84000000D03*
%TD*%
%TO.C,TP15*%
X38000000Y-19000000D03*
%TD*%
D13*
%TO.C,MH1*%
X24000000Y-14000000D03*
%TD*%
D27*
%TO.C,R1*%
X43537500Y-57000000D03*
X46462500Y-57000000D03*
%TD*%
M02*
