%TF.GenerationSoftware,KiCad,Pcbnew,10.0.6*%
%TF.CreationDate,2026-10-05T01:53:50+02:00*%
%TF.ProjectId,BMW-E9x-KCAN-Bidirectional,424d572d-4539-4782-9d4b-43414e2d4269,3H-A*%
%TF.SameCoordinates,Original*%
%TF.FileFunction,Copper,L2,Bot*%
%TF.FilePolarity,Positive*%
%FSLAX46Y46*%
G04 Gerber Fmt 4.6, Leading zero omitted, Abs format (unit mm)*
G04 Created by KiCad (PCBNEW 10.0.6) date 2026-10-05 01:53:50*
%MOMM*%
%LPD*%
G01*
G04 APERTURE LIST*
G04 Aperture macros list*
%AMRoundRect*
0 Rectangle with rounded corners*
0 $1 Rounding radius*
0 $2 $3 $4 $5 $6 $7 $8 $9 X,Y pos of 4 corners*
0 Add a 4 corners polygon primitive as box body*
4,1,4,$2,$3,$4,$5,$6,$7,$8,$9,$2,$3,0*
0 Add four circle primitives for the rounded corners*
1,1,$1+$1,$2,$3*
1,1,$1+$1,$4,$5*
1,1,$1+$1,$6,$7*
1,1,$1+$1,$8,$9*
0 Add four rect primitives between the rounded corners*
20,1,$1+$1,$2,$3,$4,$5,0*
20,1,$1+$1,$4,$5,$6,$7,0*
20,1,$1+$1,$6,$7,$8,$9,0*
20,1,$1+$1,$8,$9,$2,$3,0*%
G04 Aperture macros list end*
%TA.AperFunction,ComponentPad*%
%ADD10RoundRect,0.250000X0.750000X-0.600000X0.750000X0.600000X-0.750000X0.600000X-0.750000X-0.600000X0*%
%TD*%
%TA.AperFunction,ComponentPad*%
%ADD11O,2.000000X1.700000*%
%TD*%
%TA.AperFunction,ComponentPad*%
%ADD12R,1.700000X1.700000*%
%TD*%
%TA.AperFunction,ComponentPad*%
%ADD13C,1.700000*%
%TD*%
%TA.AperFunction,ComponentPad*%
%ADD14RoundRect,0.250000X0.725000X-0.600000X0.725000X0.600000X-0.725000X0.600000X-0.725000X-0.600000X0*%
%TD*%
%TA.AperFunction,ComponentPad*%
%ADD15O,1.950000X1.700000*%
%TD*%
%TA.AperFunction,ViaPad*%
%ADD16C,0.600000*%
%TD*%
%TA.AperFunction,Conductor*%
%ADD17C,0.200000*%
%TD*%
G04 APERTURE END LIST*
D10*
%TO.P,J1,1*%
%TO.N,BAT_INPUT*%
X25000000Y-73000000D03*
D11*
%TO.P,J1,2*%
%TO.N,GND*%
X25000000Y-70500000D03*
%TD*%
D12*
%TO.P,H1,1*%
%TO.N,3V3*%
X98000000Y-22000000D03*
D13*
%TO.P,H1,2*%
%TO.N,N/C*%
X98000000Y-24540000D03*
%TO.P,H1,3*%
%TO.N,RESET*%
X98000000Y-27080000D03*
%TO.P,H1,4*%
%TO.N,KCAN_RX_MCU*%
X98000000Y-29620000D03*
%TO.P,H1,5*%
%TO.N,KCAN_TX_MCU*%
X98000000Y-32160000D03*
%TO.P,H1,6*%
%TO.N,KCAN_STB_MCU*%
X98000000Y-34700000D03*
%TO.P,H1,7*%
%TO.N,KCAN_ERR_MCU*%
X98000000Y-37240000D03*
%TO.P,H1,8*%
%TO.N,KCAN_EN_MCU*%
X98000000Y-39780000D03*
%TO.P,H1,9*%
%TO.N,N/C*%
X98000000Y-42320000D03*
%TO.P,H1,10*%
X98000000Y-44860000D03*
%TO.P,H1,11*%
X98000000Y-47400000D03*
%TO.P,H1,12*%
X98000000Y-49940000D03*
%TO.P,H1,13*%
X98000000Y-52480000D03*
%TO.P,H1,14*%
X98000000Y-55020000D03*
%TO.P,H1,15*%
X98000000Y-57560000D03*
%TO.P,H1,16*%
X98000000Y-60100000D03*
%TO.P,H1,17*%
X98000000Y-62640000D03*
%TO.P,H1,18*%
X98000000Y-65180000D03*
%TO.P,H1,19*%
X98000000Y-67720000D03*
%TO.P,H1,20*%
X98000000Y-70260000D03*
%TO.P,H1,21*%
X98000000Y-72800000D03*
%TO.P,H1,22*%
X98000000Y-75340000D03*
%TD*%
D14*
%TO.P,J2,1*%
%TO.N,KCAN_H*%
X25000000Y-29000000D03*
D15*
%TO.P,J2,2*%
%TO.N,KCAN_L*%
X25000000Y-26500000D03*
%TO.P,J2,3*%
%TO.N,GND*%
X25000000Y-24000000D03*
%TD*%
D12*
%TO.P,H2,1*%
%TO.N,GND*%
X123400000Y-22000000D03*
D13*
%TO.P,H2,2*%
%TO.N,N/C*%
X123400000Y-24540000D03*
%TO.P,H2,3*%
X123400000Y-27080000D03*
%TO.P,H2,4*%
X123400000Y-29620000D03*
%TO.P,H2,5*%
X123400000Y-32160000D03*
%TO.P,H2,6*%
X123400000Y-34700000D03*
%TO.P,H2,7*%
X123400000Y-37240000D03*
%TO.P,H2,8*%
X123400000Y-39780000D03*
%TO.P,H2,9*%
X123400000Y-42320000D03*
%TO.P,H2,10*%
X123400000Y-44860000D03*
%TO.P,H2,11*%
X123400000Y-47400000D03*
%TO.P,H2,12*%
X123400000Y-49940000D03*
%TO.P,H2,13*%
X123400000Y-52480000D03*
%TO.P,H2,14*%
X123400000Y-55020000D03*
%TO.P,H2,15*%
X123400000Y-57560000D03*
%TO.P,H2,16*%
X123400000Y-60100000D03*
%TO.P,H2,17*%
X123400000Y-62640000D03*
%TO.P,H2,18*%
X123400000Y-65180000D03*
%TO.P,H2,19*%
X123400000Y-67720000D03*
%TO.P,H2,20*%
X123400000Y-70260000D03*
%TO.P,H2,21*%
X123400000Y-72800000D03*
%TO.P,H2,22*%
X123400000Y-75340000D03*
%TD*%
D16*
%TO.N,GND*%
X58800000Y-70000000D03*
X82000000Y-17000000D03*
X87000000Y-22500000D03*
X84053400Y-40106600D03*
X57200000Y-74000000D03*
X57200000Y-70000000D03*
X81864000Y-46437500D03*
X90000000Y-26000000D03*
X58800000Y-74000000D03*
X51978200Y-40007100D03*
%TO.N,KCAN_EN*%
X66966500Y-56510000D03*
X73012300Y-82737600D03*
%TO.N,KCAN_L*%
X31000000Y-20258300D03*
%TO.N,RTL*%
X51461700Y-34468500D03*
X55330700Y-36607800D03*
%TO.N,BAT_LOCAL*%
X43894700Y-83105300D03*
X45000000Y-56827700D03*
%TO.N,3V3*%
X86000000Y-25000000D03*
X78000000Y-17000000D03*
X91126000Y-38112600D03*
X79000000Y-21000000D03*
%TO.N,KCAN_ERR_OD*%
X75939500Y-35147600D03*
X58506100Y-41595700D03*
%TO.N,KCAN_TX_MCU*%
X90843500Y-46791300D03*
%TO.N,KCAN_TX_A*%
X88050000Y-48713000D03*
X88000000Y-20000000D03*
%TO.N,KCAN_STB*%
X64494700Y-46147400D03*
X65898100Y-47779800D03*
X66252300Y-83903500D03*
%TO.N,5V_TJA*%
X65596500Y-63770200D03*
X73000000Y-48000000D03*
X81000000Y-25000000D03*
X86000000Y-28000000D03*
X65596500Y-70143100D03*
%TO.N,RESET*%
X98383800Y-82739900D03*
%TO.N,KCAN_RXD_OD*%
X54677800Y-41066100D03*
X65178300Y-25864600D03*
%TO.N,KCAN_TXD*%
X54481000Y-41983300D03*
X61318300Y-35147600D03*
%TO.N,KCAN_STB_MCU*%
X102000000Y-34700000D03*
X66000000Y-43500000D03*
%TO.N,KCAN_EN_MCU*%
X62000000Y-84000000D03*
X62000000Y-86000000D03*
X94000000Y-84000000D03*
X64000000Y-49500000D03*
X94000000Y-86000000D03*
X96000000Y-39780000D03*
%TD*%
%TO.N,GND*%
D17*
X25000000Y-70500000D02*
X25000000Y-69348300D01*
X23699900Y-68048200D02*
X23699900Y-25300100D01*
X81864000Y-42296000D02*
X84053400Y-40106600D01*
X25000000Y-69348300D02*
X23699900Y-68048200D01*
X56925000Y-70750000D02*
X51978200Y-65803200D01*
X56925000Y-73250000D02*
X56925000Y-72000000D01*
X56925000Y-72000000D02*
X56925000Y-70750000D01*
X23699900Y-25300100D02*
X25000000Y-24000000D01*
X51978200Y-65803200D02*
X51978200Y-40007100D01*
X81864000Y-46437500D02*
X81864000Y-42296000D01*
%TO.N,KCAN_EN*%
X73012300Y-82737600D02*
X73012300Y-62555800D01*
X73012300Y-62555800D02*
X66966500Y-56510000D01*
%TO.N,KCAN_L*%
X25000000Y-26500000D02*
X25000000Y-25348300D01*
X25910000Y-25348300D02*
X31000000Y-20258300D01*
X25000000Y-25348300D02*
X25910000Y-25348300D01*
%TO.N,RTL*%
X51461700Y-34468500D02*
X53191400Y-34468500D01*
X53191400Y-34468500D02*
X55330700Y-36607800D01*
%TO.N,BAT_LOCAL*%
X45000000Y-82000000D02*
X43894700Y-83105300D01*
X45000000Y-56827700D02*
X45000000Y-82000000D01*
%TO.N,3V3*%
X86000000Y-25000000D02*
X86000000Y-18500000D01*
X79000000Y-21000000D02*
X82000000Y-18500000D01*
X98000000Y-18500000D02*
X78000000Y-18500000D01*
X78000000Y-18500000D02*
X78000000Y-17000000D01*
X91126000Y-38112600D02*
X91126000Y-29737800D01*
X98000000Y-22000000D02*
X98000000Y-23151700D01*
X98000000Y-22000000D02*
X98000000Y-18500000D01*
X97712100Y-23151700D02*
X98000000Y-23151700D01*
X91126000Y-29737800D02*
X97712100Y-23151700D01*
%TO.N,KCAN_ERR_OD*%
X58506100Y-41595700D02*
X69491400Y-41595700D01*
X69491400Y-41595700D02*
X75939500Y-35147600D01*
%TO.N,KCAN_TX_MCU*%
X90843500Y-39316500D02*
X90843500Y-46791300D01*
X98000000Y-32160000D02*
X90843500Y-39316500D01*
%TO.N,KCAN_TX_A*%
X88050000Y-48713000D02*
X88000000Y-24000000D01*
X88000000Y-24000000D02*
X88000000Y-20000000D01*
%TO.N,KCAN_STB*%
X64494700Y-46147400D02*
X64941300Y-46594000D01*
X64941300Y-47779800D02*
X64941300Y-82592500D01*
X64941300Y-46594000D02*
X64941300Y-47779800D01*
X64941300Y-47779800D02*
X65898100Y-47779800D01*
X64941300Y-82592500D02*
X66252300Y-83903500D01*
%TO.N,5V_TJA*%
X65596500Y-70143100D02*
X65596500Y-63770200D01*
X73000000Y-48000000D02*
X73000000Y-49151700D01*
X65596500Y-63770200D02*
X65596500Y-56555200D01*
X78000000Y-29000000D02*
X81000000Y-25000000D01*
X78000000Y-29000000D02*
X86000000Y-28000000D01*
X73000000Y-48000000D02*
X77000000Y-44000000D01*
X77000000Y-44000000D02*
X77000000Y-31000000D01*
X77000000Y-31000000D02*
X78000000Y-29000000D01*
X65596500Y-56555200D02*
X73000000Y-49151700D01*
%TO.N,RESET*%
X99189700Y-28269700D02*
X99189700Y-81934000D01*
X99189700Y-81934000D02*
X98383800Y-82739900D01*
X98000000Y-27080000D02*
X99189700Y-28269700D01*
%TO.N,KCAN_RXD_OD*%
X56734700Y-39009200D02*
X56734700Y-34308200D01*
X56734700Y-34308200D02*
X65178300Y-25864600D01*
X54677800Y-41066100D02*
X56734700Y-39009200D01*
%TO.N,KCAN_TXD*%
X61318300Y-35276500D02*
X61318300Y-35147600D01*
X54611500Y-41983300D02*
X61318300Y-35276500D01*
X54481000Y-41983300D02*
X54611500Y-41983300D01*
%TO.N,KCAN_STB_MCU*%
X104000000Y-36700000D02*
X104000000Y-85000000D01*
X60000000Y-85000000D02*
X60000000Y-45000000D01*
X60000000Y-45000000D02*
X66000000Y-43500000D01*
X104000000Y-85000000D02*
X60000000Y-85000000D01*
X102000000Y-34700000D02*
X104000000Y-36700000D01*
%TO.N,KCAN_EN_MCU*%
X62000000Y-84000000D02*
X62000000Y-52000000D01*
X94000000Y-42000000D02*
X94000000Y-84000000D01*
X94000000Y-88000000D02*
X62000000Y-88000000D01*
X94000000Y-86000000D02*
X94000000Y-88000000D01*
X62000000Y-88000000D02*
X62000000Y-86000000D01*
X96000000Y-39780000D02*
X94000000Y-42000000D01*
X62000000Y-52000000D02*
X64000000Y-49500000D01*
%TD*%
%TA.AperFunction,Conductor*%
%TO.N,GND*%
G36*
X139143039Y-10819685D02*
G01*
X139188794Y-10872489D01*
X139200000Y-10924000D01*
X139200000Y-89076000D01*
X139180315Y-89143039D01*
X139127511Y-89188794D01*
X139076000Y-89200000D01*
X20924000Y-89200000D01*
X20856961Y-89180315D01*
X20811206Y-89127511D01*
X20800000Y-89076000D01*
X20800000Y-85878711D01*
X22149500Y-85878711D01*
X22149500Y-86121288D01*
X22181161Y-86361785D01*
X22243947Y-86596104D01*
X22336773Y-86820205D01*
X22336776Y-86820212D01*
X22458064Y-87030289D01*
X22458066Y-87030292D01*
X22458067Y-87030293D01*
X22605733Y-87222736D01*
X22605739Y-87222743D01*
X22777256Y-87394260D01*
X22777262Y-87394265D01*
X22969711Y-87541936D01*
X23179788Y-87663224D01*
X23403900Y-87756054D01*
X23638211Y-87818838D01*
X23818586Y-87842584D01*
X23878711Y-87850500D01*
X23878712Y-87850500D01*
X24121289Y-87850500D01*
X24169388Y-87844167D01*
X24361789Y-87818838D01*
X24596100Y-87756054D01*
X24820212Y-87663224D01*
X25030289Y-87541936D01*
X25222738Y-87394265D01*
X25394265Y-87222738D01*
X25541936Y-87030289D01*
X25663224Y-86820212D01*
X25756054Y-86596100D01*
X25818838Y-86361789D01*
X25850500Y-86121288D01*
X25850500Y-85878712D01*
X25818838Y-85638211D01*
X25756054Y-85403900D01*
X25663224Y-85179788D01*
X25541936Y-84969711D01*
X25394265Y-84777262D01*
X25394260Y-84777256D01*
X25222743Y-84605739D01*
X25222736Y-84605733D01*
X25030293Y-84458067D01*
X25030292Y-84458066D01*
X25030289Y-84458064D01*
X24820212Y-84336776D01*
X24820205Y-84336773D01*
X24596104Y-84243947D01*
X24361785Y-84181161D01*
X24121289Y-84149500D01*
X24121288Y-84149500D01*
X23878712Y-84149500D01*
X23878711Y-84149500D01*
X23638214Y-84181161D01*
X23403895Y-84243947D01*
X23179794Y-84336773D01*
X23179785Y-84336777D01*
X22997851Y-84441817D01*
X22970077Y-84457853D01*
X22969706Y-84458067D01*
X22777263Y-84605733D01*
X22777256Y-84605739D01*
X22605739Y-84777256D01*
X22605733Y-84777263D01*
X22458067Y-84969706D01*
X22336777Y-85179785D01*
X22336773Y-85179794D01*
X22243947Y-85403895D01*
X22181161Y-85638214D01*
X22149500Y-85878711D01*
X20800000Y-85878711D01*
X20800000Y-83026243D01*
X43294200Y-83026243D01*
X43294200Y-83184357D01*
X43325991Y-83303000D01*
X43335123Y-83337083D01*
X43335126Y-83337090D01*
X43414175Y-83474009D01*
X43414179Y-83474014D01*
X43414180Y-83474016D01*
X43525984Y-83585820D01*
X43525986Y-83585821D01*
X43525990Y-83585824D01*
X43604741Y-83631290D01*
X43662916Y-83664877D01*
X43815643Y-83705800D01*
X43815645Y-83705800D01*
X43973755Y-83705800D01*
X43973757Y-83705800D01*
X44126484Y-83664877D01*
X44263416Y-83585820D01*
X44375220Y-83474016D01*
X44454277Y-83337084D01*
X44495200Y-83184357D01*
X44495200Y-83122555D01*
X44514885Y-83055516D01*
X44531519Y-83034874D01*
X44921167Y-82645226D01*
X45320480Y-82245913D01*
X45373207Y-82154588D01*
X45400500Y-82052727D01*
X45400500Y-81947273D01*
X45400500Y-57327798D01*
X45420185Y-57260759D01*
X45436819Y-57240117D01*
X45480520Y-57196416D01*
X45559577Y-57059484D01*
X45600500Y-56906757D01*
X45600500Y-56748643D01*
X45559577Y-56595916D01*
X45555617Y-56589057D01*
X45480524Y-56458990D01*
X45480518Y-56458982D01*
X45368717Y-56347181D01*
X45368709Y-56347175D01*
X45231790Y-56268126D01*
X45231786Y-56268124D01*
X45231784Y-56268123D01*
X45079057Y-56227200D01*
X44920943Y-56227200D01*
X44768216Y-56268123D01*
X44768209Y-56268126D01*
X44631290Y-56347175D01*
X44631282Y-56347181D01*
X44519481Y-56458982D01*
X44519475Y-56458990D01*
X44440426Y-56595909D01*
X44440423Y-56595916D01*
X44399500Y-56748643D01*
X44399500Y-56906757D01*
X44421946Y-56990524D01*
X44440423Y-57059483D01*
X44440426Y-57059490D01*
X44519475Y-57196409D01*
X44519481Y-57196417D01*
X44563181Y-57240117D01*
X44596666Y-57301440D01*
X44599500Y-57327798D01*
X44599500Y-81782745D01*
X44579815Y-81849784D01*
X44563181Y-81870426D01*
X43965126Y-82468481D01*
X43903803Y-82501966D01*
X43877445Y-82504800D01*
X43815643Y-82504800D01*
X43662916Y-82545723D01*
X43662909Y-82545726D01*
X43525990Y-82624775D01*
X43525982Y-82624781D01*
X43414181Y-82736582D01*
X43414175Y-82736590D01*
X43335126Y-82873509D01*
X43335123Y-82873516D01*
X43294200Y-83026243D01*
X20800000Y-83026243D01*
X20800000Y-70250000D01*
X23522769Y-70250000D01*
X24566988Y-70250000D01*
X24534075Y-70307007D01*
X24500000Y-70434174D01*
X24500000Y-70565826D01*
X24534075Y-70692993D01*
X24566988Y-70750000D01*
X23522769Y-70750000D01*
X23533242Y-70816126D01*
X23533242Y-70816129D01*
X23598904Y-71018217D01*
X23695379Y-71207557D01*
X23820272Y-71379459D01*
X23820276Y-71379464D01*
X23970535Y-71529723D01*
X23970540Y-71529727D01*
X24134560Y-71648894D01*
X24177226Y-71704223D01*
X24183205Y-71773837D01*
X24150600Y-71835632D01*
X24107166Y-71864566D01*
X23977658Y-71915638D01*
X23857077Y-72007077D01*
X23765639Y-72127656D01*
X23710122Y-72268438D01*
X23704188Y-72317853D01*
X23699500Y-72356898D01*
X23699500Y-73643102D01*
X23703637Y-73677553D01*
X23710122Y-73731561D01*
X23765639Y-73872343D01*
X23857077Y-73992922D01*
X23977656Y-74084360D01*
X23977657Y-74084360D01*
X23977658Y-74084361D01*
X24118436Y-74139877D01*
X24206898Y-74150500D01*
X24206903Y-74150500D01*
X25793097Y-74150500D01*
X25793102Y-74150500D01*
X25881564Y-74139877D01*
X26022342Y-74084361D01*
X26142922Y-73992922D01*
X26234361Y-73872342D01*
X26289877Y-73731564D01*
X26300500Y-73643102D01*
X26300500Y-72356898D01*
X26289877Y-72268436D01*
X26234361Y-72127658D01*
X26234360Y-72127657D01*
X26234360Y-72127656D01*
X26142922Y-72007077D01*
X26022341Y-71915638D01*
X25892833Y-71864566D01*
X25837690Y-71821660D01*
X25814497Y-71755752D01*
X25830618Y-71687768D01*
X25865439Y-71648893D01*
X26029466Y-71529721D01*
X26179723Y-71379464D01*
X26179727Y-71379459D01*
X26304620Y-71207557D01*
X26401095Y-71018217D01*
X26466757Y-70816129D01*
X26466757Y-70816126D01*
X26477231Y-70750000D01*
X25433012Y-70750000D01*
X25465925Y-70692993D01*
X25500000Y-70565826D01*
X25500000Y-70434174D01*
X25465925Y-70307007D01*
X25433012Y-70250000D01*
X26477231Y-70250000D01*
X26466757Y-70183873D01*
X26466757Y-70183870D01*
X26401095Y-69981782D01*
X26304620Y-69792442D01*
X26179727Y-69620540D01*
X26179723Y-69620535D01*
X26029464Y-69470276D01*
X26029459Y-69470272D01*
X25857557Y-69345379D01*
X25668217Y-69248904D01*
X25466129Y-69183242D01*
X25256246Y-69150000D01*
X25250000Y-69150000D01*
X25250000Y-70066988D01*
X25192993Y-70034075D01*
X25065826Y-70000000D01*
X24934174Y-70000000D01*
X24807007Y-70034075D01*
X24750000Y-70066988D01*
X24750000Y-69150000D01*
X24743754Y-69150000D01*
X24533872Y-69183242D01*
X24533869Y-69183242D01*
X24331782Y-69248904D01*
X24142442Y-69345379D01*
X23970540Y-69470272D01*
X23970535Y-69470276D01*
X23820276Y-69620535D01*
X23820272Y-69620540D01*
X23695379Y-69792442D01*
X23598904Y-69981782D01*
X23533242Y-70183870D01*
X23533242Y-70183873D01*
X23522769Y-70250000D01*
X20800000Y-70250000D01*
X20800000Y-41904243D01*
X53880500Y-41904243D01*
X53880500Y-42062357D01*
X53886846Y-42086038D01*
X53921423Y-42215083D01*
X53921426Y-42215090D01*
X54000475Y-42352009D01*
X54000479Y-42352014D01*
X54000480Y-42352016D01*
X54112284Y-42463820D01*
X54112286Y-42463821D01*
X54112290Y-42463824D01*
X54249209Y-42542873D01*
X54249216Y-42542877D01*
X54401943Y-42583800D01*
X54401945Y-42583800D01*
X54560055Y-42583800D01*
X54560057Y-42583800D01*
X54712784Y-42542877D01*
X54849716Y-42463820D01*
X54961520Y-42352016D01*
X55040577Y-42215084D01*
X55066555Y-42118128D01*
X55098646Y-42062545D01*
X55644548Y-41516643D01*
X57905600Y-41516643D01*
X57905600Y-41674757D01*
X57940744Y-41805914D01*
X57946523Y-41827483D01*
X57946526Y-41827490D01*
X58025575Y-41964409D01*
X58025579Y-41964414D01*
X58025580Y-41964416D01*
X58137384Y-42076220D01*
X58137386Y-42076221D01*
X58137390Y-42076224D01*
X58271758Y-42153800D01*
X58274316Y-42155277D01*
X58427043Y-42196200D01*
X58427045Y-42196200D01*
X58585155Y-42196200D01*
X58585157Y-42196200D01*
X58737884Y-42155277D01*
X58874816Y-42076220D01*
X58918517Y-42032519D01*
X58979840Y-41999034D01*
X59006198Y-41996200D01*
X69544125Y-41996200D01*
X69544127Y-41996200D01*
X69645988Y-41968907D01*
X69737313Y-41916180D01*
X75869074Y-35784419D01*
X75930397Y-35750934D01*
X75956755Y-35748100D01*
X76018555Y-35748100D01*
X76018557Y-35748100D01*
X76171284Y-35707177D01*
X76308216Y-35628120D01*
X76387819Y-35548517D01*
X76449142Y-35515032D01*
X76518834Y-35520016D01*
X76574767Y-35561888D01*
X76599184Y-35627352D01*
X76599500Y-35636198D01*
X76599500Y-43782745D01*
X76579815Y-43849784D01*
X76563181Y-43870426D01*
X73070426Y-47363181D01*
X73009103Y-47396666D01*
X72982745Y-47399500D01*
X72920943Y-47399500D01*
X72768216Y-47440423D01*
X72768209Y-47440426D01*
X72631290Y-47519475D01*
X72631282Y-47519481D01*
X72519481Y-47631282D01*
X72519475Y-47631290D01*
X72440426Y-47768209D01*
X72440423Y-47768216D01*
X72399500Y-47920943D01*
X72399500Y-48079057D01*
X72435160Y-48212140D01*
X72440423Y-48231783D01*
X72440426Y-48231790D01*
X72519475Y-48368709D01*
X72519481Y-48368717D01*
X72563181Y-48412417D01*
X72596666Y-48473740D01*
X72599500Y-48500098D01*
X72599500Y-48934445D01*
X72579815Y-49001484D01*
X72563181Y-49022126D01*
X65553481Y-56031826D01*
X65492158Y-56065311D01*
X65422466Y-56060327D01*
X65366533Y-56018455D01*
X65342116Y-55952991D01*
X65341800Y-55944145D01*
X65341800Y-48366792D01*
X65361485Y-48299753D01*
X65414289Y-48253998D01*
X65483447Y-48244054D01*
X65527800Y-48259405D01*
X65529382Y-48260318D01*
X65529384Y-48260320D01*
X65666316Y-48339377D01*
X65819043Y-48380300D01*
X65819045Y-48380300D01*
X65977155Y-48380300D01*
X65977157Y-48380300D01*
X66129884Y-48339377D01*
X66266816Y-48260320D01*
X66378620Y-48148516D01*
X66457677Y-48011584D01*
X66498600Y-47858857D01*
X66498600Y-47700743D01*
X66457677Y-47548016D01*
X66457673Y-47548009D01*
X66378624Y-47411090D01*
X66378618Y-47411082D01*
X66266817Y-47299281D01*
X66266809Y-47299275D01*
X66129890Y-47220226D01*
X66129886Y-47220224D01*
X66129884Y-47220223D01*
X65977157Y-47179300D01*
X65819043Y-47179300D01*
X65666316Y-47220223D01*
X65666315Y-47220223D01*
X65527799Y-47300195D01*
X65459899Y-47316667D01*
X65393872Y-47293814D01*
X65350682Y-47238892D01*
X65341800Y-47192807D01*
X65341800Y-46541275D01*
X65341800Y-46541273D01*
X65314507Y-46439413D01*
X65314507Y-46439412D01*
X65300992Y-46416004D01*
X65275299Y-46371502D01*
X65275298Y-46371501D01*
X65261780Y-46348087D01*
X65187213Y-46273520D01*
X65187212Y-46273519D01*
X65182882Y-46269189D01*
X65182882Y-46269188D01*
X65182876Y-46269183D01*
X65131518Y-46217824D01*
X65098034Y-46156501D01*
X65095200Y-46130144D01*
X65095200Y-46068345D01*
X65095200Y-46068343D01*
X65054277Y-45915616D01*
X65046517Y-45902175D01*
X64975224Y-45778690D01*
X64975218Y-45778682D01*
X64863417Y-45666881D01*
X64863409Y-45666875D01*
X64726490Y-45587826D01*
X64726486Y-45587824D01*
X64726484Y-45587823D01*
X64573757Y-45546900D01*
X64415643Y-45546900D01*
X64262916Y-45587823D01*
X64262909Y-45587826D01*
X64125990Y-45666875D01*
X64125982Y-45666881D01*
X64014181Y-45778682D01*
X64014175Y-45778690D01*
X63935126Y-45915609D01*
X63935123Y-45915616D01*
X63894200Y-46068343D01*
X63894200Y-46226457D01*
X63935043Y-46378883D01*
X63935123Y-46379183D01*
X63935126Y-46379190D01*
X64014175Y-46516109D01*
X64014179Y-46516114D01*
X64014180Y-46516116D01*
X64125984Y-46627920D01*
X64125986Y-46627921D01*
X64125990Y-46627924D01*
X64262909Y-46706973D01*
X64262916Y-46706977D01*
X64415643Y-46747900D01*
X64416800Y-46747900D01*
X64417738Y-46748175D01*
X64423703Y-46748961D01*
X64423580Y-46749891D01*
X64483839Y-46767585D01*
X64529594Y-46820389D01*
X64540800Y-46871900D01*
X64540800Y-48904058D01*
X64521115Y-48971097D01*
X64468311Y-49016852D01*
X64399153Y-49026796D01*
X64354801Y-49011446D01*
X64231784Y-48940423D01*
X64209474Y-48934445D01*
X64079057Y-48899500D01*
X63920943Y-48899500D01*
X63768216Y-48940423D01*
X63768209Y-48940426D01*
X63631290Y-49019475D01*
X63631282Y-49019481D01*
X63519481Y-49131282D01*
X63519475Y-49131290D01*
X63440426Y-49268209D01*
X63440423Y-49268216D01*
X63399500Y-49420943D01*
X63399500Y-49566013D01*
X63379815Y-49633052D01*
X63372328Y-49643475D01*
X61705410Y-51727123D01*
X61696267Y-51737338D01*
X61679521Y-51754084D01*
X61679517Y-51754090D01*
X61673003Y-51765372D01*
X61662453Y-51780820D01*
X61654326Y-51790980D01*
X61654322Y-51790985D01*
X61644822Y-51812668D01*
X61638636Y-51824899D01*
X61626792Y-51845414D01*
X61626791Y-51845414D01*
X61623421Y-51857993D01*
X61617227Y-51875651D01*
X61612006Y-51887568D01*
X61612003Y-51887577D01*
X61608439Y-51910980D01*
X61605628Y-51924400D01*
X61599500Y-51947267D01*
X61599500Y-51960290D01*
X61598086Y-51978960D01*
X61596127Y-51991818D01*
X61596127Y-51991826D01*
X61598742Y-52015360D01*
X61599500Y-52029052D01*
X61599500Y-83499902D01*
X61579815Y-83566941D01*
X61563181Y-83587583D01*
X61519481Y-83631282D01*
X61519475Y-83631290D01*
X61440426Y-83768209D01*
X61440423Y-83768216D01*
X61399500Y-83920943D01*
X61399500Y-84079056D01*
X61440423Y-84231783D01*
X61440426Y-84231790D01*
X61519475Y-84368709D01*
X61519481Y-84368717D01*
X61538583Y-84387819D01*
X61572068Y-84449142D01*
X61567084Y-84518834D01*
X61525212Y-84574767D01*
X61459748Y-84599184D01*
X61450902Y-84599500D01*
X60524500Y-84599500D01*
X60457461Y-84579815D01*
X60411706Y-84527011D01*
X60400500Y-84475500D01*
X60400500Y-45409516D01*
X60420185Y-45342477D01*
X60472989Y-45296722D01*
X60494420Y-45289219D01*
X65612233Y-44009767D01*
X65682043Y-44012605D01*
X65704302Y-44022676D01*
X65768216Y-44059577D01*
X65920943Y-44100500D01*
X65920945Y-44100500D01*
X66079055Y-44100500D01*
X66079057Y-44100500D01*
X66231784Y-44059577D01*
X66368716Y-43980520D01*
X66480520Y-43868716D01*
X66559577Y-43731784D01*
X66600500Y-43579057D01*
X66600500Y-43420943D01*
X66559577Y-43268216D01*
X66539177Y-43232881D01*
X66480524Y-43131290D01*
X66480518Y-43131282D01*
X66368717Y-43019481D01*
X66368709Y-43019475D01*
X66231790Y-42940426D01*
X66231786Y-42940424D01*
X66231784Y-42940423D01*
X66079057Y-42899500D01*
X65920943Y-42899500D01*
X65768216Y-42940423D01*
X65768209Y-42940426D01*
X65631290Y-43019475D01*
X65631282Y-43019481D01*
X65519482Y-43131281D01*
X65519478Y-43131287D01*
X65494479Y-43174585D01*
X65443911Y-43222800D01*
X65417167Y-43232881D01*
X59961372Y-44596830D01*
X59947494Y-44599470D01*
X59947276Y-44599498D01*
X59900561Y-44612014D01*
X59898550Y-44612535D01*
X59851706Y-44624247D01*
X59851469Y-44624341D01*
X59850786Y-44624566D01*
X59849526Y-44625089D01*
X59847583Y-44625874D01*
X59846302Y-44626379D01*
X59845643Y-44626697D01*
X59845418Y-44626790D01*
X59803582Y-44650943D01*
X59801773Y-44651966D01*
X59759510Y-44675429D01*
X59759325Y-44675567D01*
X59758713Y-44675968D01*
X59757565Y-44676850D01*
X59755917Y-44678093D01*
X59754818Y-44678906D01*
X59754282Y-44679369D01*
X59754087Y-44679518D01*
X59719934Y-44713671D01*
X59718450Y-44715131D01*
X59683698Y-44748733D01*
X59683547Y-44748925D01*
X59683060Y-44749470D01*
X59682207Y-44750583D01*
X59680949Y-44752195D01*
X59680083Y-44753284D01*
X59679679Y-44753878D01*
X59679523Y-44754080D01*
X59655375Y-44795905D01*
X59654320Y-44797697D01*
X59629448Y-44839152D01*
X59629352Y-44839375D01*
X59629015Y-44840044D01*
X59628473Y-44841353D01*
X59627669Y-44843249D01*
X59627122Y-44844509D01*
X59626886Y-44845185D01*
X59626793Y-44845409D01*
X59614302Y-44892025D01*
X59613747Y-44894030D01*
X59600442Y-44940545D01*
X59600407Y-44940782D01*
X59600260Y-44941490D01*
X59600083Y-44942835D01*
X59599796Y-44944885D01*
X59599584Y-44946305D01*
X59599530Y-44947040D01*
X59599500Y-44947268D01*
X59599500Y-44995608D01*
X59599482Y-44997694D01*
X59598669Y-45045982D01*
X59598694Y-45046195D01*
X59599500Y-45060308D01*
X59599500Y-84947273D01*
X59599500Y-85052727D01*
X59626793Y-85154587D01*
X59679520Y-85245913D01*
X59754087Y-85320480D01*
X59845413Y-85373207D01*
X59947273Y-85400500D01*
X61450902Y-85400500D01*
X61517941Y-85420185D01*
X61563696Y-85472989D01*
X61573640Y-85542147D01*
X61544615Y-85605703D01*
X61538583Y-85612181D01*
X61519481Y-85631282D01*
X61519475Y-85631290D01*
X61440426Y-85768209D01*
X61440423Y-85768216D01*
X61399500Y-85920943D01*
X61399500Y-86079056D01*
X61440423Y-86231783D01*
X61440426Y-86231790D01*
X61519475Y-86368709D01*
X61519481Y-86368717D01*
X61563181Y-86412417D01*
X61596666Y-86473740D01*
X61599500Y-86500098D01*
X61599500Y-88052727D01*
X61626793Y-88154587D01*
X61679520Y-88245913D01*
X61754087Y-88320480D01*
X61845413Y-88373207D01*
X61947273Y-88400500D01*
X61947275Y-88400500D01*
X94052725Y-88400500D01*
X94052727Y-88400500D01*
X94154587Y-88373207D01*
X94245913Y-88320480D01*
X94320480Y-88245913D01*
X94373207Y-88154587D01*
X94400500Y-88052727D01*
X94400500Y-86500098D01*
X94420185Y-86433059D01*
X94436819Y-86412417D01*
X94480520Y-86368716D01*
X94559577Y-86231784D01*
X94600500Y-86079057D01*
X94600500Y-85920943D01*
X94600499Y-85920938D01*
X94596699Y-85906755D01*
X94596696Y-85906747D01*
X94589184Y-85878711D01*
X134149500Y-85878711D01*
X134149500Y-86121288D01*
X134181161Y-86361785D01*
X134243947Y-86596104D01*
X134336773Y-86820205D01*
X134336776Y-86820212D01*
X134458064Y-87030289D01*
X134458066Y-87030292D01*
X134458067Y-87030293D01*
X134605733Y-87222736D01*
X134605739Y-87222743D01*
X134777256Y-87394260D01*
X134777262Y-87394265D01*
X134969711Y-87541936D01*
X135179788Y-87663224D01*
X135403900Y-87756054D01*
X135638211Y-87818838D01*
X135818586Y-87842584D01*
X135878711Y-87850500D01*
X135878712Y-87850500D01*
X136121289Y-87850500D01*
X136169388Y-87844167D01*
X136361789Y-87818838D01*
X136596100Y-87756054D01*
X136820212Y-87663224D01*
X137030289Y-87541936D01*
X137222738Y-87394265D01*
X137394265Y-87222738D01*
X137541936Y-87030289D01*
X137663224Y-86820212D01*
X137756054Y-86596100D01*
X137818838Y-86361789D01*
X137850500Y-86121288D01*
X137850500Y-85878712D01*
X137818838Y-85638211D01*
X137756054Y-85403900D01*
X137663224Y-85179788D01*
X137541936Y-84969711D01*
X137394265Y-84777262D01*
X137394260Y-84777256D01*
X137222743Y-84605739D01*
X137222736Y-84605733D01*
X137030293Y-84458067D01*
X137030292Y-84458066D01*
X137030289Y-84458064D01*
X136820212Y-84336776D01*
X136820205Y-84336773D01*
X136596104Y-84243947D01*
X136361785Y-84181161D01*
X136121289Y-84149500D01*
X136121288Y-84149500D01*
X135878712Y-84149500D01*
X135878711Y-84149500D01*
X135638214Y-84181161D01*
X135403895Y-84243947D01*
X135179794Y-84336773D01*
X135179785Y-84336777D01*
X134997851Y-84441817D01*
X134970077Y-84457853D01*
X134969706Y-84458067D01*
X134777263Y-84605733D01*
X134777256Y-84605739D01*
X134605739Y-84777256D01*
X134605733Y-84777263D01*
X134458067Y-84969706D01*
X134336777Y-85179785D01*
X134336773Y-85179794D01*
X134243947Y-85403895D01*
X134181161Y-85638214D01*
X134149500Y-85878711D01*
X94589184Y-85878711D01*
X94559576Y-85768214D01*
X94559573Y-85768209D01*
X94480524Y-85631290D01*
X94480518Y-85631282D01*
X94461417Y-85612181D01*
X94427932Y-85550858D01*
X94432916Y-85481166D01*
X94474788Y-85425233D01*
X94540252Y-85400816D01*
X94549098Y-85400500D01*
X104052725Y-85400500D01*
X104052727Y-85400500D01*
X104154587Y-85373207D01*
X104245913Y-85320480D01*
X104320480Y-85245913D01*
X104373207Y-85154587D01*
X104400500Y-85052727D01*
X104400500Y-36647273D01*
X104392713Y-36618211D01*
X104373207Y-36545412D01*
X104320480Y-36454087D01*
X102636819Y-34770426D01*
X102603334Y-34709103D01*
X102600500Y-34682745D01*
X102600500Y-34620945D01*
X102600500Y-34620943D01*
X102559577Y-34468216D01*
X102559573Y-34468209D01*
X102480524Y-34331290D01*
X102480518Y-34331282D01*
X102368717Y-34219481D01*
X102368709Y-34219475D01*
X102231790Y-34140426D01*
X102231786Y-34140424D01*
X102231784Y-34140423D01*
X102079057Y-34099500D01*
X101920943Y-34099500D01*
X101768216Y-34140423D01*
X101768209Y-34140426D01*
X101631290Y-34219475D01*
X101631282Y-34219481D01*
X101519481Y-34331282D01*
X101519475Y-34331290D01*
X101440426Y-34468209D01*
X101440423Y-34468216D01*
X101399500Y-34620943D01*
X101399500Y-34779057D01*
X101436145Y-34915816D01*
X101440423Y-34931783D01*
X101440426Y-34931790D01*
X101519475Y-35068709D01*
X101519479Y-35068714D01*
X101519480Y-35068716D01*
X101631284Y-35180520D01*
X101631286Y-35180521D01*
X101631290Y-35180524D01*
X101725640Y-35234996D01*
X101768216Y-35259577D01*
X101920943Y-35300500D01*
X101982745Y-35300500D01*
X102049784Y-35320185D01*
X102070426Y-35336819D01*
X103563181Y-36829574D01*
X103596666Y-36890897D01*
X103599500Y-36917255D01*
X103599500Y-84475500D01*
X103579815Y-84542539D01*
X103527011Y-84588294D01*
X103475500Y-84599500D01*
X94549098Y-84599500D01*
X94482059Y-84579815D01*
X94436304Y-84527011D01*
X94426360Y-84457853D01*
X94455385Y-84394297D01*
X94461417Y-84387819D01*
X94465216Y-84384020D01*
X94480520Y-84368716D01*
X94559577Y-84231784D01*
X94600500Y-84079057D01*
X94600500Y-83920943D01*
X94559577Y-83768216D01*
X94559573Y-83768209D01*
X94480524Y-83631290D01*
X94480518Y-83631282D01*
X94436819Y-83587583D01*
X94403334Y-83526260D01*
X94400500Y-83499902D01*
X94400500Y-42201417D01*
X94420185Y-42134378D01*
X94432368Y-42118426D01*
X95961128Y-40421502D01*
X96020625Y-40384870D01*
X96053255Y-40380500D01*
X96079055Y-40380500D01*
X96079057Y-40380500D01*
X96231784Y-40339577D01*
X96368716Y-40260520D01*
X96480520Y-40148716D01*
X96559577Y-40011784D01*
X96600500Y-39859057D01*
X96600500Y-39700943D01*
X96559577Y-39548216D01*
X96559573Y-39548209D01*
X96480524Y-39411290D01*
X96480518Y-39411282D01*
X96368717Y-39299481D01*
X96368709Y-39299475D01*
X96231790Y-39220426D01*
X96231786Y-39220424D01*
X96231784Y-39220423D01*
X96079057Y-39179500D01*
X95920943Y-39179500D01*
X95768216Y-39220423D01*
X95768209Y-39220426D01*
X95631290Y-39299475D01*
X95631282Y-39299481D01*
X95519481Y-39411282D01*
X95519475Y-39411290D01*
X95440426Y-39548209D01*
X95440423Y-39548216D01*
X95399500Y-39700943D01*
X95399500Y-39800581D01*
X95379815Y-39867620D01*
X95367631Y-39883572D01*
X94095416Y-41295732D01*
X93711605Y-41721762D01*
X93707162Y-41726443D01*
X93679519Y-41754086D01*
X93674577Y-41760529D01*
X93674540Y-41760501D01*
X93671717Y-41764384D01*
X93671756Y-41764411D01*
X93667149Y-41771109D01*
X93649402Y-41805914D01*
X93646324Y-41811581D01*
X93626794Y-41845409D01*
X93623682Y-41852923D01*
X93623640Y-41852905D01*
X93621923Y-41857376D01*
X93621966Y-41857391D01*
X93619250Y-41865053D01*
X93611115Y-41903269D01*
X93609609Y-41909537D01*
X93599501Y-41947266D01*
X93598440Y-41955329D01*
X93598392Y-41955322D01*
X93597890Y-41960093D01*
X93597938Y-41960097D01*
X93597298Y-41968196D01*
X93599332Y-42007213D01*
X93599500Y-42013668D01*
X93599500Y-83499902D01*
X93579815Y-83566941D01*
X93563181Y-83587583D01*
X93519481Y-83631282D01*
X93519475Y-83631290D01*
X93440426Y-83768209D01*
X93440423Y-83768216D01*
X93399500Y-83920943D01*
X93399500Y-84079056D01*
X93440423Y-84231783D01*
X93440426Y-84231790D01*
X93519475Y-84368709D01*
X93519481Y-84368717D01*
X93538583Y-84387819D01*
X93572068Y-84449142D01*
X93567084Y-84518834D01*
X93525212Y-84574767D01*
X93459748Y-84599184D01*
X93450902Y-84599500D01*
X66704898Y-84599500D01*
X66637859Y-84579815D01*
X66592104Y-84527011D01*
X66582160Y-84457853D01*
X66611185Y-84394297D01*
X66617217Y-84387819D01*
X66668263Y-84336773D01*
X66732820Y-84272216D01*
X66811877Y-84135284D01*
X66852800Y-83982557D01*
X66852800Y-83824443D01*
X66811877Y-83671716D01*
X66788533Y-83631282D01*
X66732824Y-83534790D01*
X66732818Y-83534782D01*
X66621017Y-83422981D01*
X66621009Y-83422975D01*
X66484090Y-83343926D01*
X66484086Y-83343924D01*
X66484084Y-83343923D01*
X66331357Y-83303000D01*
X66331356Y-83303000D01*
X66269555Y-83303000D01*
X66202516Y-83283315D01*
X66181874Y-83266681D01*
X65378119Y-82462926D01*
X65344634Y-82401603D01*
X65341800Y-82375245D01*
X65341800Y-70858136D01*
X65361485Y-70791097D01*
X65414289Y-70745342D01*
X65483447Y-70735398D01*
X65497880Y-70738358D01*
X65517443Y-70743600D01*
X65517446Y-70743600D01*
X65675555Y-70743600D01*
X65675557Y-70743600D01*
X65828284Y-70702677D01*
X65965216Y-70623620D01*
X66077020Y-70511816D01*
X66156077Y-70374884D01*
X66197000Y-70222157D01*
X66197000Y-70064043D01*
X66156077Y-69911316D01*
X66102410Y-69818361D01*
X66077024Y-69774390D01*
X66077018Y-69774382D01*
X66033319Y-69730683D01*
X65999834Y-69669360D01*
X65997000Y-69643002D01*
X65997000Y-64270298D01*
X66016685Y-64203259D01*
X66033319Y-64182617D01*
X66077020Y-64138916D01*
X66156077Y-64001984D01*
X66197000Y-63849257D01*
X66197000Y-63691143D01*
X66156077Y-63538416D01*
X66144035Y-63517558D01*
X66077024Y-63401490D01*
X66077018Y-63401482D01*
X66033319Y-63357783D01*
X65999834Y-63296460D01*
X65997000Y-63270102D01*
X65997000Y-56772454D01*
X66016685Y-56705415D01*
X66033315Y-56684777D01*
X66164056Y-56554036D01*
X66225378Y-56520552D01*
X66295070Y-56525536D01*
X66351003Y-56567408D01*
X66371511Y-56609624D01*
X66406923Y-56741785D01*
X66406926Y-56741790D01*
X66485975Y-56878709D01*
X66485979Y-56878714D01*
X66485980Y-56878716D01*
X66597784Y-56990520D01*
X66597786Y-56990521D01*
X66597790Y-56990524D01*
X66734709Y-57069573D01*
X66734716Y-57069577D01*
X66887443Y-57110500D01*
X66949245Y-57110500D01*
X67016284Y-57130185D01*
X67036926Y-57146819D01*
X72575481Y-62685374D01*
X72608966Y-62746697D01*
X72611800Y-62773055D01*
X72611800Y-82237502D01*
X72592115Y-82304541D01*
X72575481Y-82325183D01*
X72531781Y-82368882D01*
X72531775Y-82368890D01*
X72452726Y-82505809D01*
X72452723Y-82505816D01*
X72411800Y-82658543D01*
X72411800Y-82816657D01*
X72427036Y-82873516D01*
X72452723Y-82969383D01*
X72452726Y-82969390D01*
X72531775Y-83106309D01*
X72531779Y-83106314D01*
X72531780Y-83106316D01*
X72643584Y-83218120D01*
X72643586Y-83218121D01*
X72643590Y-83218124D01*
X72756506Y-83283315D01*
X72780516Y-83297177D01*
X72933243Y-83338100D01*
X72933245Y-83338100D01*
X73091355Y-83338100D01*
X73091357Y-83338100D01*
X73244084Y-83297177D01*
X73381016Y-83218120D01*
X73492820Y-83106316D01*
X73571877Y-82969384D01*
X73612800Y-82816657D01*
X73612800Y-82658543D01*
X73571877Y-82505816D01*
X73526146Y-82426607D01*
X73492824Y-82368890D01*
X73492818Y-82368882D01*
X73449119Y-82325183D01*
X73415634Y-82263860D01*
X73412800Y-82237502D01*
X73412800Y-62503075D01*
X73412800Y-62503073D01*
X73385507Y-62401213D01*
X73332780Y-62309887D01*
X73258213Y-62235320D01*
X67603319Y-56580426D01*
X67569834Y-56519103D01*
X67567000Y-56492745D01*
X67567000Y-56430945D01*
X67567000Y-56430943D01*
X67526077Y-56278216D01*
X67463888Y-56170500D01*
X67447024Y-56141290D01*
X67447018Y-56141282D01*
X67335217Y-56029481D01*
X67335209Y-56029475D01*
X67198290Y-55950426D01*
X67198285Y-55950423D01*
X67142528Y-55935483D01*
X67066121Y-55915010D01*
X67006463Y-55878646D01*
X66975934Y-55815799D01*
X66984229Y-55746423D01*
X67010533Y-55707558D01*
X73320480Y-49397613D01*
X73373207Y-49306288D01*
X73400500Y-49204427D01*
X73400500Y-49098973D01*
X73400500Y-48500098D01*
X73420185Y-48433059D01*
X73436819Y-48412417D01*
X73480520Y-48368716D01*
X73559577Y-48231784D01*
X73600500Y-48079057D01*
X73600500Y-48017255D01*
X73620185Y-47950216D01*
X73636819Y-47929574D01*
X75473023Y-46093370D01*
X77320480Y-44245913D01*
X77373207Y-44154588D01*
X77400500Y-44052727D01*
X77400500Y-43947273D01*
X77400500Y-31123816D01*
X77413591Y-31068362D01*
X78232684Y-29430174D01*
X78280269Y-29379018D01*
X78328207Y-29362590D01*
X85546257Y-28460333D01*
X85615218Y-28471550D01*
X85623973Y-28476927D01*
X85624245Y-28476457D01*
X85758187Y-28553787D01*
X85768216Y-28559577D01*
X85920943Y-28600500D01*
X85920945Y-28600500D01*
X86079055Y-28600500D01*
X86079057Y-28600500D01*
X86231784Y-28559577D01*
X86368716Y-28480520D01*
X86480520Y-28368716D01*
X86559577Y-28231784D01*
X86600500Y-28079057D01*
X86600500Y-27920943D01*
X86559577Y-27768216D01*
X86524727Y-27707853D01*
X86480524Y-27631290D01*
X86480518Y-27631282D01*
X86368717Y-27519481D01*
X86368709Y-27519475D01*
X86231790Y-27440426D01*
X86231786Y-27440424D01*
X86231784Y-27440423D01*
X86079057Y-27399500D01*
X85920943Y-27399500D01*
X85768216Y-27440423D01*
X85768209Y-27440426D01*
X85631290Y-27519475D01*
X85631282Y-27519481D01*
X85520803Y-27629959D01*
X85459480Y-27663443D01*
X85448503Y-27665319D01*
X79176274Y-28449348D01*
X79107311Y-28438131D01*
X79055360Y-28391410D01*
X79036915Y-28324019D01*
X79057833Y-28257354D01*
X79061676Y-28251931D01*
X81017293Y-25644441D01*
X81073263Y-25602622D01*
X81084386Y-25599071D01*
X81231784Y-25559577D01*
X81368716Y-25480520D01*
X81480520Y-25368716D01*
X81559577Y-25231784D01*
X81600500Y-25079057D01*
X81600500Y-24920943D01*
X81559577Y-24768216D01*
X81537503Y-24729982D01*
X81480524Y-24631290D01*
X81480518Y-24631282D01*
X81368717Y-24519481D01*
X81368709Y-24519475D01*
X81231790Y-24440426D01*
X81231786Y-24440424D01*
X81231784Y-24440423D01*
X81079057Y-24399500D01*
X80920943Y-24399500D01*
X80768216Y-24440423D01*
X80768209Y-24440426D01*
X80631290Y-24519475D01*
X80631282Y-24519481D01*
X80519481Y-24631282D01*
X80519475Y-24631290D01*
X80440426Y-24768209D01*
X80440423Y-24768216D01*
X80399500Y-24920943D01*
X80399500Y-25087184D01*
X80397055Y-25087184D01*
X80388186Y-25144003D01*
X80375220Y-25165538D01*
X77692505Y-28742492D01*
X77686084Y-28750361D01*
X77665360Y-28773731D01*
X77665004Y-28774445D01*
X77651982Y-28795108D01*
X77651486Y-28795744D01*
X77651160Y-28796302D01*
X77650785Y-28796866D01*
X77650255Y-28797809D01*
X77649173Y-28799692D01*
X77648588Y-28800688D01*
X77648276Y-28801325D01*
X77647965Y-28801877D01*
X77636330Y-28830862D01*
X77632165Y-28840122D01*
X76648820Y-30806812D01*
X76645300Y-30813354D01*
X76626796Y-30845406D01*
X76626298Y-30846607D01*
X76618623Y-30866829D01*
X76618201Y-30868050D01*
X76610785Y-30904292D01*
X76609079Y-30911521D01*
X76599500Y-30947273D01*
X76599327Y-30948583D01*
X76597151Y-30970076D01*
X76597059Y-30971363D01*
X76599277Y-31008299D01*
X76599500Y-31015729D01*
X76599500Y-34659002D01*
X76579815Y-34726041D01*
X76527011Y-34771796D01*
X76457853Y-34781740D01*
X76394297Y-34752715D01*
X76387819Y-34746683D01*
X76308217Y-34667081D01*
X76308209Y-34667075D01*
X76171290Y-34588026D01*
X76171286Y-34588024D01*
X76171284Y-34588023D01*
X76018557Y-34547100D01*
X75860443Y-34547100D01*
X75707716Y-34588023D01*
X75707709Y-34588026D01*
X75570790Y-34667075D01*
X75570782Y-34667081D01*
X75458981Y-34778882D01*
X75458975Y-34778890D01*
X75379926Y-34915809D01*
X75379923Y-34915816D01*
X75339000Y-35068543D01*
X75339000Y-35130345D01*
X75319315Y-35197384D01*
X75302681Y-35218026D01*
X69361826Y-41158881D01*
X69300503Y-41192366D01*
X69274145Y-41195200D01*
X59006198Y-41195200D01*
X58939159Y-41175515D01*
X58918517Y-41158881D01*
X58874817Y-41115181D01*
X58874809Y-41115175D01*
X58737890Y-41036126D01*
X58737886Y-41036124D01*
X58737884Y-41036123D01*
X58585157Y-40995200D01*
X58427043Y-40995200D01*
X58274316Y-41036123D01*
X58274309Y-41036126D01*
X58137390Y-41115175D01*
X58137382Y-41115181D01*
X58025581Y-41226982D01*
X58025575Y-41226990D01*
X57946526Y-41363909D01*
X57946523Y-41363916D01*
X57905600Y-41516643D01*
X55644548Y-41516643D01*
X61395358Y-35765832D01*
X61450941Y-35733741D01*
X61550084Y-35707177D01*
X61550088Y-35707174D01*
X61550090Y-35707174D01*
X61687009Y-35628124D01*
X61687008Y-35628124D01*
X61687016Y-35628120D01*
X61798820Y-35516316D01*
X61877877Y-35379384D01*
X61918800Y-35226657D01*
X61918800Y-35068543D01*
X61877877Y-34915816D01*
X61850848Y-34869000D01*
X61798824Y-34778890D01*
X61798818Y-34778882D01*
X61687017Y-34667081D01*
X61687009Y-34667075D01*
X61550090Y-34588026D01*
X61550086Y-34588024D01*
X61550084Y-34588023D01*
X61397357Y-34547100D01*
X61239243Y-34547100D01*
X61086516Y-34588023D01*
X61086509Y-34588026D01*
X60949590Y-34667075D01*
X60949582Y-34667081D01*
X60837781Y-34778882D01*
X60837775Y-34778890D01*
X60758726Y-34915809D01*
X60758723Y-34915816D01*
X60717800Y-35068543D01*
X60717800Y-35226656D01*
X60718861Y-35234718D01*
X60716743Y-35234996D01*
X60715345Y-35293572D01*
X60684917Y-35343489D01*
X57346881Y-38681526D01*
X57285558Y-38715011D01*
X57215866Y-38710027D01*
X57159933Y-38668155D01*
X57135516Y-38602691D01*
X57135200Y-38593845D01*
X57135200Y-34525454D01*
X57154885Y-34458415D01*
X57171519Y-34437773D01*
X65107873Y-26501419D01*
X65169196Y-26467934D01*
X65195554Y-26465100D01*
X65257355Y-26465100D01*
X65257357Y-26465100D01*
X65410084Y-26424177D01*
X65547016Y-26345120D01*
X65658820Y-26233316D01*
X65737877Y-26096384D01*
X65778800Y-25943657D01*
X65778800Y-25785543D01*
X65737877Y-25632816D01*
X65695593Y-25559577D01*
X65658824Y-25495890D01*
X65658818Y-25495882D01*
X65547017Y-25384081D01*
X65547009Y-25384075D01*
X65410090Y-25305026D01*
X65410086Y-25305024D01*
X65410084Y-25305023D01*
X65257357Y-25264100D01*
X65099243Y-25264100D01*
X64946516Y-25305023D01*
X64946509Y-25305026D01*
X64809590Y-25384075D01*
X64809582Y-25384081D01*
X64697781Y-25495882D01*
X64697775Y-25495890D01*
X64618726Y-25632809D01*
X64618723Y-25632816D01*
X64577800Y-25785543D01*
X64577800Y-25847345D01*
X64558115Y-25914384D01*
X64541481Y-25935026D01*
X56414222Y-34062284D01*
X56414220Y-34062287D01*
X56364722Y-34148020D01*
X56361493Y-34153612D01*
X56343844Y-34219480D01*
X56343844Y-34219481D01*
X56343843Y-34219480D01*
X56334200Y-34255469D01*
X56334200Y-38791945D01*
X56314515Y-38858984D01*
X56297881Y-38879626D01*
X54748226Y-40429281D01*
X54686903Y-40462766D01*
X54660545Y-40465600D01*
X54598743Y-40465600D01*
X54446016Y-40506523D01*
X54446009Y-40506526D01*
X54309090Y-40585575D01*
X54309082Y-40585581D01*
X54197281Y-40697382D01*
X54197275Y-40697390D01*
X54118226Y-40834309D01*
X54118223Y-40834316D01*
X54077300Y-40987043D01*
X54077300Y-41145157D01*
X54117647Y-41295732D01*
X54118223Y-41297883D01*
X54118223Y-41297884D01*
X54144006Y-41342542D01*
X54160477Y-41410442D01*
X54137625Y-41476469D01*
X54117905Y-41496907D01*
X54118031Y-41497033D01*
X54000481Y-41614582D01*
X54000475Y-41614590D01*
X53921426Y-41751509D01*
X53921423Y-41751516D01*
X53880500Y-41904243D01*
X20800000Y-41904243D01*
X20800000Y-34389443D01*
X50861200Y-34389443D01*
X50861200Y-34547557D01*
X50897424Y-34682745D01*
X50902123Y-34700283D01*
X50902126Y-34700290D01*
X50981175Y-34837209D01*
X50981179Y-34837214D01*
X50981180Y-34837216D01*
X51092984Y-34949020D01*
X51092986Y-34949021D01*
X51092990Y-34949024D01*
X51229909Y-35028073D01*
X51229916Y-35028077D01*
X51382643Y-35069000D01*
X51382645Y-35069000D01*
X51540755Y-35069000D01*
X51540757Y-35069000D01*
X51693484Y-35028077D01*
X51830416Y-34949020D01*
X51874117Y-34905319D01*
X51935440Y-34871834D01*
X51961798Y-34869000D01*
X52974145Y-34869000D01*
X53041184Y-34888685D01*
X53061826Y-34905319D01*
X54693881Y-36537374D01*
X54727366Y-36598697D01*
X54730200Y-36625055D01*
X54730200Y-36686857D01*
X54760078Y-36798361D01*
X54771123Y-36839583D01*
X54771126Y-36839590D01*
X54850175Y-36976509D01*
X54850179Y-36976514D01*
X54850180Y-36976516D01*
X54961984Y-37088320D01*
X54961986Y-37088321D01*
X54961990Y-37088324D01*
X55067862Y-37149448D01*
X55098916Y-37167377D01*
X55251643Y-37208300D01*
X55251645Y-37208300D01*
X55409755Y-37208300D01*
X55409757Y-37208300D01*
X55562484Y-37167377D01*
X55699416Y-37088320D01*
X55811220Y-36976516D01*
X55890277Y-36839584D01*
X55931200Y-36686857D01*
X55931200Y-36528743D01*
X55890277Y-36376016D01*
X55882440Y-36362441D01*
X55811224Y-36239090D01*
X55811218Y-36239082D01*
X55699417Y-36127281D01*
X55699409Y-36127275D01*
X55562490Y-36048226D01*
X55562486Y-36048224D01*
X55562484Y-36048223D01*
X55409757Y-36007300D01*
X55409756Y-36007300D01*
X55347955Y-36007300D01*
X55280916Y-35987615D01*
X55260274Y-35970981D01*
X53437315Y-34148022D01*
X53437313Y-34148020D01*
X53391650Y-34121656D01*
X53345989Y-34095293D01*
X53295057Y-34081646D01*
X53244127Y-34068000D01*
X53244126Y-34068000D01*
X51961798Y-34068000D01*
X51894759Y-34048315D01*
X51874117Y-34031681D01*
X51830417Y-33987981D01*
X51830409Y-33987975D01*
X51693490Y-33908926D01*
X51693486Y-33908924D01*
X51693484Y-33908923D01*
X51540757Y-33868000D01*
X51382643Y-33868000D01*
X51229916Y-33908923D01*
X51229909Y-33908926D01*
X51092990Y-33987975D01*
X51092982Y-33987981D01*
X50981181Y-34099782D01*
X50981175Y-34099790D01*
X50902126Y-34236709D01*
X50902123Y-34236716D01*
X50861200Y-34389443D01*
X20800000Y-34389443D01*
X20800000Y-23750000D01*
X23547769Y-23750000D01*
X24595854Y-23750000D01*
X24557370Y-23816657D01*
X24525000Y-23937465D01*
X24525000Y-24062535D01*
X24557370Y-24183343D01*
X24595854Y-24250000D01*
X23547769Y-24250000D01*
X23558242Y-24316126D01*
X23558242Y-24316129D01*
X23623904Y-24518217D01*
X23720379Y-24707557D01*
X23845272Y-24879459D01*
X23845276Y-24879464D01*
X23995535Y-25029723D01*
X23995540Y-25029727D01*
X24167442Y-25154620D01*
X24357511Y-25251466D01*
X24408307Y-25299441D01*
X24425102Y-25367262D01*
X24402565Y-25433397D01*
X24357512Y-25472435D01*
X24272004Y-25516004D01*
X24125505Y-25622441D01*
X24125500Y-25622445D01*
X23997445Y-25750500D01*
X23997441Y-25750505D01*
X23891006Y-25897002D01*
X23808788Y-26058360D01*
X23808787Y-26058363D01*
X23752829Y-26230589D01*
X23724500Y-26409448D01*
X23724500Y-26590551D01*
X23752829Y-26769410D01*
X23808787Y-26941636D01*
X23808788Y-26941639D01*
X23891006Y-27102997D01*
X23997441Y-27249494D01*
X23997445Y-27249499D01*
X24125500Y-27377554D01*
X24125505Y-27377558D01*
X24253287Y-27470396D01*
X24272006Y-27483996D01*
X24377484Y-27537740D01*
X24433360Y-27566211D01*
X24433363Y-27566212D01*
X24560649Y-27607569D01*
X24618324Y-27647006D01*
X24645523Y-27711364D01*
X24633609Y-27780211D01*
X24586365Y-27831687D01*
X24522331Y-27849500D01*
X24231898Y-27849500D01*
X24192853Y-27854188D01*
X24143438Y-27860122D01*
X24002656Y-27915639D01*
X23882077Y-28007077D01*
X23790639Y-28127656D01*
X23735122Y-28268438D01*
X23729727Y-28313370D01*
X23724500Y-28356898D01*
X23724500Y-29643102D01*
X23729540Y-29685073D01*
X23735122Y-29731561D01*
X23790639Y-29872343D01*
X23882077Y-29992922D01*
X24002656Y-30084360D01*
X24002657Y-30084360D01*
X24002658Y-30084361D01*
X24143436Y-30139877D01*
X24231898Y-30150500D01*
X24231903Y-30150500D01*
X25768097Y-30150500D01*
X25768102Y-30150500D01*
X25856564Y-30139877D01*
X25997342Y-30084361D01*
X26117922Y-29992922D01*
X26209361Y-29872342D01*
X26264877Y-29731564D01*
X26275500Y-29643102D01*
X26275500Y-28356898D01*
X26264877Y-28268436D01*
X26209361Y-28127658D01*
X26209360Y-28127657D01*
X26209360Y-28127656D01*
X26117922Y-28007077D01*
X25997343Y-27915639D01*
X25856561Y-27860122D01*
X25810926Y-27854642D01*
X25768102Y-27849500D01*
X25477669Y-27849500D01*
X25410630Y-27829815D01*
X25364875Y-27777011D01*
X25354931Y-27707853D01*
X25383956Y-27644297D01*
X25439351Y-27607569D01*
X25566636Y-27566212D01*
X25566639Y-27566211D01*
X25582836Y-27557958D01*
X25727994Y-27483996D01*
X25874501Y-27377553D01*
X26002553Y-27249501D01*
X26108996Y-27102994D01*
X26191211Y-26941639D01*
X26247171Y-26769409D01*
X26267927Y-26638360D01*
X26275500Y-26590551D01*
X26275500Y-26409448D01*
X26259019Y-26305397D01*
X26247171Y-26230591D01*
X26203565Y-26096383D01*
X26191212Y-26058363D01*
X26191211Y-26058360D01*
X26108996Y-25897006D01*
X26086992Y-25866720D01*
X26063513Y-25800913D01*
X26079339Y-25732859D01*
X26125311Y-25686448D01*
X26155913Y-25668780D01*
X30929574Y-20895119D01*
X30990897Y-20861634D01*
X31017255Y-20858800D01*
X31079055Y-20858800D01*
X31079057Y-20858800D01*
X31231784Y-20817877D01*
X31368716Y-20738820D01*
X31480520Y-20627016D01*
X31559577Y-20490084D01*
X31600500Y-20337357D01*
X31600500Y-20179243D01*
X31559577Y-20026516D01*
X31559573Y-20026509D01*
X31480524Y-19889590D01*
X31480518Y-19889582D01*
X31368717Y-19777781D01*
X31368709Y-19777775D01*
X31231790Y-19698726D01*
X31231786Y-19698724D01*
X31231784Y-19698723D01*
X31079057Y-19657800D01*
X30920943Y-19657800D01*
X30768216Y-19698723D01*
X30768209Y-19698726D01*
X30631290Y-19777775D01*
X30631282Y-19777781D01*
X30519481Y-19889582D01*
X30519475Y-19889590D01*
X30440426Y-20026509D01*
X30440423Y-20026516D01*
X30399500Y-20179243D01*
X30399500Y-20241045D01*
X30379815Y-20308084D01*
X30363181Y-20328726D01*
X26478226Y-24213681D01*
X26416903Y-24247166D01*
X26390545Y-24250000D01*
X25404146Y-24250000D01*
X25442630Y-24183343D01*
X25475000Y-24062535D01*
X25475000Y-23937465D01*
X25442630Y-23816657D01*
X25404146Y-23750000D01*
X26452231Y-23750000D01*
X26441757Y-23683873D01*
X26441757Y-23683870D01*
X26376095Y-23481782D01*
X26279620Y-23292442D01*
X26154727Y-23120540D01*
X26154723Y-23120535D01*
X26004464Y-22970276D01*
X26004459Y-22970272D01*
X25832557Y-22845379D01*
X25643217Y-22748904D01*
X25441128Y-22683242D01*
X25250000Y-22652969D01*
X25250000Y-23595854D01*
X25183343Y-23557370D01*
X25062535Y-23525000D01*
X24937465Y-23525000D01*
X24816657Y-23557370D01*
X24750000Y-23595854D01*
X24750000Y-22652969D01*
X24558872Y-22683242D01*
X24558869Y-22683242D01*
X24356782Y-22748904D01*
X24167442Y-22845379D01*
X23995540Y-22970272D01*
X23995535Y-22970276D01*
X23845276Y-23120535D01*
X23845272Y-23120540D01*
X23720379Y-23292442D01*
X23623904Y-23481782D01*
X23558242Y-23683870D01*
X23558242Y-23683873D01*
X23547769Y-23750000D01*
X20800000Y-23750000D01*
X20800000Y-16920943D01*
X77399500Y-16920943D01*
X77399500Y-17079056D01*
X77440423Y-17231783D01*
X77440426Y-17231790D01*
X77519475Y-17368709D01*
X77519481Y-17368717D01*
X77563181Y-17412417D01*
X77596666Y-17473740D01*
X77599500Y-17500098D01*
X77599500Y-18552727D01*
X77626793Y-18654587D01*
X77679520Y-18745913D01*
X77754087Y-18820480D01*
X77845413Y-18873207D01*
X77947273Y-18900500D01*
X78052727Y-18900500D01*
X80551304Y-18900500D01*
X80618343Y-18920185D01*
X80664098Y-18972989D01*
X80674042Y-19042147D01*
X80645017Y-19105703D01*
X80630686Y-19119759D01*
X79131939Y-20368716D01*
X79129487Y-20370759D01*
X79065384Y-20398555D01*
X79050104Y-20399500D01*
X78920943Y-20399500D01*
X78768216Y-20440423D01*
X78768209Y-20440426D01*
X78631290Y-20519475D01*
X78631282Y-20519481D01*
X78519481Y-20631282D01*
X78519475Y-20631290D01*
X78440426Y-20768209D01*
X78440423Y-20768216D01*
X78399500Y-20920943D01*
X78399500Y-21079057D01*
X78406487Y-21105131D01*
X78440423Y-21231783D01*
X78440426Y-21231790D01*
X78519475Y-21368709D01*
X78519479Y-21368714D01*
X78519480Y-21368716D01*
X78631284Y-21480520D01*
X78631286Y-21480521D01*
X78631290Y-21480524D01*
X78768209Y-21559573D01*
X78768216Y-21559577D01*
X78920943Y-21600500D01*
X78920945Y-21600500D01*
X79079055Y-21600500D01*
X79079057Y-21600500D01*
X79231784Y-21559577D01*
X79368716Y-21480520D01*
X79480520Y-21368716D01*
X79559577Y-21231784D01*
X79600500Y-21079057D01*
X79600500Y-21078996D01*
X79600514Y-21078948D01*
X79601561Y-21070997D01*
X79602800Y-21071160D01*
X79620185Y-21011957D01*
X79645117Y-20983737D01*
X79652920Y-20977235D01*
X81268061Y-19631284D01*
X82110513Y-18929241D01*
X82174616Y-18901445D01*
X82189896Y-18900500D01*
X85475500Y-18900500D01*
X85542539Y-18920185D01*
X85588294Y-18972989D01*
X85599500Y-19024500D01*
X85599500Y-24499902D01*
X85579815Y-24566941D01*
X85563181Y-24587583D01*
X85519481Y-24631282D01*
X85519475Y-24631290D01*
X85440426Y-24768209D01*
X85440423Y-24768216D01*
X85399500Y-24920943D01*
X85399500Y-25079057D01*
X85422673Y-25165538D01*
X85440423Y-25231783D01*
X85440426Y-25231790D01*
X85519475Y-25368709D01*
X85519479Y-25368714D01*
X85519480Y-25368716D01*
X85631284Y-25480520D01*
X85631286Y-25480521D01*
X85631290Y-25480524D01*
X85706582Y-25523993D01*
X85768216Y-25559577D01*
X85920943Y-25600500D01*
X85920945Y-25600500D01*
X86079055Y-25600500D01*
X86079057Y-25600500D01*
X86231784Y-25559577D01*
X86368716Y-25480520D01*
X86480520Y-25368716D01*
X86559577Y-25231784D01*
X86600500Y-25079057D01*
X86600500Y-24920943D01*
X86559577Y-24768216D01*
X86537503Y-24729982D01*
X86480524Y-24631290D01*
X86480518Y-24631282D01*
X86436819Y-24587583D01*
X86403334Y-24526260D01*
X86400500Y-24499902D01*
X86400500Y-19920943D01*
X87399500Y-19920943D01*
X87399500Y-20079057D01*
X87426346Y-20179245D01*
X87440423Y-20231783D01*
X87440426Y-20231790D01*
X87519475Y-20368709D01*
X87519481Y-20368717D01*
X87563181Y-20412417D01*
X87596666Y-20473740D01*
X87599500Y-20500098D01*
X87599500Y-23939268D01*
X87599380Y-23941123D01*
X87599500Y-24000475D01*
X87599500Y-24059660D01*
X87599622Y-24061513D01*
X87648487Y-48213661D01*
X87628938Y-48280740D01*
X87612170Y-48301591D01*
X87569479Y-48344283D01*
X87490426Y-48481209D01*
X87490423Y-48481216D01*
X87449500Y-48633943D01*
X87449500Y-48792057D01*
X87489256Y-48940426D01*
X87490423Y-48944783D01*
X87490426Y-48944790D01*
X87569475Y-49081709D01*
X87569479Y-49081714D01*
X87569480Y-49081716D01*
X87681284Y-49193520D01*
X87681286Y-49193521D01*
X87681290Y-49193524D01*
X87810650Y-49268209D01*
X87818216Y-49272577D01*
X87970943Y-49313500D01*
X87970945Y-49313500D01*
X88129055Y-49313500D01*
X88129057Y-49313500D01*
X88281784Y-49272577D01*
X88418716Y-49193520D01*
X88530520Y-49081716D01*
X88609577Y-48944784D01*
X88650500Y-48792057D01*
X88650500Y-48633943D01*
X88609577Y-48481216D01*
X88581774Y-48433059D01*
X88530524Y-48344290D01*
X88530518Y-48344282D01*
X88485806Y-48299570D01*
X88452321Y-48238247D01*
X88449487Y-48212140D01*
X88449360Y-48149501D01*
X88400500Y-23999349D01*
X88400500Y-20500098D01*
X88420185Y-20433059D01*
X88436819Y-20412417D01*
X88450681Y-20398555D01*
X88480520Y-20368716D01*
X88559577Y-20231784D01*
X88600500Y-20079057D01*
X88600500Y-19920943D01*
X88559577Y-19768216D01*
X88559573Y-19768209D01*
X88480524Y-19631290D01*
X88480518Y-19631282D01*
X88368717Y-19519481D01*
X88368709Y-19519475D01*
X88231790Y-19440426D01*
X88231786Y-19440424D01*
X88231784Y-19440423D01*
X88079057Y-19399500D01*
X87920943Y-19399500D01*
X87768216Y-19440423D01*
X87768209Y-19440426D01*
X87631290Y-19519475D01*
X87631282Y-19519481D01*
X87519481Y-19631282D01*
X87519475Y-19631290D01*
X87440426Y-19768209D01*
X87440423Y-19768216D01*
X87399500Y-19920943D01*
X86400500Y-19920943D01*
X86400500Y-19024500D01*
X86420185Y-18957461D01*
X86472989Y-18911706D01*
X86524500Y-18900500D01*
X97475500Y-18900500D01*
X97542539Y-18920185D01*
X97588294Y-18972989D01*
X97599500Y-19024500D01*
X97599500Y-20725500D01*
X97579815Y-20792539D01*
X97527011Y-20838294D01*
X97475500Y-20849500D01*
X97105143Y-20849500D01*
X97105117Y-20849502D01*
X97080012Y-20852413D01*
X97080008Y-20852415D01*
X96977235Y-20897793D01*
X96897794Y-20977234D01*
X96852415Y-21080006D01*
X96852415Y-21080008D01*
X96849500Y-21105131D01*
X96849500Y-22894856D01*
X96849502Y-22894882D01*
X96852413Y-22919987D01*
X96852415Y-22919991D01*
X96897793Y-23022764D01*
X96897794Y-23022765D01*
X96977235Y-23102206D01*
X96977238Y-23102207D01*
X96983395Y-23106425D01*
X97027578Y-23160552D01*
X97035484Y-23229973D01*
X97004603Y-23292648D01*
X97000999Y-23296406D01*
X90805522Y-29491884D01*
X90805518Y-29491890D01*
X90752792Y-29583212D01*
X90752793Y-29583213D01*
X90725500Y-29685073D01*
X90725500Y-37612502D01*
X90705815Y-37679541D01*
X90689181Y-37700183D01*
X90645481Y-37743882D01*
X90645475Y-37743890D01*
X90566426Y-37880809D01*
X90566423Y-37880816D01*
X90525500Y-38033543D01*
X90525500Y-38191657D01*
X90534165Y-38223993D01*
X90566423Y-38344383D01*
X90566426Y-38344390D01*
X90645475Y-38481309D01*
X90645479Y-38481314D01*
X90645480Y-38481316D01*
X90757284Y-38593120D01*
X90771517Y-38601337D01*
X90819733Y-38651903D01*
X90832957Y-38720510D01*
X90806990Y-38785375D01*
X90797200Y-38796406D01*
X90651461Y-38942146D01*
X90523020Y-39070587D01*
X90470293Y-39161912D01*
X90454615Y-39220423D01*
X90454615Y-39220424D01*
X90443000Y-39263769D01*
X90443000Y-46291202D01*
X90423315Y-46358241D01*
X90406681Y-46378883D01*
X90362981Y-46422582D01*
X90362975Y-46422590D01*
X90283926Y-46559509D01*
X90283923Y-46559516D01*
X90243000Y-46712243D01*
X90243000Y-46870357D01*
X90266581Y-46958360D01*
X90283923Y-47023083D01*
X90283926Y-47023090D01*
X90362975Y-47160009D01*
X90362979Y-47160014D01*
X90362980Y-47160016D01*
X90474784Y-47271820D01*
X90474786Y-47271821D01*
X90474790Y-47271824D01*
X90552462Y-47316667D01*
X90611716Y-47350877D01*
X90764443Y-47391800D01*
X90764445Y-47391800D01*
X90922555Y-47391800D01*
X90922557Y-47391800D01*
X91075284Y-47350877D01*
X91212216Y-47271820D01*
X91324020Y-47160016D01*
X91403077Y-47023084D01*
X91444000Y-46870357D01*
X91444000Y-46712243D01*
X91403077Y-46559516D01*
X91392546Y-46541275D01*
X91324024Y-46422590D01*
X91324018Y-46422582D01*
X91280319Y-46378883D01*
X91246834Y-46317560D01*
X91244000Y-46291202D01*
X91244000Y-39533754D01*
X91263685Y-39466715D01*
X91280314Y-39446078D01*
X97460719Y-33265672D01*
X97522040Y-33232189D01*
X97586716Y-33235424D01*
X97730591Y-33282171D01*
X97803639Y-33293740D01*
X97890678Y-33307527D01*
X97953813Y-33337456D01*
X97990744Y-33396768D01*
X97989746Y-33466631D01*
X97951136Y-33524863D01*
X97890678Y-33552473D01*
X97730589Y-33577829D01*
X97558363Y-33633787D01*
X97558360Y-33633788D01*
X97397006Y-33716003D01*
X97265747Y-33811367D01*
X97265740Y-33811373D01*
X97250499Y-33822447D01*
X97122447Y-33950499D01*
X97111373Y-33965740D01*
X97111367Y-33965747D01*
X97016003Y-34097006D01*
X96933788Y-34258360D01*
X96933787Y-34258363D01*
X96877829Y-34430589D01*
X96849500Y-34609448D01*
X96849500Y-34790551D01*
X96877829Y-34969410D01*
X96933787Y-35141636D01*
X96933788Y-35141639D01*
X96977108Y-35226657D01*
X97014733Y-35300500D01*
X97016006Y-35302997D01*
X97122441Y-35449494D01*
X97122445Y-35449499D01*
X97250500Y-35577554D01*
X97250505Y-35577558D01*
X97320104Y-35628124D01*
X97397006Y-35683996D01*
X97502484Y-35737740D01*
X97558360Y-35766211D01*
X97558363Y-35766212D01*
X97614400Y-35784419D01*
X97730591Y-35822171D01*
X97803639Y-35833740D01*
X97890678Y-35847527D01*
X97953813Y-35877456D01*
X97990744Y-35936768D01*
X97989746Y-36006631D01*
X97951136Y-36064863D01*
X97890678Y-36092473D01*
X97730589Y-36117829D01*
X97558363Y-36173787D01*
X97558360Y-36173788D01*
X97397002Y-36256006D01*
X97250505Y-36362441D01*
X97250500Y-36362445D01*
X97122445Y-36490500D01*
X97122441Y-36490505D01*
X97016006Y-36637002D01*
X96933788Y-36798360D01*
X96933787Y-36798363D01*
X96877829Y-36970589D01*
X96849500Y-37149448D01*
X96849500Y-37330551D01*
X96877829Y-37509410D01*
X96933787Y-37681636D01*
X96933788Y-37681639D01*
X97016006Y-37842997D01*
X97122441Y-37989494D01*
X97122445Y-37989499D01*
X97250500Y-38117554D01*
X97250505Y-38117558D01*
X97352495Y-38191657D01*
X97397006Y-38223996D01*
X97502484Y-38277740D01*
X97558360Y-38306211D01*
X97558363Y-38306212D01*
X97635597Y-38331306D01*
X97730591Y-38362171D01*
X97803639Y-38373740D01*
X97890678Y-38387527D01*
X97953813Y-38417456D01*
X97990744Y-38476768D01*
X97989746Y-38546631D01*
X97951136Y-38604863D01*
X97890678Y-38632473D01*
X97730589Y-38657829D01*
X97558363Y-38713787D01*
X97558360Y-38713788D01*
X97397002Y-38796006D01*
X97250505Y-38902441D01*
X97250500Y-38902445D01*
X97122445Y-39030500D01*
X97122441Y-39030505D01*
X97016006Y-39177002D01*
X96933788Y-39338360D01*
X96933787Y-39338363D01*
X96877829Y-39510589D01*
X96849500Y-39689448D01*
X96849500Y-39870551D01*
X96877829Y-40049410D01*
X96933787Y-40221636D01*
X96933788Y-40221639D01*
X96989664Y-40331300D01*
X97014733Y-40380500D01*
X97016006Y-40382997D01*
X97122441Y-40529494D01*
X97122445Y-40529499D01*
X97250500Y-40657554D01*
X97250505Y-40657558D01*
X97305330Y-40697390D01*
X97397006Y-40763996D01*
X97502484Y-40817740D01*
X97558360Y-40846211D01*
X97558363Y-40846212D01*
X97635597Y-40871306D01*
X97730591Y-40902171D01*
X97803639Y-40913740D01*
X97890678Y-40927527D01*
X97953813Y-40957456D01*
X97990744Y-41016768D01*
X97989746Y-41086631D01*
X97951136Y-41144863D01*
X97890678Y-41172473D01*
X97730589Y-41197829D01*
X97558363Y-41253787D01*
X97558360Y-41253788D01*
X97397002Y-41336006D01*
X97250505Y-41442441D01*
X97250500Y-41442445D01*
X97122445Y-41570500D01*
X97122441Y-41570505D01*
X97016006Y-41717002D01*
X96933788Y-41878360D01*
X96933787Y-41878363D01*
X96877829Y-42050589D01*
X96849500Y-42229448D01*
X96849500Y-42410551D01*
X96877829Y-42589410D01*
X96933787Y-42761636D01*
X96933788Y-42761639D01*
X97016006Y-42922997D01*
X97122441Y-43069494D01*
X97122445Y-43069499D01*
X97250500Y-43197554D01*
X97250505Y-43197558D01*
X97299124Y-43232881D01*
X97397006Y-43303996D01*
X97502484Y-43357740D01*
X97558360Y-43386211D01*
X97558363Y-43386212D01*
X97635597Y-43411306D01*
X97730591Y-43442171D01*
X97803639Y-43453740D01*
X97890678Y-43467527D01*
X97953813Y-43497456D01*
X97990744Y-43556768D01*
X97989746Y-43626631D01*
X97951136Y-43684863D01*
X97890678Y-43712473D01*
X97730589Y-43737829D01*
X97558363Y-43793787D01*
X97558360Y-43793788D01*
X97397002Y-43876006D01*
X97250505Y-43982441D01*
X97250500Y-43982445D01*
X97122445Y-44110500D01*
X97122441Y-44110505D01*
X97016006Y-44257002D01*
X96933788Y-44418360D01*
X96933787Y-44418363D01*
X96877829Y-44590589D01*
X96849500Y-44769448D01*
X96849500Y-44950551D01*
X96877829Y-45129410D01*
X96933787Y-45301636D01*
X96933788Y-45301639D01*
X97016006Y-45462997D01*
X97122441Y-45609494D01*
X97122445Y-45609499D01*
X97250500Y-45737554D01*
X97250505Y-45737558D01*
X97374071Y-45827333D01*
X97397006Y-45843996D01*
X97502484Y-45897740D01*
X97558360Y-45926211D01*
X97558363Y-45926212D01*
X97635597Y-45951306D01*
X97730591Y-45982171D01*
X97803639Y-45993740D01*
X97890678Y-46007527D01*
X97953813Y-46037456D01*
X97990744Y-46096768D01*
X97989746Y-46166631D01*
X97951136Y-46224863D01*
X97890678Y-46252473D01*
X97730589Y-46277829D01*
X97558363Y-46333787D01*
X97558360Y-46333788D01*
X97397002Y-46416006D01*
X97250505Y-46522441D01*
X97250500Y-46522445D01*
X97122445Y-46650500D01*
X97122441Y-46650505D01*
X97016006Y-46797002D01*
X96933788Y-46958360D01*
X96933787Y-46958363D01*
X96877829Y-47130589D01*
X96849500Y-47309448D01*
X96849500Y-47490551D01*
X96877829Y-47669410D01*
X96933787Y-47841636D01*
X96933788Y-47841639D01*
X97016006Y-48002997D01*
X97122441Y-48149494D01*
X97122445Y-48149499D01*
X97250500Y-48277554D01*
X97250505Y-48277558D01*
X97335593Y-48339377D01*
X97397006Y-48383996D01*
X97493297Y-48433059D01*
X97558360Y-48466211D01*
X97558363Y-48466212D01*
X97604542Y-48481216D01*
X97730591Y-48522171D01*
X97803639Y-48533740D01*
X97890678Y-48547527D01*
X97953813Y-48577456D01*
X97990744Y-48636768D01*
X97989746Y-48706631D01*
X97951136Y-48764863D01*
X97890678Y-48792473D01*
X97730589Y-48817829D01*
X97558363Y-48873787D01*
X97558360Y-48873788D01*
X97397002Y-48956006D01*
X97250505Y-49062441D01*
X97250500Y-49062445D01*
X97122445Y-49190500D01*
X97122441Y-49190505D01*
X97016006Y-49337002D01*
X96933788Y-49498360D01*
X96933787Y-49498363D01*
X96877829Y-49670589D01*
X96849500Y-49849448D01*
X96849500Y-50030551D01*
X96877829Y-50209410D01*
X96933787Y-50381636D01*
X96933788Y-50381639D01*
X97016006Y-50542997D01*
X97122441Y-50689494D01*
X97122445Y-50689499D01*
X97250500Y-50817554D01*
X97250505Y-50817558D01*
X97374071Y-50907333D01*
X97397006Y-50923996D01*
X97502484Y-50977740D01*
X97558360Y-51006211D01*
X97558363Y-51006212D01*
X97635597Y-51031306D01*
X97730591Y-51062171D01*
X97803639Y-51073740D01*
X97890678Y-51087527D01*
X97953813Y-51117456D01*
X97990744Y-51176768D01*
X97989746Y-51246631D01*
X97951136Y-51304863D01*
X97890678Y-51332473D01*
X97730589Y-51357829D01*
X97558363Y-51413787D01*
X97558360Y-51413788D01*
X97397002Y-51496006D01*
X97250505Y-51602441D01*
X97250500Y-51602445D01*
X97122445Y-51730500D01*
X97122441Y-51730505D01*
X97016006Y-51877002D01*
X96933788Y-52038360D01*
X96933787Y-52038363D01*
X96877829Y-52210589D01*
X96849500Y-52389448D01*
X96849500Y-52570551D01*
X96877829Y-52749410D01*
X96933787Y-52921636D01*
X96933788Y-52921639D01*
X97016006Y-53082997D01*
X97122441Y-53229494D01*
X97122445Y-53229499D01*
X97250500Y-53357554D01*
X97250505Y-53357558D01*
X97374071Y-53447333D01*
X97397006Y-53463996D01*
X97502484Y-53517740D01*
X97558360Y-53546211D01*
X97558363Y-53546212D01*
X97635597Y-53571306D01*
X97730591Y-53602171D01*
X97803639Y-53613740D01*
X97890678Y-53627527D01*
X97953813Y-53657456D01*
X97990744Y-53716768D01*
X97989746Y-53786631D01*
X97951136Y-53844863D01*
X97890678Y-53872473D01*
X97730589Y-53897829D01*
X97558363Y-53953787D01*
X97558360Y-53953788D01*
X97397002Y-54036006D01*
X97250505Y-54142441D01*
X97250500Y-54142445D01*
X97122445Y-54270500D01*
X97122441Y-54270505D01*
X97016006Y-54417002D01*
X96933788Y-54578360D01*
X96933787Y-54578363D01*
X96877829Y-54750589D01*
X96849500Y-54929448D01*
X96849500Y-55110551D01*
X96877829Y-55289410D01*
X96933787Y-55461636D01*
X96933788Y-55461639D01*
X97016006Y-55622997D01*
X97122441Y-55769494D01*
X97122445Y-55769499D01*
X97250500Y-55897554D01*
X97250505Y-55897558D01*
X97326803Y-55952991D01*
X97397006Y-56003996D01*
X97502484Y-56057740D01*
X97558360Y-56086211D01*
X97558363Y-56086212D01*
X97635597Y-56111306D01*
X97730591Y-56142171D01*
X97803639Y-56153740D01*
X97890678Y-56167527D01*
X97953813Y-56197456D01*
X97990744Y-56256768D01*
X97989746Y-56326631D01*
X97951136Y-56384863D01*
X97890678Y-56412473D01*
X97730589Y-56437829D01*
X97558363Y-56493787D01*
X97558360Y-56493788D01*
X97397002Y-56576006D01*
X97250505Y-56682441D01*
X97250500Y-56682445D01*
X97122445Y-56810500D01*
X97122441Y-56810505D01*
X97016006Y-56957002D01*
X96933788Y-57118360D01*
X96933787Y-57118363D01*
X96877829Y-57290589D01*
X96849500Y-57469448D01*
X96849500Y-57650551D01*
X96877829Y-57829410D01*
X96933787Y-58001636D01*
X96933788Y-58001639D01*
X97016006Y-58162997D01*
X97122441Y-58309494D01*
X97122445Y-58309499D01*
X97250500Y-58437554D01*
X97250505Y-58437558D01*
X97374071Y-58527333D01*
X97397006Y-58543996D01*
X97502484Y-58597740D01*
X97558360Y-58626211D01*
X97558363Y-58626212D01*
X97635597Y-58651306D01*
X97730591Y-58682171D01*
X97803639Y-58693740D01*
X97890678Y-58707527D01*
X97953813Y-58737456D01*
X97990744Y-58796768D01*
X97989746Y-58866631D01*
X97951136Y-58924863D01*
X97890678Y-58952473D01*
X97730589Y-58977829D01*
X97558363Y-59033787D01*
X97558360Y-59033788D01*
X97397002Y-59116006D01*
X97250505Y-59222441D01*
X97250500Y-59222445D01*
X97122445Y-59350500D01*
X97122441Y-59350505D01*
X97016006Y-59497002D01*
X96933788Y-59658360D01*
X96933787Y-59658363D01*
X96877829Y-59830589D01*
X96849500Y-60009448D01*
X96849500Y-60190551D01*
X96877829Y-60369410D01*
X96933787Y-60541636D01*
X96933788Y-60541639D01*
X97016006Y-60702997D01*
X97122441Y-60849494D01*
X97122445Y-60849499D01*
X97250500Y-60977554D01*
X97250505Y-60977558D01*
X97374071Y-61067333D01*
X97397006Y-61083996D01*
X97502484Y-61137740D01*
X97558360Y-61166211D01*
X97558363Y-61166212D01*
X97635597Y-61191306D01*
X97730591Y-61222171D01*
X97803639Y-61233740D01*
X97890678Y-61247527D01*
X97953813Y-61277456D01*
X97990744Y-61336768D01*
X97989746Y-61406631D01*
X97951136Y-61464863D01*
X97890678Y-61492473D01*
X97730589Y-61517829D01*
X97558363Y-61573787D01*
X97558360Y-61573788D01*
X97397002Y-61656006D01*
X97250505Y-61762441D01*
X97250500Y-61762445D01*
X97122445Y-61890500D01*
X97122441Y-61890505D01*
X97016006Y-62037002D01*
X96933788Y-62198360D01*
X96933787Y-62198363D01*
X96877829Y-62370589D01*
X96849500Y-62549448D01*
X96849500Y-62730551D01*
X96877829Y-62909410D01*
X96933787Y-63081636D01*
X96933788Y-63081639D01*
X97016006Y-63242997D01*
X97122441Y-63389494D01*
X97122445Y-63389499D01*
X97250500Y-63517554D01*
X97250505Y-63517558D01*
X97374071Y-63607333D01*
X97397006Y-63623996D01*
X97502484Y-63677740D01*
X97558360Y-63706211D01*
X97558363Y-63706212D01*
X97635597Y-63731306D01*
X97730591Y-63762171D01*
X97803639Y-63773740D01*
X97890678Y-63787527D01*
X97953813Y-63817456D01*
X97990744Y-63876768D01*
X97989746Y-63946631D01*
X97951136Y-64004863D01*
X97890678Y-64032473D01*
X97730589Y-64057829D01*
X97558363Y-64113787D01*
X97558360Y-64113788D01*
X97397002Y-64196006D01*
X97250505Y-64302441D01*
X97250500Y-64302445D01*
X97122445Y-64430500D01*
X97122441Y-64430505D01*
X97016006Y-64577002D01*
X96933788Y-64738360D01*
X96933787Y-64738363D01*
X96877829Y-64910589D01*
X96849500Y-65089448D01*
X96849500Y-65270551D01*
X96877829Y-65449410D01*
X96933787Y-65621636D01*
X96933788Y-65621639D01*
X97016006Y-65782997D01*
X97122441Y-65929494D01*
X97122445Y-65929499D01*
X97250500Y-66057554D01*
X97250505Y-66057558D01*
X97374071Y-66147333D01*
X97397006Y-66163996D01*
X97502484Y-66217740D01*
X97558360Y-66246211D01*
X97558363Y-66246212D01*
X97635597Y-66271306D01*
X97730591Y-66302171D01*
X97803639Y-66313740D01*
X97890678Y-66327527D01*
X97953813Y-66357456D01*
X97990744Y-66416768D01*
X97989746Y-66486631D01*
X97951136Y-66544863D01*
X97890678Y-66572473D01*
X97730589Y-66597829D01*
X97558363Y-66653787D01*
X97558360Y-66653788D01*
X97397002Y-66736006D01*
X97250505Y-66842441D01*
X97250500Y-66842445D01*
X97122445Y-66970500D01*
X97122441Y-66970505D01*
X97016006Y-67117002D01*
X96933788Y-67278360D01*
X96933787Y-67278363D01*
X96877829Y-67450589D01*
X96849500Y-67629448D01*
X96849500Y-67810551D01*
X96877829Y-67989410D01*
X96933787Y-68161636D01*
X96933788Y-68161639D01*
X97016006Y-68322997D01*
X97122441Y-68469494D01*
X97122445Y-68469499D01*
X97250500Y-68597554D01*
X97250505Y-68597558D01*
X97374071Y-68687333D01*
X97397006Y-68703996D01*
X97502484Y-68757740D01*
X97558360Y-68786211D01*
X97558363Y-68786212D01*
X97635597Y-68811306D01*
X97730591Y-68842171D01*
X97803639Y-68853740D01*
X97890678Y-68867527D01*
X97953813Y-68897456D01*
X97990744Y-68956768D01*
X97989746Y-69026631D01*
X97951136Y-69084863D01*
X97890678Y-69112473D01*
X97730589Y-69137829D01*
X97558363Y-69193787D01*
X97558360Y-69193788D01*
X97397002Y-69276006D01*
X97250505Y-69382441D01*
X97250500Y-69382445D01*
X97122445Y-69510500D01*
X97122441Y-69510505D01*
X97016006Y-69657002D01*
X96933788Y-69818360D01*
X96933787Y-69818363D01*
X96877829Y-69990589D01*
X96849500Y-70169448D01*
X96849500Y-70350551D01*
X96877829Y-70529410D01*
X96933787Y-70701636D01*
X96933788Y-70701639D01*
X97016006Y-70862997D01*
X97122441Y-71009494D01*
X97122445Y-71009499D01*
X97250500Y-71137554D01*
X97250505Y-71137558D01*
X97346852Y-71207557D01*
X97397006Y-71243996D01*
X97502484Y-71297740D01*
X97558360Y-71326211D01*
X97558363Y-71326212D01*
X97635597Y-71351306D01*
X97730591Y-71382171D01*
X97803639Y-71393740D01*
X97890678Y-71407527D01*
X97953813Y-71437456D01*
X97990744Y-71496768D01*
X97989746Y-71566631D01*
X97951136Y-71624863D01*
X97890678Y-71652473D01*
X97730589Y-71677829D01*
X97558363Y-71733787D01*
X97558360Y-71733788D01*
X97397002Y-71816006D01*
X97250505Y-71922441D01*
X97250500Y-71922445D01*
X97122445Y-72050500D01*
X97122441Y-72050505D01*
X97016006Y-72197002D01*
X96933788Y-72358360D01*
X96933787Y-72358363D01*
X96877829Y-72530589D01*
X96849500Y-72709448D01*
X96849500Y-72890551D01*
X96877829Y-73069410D01*
X96933787Y-73241636D01*
X96933788Y-73241639D01*
X97016006Y-73402997D01*
X97122441Y-73549494D01*
X97122445Y-73549499D01*
X97250500Y-73677554D01*
X97250505Y-73677558D01*
X97324835Y-73731561D01*
X97397006Y-73783996D01*
X97502484Y-73837740D01*
X97558360Y-73866211D01*
X97558363Y-73866212D01*
X97635597Y-73891306D01*
X97730591Y-73922171D01*
X97803639Y-73933740D01*
X97890678Y-73947527D01*
X97953813Y-73977456D01*
X97990744Y-74036768D01*
X97989746Y-74106631D01*
X97951136Y-74164863D01*
X97890678Y-74192473D01*
X97730589Y-74217829D01*
X97558363Y-74273787D01*
X97558360Y-74273788D01*
X97397002Y-74356006D01*
X97250505Y-74462441D01*
X97250500Y-74462445D01*
X97122445Y-74590500D01*
X97122441Y-74590505D01*
X97016006Y-74737002D01*
X96933788Y-74898360D01*
X96933787Y-74898363D01*
X96877829Y-75070589D01*
X96849500Y-75249448D01*
X96849500Y-75430551D01*
X96877829Y-75609410D01*
X96933787Y-75781636D01*
X96933788Y-75781639D01*
X97016006Y-75942997D01*
X97122441Y-76089494D01*
X97122445Y-76089499D01*
X97250500Y-76217554D01*
X97250505Y-76217558D01*
X97374071Y-76307333D01*
X97397006Y-76323996D01*
X97502484Y-76377740D01*
X97558360Y-76406211D01*
X97558363Y-76406212D01*
X97635597Y-76431306D01*
X97730591Y-76462171D01*
X97813429Y-76475291D01*
X97909449Y-76490500D01*
X97909454Y-76490500D01*
X98090551Y-76490500D01*
X98177259Y-76476765D01*
X98269409Y-76462171D01*
X98441639Y-76406211D01*
X98602994Y-76323996D01*
X98602994Y-76323995D01*
X98607335Y-76321784D01*
X98608200Y-76323483D01*
X98667804Y-76307333D01*
X98734415Y-76328421D01*
X98779051Y-76382175D01*
X98789200Y-76431306D01*
X98789200Y-81716745D01*
X98769515Y-81783784D01*
X98752881Y-81804426D01*
X98454226Y-82103081D01*
X98392903Y-82136566D01*
X98366545Y-82139400D01*
X98304743Y-82139400D01*
X98152016Y-82180323D01*
X98152009Y-82180326D01*
X98015090Y-82259375D01*
X98015082Y-82259381D01*
X97903281Y-82371182D01*
X97903275Y-82371190D01*
X97824226Y-82508109D01*
X97824223Y-82508116D01*
X97783300Y-82660843D01*
X97783300Y-82818957D01*
X97823609Y-82969390D01*
X97824223Y-82971683D01*
X97824226Y-82971690D01*
X97903275Y-83108609D01*
X97903279Y-83108614D01*
X97903280Y-83108616D01*
X98015084Y-83220420D01*
X98015086Y-83220421D01*
X98015090Y-83220424D01*
X98148032Y-83297177D01*
X98152016Y-83299477D01*
X98304743Y-83340400D01*
X98304745Y-83340400D01*
X98462855Y-83340400D01*
X98462857Y-83340400D01*
X98615584Y-83299477D01*
X98752516Y-83220420D01*
X98864320Y-83108616D01*
X98943377Y-82971684D01*
X98984300Y-82818957D01*
X98984300Y-82757153D01*
X99003985Y-82690114D01*
X99020615Y-82669476D01*
X99425403Y-82264687D01*
X99425408Y-82264684D01*
X99435611Y-82254480D01*
X99435613Y-82254480D01*
X99510180Y-82179913D01*
X99562907Y-82088587D01*
X99563766Y-82085378D01*
X99572517Y-82052726D01*
X99579990Y-82024831D01*
X99590201Y-81986727D01*
X99590201Y-81881273D01*
X99590201Y-81873678D01*
X99590200Y-81873660D01*
X99590200Y-28216976D01*
X99590200Y-28216973D01*
X99571240Y-28146211D01*
X99562907Y-28115112D01*
X99510180Y-28023787D01*
X99105674Y-27619281D01*
X99072189Y-27557958D01*
X99075423Y-27493284D01*
X99122171Y-27349409D01*
X99137995Y-27249501D01*
X99150500Y-27170551D01*
X99150500Y-26989448D01*
X99134019Y-26885397D01*
X99122171Y-26810591D01*
X99066211Y-26638361D01*
X99066211Y-26638360D01*
X99037740Y-26582484D01*
X98983996Y-26477006D01*
X98888176Y-26345120D01*
X98877558Y-26330505D01*
X98877554Y-26330500D01*
X98749499Y-26202445D01*
X98749494Y-26202441D01*
X98602997Y-26096006D01*
X98602996Y-26096005D01*
X98602994Y-26096004D01*
X98529114Y-26058360D01*
X98441639Y-26013788D01*
X98441636Y-26013787D01*
X98269410Y-25957829D01*
X98109321Y-25932473D01*
X98046186Y-25902544D01*
X98009255Y-25843232D01*
X98010253Y-25773370D01*
X98048863Y-25715137D01*
X98109321Y-25687527D01*
X98179425Y-25676422D01*
X98269409Y-25662171D01*
X98441639Y-25606211D01*
X98602994Y-25523996D01*
X98749501Y-25417553D01*
X98877553Y-25289501D01*
X98983996Y-25142994D01*
X99066211Y-24981639D01*
X99122171Y-24809409D01*
X99138303Y-24707557D01*
X99150500Y-24630551D01*
X99150500Y-24449448D01*
X99129383Y-24316126D01*
X99122171Y-24270591D01*
X99066211Y-24098361D01*
X99066211Y-24098360D01*
X99016335Y-24000475D01*
X98983996Y-23937006D01*
X98896558Y-23816657D01*
X98877558Y-23790505D01*
X98877554Y-23790500D01*
X98749499Y-23662445D01*
X98749494Y-23662441D01*
X98602997Y-23556006D01*
X98602996Y-23556005D01*
X98602994Y-23556004D01*
X98441639Y-23473789D01*
X98441638Y-23473788D01*
X98441633Y-23473786D01*
X98438574Y-23472519D01*
X98437588Y-23471725D01*
X98437298Y-23471577D01*
X98437329Y-23471515D01*
X98384168Y-23428681D01*
X98362100Y-23362388D01*
X98371461Y-23310500D01*
X98373202Y-23306294D01*
X98373207Y-23306287D01*
X98390324Y-23242404D01*
X98426687Y-23182746D01*
X98489534Y-23152216D01*
X98510098Y-23150499D01*
X98894856Y-23150499D01*
X98894864Y-23150499D01*
X98894879Y-23150497D01*
X98894882Y-23150497D01*
X98919987Y-23147586D01*
X98919988Y-23147585D01*
X98919991Y-23147585D01*
X99022765Y-23102206D01*
X99102206Y-23022765D01*
X99147585Y-22919991D01*
X99150500Y-22894865D01*
X99150499Y-21934174D01*
X99150499Y-21105130D01*
X99150154Y-21102155D01*
X122050000Y-21102155D01*
X122050000Y-21750000D01*
X122966988Y-21750000D01*
X122934075Y-21807007D01*
X122900000Y-21934174D01*
X122900000Y-22065826D01*
X122934075Y-22192993D01*
X122966988Y-22250000D01*
X122050000Y-22250000D01*
X122050000Y-22897844D01*
X122056401Y-22957372D01*
X122056403Y-22957379D01*
X122106645Y-23092086D01*
X122106649Y-23092093D01*
X122192809Y-23207187D01*
X122192812Y-23207190D01*
X122307906Y-23293350D01*
X122307913Y-23293354D01*
X122442620Y-23343596D01*
X122442627Y-23343598D01*
X122502155Y-23349999D01*
X122502172Y-23350000D01*
X122698913Y-23350000D01*
X122765952Y-23369685D01*
X122811707Y-23422489D01*
X122821651Y-23491647D01*
X122792626Y-23555203D01*
X122771798Y-23574318D01*
X122650504Y-23662441D01*
X122522445Y-23790500D01*
X122522441Y-23790505D01*
X122416006Y-23937002D01*
X122333788Y-24098360D01*
X122333787Y-24098363D01*
X122277829Y-24270589D01*
X122249500Y-24449448D01*
X122249500Y-24630551D01*
X122277829Y-24809410D01*
X122333787Y-24981636D01*
X122333788Y-24981639D01*
X122416006Y-25142997D01*
X122522441Y-25289494D01*
X122522445Y-25289499D01*
X122650500Y-25417554D01*
X122650505Y-25417558D01*
X122758310Y-25495882D01*
X122797006Y-25523996D01*
X122902484Y-25577740D01*
X122958360Y-25606211D01*
X122958363Y-25606212D01*
X123008331Y-25622447D01*
X123130591Y-25662171D01*
X123203639Y-25673740D01*
X123290678Y-25687527D01*
X123353813Y-25717456D01*
X123390744Y-25776768D01*
X123389746Y-25846631D01*
X123351136Y-25904863D01*
X123290678Y-25932473D01*
X123130589Y-25957829D01*
X122958363Y-26013787D01*
X122958360Y-26013788D01*
X122797002Y-26096006D01*
X122650505Y-26202441D01*
X122650500Y-26202445D01*
X122522445Y-26330500D01*
X122522441Y-26330505D01*
X122416006Y-26477002D01*
X122333788Y-26638360D01*
X122333787Y-26638363D01*
X122277829Y-26810589D01*
X122249500Y-26989448D01*
X122249500Y-27170551D01*
X122277829Y-27349410D01*
X122333787Y-27521636D01*
X122333788Y-27521639D01*
X122356500Y-27566212D01*
X122399447Y-27650500D01*
X122416006Y-27682997D01*
X122522441Y-27829494D01*
X122522445Y-27829499D01*
X122650500Y-27957554D01*
X122650505Y-27957558D01*
X122741663Y-28023787D01*
X122797006Y-28063996D01*
X122897320Y-28115109D01*
X122958360Y-28146211D01*
X122958363Y-28146212D01*
X123044476Y-28174191D01*
X123130591Y-28202171D01*
X123203639Y-28213740D01*
X123290678Y-28227527D01*
X123353813Y-28257456D01*
X123390744Y-28316768D01*
X123389746Y-28386631D01*
X123351136Y-28444863D01*
X123290678Y-28472473D01*
X123130589Y-28497829D01*
X122958363Y-28553787D01*
X122958360Y-28553788D01*
X122797002Y-28636006D01*
X122650505Y-28742441D01*
X122650500Y-28742445D01*
X122522445Y-28870500D01*
X122522441Y-28870505D01*
X122416006Y-29017002D01*
X122333788Y-29178360D01*
X122333787Y-29178363D01*
X122277829Y-29350589D01*
X122249500Y-29529448D01*
X122249500Y-29710551D01*
X122277829Y-29889410D01*
X122333787Y-30061636D01*
X122333788Y-30061639D01*
X122416006Y-30222997D01*
X122522441Y-30369494D01*
X122522445Y-30369499D01*
X122650500Y-30497554D01*
X122650505Y-30497558D01*
X122774071Y-30587333D01*
X122797006Y-30603996D01*
X122902484Y-30657740D01*
X122958360Y-30686211D01*
X122958363Y-30686212D01*
X123035597Y-30711306D01*
X123130591Y-30742171D01*
X123203639Y-30753740D01*
X123290678Y-30767527D01*
X123353813Y-30797456D01*
X123390744Y-30856768D01*
X123389746Y-30926631D01*
X123351136Y-30984863D01*
X123290678Y-31012473D01*
X123130589Y-31037829D01*
X122958363Y-31093787D01*
X122958360Y-31093788D01*
X122797002Y-31176006D01*
X122650505Y-31282441D01*
X122650500Y-31282445D01*
X122522445Y-31410500D01*
X122522441Y-31410505D01*
X122416006Y-31557002D01*
X122333788Y-31718360D01*
X122333787Y-31718363D01*
X122277829Y-31890589D01*
X122249500Y-32069448D01*
X122249500Y-32250551D01*
X122277829Y-32429410D01*
X122333787Y-32601636D01*
X122333788Y-32601639D01*
X122416006Y-32762997D01*
X122522441Y-32909494D01*
X122522445Y-32909499D01*
X122650500Y-33037554D01*
X122650505Y-33037558D01*
X122774071Y-33127333D01*
X122797006Y-33143996D01*
X122902484Y-33197740D01*
X122958360Y-33226211D01*
X122958363Y-33226212D01*
X123035597Y-33251306D01*
X123130591Y-33282171D01*
X123203639Y-33293740D01*
X123290678Y-33307527D01*
X123353813Y-33337456D01*
X123390744Y-33396768D01*
X123389746Y-33466631D01*
X123351136Y-33524863D01*
X123290678Y-33552473D01*
X123130589Y-33577829D01*
X122958363Y-33633787D01*
X122958360Y-33633788D01*
X122797002Y-33716006D01*
X122650505Y-33822441D01*
X122650500Y-33822445D01*
X122522445Y-33950500D01*
X122522441Y-33950505D01*
X122416006Y-34097002D01*
X122333788Y-34258360D01*
X122333787Y-34258363D01*
X122277829Y-34430589D01*
X122249500Y-34609448D01*
X122249500Y-34790551D01*
X122277829Y-34969410D01*
X122333787Y-35141636D01*
X122333788Y-35141639D01*
X122377108Y-35226657D01*
X122414733Y-35300500D01*
X122416006Y-35302997D01*
X122522441Y-35449494D01*
X122522445Y-35449499D01*
X122650500Y-35577554D01*
X122650505Y-35577558D01*
X122720104Y-35628124D01*
X122797006Y-35683996D01*
X122902484Y-35737740D01*
X122958360Y-35766211D01*
X122958363Y-35766212D01*
X123014400Y-35784419D01*
X123130591Y-35822171D01*
X123203639Y-35833740D01*
X123290678Y-35847527D01*
X123353813Y-35877456D01*
X123390744Y-35936768D01*
X123389746Y-36006631D01*
X123351136Y-36064863D01*
X123290678Y-36092473D01*
X123130589Y-36117829D01*
X122958363Y-36173787D01*
X122958360Y-36173788D01*
X122797002Y-36256006D01*
X122650505Y-36362441D01*
X122650500Y-36362445D01*
X122522445Y-36490500D01*
X122522441Y-36490505D01*
X122416006Y-36637002D01*
X122333788Y-36798360D01*
X122333787Y-36798363D01*
X122277829Y-36970589D01*
X122249500Y-37149448D01*
X122249500Y-37330551D01*
X122277829Y-37509410D01*
X122333787Y-37681636D01*
X122333788Y-37681639D01*
X122416006Y-37842997D01*
X122522441Y-37989494D01*
X122522445Y-37989499D01*
X122650500Y-38117554D01*
X122650505Y-38117558D01*
X122752495Y-38191657D01*
X122797006Y-38223996D01*
X122902484Y-38277740D01*
X122958360Y-38306211D01*
X122958363Y-38306212D01*
X123035597Y-38331306D01*
X123130591Y-38362171D01*
X123203639Y-38373740D01*
X123290678Y-38387527D01*
X123353813Y-38417456D01*
X123390744Y-38476768D01*
X123389746Y-38546631D01*
X123351136Y-38604863D01*
X123290678Y-38632473D01*
X123130589Y-38657829D01*
X122958363Y-38713787D01*
X122958360Y-38713788D01*
X122797002Y-38796006D01*
X122650505Y-38902441D01*
X122650500Y-38902445D01*
X122522445Y-39030500D01*
X122522441Y-39030505D01*
X122416006Y-39177002D01*
X122333788Y-39338360D01*
X122333787Y-39338363D01*
X122277829Y-39510589D01*
X122249500Y-39689448D01*
X122249500Y-39870551D01*
X122277829Y-40049410D01*
X122333787Y-40221636D01*
X122333788Y-40221639D01*
X122389664Y-40331300D01*
X122414733Y-40380500D01*
X122416006Y-40382997D01*
X122522441Y-40529494D01*
X122522445Y-40529499D01*
X122650500Y-40657554D01*
X122650505Y-40657558D01*
X122705330Y-40697390D01*
X122797006Y-40763996D01*
X122902484Y-40817740D01*
X122958360Y-40846211D01*
X122958363Y-40846212D01*
X123035597Y-40871306D01*
X123130591Y-40902171D01*
X123203639Y-40913740D01*
X123290678Y-40927527D01*
X123353813Y-40957456D01*
X123390744Y-41016768D01*
X123389746Y-41086631D01*
X123351136Y-41144863D01*
X123290678Y-41172473D01*
X123130589Y-41197829D01*
X122958363Y-41253787D01*
X122958360Y-41253788D01*
X122797002Y-41336006D01*
X122650505Y-41442441D01*
X122650500Y-41442445D01*
X122522445Y-41570500D01*
X122522441Y-41570505D01*
X122416006Y-41717002D01*
X122333788Y-41878360D01*
X122333787Y-41878363D01*
X122277829Y-42050589D01*
X122249500Y-42229448D01*
X122249500Y-42410551D01*
X122277829Y-42589410D01*
X122333787Y-42761636D01*
X122333788Y-42761639D01*
X122416006Y-42922997D01*
X122522441Y-43069494D01*
X122522445Y-43069499D01*
X122650500Y-43197554D01*
X122650505Y-43197558D01*
X122699124Y-43232881D01*
X122797006Y-43303996D01*
X122902484Y-43357740D01*
X122958360Y-43386211D01*
X122958363Y-43386212D01*
X123035597Y-43411306D01*
X123130591Y-43442171D01*
X123203639Y-43453740D01*
X123290678Y-43467527D01*
X123353813Y-43497456D01*
X123390744Y-43556768D01*
X123389746Y-43626631D01*
X123351136Y-43684863D01*
X123290678Y-43712473D01*
X123130589Y-43737829D01*
X122958363Y-43793787D01*
X122958360Y-43793788D01*
X122797002Y-43876006D01*
X122650505Y-43982441D01*
X122650500Y-43982445D01*
X122522445Y-44110500D01*
X122522441Y-44110505D01*
X122416006Y-44257002D01*
X122333788Y-44418360D01*
X122333787Y-44418363D01*
X122277829Y-44590589D01*
X122249500Y-44769448D01*
X122249500Y-44950551D01*
X122277829Y-45129410D01*
X122333787Y-45301636D01*
X122333788Y-45301639D01*
X122416006Y-45462997D01*
X122522441Y-45609494D01*
X122522445Y-45609499D01*
X122650500Y-45737554D01*
X122650505Y-45737558D01*
X122774071Y-45827333D01*
X122797006Y-45843996D01*
X122902484Y-45897740D01*
X122958360Y-45926211D01*
X122958363Y-45926212D01*
X123035597Y-45951306D01*
X123130591Y-45982171D01*
X123203639Y-45993740D01*
X123290678Y-46007527D01*
X123353813Y-46037456D01*
X123390744Y-46096768D01*
X123389746Y-46166631D01*
X123351136Y-46224863D01*
X123290678Y-46252473D01*
X123130589Y-46277829D01*
X122958363Y-46333787D01*
X122958360Y-46333788D01*
X122797002Y-46416006D01*
X122650505Y-46522441D01*
X122650500Y-46522445D01*
X122522445Y-46650500D01*
X122522441Y-46650505D01*
X122416006Y-46797002D01*
X122333788Y-46958360D01*
X122333787Y-46958363D01*
X122277829Y-47130589D01*
X122249500Y-47309448D01*
X122249500Y-47490551D01*
X122277829Y-47669410D01*
X122333787Y-47841636D01*
X122333788Y-47841639D01*
X122416006Y-48002997D01*
X122522441Y-48149494D01*
X122522445Y-48149499D01*
X122650500Y-48277554D01*
X122650505Y-48277558D01*
X122735593Y-48339377D01*
X122797006Y-48383996D01*
X122893297Y-48433059D01*
X122958360Y-48466211D01*
X122958363Y-48466212D01*
X123004542Y-48481216D01*
X123130591Y-48522171D01*
X123203639Y-48533740D01*
X123290678Y-48547527D01*
X123353813Y-48577456D01*
X123390744Y-48636768D01*
X123389746Y-48706631D01*
X123351136Y-48764863D01*
X123290678Y-48792473D01*
X123130589Y-48817829D01*
X122958363Y-48873787D01*
X122958360Y-48873788D01*
X122797002Y-48956006D01*
X122650505Y-49062441D01*
X122650500Y-49062445D01*
X122522445Y-49190500D01*
X122522441Y-49190505D01*
X122416006Y-49337002D01*
X122333788Y-49498360D01*
X122333787Y-49498363D01*
X122277829Y-49670589D01*
X122249500Y-49849448D01*
X122249500Y-50030551D01*
X122277829Y-50209410D01*
X122333787Y-50381636D01*
X122333788Y-50381639D01*
X122416006Y-50542997D01*
X122522441Y-50689494D01*
X122522445Y-50689499D01*
X122650500Y-50817554D01*
X122650505Y-50817558D01*
X122774071Y-50907333D01*
X122797006Y-50923996D01*
X122902484Y-50977740D01*
X122958360Y-51006211D01*
X122958363Y-51006212D01*
X123035597Y-51031306D01*
X123130591Y-51062171D01*
X123203639Y-51073740D01*
X123290678Y-51087527D01*
X123353813Y-51117456D01*
X123390744Y-51176768D01*
X123389746Y-51246631D01*
X123351136Y-51304863D01*
X123290678Y-51332473D01*
X123130589Y-51357829D01*
X122958363Y-51413787D01*
X122958360Y-51413788D01*
X122797002Y-51496006D01*
X122650505Y-51602441D01*
X122650500Y-51602445D01*
X122522445Y-51730500D01*
X122522441Y-51730505D01*
X122416006Y-51877002D01*
X122333788Y-52038360D01*
X122333787Y-52038363D01*
X122277829Y-52210589D01*
X122249500Y-52389448D01*
X122249500Y-52570551D01*
X122277829Y-52749410D01*
X122333787Y-52921636D01*
X122333788Y-52921639D01*
X122416006Y-53082997D01*
X122522441Y-53229494D01*
X122522445Y-53229499D01*
X122650500Y-53357554D01*
X122650505Y-53357558D01*
X122774071Y-53447333D01*
X122797006Y-53463996D01*
X122902484Y-53517740D01*
X122958360Y-53546211D01*
X122958363Y-53546212D01*
X123035597Y-53571306D01*
X123130591Y-53602171D01*
X123203639Y-53613740D01*
X123290678Y-53627527D01*
X123353813Y-53657456D01*
X123390744Y-53716768D01*
X123389746Y-53786631D01*
X123351136Y-53844863D01*
X123290678Y-53872473D01*
X123130589Y-53897829D01*
X122958363Y-53953787D01*
X122958360Y-53953788D01*
X122797002Y-54036006D01*
X122650505Y-54142441D01*
X122650500Y-54142445D01*
X122522445Y-54270500D01*
X122522441Y-54270505D01*
X122416006Y-54417002D01*
X122333788Y-54578360D01*
X122333787Y-54578363D01*
X122277829Y-54750589D01*
X122249500Y-54929448D01*
X122249500Y-55110551D01*
X122277829Y-55289410D01*
X122333787Y-55461636D01*
X122333788Y-55461639D01*
X122416006Y-55622997D01*
X122522441Y-55769494D01*
X122522445Y-55769499D01*
X122650500Y-55897554D01*
X122650505Y-55897558D01*
X122726803Y-55952991D01*
X122797006Y-56003996D01*
X122902484Y-56057740D01*
X122958360Y-56086211D01*
X122958363Y-56086212D01*
X123035597Y-56111306D01*
X123130591Y-56142171D01*
X123203639Y-56153740D01*
X123290678Y-56167527D01*
X123353813Y-56197456D01*
X123390744Y-56256768D01*
X123389746Y-56326631D01*
X123351136Y-56384863D01*
X123290678Y-56412473D01*
X123130589Y-56437829D01*
X122958363Y-56493787D01*
X122958360Y-56493788D01*
X122797002Y-56576006D01*
X122650505Y-56682441D01*
X122650500Y-56682445D01*
X122522445Y-56810500D01*
X122522441Y-56810505D01*
X122416006Y-56957002D01*
X122333788Y-57118360D01*
X122333787Y-57118363D01*
X122277829Y-57290589D01*
X122249500Y-57469448D01*
X122249500Y-57650551D01*
X122277829Y-57829410D01*
X122333787Y-58001636D01*
X122333788Y-58001639D01*
X122416006Y-58162997D01*
X122522441Y-58309494D01*
X122522445Y-58309499D01*
X122650500Y-58437554D01*
X122650505Y-58437558D01*
X122774071Y-58527333D01*
X122797006Y-58543996D01*
X122902484Y-58597740D01*
X122958360Y-58626211D01*
X122958363Y-58626212D01*
X123035597Y-58651306D01*
X123130591Y-58682171D01*
X123203639Y-58693740D01*
X123290678Y-58707527D01*
X123353813Y-58737456D01*
X123390744Y-58796768D01*
X123389746Y-58866631D01*
X123351136Y-58924863D01*
X123290678Y-58952473D01*
X123130589Y-58977829D01*
X122958363Y-59033787D01*
X122958360Y-59033788D01*
X122797002Y-59116006D01*
X122650505Y-59222441D01*
X122650500Y-59222445D01*
X122522445Y-59350500D01*
X122522441Y-59350505D01*
X122416006Y-59497002D01*
X122333788Y-59658360D01*
X122333787Y-59658363D01*
X122277829Y-59830589D01*
X122249500Y-60009448D01*
X122249500Y-60190551D01*
X122277829Y-60369410D01*
X122333787Y-60541636D01*
X122333788Y-60541639D01*
X122416006Y-60702997D01*
X122522441Y-60849494D01*
X122522445Y-60849499D01*
X122650500Y-60977554D01*
X122650505Y-60977558D01*
X122774071Y-61067333D01*
X122797006Y-61083996D01*
X122902484Y-61137740D01*
X122958360Y-61166211D01*
X122958363Y-61166212D01*
X123035597Y-61191306D01*
X123130591Y-61222171D01*
X123203639Y-61233740D01*
X123290678Y-61247527D01*
X123353813Y-61277456D01*
X123390744Y-61336768D01*
X123389746Y-61406631D01*
X123351136Y-61464863D01*
X123290678Y-61492473D01*
X123130589Y-61517829D01*
X122958363Y-61573787D01*
X122958360Y-61573788D01*
X122797002Y-61656006D01*
X122650505Y-61762441D01*
X122650500Y-61762445D01*
X122522445Y-61890500D01*
X122522441Y-61890505D01*
X122416006Y-62037002D01*
X122333788Y-62198360D01*
X122333787Y-62198363D01*
X122277829Y-62370589D01*
X122249500Y-62549448D01*
X122249500Y-62730551D01*
X122277829Y-62909410D01*
X122333787Y-63081636D01*
X122333788Y-63081639D01*
X122416006Y-63242997D01*
X122522441Y-63389494D01*
X122522445Y-63389499D01*
X122650500Y-63517554D01*
X122650505Y-63517558D01*
X122774071Y-63607333D01*
X122797006Y-63623996D01*
X122902484Y-63677740D01*
X122958360Y-63706211D01*
X122958363Y-63706212D01*
X123035597Y-63731306D01*
X123130591Y-63762171D01*
X123203639Y-63773740D01*
X123290678Y-63787527D01*
X123353813Y-63817456D01*
X123390744Y-63876768D01*
X123389746Y-63946631D01*
X123351136Y-64004863D01*
X123290678Y-64032473D01*
X123130589Y-64057829D01*
X122958363Y-64113787D01*
X122958360Y-64113788D01*
X122797002Y-64196006D01*
X122650505Y-64302441D01*
X122650500Y-64302445D01*
X122522445Y-64430500D01*
X122522441Y-64430505D01*
X122416006Y-64577002D01*
X122333788Y-64738360D01*
X122333787Y-64738363D01*
X122277829Y-64910589D01*
X122249500Y-65089448D01*
X122249500Y-65270551D01*
X122277829Y-65449410D01*
X122333787Y-65621636D01*
X122333788Y-65621639D01*
X122416006Y-65782997D01*
X122522441Y-65929494D01*
X122522445Y-65929499D01*
X122650500Y-66057554D01*
X122650505Y-66057558D01*
X122774071Y-66147333D01*
X122797006Y-66163996D01*
X122902484Y-66217740D01*
X122958360Y-66246211D01*
X122958363Y-66246212D01*
X123035597Y-66271306D01*
X123130591Y-66302171D01*
X123203639Y-66313740D01*
X123290678Y-66327527D01*
X123353813Y-66357456D01*
X123390744Y-66416768D01*
X123389746Y-66486631D01*
X123351136Y-66544863D01*
X123290678Y-66572473D01*
X123130589Y-66597829D01*
X122958363Y-66653787D01*
X122958360Y-66653788D01*
X122797002Y-66736006D01*
X122650505Y-66842441D01*
X122650500Y-66842445D01*
X122522445Y-66970500D01*
X122522441Y-66970505D01*
X122416006Y-67117002D01*
X122333788Y-67278360D01*
X122333787Y-67278363D01*
X122277829Y-67450589D01*
X122249500Y-67629448D01*
X122249500Y-67810551D01*
X122277829Y-67989410D01*
X122333787Y-68161636D01*
X122333788Y-68161639D01*
X122416006Y-68322997D01*
X122522441Y-68469494D01*
X122522445Y-68469499D01*
X122650500Y-68597554D01*
X122650505Y-68597558D01*
X122774071Y-68687333D01*
X122797006Y-68703996D01*
X122902484Y-68757740D01*
X122958360Y-68786211D01*
X122958363Y-68786212D01*
X123035597Y-68811306D01*
X123130591Y-68842171D01*
X123203639Y-68853740D01*
X123290678Y-68867527D01*
X123353813Y-68897456D01*
X123390744Y-68956768D01*
X123389746Y-69026631D01*
X123351136Y-69084863D01*
X123290678Y-69112473D01*
X123130589Y-69137829D01*
X122958363Y-69193787D01*
X122958360Y-69193788D01*
X122797002Y-69276006D01*
X122650505Y-69382441D01*
X122650500Y-69382445D01*
X122522445Y-69510500D01*
X122522441Y-69510505D01*
X122416006Y-69657002D01*
X122333788Y-69818360D01*
X122333787Y-69818363D01*
X122277829Y-69990589D01*
X122249500Y-70169448D01*
X122249500Y-70350551D01*
X122277829Y-70529410D01*
X122333787Y-70701636D01*
X122333788Y-70701639D01*
X122416006Y-70862997D01*
X122522441Y-71009494D01*
X122522445Y-71009499D01*
X122650500Y-71137554D01*
X122650505Y-71137558D01*
X122746852Y-71207557D01*
X122797006Y-71243996D01*
X122902484Y-71297740D01*
X122958360Y-71326211D01*
X122958363Y-71326212D01*
X123035597Y-71351306D01*
X123130591Y-71382171D01*
X123203639Y-71393740D01*
X123290678Y-71407527D01*
X123353813Y-71437456D01*
X123390744Y-71496768D01*
X123389746Y-71566631D01*
X123351136Y-71624863D01*
X123290678Y-71652473D01*
X123130589Y-71677829D01*
X122958363Y-71733787D01*
X122958360Y-71733788D01*
X122797002Y-71816006D01*
X122650505Y-71922441D01*
X122650500Y-71922445D01*
X122522445Y-72050500D01*
X122522441Y-72050505D01*
X122416006Y-72197002D01*
X122333788Y-72358360D01*
X122333787Y-72358363D01*
X122277829Y-72530589D01*
X122249500Y-72709448D01*
X122249500Y-72890551D01*
X122277829Y-73069410D01*
X122333787Y-73241636D01*
X122333788Y-73241639D01*
X122416006Y-73402997D01*
X122522441Y-73549494D01*
X122522445Y-73549499D01*
X122650500Y-73677554D01*
X122650505Y-73677558D01*
X122724835Y-73731561D01*
X122797006Y-73783996D01*
X122902484Y-73837740D01*
X122958360Y-73866211D01*
X122958363Y-73866212D01*
X123035597Y-73891306D01*
X123130591Y-73922171D01*
X123203639Y-73933740D01*
X123290678Y-73947527D01*
X123353813Y-73977456D01*
X123390744Y-74036768D01*
X123389746Y-74106631D01*
X123351136Y-74164863D01*
X123290678Y-74192473D01*
X123130589Y-74217829D01*
X122958363Y-74273787D01*
X122958360Y-74273788D01*
X122797002Y-74356006D01*
X122650505Y-74462441D01*
X122650500Y-74462445D01*
X122522445Y-74590500D01*
X122522441Y-74590505D01*
X122416006Y-74737002D01*
X122333788Y-74898360D01*
X122333787Y-74898363D01*
X122277829Y-75070589D01*
X122249500Y-75249448D01*
X122249500Y-75430551D01*
X122277829Y-75609410D01*
X122333787Y-75781636D01*
X122333788Y-75781639D01*
X122416006Y-75942997D01*
X122522441Y-76089494D01*
X122522445Y-76089499D01*
X122650500Y-76217554D01*
X122650505Y-76217558D01*
X122774071Y-76307333D01*
X122797006Y-76323996D01*
X122902484Y-76377740D01*
X122958360Y-76406211D01*
X122958363Y-76406212D01*
X123035597Y-76431306D01*
X123130591Y-76462171D01*
X123213429Y-76475291D01*
X123309449Y-76490500D01*
X123309454Y-76490500D01*
X123490551Y-76490500D01*
X123577259Y-76476765D01*
X123669409Y-76462171D01*
X123841639Y-76406211D01*
X124002994Y-76323996D01*
X124149501Y-76217553D01*
X124277553Y-76089501D01*
X124383996Y-75942994D01*
X124466211Y-75781639D01*
X124522171Y-75609409D01*
X124536765Y-75517259D01*
X124550500Y-75430551D01*
X124550500Y-75249448D01*
X124534019Y-75145397D01*
X124522171Y-75070591D01*
X124466211Y-74898361D01*
X124466211Y-74898360D01*
X124437740Y-74842484D01*
X124383996Y-74737006D01*
X124370396Y-74718287D01*
X124277558Y-74590505D01*
X124277554Y-74590500D01*
X124149499Y-74462445D01*
X124149494Y-74462441D01*
X124002997Y-74356006D01*
X124002996Y-74356005D01*
X124002994Y-74356004D01*
X123951300Y-74329664D01*
X123841639Y-74273788D01*
X123841636Y-74273787D01*
X123669410Y-74217829D01*
X123509321Y-74192473D01*
X123446186Y-74162544D01*
X123409255Y-74103232D01*
X123410253Y-74033370D01*
X123448863Y-73975137D01*
X123509321Y-73947527D01*
X123579425Y-73936422D01*
X123669409Y-73922171D01*
X123841639Y-73866211D01*
X124002994Y-73783996D01*
X124149501Y-73677553D01*
X124277553Y-73549501D01*
X124383996Y-73402994D01*
X124466211Y-73241639D01*
X124522171Y-73069409D01*
X124536765Y-72977259D01*
X124550500Y-72890551D01*
X124550500Y-72709448D01*
X124534019Y-72605397D01*
X124522171Y-72530591D01*
X124466211Y-72358361D01*
X124466211Y-72358360D01*
X124437740Y-72302484D01*
X124383996Y-72197006D01*
X124333611Y-72127656D01*
X124277558Y-72050505D01*
X124277554Y-72050500D01*
X124149499Y-71922445D01*
X124149494Y-71922441D01*
X124002997Y-71816006D01*
X124002996Y-71816005D01*
X124002994Y-71816004D01*
X123951300Y-71789664D01*
X123841639Y-71733788D01*
X123841636Y-71733787D01*
X123669410Y-71677829D01*
X123509321Y-71652473D01*
X123446186Y-71622544D01*
X123409255Y-71563232D01*
X123410253Y-71493370D01*
X123448863Y-71435137D01*
X123509321Y-71407527D01*
X123579425Y-71396422D01*
X123669409Y-71382171D01*
X123841639Y-71326211D01*
X124002994Y-71243996D01*
X124149501Y-71137553D01*
X124277553Y-71009501D01*
X124383996Y-70862994D01*
X124466211Y-70701639D01*
X124522171Y-70529409D01*
X124537255Y-70434174D01*
X124550500Y-70350551D01*
X124550500Y-70169448D01*
X124523661Y-70000000D01*
X124522171Y-69990591D01*
X124466211Y-69818361D01*
X124466211Y-69818360D01*
X124437740Y-69762484D01*
X124383996Y-69657006D01*
X124357498Y-69620535D01*
X124277558Y-69510505D01*
X124277554Y-69510500D01*
X124149499Y-69382445D01*
X124149494Y-69382441D01*
X124002997Y-69276006D01*
X124002996Y-69276005D01*
X124002994Y-69276004D01*
X123949808Y-69248904D01*
X123841639Y-69193788D01*
X123841636Y-69193787D01*
X123669410Y-69137829D01*
X123509321Y-69112473D01*
X123446186Y-69082544D01*
X123409255Y-69023232D01*
X123410253Y-68953370D01*
X123448863Y-68895137D01*
X123509321Y-68867527D01*
X123579425Y-68856422D01*
X123669409Y-68842171D01*
X123841639Y-68786211D01*
X124002994Y-68703996D01*
X124149501Y-68597553D01*
X124277553Y-68469501D01*
X124383996Y-68322994D01*
X124466211Y-68161639D01*
X124522171Y-67989409D01*
X124536765Y-67897259D01*
X124550500Y-67810551D01*
X124550500Y-67629448D01*
X124534019Y-67525397D01*
X124522171Y-67450591D01*
X124466211Y-67278361D01*
X124466211Y-67278360D01*
X124437740Y-67222484D01*
X124383996Y-67117006D01*
X124370396Y-67098287D01*
X124277558Y-66970505D01*
X124277554Y-66970500D01*
X124149499Y-66842445D01*
X124149494Y-66842441D01*
X124002997Y-66736006D01*
X124002996Y-66736005D01*
X124002994Y-66736004D01*
X123951300Y-66709664D01*
X123841639Y-66653788D01*
X123841636Y-66653787D01*
X123669410Y-66597829D01*
X123509321Y-66572473D01*
X123446186Y-66542544D01*
X123409255Y-66483232D01*
X123410253Y-66413370D01*
X123448863Y-66355137D01*
X123509321Y-66327527D01*
X123579425Y-66316422D01*
X123669409Y-66302171D01*
X123841639Y-66246211D01*
X124002994Y-66163996D01*
X124149501Y-66057553D01*
X124277553Y-65929501D01*
X124383996Y-65782994D01*
X124466211Y-65621639D01*
X124522171Y-65449409D01*
X124536765Y-65357259D01*
X124550500Y-65270551D01*
X124550500Y-65089448D01*
X124534019Y-64985397D01*
X124522171Y-64910591D01*
X124466211Y-64738361D01*
X124466211Y-64738360D01*
X124437740Y-64682484D01*
X124383996Y-64577006D01*
X124370396Y-64558287D01*
X124277558Y-64430505D01*
X124277554Y-64430500D01*
X124149499Y-64302445D01*
X124149494Y-64302441D01*
X124002997Y-64196006D01*
X124002996Y-64196005D01*
X124002994Y-64196004D01*
X123951300Y-64169664D01*
X123841639Y-64113788D01*
X123841636Y-64113787D01*
X123669410Y-64057829D01*
X123509321Y-64032473D01*
X123446186Y-64002544D01*
X123409255Y-63943232D01*
X123410253Y-63873370D01*
X123448863Y-63815137D01*
X123509321Y-63787527D01*
X123579425Y-63776422D01*
X123669409Y-63762171D01*
X123841639Y-63706211D01*
X124002994Y-63623996D01*
X124149501Y-63517553D01*
X124277553Y-63389501D01*
X124383996Y-63242994D01*
X124466211Y-63081639D01*
X124522171Y-62909409D01*
X124536765Y-62817259D01*
X124550500Y-62730551D01*
X124550500Y-62549448D01*
X124527021Y-62401213D01*
X124522171Y-62370591D01*
X124466211Y-62198361D01*
X124466211Y-62198360D01*
X124437740Y-62142484D01*
X124383996Y-62037006D01*
X124370396Y-62018287D01*
X124277558Y-61890505D01*
X124277554Y-61890500D01*
X124149499Y-61762445D01*
X124149494Y-61762441D01*
X124002997Y-61656006D01*
X124002996Y-61656005D01*
X124002994Y-61656004D01*
X123951300Y-61629664D01*
X123841639Y-61573788D01*
X123841636Y-61573787D01*
X123669410Y-61517829D01*
X123509321Y-61492473D01*
X123446186Y-61462544D01*
X123409255Y-61403232D01*
X123410253Y-61333370D01*
X123448863Y-61275137D01*
X123509321Y-61247527D01*
X123579425Y-61236422D01*
X123669409Y-61222171D01*
X123841639Y-61166211D01*
X124002994Y-61083996D01*
X124149501Y-60977553D01*
X124277553Y-60849501D01*
X124383996Y-60702994D01*
X124466211Y-60541639D01*
X124522171Y-60369409D01*
X124536765Y-60277259D01*
X124550500Y-60190551D01*
X124550500Y-60009448D01*
X124534019Y-59905397D01*
X124522171Y-59830591D01*
X124466211Y-59658361D01*
X124466211Y-59658360D01*
X124437740Y-59602484D01*
X124383996Y-59497006D01*
X124370396Y-59478287D01*
X124277558Y-59350505D01*
X124277554Y-59350500D01*
X124149499Y-59222445D01*
X124149494Y-59222441D01*
X124002997Y-59116006D01*
X124002996Y-59116005D01*
X124002994Y-59116004D01*
X123951300Y-59089664D01*
X123841639Y-59033788D01*
X123841636Y-59033787D01*
X123669410Y-58977829D01*
X123509321Y-58952473D01*
X123446186Y-58922544D01*
X123409255Y-58863232D01*
X123410253Y-58793370D01*
X123448863Y-58735137D01*
X123509321Y-58707527D01*
X123579425Y-58696422D01*
X123669409Y-58682171D01*
X123841639Y-58626211D01*
X124002994Y-58543996D01*
X124149501Y-58437553D01*
X124277553Y-58309501D01*
X124383996Y-58162994D01*
X124466211Y-58001639D01*
X124522171Y-57829409D01*
X124536765Y-57737259D01*
X124550500Y-57650551D01*
X124550500Y-57469448D01*
X124523889Y-57301440D01*
X124522171Y-57290591D01*
X124491570Y-57196409D01*
X124466212Y-57118363D01*
X124466211Y-57118360D01*
X124401071Y-56990518D01*
X124383996Y-56957006D01*
X124347488Y-56906757D01*
X124277558Y-56810505D01*
X124277554Y-56810500D01*
X124149499Y-56682445D01*
X124149494Y-56682441D01*
X124002997Y-56576006D01*
X124002996Y-56576005D01*
X124002994Y-56576004D01*
X123940393Y-56544107D01*
X123841639Y-56493788D01*
X123841636Y-56493787D01*
X123669410Y-56437829D01*
X123509321Y-56412473D01*
X123446186Y-56382544D01*
X123409255Y-56323232D01*
X123410253Y-56253370D01*
X123448863Y-56195137D01*
X123509321Y-56167527D01*
X123579425Y-56156422D01*
X123669409Y-56142171D01*
X123841639Y-56086211D01*
X124002994Y-56003996D01*
X124149501Y-55897553D01*
X124277553Y-55769501D01*
X124383996Y-55622994D01*
X124466211Y-55461639D01*
X124522171Y-55289409D01*
X124536765Y-55197259D01*
X124550500Y-55110551D01*
X124550500Y-54929448D01*
X124534019Y-54825397D01*
X124522171Y-54750591D01*
X124466211Y-54578361D01*
X124466211Y-54578360D01*
X124437740Y-54522484D01*
X124383996Y-54417006D01*
X124370396Y-54398287D01*
X124277558Y-54270505D01*
X124277554Y-54270500D01*
X124149499Y-54142445D01*
X124149494Y-54142441D01*
X124002997Y-54036006D01*
X124002996Y-54036005D01*
X124002994Y-54036004D01*
X123951300Y-54009664D01*
X123841639Y-53953788D01*
X123841636Y-53953787D01*
X123669410Y-53897829D01*
X123509321Y-53872473D01*
X123446186Y-53842544D01*
X123409255Y-53783232D01*
X123410253Y-53713370D01*
X123448863Y-53655137D01*
X123509321Y-53627527D01*
X123579425Y-53616422D01*
X123669409Y-53602171D01*
X123841639Y-53546211D01*
X124002994Y-53463996D01*
X124149501Y-53357553D01*
X124277553Y-53229501D01*
X124383996Y-53082994D01*
X124466211Y-52921639D01*
X124522171Y-52749409D01*
X124536765Y-52657259D01*
X124550500Y-52570551D01*
X124550500Y-52389448D01*
X124534019Y-52285397D01*
X124522171Y-52210591D01*
X124491744Y-52116945D01*
X124466212Y-52038363D01*
X124466211Y-52038360D01*
X124435944Y-51978960D01*
X124383996Y-51877006D01*
X124361043Y-51845414D01*
X124277558Y-51730505D01*
X124277554Y-51730500D01*
X124149499Y-51602445D01*
X124149494Y-51602441D01*
X124002997Y-51496006D01*
X124002996Y-51496005D01*
X124002994Y-51496004D01*
X123951300Y-51469664D01*
X123841639Y-51413788D01*
X123841636Y-51413787D01*
X123669410Y-51357829D01*
X123509321Y-51332473D01*
X123446186Y-51302544D01*
X123409255Y-51243232D01*
X123410253Y-51173370D01*
X123448863Y-51115137D01*
X123509321Y-51087527D01*
X123579425Y-51076422D01*
X123669409Y-51062171D01*
X123841639Y-51006211D01*
X124002994Y-50923996D01*
X124149501Y-50817553D01*
X124277553Y-50689501D01*
X124383996Y-50542994D01*
X124466211Y-50381639D01*
X124522171Y-50209409D01*
X124536765Y-50117259D01*
X124550500Y-50030551D01*
X124550500Y-49849448D01*
X124534019Y-49745397D01*
X124522171Y-49670591D01*
X124466211Y-49498361D01*
X124466211Y-49498360D01*
X124414876Y-49397612D01*
X124383996Y-49337006D01*
X124337183Y-49272573D01*
X124277558Y-49190505D01*
X124277554Y-49190500D01*
X124149499Y-49062445D01*
X124149494Y-49062441D01*
X124002997Y-48956006D01*
X124002996Y-48956005D01*
X124002994Y-48956004D01*
X123951300Y-48929664D01*
X123841639Y-48873788D01*
X123841636Y-48873787D01*
X123669410Y-48817829D01*
X123509321Y-48792473D01*
X123446186Y-48762544D01*
X123409255Y-48703232D01*
X123410253Y-48633370D01*
X123448863Y-48575137D01*
X123509321Y-48547527D01*
X123579425Y-48536422D01*
X123669409Y-48522171D01*
X123841639Y-48466211D01*
X124002994Y-48383996D01*
X124149501Y-48277553D01*
X124277553Y-48149501D01*
X124383996Y-48002994D01*
X124466211Y-47841639D01*
X124522171Y-47669409D01*
X124541399Y-47548009D01*
X124550500Y-47490551D01*
X124550500Y-47309448D01*
X124532025Y-47192807D01*
X124522171Y-47130591D01*
X124487242Y-47023090D01*
X124466212Y-46958363D01*
X124466211Y-46958360D01*
X124437740Y-46902484D01*
X124383996Y-46797006D01*
X124349765Y-46749891D01*
X124277558Y-46650505D01*
X124277554Y-46650500D01*
X124149499Y-46522445D01*
X124149494Y-46522441D01*
X124002997Y-46416006D01*
X124002996Y-46416005D01*
X124002994Y-46416004D01*
X123930743Y-46379190D01*
X123841639Y-46333788D01*
X123841636Y-46333787D01*
X123669410Y-46277829D01*
X123509321Y-46252473D01*
X123446186Y-46222544D01*
X123409255Y-46163232D01*
X123410253Y-46093370D01*
X123448863Y-46035137D01*
X123509321Y-46007527D01*
X123579425Y-45996422D01*
X123669409Y-45982171D01*
X123841639Y-45926211D01*
X124002994Y-45843996D01*
X124149501Y-45737553D01*
X124277553Y-45609501D01*
X124383996Y-45462994D01*
X124466211Y-45301639D01*
X124522171Y-45129409D01*
X124543033Y-44997694D01*
X124550500Y-44950551D01*
X124550500Y-44769448D01*
X124531730Y-44650943D01*
X124522171Y-44590591D01*
X124466211Y-44418361D01*
X124466211Y-44418360D01*
X124437740Y-44362484D01*
X124383996Y-44257006D01*
X124370396Y-44238287D01*
X124277558Y-44110505D01*
X124277554Y-44110500D01*
X124149499Y-43982445D01*
X124149494Y-43982441D01*
X124002997Y-43876006D01*
X124002996Y-43876005D01*
X124002994Y-43876004D01*
X123951300Y-43849664D01*
X123841639Y-43793788D01*
X123841636Y-43793787D01*
X123669410Y-43737829D01*
X123509321Y-43712473D01*
X123446186Y-43682544D01*
X123409255Y-43623232D01*
X123410253Y-43553370D01*
X123448863Y-43495137D01*
X123509321Y-43467527D01*
X123579425Y-43456422D01*
X123669409Y-43442171D01*
X123841639Y-43386211D01*
X124002994Y-43303996D01*
X124149501Y-43197553D01*
X124277553Y-43069501D01*
X124383996Y-42922994D01*
X124466211Y-42761639D01*
X124522171Y-42589409D01*
X124542062Y-42463824D01*
X124550500Y-42410551D01*
X124550500Y-42229448D01*
X124527785Y-42086038D01*
X124522171Y-42050591D01*
X124491217Y-41955322D01*
X124466212Y-41878363D01*
X124466211Y-41878360D01*
X124432185Y-41811581D01*
X124383996Y-41717006D01*
X124370396Y-41698287D01*
X124277558Y-41570505D01*
X124277554Y-41570500D01*
X124149499Y-41442445D01*
X124149494Y-41442441D01*
X124002997Y-41336006D01*
X124002996Y-41336005D01*
X124002994Y-41336004D01*
X123928178Y-41297883D01*
X123841639Y-41253788D01*
X123841636Y-41253787D01*
X123669410Y-41197829D01*
X123509321Y-41172473D01*
X123446186Y-41142544D01*
X123409255Y-41083232D01*
X123410253Y-41013370D01*
X123448863Y-40955137D01*
X123509321Y-40927527D01*
X123579425Y-40916422D01*
X123669409Y-40902171D01*
X123841639Y-40846211D01*
X124002994Y-40763996D01*
X124149501Y-40657553D01*
X124277553Y-40529501D01*
X124383996Y-40382994D01*
X124466211Y-40221639D01*
X124522171Y-40049409D01*
X124548436Y-39883579D01*
X124550500Y-39870551D01*
X124550500Y-39689448D01*
X124528129Y-39548209D01*
X124522171Y-39510591D01*
X124466211Y-39338361D01*
X124466211Y-39338360D01*
X124428204Y-39263769D01*
X124383996Y-39177006D01*
X124370396Y-39158287D01*
X124277558Y-39030505D01*
X124277554Y-39030500D01*
X124149499Y-38902445D01*
X124149494Y-38902441D01*
X124002997Y-38796006D01*
X124002996Y-38796005D01*
X124002994Y-38796004D01*
X123951300Y-38769664D01*
X123841639Y-38713788D01*
X123841636Y-38713787D01*
X123669410Y-38657829D01*
X123509321Y-38632473D01*
X123446186Y-38602544D01*
X123409255Y-38543232D01*
X123410253Y-38473370D01*
X123448863Y-38415137D01*
X123509321Y-38387527D01*
X123579425Y-38376422D01*
X123669409Y-38362171D01*
X123841639Y-38306211D01*
X124002994Y-38223996D01*
X124149501Y-38117553D01*
X124277553Y-37989501D01*
X124383996Y-37842994D01*
X124466211Y-37681639D01*
X124522171Y-37509409D01*
X124536765Y-37417259D01*
X124550500Y-37330551D01*
X124550500Y-37149448D01*
X124534019Y-37045397D01*
X124522171Y-36970591D01*
X124466211Y-36798361D01*
X124466211Y-36798360D01*
X124437740Y-36742484D01*
X124383996Y-36637006D01*
X124337997Y-36573693D01*
X124277558Y-36490505D01*
X124277554Y-36490500D01*
X124149499Y-36362445D01*
X124149494Y-36362441D01*
X124002997Y-36256006D01*
X124002996Y-36256005D01*
X124002994Y-36256004D01*
X123951300Y-36229664D01*
X123841639Y-36173788D01*
X123841636Y-36173787D01*
X123669410Y-36117829D01*
X123509321Y-36092473D01*
X123446186Y-36062544D01*
X123409255Y-36003232D01*
X123410253Y-35933370D01*
X123448863Y-35875137D01*
X123509321Y-35847527D01*
X123579425Y-35836422D01*
X123669409Y-35822171D01*
X123841639Y-35766211D01*
X124002994Y-35683996D01*
X124149501Y-35577553D01*
X124277553Y-35449501D01*
X124383996Y-35302994D01*
X124466211Y-35141639D01*
X124522171Y-34969409D01*
X124543108Y-34837217D01*
X124550500Y-34790551D01*
X124550500Y-34609448D01*
X124528129Y-34468209D01*
X124522171Y-34430591D01*
X124466211Y-34258361D01*
X124466211Y-34258360D01*
X124409989Y-34148020D01*
X124383996Y-34097006D01*
X124336535Y-34031681D01*
X124277558Y-33950505D01*
X124277554Y-33950500D01*
X124149499Y-33822445D01*
X124149494Y-33822441D01*
X124002997Y-33716006D01*
X124002996Y-33716005D01*
X124002994Y-33716004D01*
X123951300Y-33689664D01*
X123841639Y-33633788D01*
X123841636Y-33633787D01*
X123669410Y-33577829D01*
X123509321Y-33552473D01*
X123446186Y-33522544D01*
X123409255Y-33463232D01*
X123410253Y-33393370D01*
X123448863Y-33335137D01*
X123509321Y-33307527D01*
X123579425Y-33296422D01*
X123669409Y-33282171D01*
X123841639Y-33226211D01*
X124002994Y-33143996D01*
X124149501Y-33037553D01*
X124277553Y-32909501D01*
X124383996Y-32762994D01*
X124466211Y-32601639D01*
X124522171Y-32429409D01*
X124536765Y-32337259D01*
X124550500Y-32250551D01*
X124550500Y-32069448D01*
X124534019Y-31965397D01*
X124522171Y-31890591D01*
X124466211Y-31718361D01*
X124466211Y-31718360D01*
X124437740Y-31662484D01*
X124383996Y-31557006D01*
X124370396Y-31538287D01*
X124277558Y-31410505D01*
X124277554Y-31410500D01*
X124149499Y-31282445D01*
X124149494Y-31282441D01*
X124002997Y-31176006D01*
X124002996Y-31176005D01*
X124002994Y-31176004D01*
X123951300Y-31149664D01*
X123841639Y-31093788D01*
X123841636Y-31093787D01*
X123669410Y-31037829D01*
X123509321Y-31012473D01*
X123446186Y-30982544D01*
X123409255Y-30923232D01*
X123410253Y-30853370D01*
X123448863Y-30795137D01*
X123509321Y-30767527D01*
X123579425Y-30756422D01*
X123669409Y-30742171D01*
X123841639Y-30686211D01*
X124002994Y-30603996D01*
X124149501Y-30497553D01*
X124277553Y-30369501D01*
X124383996Y-30222994D01*
X124466211Y-30061639D01*
X124522171Y-29889409D01*
X124536765Y-29797259D01*
X124550500Y-29710551D01*
X124550500Y-29529448D01*
X124524071Y-29362589D01*
X124522171Y-29350591D01*
X124466211Y-29178361D01*
X124466211Y-29178360D01*
X124437740Y-29122484D01*
X124383996Y-29017006D01*
X124370396Y-28998287D01*
X124277558Y-28870505D01*
X124277554Y-28870500D01*
X124149499Y-28742445D01*
X124149494Y-28742441D01*
X124002997Y-28636006D01*
X124002996Y-28636005D01*
X124002994Y-28636004D01*
X123933312Y-28600499D01*
X123841639Y-28553788D01*
X123841636Y-28553787D01*
X123669410Y-28497829D01*
X123509321Y-28472473D01*
X123446186Y-28442544D01*
X123409255Y-28383232D01*
X123410253Y-28313370D01*
X123448863Y-28255137D01*
X123509321Y-28227527D01*
X123579425Y-28216422D01*
X123669409Y-28202171D01*
X123841639Y-28146211D01*
X124002994Y-28063996D01*
X124149501Y-27957553D01*
X124277553Y-27829501D01*
X124383996Y-27682994D01*
X124466211Y-27521639D01*
X124466913Y-27519480D01*
X124492599Y-27440423D01*
X124522171Y-27349409D01*
X124537996Y-27249494D01*
X124550500Y-27170551D01*
X124550500Y-26989448D01*
X124534019Y-26885397D01*
X124522171Y-26810591D01*
X124466211Y-26638361D01*
X124466211Y-26638360D01*
X124437740Y-26582484D01*
X124383996Y-26477006D01*
X124288176Y-26345120D01*
X124277558Y-26330505D01*
X124277554Y-26330500D01*
X124149499Y-26202445D01*
X124149494Y-26202441D01*
X124002997Y-26096006D01*
X124002996Y-26096005D01*
X124002994Y-26096004D01*
X123929114Y-26058360D01*
X123841639Y-26013788D01*
X123841636Y-26013787D01*
X123669410Y-25957829D01*
X123509321Y-25932473D01*
X123446186Y-25902544D01*
X123409255Y-25843232D01*
X123410253Y-25773370D01*
X123448863Y-25715137D01*
X123509321Y-25687527D01*
X123579425Y-25676422D01*
X123669409Y-25662171D01*
X123841639Y-25606211D01*
X124002994Y-25523996D01*
X124149501Y-25417553D01*
X124277553Y-25289501D01*
X124383996Y-25142994D01*
X124466211Y-24981639D01*
X124522171Y-24809409D01*
X124538303Y-24707557D01*
X124550500Y-24630551D01*
X124550500Y-24449448D01*
X124529383Y-24316126D01*
X124522171Y-24270591D01*
X124466211Y-24098361D01*
X124466211Y-24098360D01*
X124416335Y-24000475D01*
X124383996Y-23937006D01*
X124296558Y-23816657D01*
X124277558Y-23790505D01*
X124277554Y-23790500D01*
X124149495Y-23662441D01*
X124028202Y-23574318D01*
X123985536Y-23518989D01*
X123979557Y-23449375D01*
X124012162Y-23387580D01*
X124073001Y-23353223D01*
X124101087Y-23350000D01*
X124297828Y-23350000D01*
X124297844Y-23349999D01*
X124357372Y-23343598D01*
X124357379Y-23343596D01*
X124492086Y-23293354D01*
X124492093Y-23293350D01*
X124607187Y-23207190D01*
X124607190Y-23207187D01*
X124693350Y-23092093D01*
X124693354Y-23092086D01*
X124743596Y-22957379D01*
X124743598Y-22957372D01*
X124749999Y-22897844D01*
X124750000Y-22897827D01*
X124750000Y-22250000D01*
X123833012Y-22250000D01*
X123865925Y-22192993D01*
X123900000Y-22065826D01*
X123900000Y-21934174D01*
X123865925Y-21807007D01*
X123833012Y-21750000D01*
X124750000Y-21750000D01*
X124750000Y-21102172D01*
X124749999Y-21102155D01*
X124743598Y-21042627D01*
X124743596Y-21042620D01*
X124693354Y-20907913D01*
X124693350Y-20907906D01*
X124607190Y-20792812D01*
X124607187Y-20792809D01*
X124492093Y-20706649D01*
X124492086Y-20706645D01*
X124357379Y-20656403D01*
X124357372Y-20656401D01*
X124297844Y-20650000D01*
X123650000Y-20650000D01*
X123650000Y-21566988D01*
X123592993Y-21534075D01*
X123465826Y-21500000D01*
X123334174Y-21500000D01*
X123207007Y-21534075D01*
X123150000Y-21566988D01*
X123150000Y-20650000D01*
X122502155Y-20650000D01*
X122442627Y-20656401D01*
X122442620Y-20656403D01*
X122307913Y-20706645D01*
X122307906Y-20706649D01*
X122192812Y-20792809D01*
X122192809Y-20792812D01*
X122106649Y-20907906D01*
X122106645Y-20907913D01*
X122056403Y-21042620D01*
X122056401Y-21042627D01*
X122050000Y-21102155D01*
X99150154Y-21102155D01*
X99147586Y-21080012D01*
X99147585Y-21080010D01*
X99147585Y-21080009D01*
X99102206Y-20977235D01*
X99022765Y-20897794D01*
X99016707Y-20895119D01*
X98919992Y-20852415D01*
X98894868Y-20849500D01*
X98894865Y-20849500D01*
X98524500Y-20849500D01*
X98457461Y-20829815D01*
X98411706Y-20777011D01*
X98400500Y-20725500D01*
X98400500Y-18447275D01*
X98400500Y-18447273D01*
X98373207Y-18345413D01*
X98320480Y-18254087D01*
X98245913Y-18179520D01*
X98154587Y-18126793D01*
X98052727Y-18099500D01*
X98052726Y-18099500D01*
X82023796Y-18099500D01*
X82012570Y-18098991D01*
X81983749Y-18096371D01*
X81976121Y-18097689D01*
X81955006Y-18099500D01*
X78524500Y-18099500D01*
X78457461Y-18079815D01*
X78411706Y-18027011D01*
X78400500Y-17975500D01*
X78400500Y-17500098D01*
X78420185Y-17433059D01*
X78436819Y-17412417D01*
X78480520Y-17368716D01*
X78559577Y-17231784D01*
X78600500Y-17079057D01*
X78600500Y-16920943D01*
X78559577Y-16768216D01*
X78559573Y-16768209D01*
X78480524Y-16631290D01*
X78480518Y-16631282D01*
X78368717Y-16519481D01*
X78368709Y-16519475D01*
X78231790Y-16440426D01*
X78231786Y-16440424D01*
X78231784Y-16440423D01*
X78079057Y-16399500D01*
X77920943Y-16399500D01*
X77768216Y-16440423D01*
X77768209Y-16440426D01*
X77631290Y-16519475D01*
X77631282Y-16519481D01*
X77519481Y-16631282D01*
X77519475Y-16631290D01*
X77440426Y-16768209D01*
X77440423Y-16768216D01*
X77399500Y-16920943D01*
X20800000Y-16920943D01*
X20800000Y-13878711D01*
X22149500Y-13878711D01*
X22149500Y-14121288D01*
X22181161Y-14361785D01*
X22243947Y-14596104D01*
X22336773Y-14820205D01*
X22336776Y-14820212D01*
X22458064Y-15030289D01*
X22458066Y-15030292D01*
X22458067Y-15030293D01*
X22605733Y-15222736D01*
X22605739Y-15222743D01*
X22777256Y-15394260D01*
X22777262Y-15394265D01*
X22969711Y-15541936D01*
X23179788Y-15663224D01*
X23403900Y-15756054D01*
X23638211Y-15818838D01*
X23818586Y-15842584D01*
X23878711Y-15850500D01*
X23878712Y-15850500D01*
X24121289Y-15850500D01*
X24169388Y-15844167D01*
X24361789Y-15818838D01*
X24596100Y-15756054D01*
X24820212Y-15663224D01*
X25030289Y-15541936D01*
X25222738Y-15394265D01*
X25394265Y-15222738D01*
X25541936Y-15030289D01*
X25663224Y-14820212D01*
X25756054Y-14596100D01*
X25818838Y-14361789D01*
X25850500Y-14121288D01*
X25850500Y-13878712D01*
X25850500Y-13878711D01*
X134149500Y-13878711D01*
X134149500Y-14121288D01*
X134181161Y-14361785D01*
X134243947Y-14596104D01*
X134336773Y-14820205D01*
X134336776Y-14820212D01*
X134458064Y-15030289D01*
X134458066Y-15030292D01*
X134458067Y-15030293D01*
X134605733Y-15222736D01*
X134605739Y-15222743D01*
X134777256Y-15394260D01*
X134777262Y-15394265D01*
X134969711Y-15541936D01*
X135179788Y-15663224D01*
X135403900Y-15756054D01*
X135638211Y-15818838D01*
X135818586Y-15842584D01*
X135878711Y-15850500D01*
X135878712Y-15850500D01*
X136121289Y-15850500D01*
X136169388Y-15844167D01*
X136361789Y-15818838D01*
X136596100Y-15756054D01*
X136820212Y-15663224D01*
X137030289Y-15541936D01*
X137222738Y-15394265D01*
X137394265Y-15222738D01*
X137541936Y-15030289D01*
X137663224Y-14820212D01*
X137756054Y-14596100D01*
X137818838Y-14361789D01*
X137850500Y-14121288D01*
X137850500Y-13878712D01*
X137818838Y-13638211D01*
X137756054Y-13403900D01*
X137663224Y-13179788D01*
X137541936Y-12969711D01*
X137394265Y-12777262D01*
X137394260Y-12777256D01*
X137222743Y-12605739D01*
X137222736Y-12605733D01*
X137030293Y-12458067D01*
X137030292Y-12458066D01*
X137030289Y-12458064D01*
X136820212Y-12336776D01*
X136820205Y-12336773D01*
X136596104Y-12243947D01*
X136361785Y-12181161D01*
X136121289Y-12149500D01*
X136121288Y-12149500D01*
X135878712Y-12149500D01*
X135878711Y-12149500D01*
X135638214Y-12181161D01*
X135403895Y-12243947D01*
X135179794Y-12336773D01*
X135179785Y-12336777D01*
X134969706Y-12458067D01*
X134777263Y-12605733D01*
X134777256Y-12605739D01*
X134605739Y-12777256D01*
X134605733Y-12777263D01*
X134458067Y-12969706D01*
X134336777Y-13179785D01*
X134336773Y-13179794D01*
X134243947Y-13403895D01*
X134181161Y-13638214D01*
X134149500Y-13878711D01*
X25850500Y-13878711D01*
X25818838Y-13638211D01*
X25756054Y-13403900D01*
X25663224Y-13179788D01*
X25541936Y-12969711D01*
X25394265Y-12777262D01*
X25394260Y-12777256D01*
X25222743Y-12605739D01*
X25222736Y-12605733D01*
X25030293Y-12458067D01*
X25030292Y-12458066D01*
X25030289Y-12458064D01*
X24820212Y-12336776D01*
X24820205Y-12336773D01*
X24596104Y-12243947D01*
X24361785Y-12181161D01*
X24121289Y-12149500D01*
X24121288Y-12149500D01*
X23878712Y-12149500D01*
X23878711Y-12149500D01*
X23638214Y-12181161D01*
X23403895Y-12243947D01*
X23179794Y-12336773D01*
X23179785Y-12336777D01*
X22969706Y-12458067D01*
X22777263Y-12605733D01*
X22777256Y-12605739D01*
X22605739Y-12777256D01*
X22605733Y-12777263D01*
X22458067Y-12969706D01*
X22336777Y-13179785D01*
X22336773Y-13179794D01*
X22243947Y-13403895D01*
X22181161Y-13638214D01*
X22149500Y-13878711D01*
X20800000Y-13878711D01*
X20800000Y-10924000D01*
X20819685Y-10856961D01*
X20872489Y-10811206D01*
X20924000Y-10800000D01*
X139076000Y-10800000D01*
X139143039Y-10819685D01*
G37*
%TD.AperFunction*%
%TD*%
M02*
