%TF.GenerationSoftware,KiCad,Pcbnew,10.0.6*%
%TF.CreationDate,2026-10-05T01:53:50+02:00*%
%TF.ProjectId,BMW-E9x-KCAN-Bidirectional,424d572d-4539-4782-9d4b-43414e2d4269,3H-A*%
%TF.SameCoordinates,Original*%
%TF.FileFunction,Copper,L1,Top*%
%TF.FilePolarity,Positive*%
%FSLAX46Y46*%
G04 Gerber Fmt 4.6, Leading zero omitted, Abs format (unit mm)*
G04 Created by KiCad (PCBNEW 10.0.6) date 2026-10-05 01:53:50*
%MOMM*%
%LPD*%
G01*
G04 APERTURE LIST*
G04 Aperture macros list*
%AMRoundRect*
0 Rectangle with rounded corners*
0 $1 Rounding radius*
0 $2 $3 $4 $5 $6 $7 $8 $9 X,Y pos of 4 corners*
0 Add a 4 corners polygon primitive as box body*
4,1,4,$2,$3,$4,$5,$6,$7,$8,$9,$2,$3,0*
0 Add four circle primitives for the rounded corners*
1,1,$1+$1,$2,$3*
1,1,$1+$1,$4,$5*
1,1,$1+$1,$6,$7*
1,1,$1+$1,$8,$9*
0 Add four rect primitives between the rounded corners*
20,1,$1+$1,$2,$3,$4,$5,0*
20,1,$1+$1,$4,$5,$6,$7,0*
20,1,$1+$1,$6,$7,$8,$9,0*
20,1,$1+$1,$8,$9,$2,$3,0*%
G04 Aperture macros list end*
%TA.AperFunction,SMDPad,CuDef*%
%ADD10RoundRect,0.250000X-0.250000X-0.475000X0.250000X-0.475000X0.250000X0.475000X-0.250000X0.475000X0*%
%TD*%
%TA.AperFunction,SMDPad,CuDef*%
%ADD11RoundRect,0.087500X0.425000X0.087500X-0.425000X0.087500X-0.425000X-0.087500X0.425000X-0.087500X0*%
%TD*%
%TA.AperFunction,SMDPad,CuDef*%
%ADD12RoundRect,0.250000X-0.262500X-0.450000X0.262500X-0.450000X0.262500X0.450000X-0.262500X0.450000X0*%
%TD*%
%TA.AperFunction,ComponentPad*%
%ADD13RoundRect,0.250000X0.750000X-0.600000X0.750000X0.600000X-0.750000X0.600000X-0.750000X-0.600000X0*%
%TD*%
%TA.AperFunction,ComponentPad*%
%ADD14O,2.000000X1.700000*%
%TD*%
%TA.AperFunction,SMDPad,CuDef*%
%ADD15C,1.500000*%
%TD*%
%TA.AperFunction,ComponentPad*%
%ADD16R,1.700000X1.700000*%
%TD*%
%TA.AperFunction,ComponentPad*%
%ADD17C,1.700000*%
%TD*%
%TA.AperFunction,SMDPad,CuDef*%
%ADD18RoundRect,0.250000X-0.325000X-0.650000X0.325000X-0.650000X0.325000X0.650000X-0.325000X0.650000X0*%
%TD*%
%TA.AperFunction,SMDPad,CuDef*%
%ADD19RoundRect,0.150000X-0.675000X-0.150000X0.675000X-0.150000X0.675000X0.150000X-0.675000X0.150000X0*%
%TD*%
%TA.AperFunction,HeatsinkPad*%
%ADD20R,2.650000X3.000000*%
%TD*%
%TA.AperFunction,SMDPad,CuDef*%
%ADD21RoundRect,0.250000X-0.400000X-1.450000X0.400000X-1.450000X0.400000X1.450000X-0.400000X1.450000X0*%
%TD*%
%TA.AperFunction,SMDPad,CuDef*%
%ADD22RoundRect,0.250000X-1.000000X-0.650000X1.000000X-0.650000X1.000000X0.650000X-1.000000X0.650000X0*%
%TD*%
%TA.AperFunction,ComponentPad*%
%ADD23RoundRect,0.250000X0.725000X-0.600000X0.725000X0.600000X-0.725000X0.600000X-0.725000X-0.600000X0*%
%TD*%
%TA.AperFunction,ComponentPad*%
%ADD24O,1.950000X1.700000*%
%TD*%
%TA.AperFunction,SMDPad,CuDef*%
%ADD25RoundRect,0.150000X0.150000X-0.825000X0.150000X0.825000X-0.150000X0.825000X-0.150000X-0.825000X0*%
%TD*%
%TA.AperFunction,SMDPad,CuDef*%
%ADD26RoundRect,0.250000X-0.312500X-0.625000X0.312500X-0.625000X0.312500X0.625000X-0.312500X0.625000X0*%
%TD*%
%TA.AperFunction,ViaPad*%
%ADD27C,0.600000*%
%TD*%
%TA.AperFunction,Conductor*%
%ADD28C,0.200000*%
%TD*%
G04 APERTURE END LIST*
D10*
%TO.P,C1,1*%
%TO.N,BAT_PROTECTED*%
X50050000Y-65000000D03*
%TO.P,C1,2*%
%TO.N,GND*%
X51950000Y-65000000D03*
%TD*%
D11*
%TO.P,U2,1*%
%TO.N,3V3*%
X84837500Y-22650000D03*
%TO.P,U2,2*%
%TO.N,GND*%
X84837500Y-22000000D03*
%TO.P,U2,3*%
%TO.N,KCAN_TX_A*%
X84837500Y-21350000D03*
%TO.P,U2,4*%
%TO.N,KCAN_TXD*%
X83162500Y-21350000D03*
%TO.P,U2,5*%
%TO.N,3V3*%
X83162500Y-22000000D03*
%TO.P,U2,6*%
%TO.N,5V_TJA*%
X83162500Y-22650000D03*
%TD*%
D12*
%TO.P,R12,1*%
%TO.N,KCAN_EN_MCU*%
X66087500Y-52000000D03*
%TO.P,R12,2*%
%TO.N,KCAN_EN*%
X67912500Y-52000000D03*
%TD*%
D13*
%TO.P,J1,1*%
%TO.N,BAT_INPUT*%
X25000000Y-73000000D03*
D14*
%TO.P,J1,2*%
%TO.N,GND*%
X25000000Y-70500000D03*
%TD*%
D10*
%TO.P,C7,1*%
%TO.N,5V_TJA*%
X87050000Y-26000000D03*
%TO.P,C7,2*%
%TO.N,GND*%
X88950000Y-26000000D03*
%TD*%
D12*
%TO.P,R15,1*%
%TO.N,KCAN_L*%
X38087500Y-34000000D03*
%TO.P,R15,2*%
%TO.N,RTL*%
X39912500Y-34000000D03*
%TD*%
D15*
%TO.P,TP1,1*%
%TO.N,BAT_LOCAL*%
X43000000Y-84000000D03*
%TD*%
%TO.P,TP13,1*%
%TO.N,KCAN_H*%
X24000000Y-19000000D03*
%TD*%
D12*
%TO.P,R8,1*%
%TO.N,3V3*%
X73087500Y-35000000D03*
%TO.P,R8,2*%
%TO.N,KCAN_ERR_OD*%
X74912500Y-35000000D03*
%TD*%
%TO.P,R5,1*%
%TO.N,KCAN_TX_MCU*%
X91087500Y-48000000D03*
%TO.P,R5,2*%
%TO.N,KCAN_TX_A*%
X92912500Y-48000000D03*
%TD*%
D15*
%TO.P,TP3,1*%
%TO.N,3V3*%
X91000000Y-74000000D03*
%TD*%
%TO.P,TP9,1*%
%TO.N,KCAN_STB*%
X65000000Y-84000000D03*
%TD*%
D10*
%TO.P,C3,1*%
%TO.N,5V_TJA*%
X64050000Y-57000000D03*
%TO.P,C3,2*%
%TO.N,GND*%
X65950000Y-57000000D03*
%TD*%
D16*
%TO.P,H1,1*%
%TO.N,3V3*%
X98000000Y-22000000D03*
D17*
%TO.P,H1,2*%
%TO.N,N/C*%
X98000000Y-24540000D03*
%TO.P,H1,3*%
%TO.N,RESET*%
X98000000Y-27080000D03*
%TO.P,H1,4*%
%TO.N,KCAN_RX_MCU*%
X98000000Y-29620000D03*
%TO.P,H1,5*%
%TO.N,KCAN_TX_MCU*%
X98000000Y-32160000D03*
%TO.P,H1,6*%
%TO.N,KCAN_STB_MCU*%
X98000000Y-34700000D03*
%TO.P,H1,7*%
%TO.N,KCAN_ERR_MCU*%
X98000000Y-37240000D03*
%TO.P,H1,8*%
%TO.N,KCAN_EN_MCU*%
X98000000Y-39780000D03*
%TO.P,H1,9*%
%TO.N,N/C*%
X98000000Y-42320000D03*
%TO.P,H1,10*%
X98000000Y-44860000D03*
%TO.P,H1,11*%
X98000000Y-47400000D03*
%TO.P,H1,12*%
X98000000Y-49940000D03*
%TO.P,H1,13*%
X98000000Y-52480000D03*
%TO.P,H1,14*%
X98000000Y-55020000D03*
%TO.P,H1,15*%
X98000000Y-57560000D03*
%TO.P,H1,16*%
X98000000Y-60100000D03*
%TO.P,H1,17*%
X98000000Y-62640000D03*
%TO.P,H1,18*%
X98000000Y-65180000D03*
%TO.P,H1,19*%
X98000000Y-67720000D03*
%TO.P,H1,20*%
X98000000Y-70260000D03*
%TO.P,H1,21*%
X98000000Y-72800000D03*
%TO.P,H1,22*%
X98000000Y-75340000D03*
%TD*%
D12*
%TO.P,R6,1*%
%TO.N,3V3*%
X73087500Y-31000000D03*
%TO.P,R6,2*%
%TO.N,KCAN_RXD_OD*%
X74912500Y-31000000D03*
%TD*%
D18*
%TO.P,C4,1*%
%TO.N,5V_TJA*%
X68525000Y-61000000D03*
%TO.P,C4,2*%
%TO.N,GND*%
X71475000Y-61000000D03*
%TD*%
D10*
%TO.P,C8,1*%
%TO.N,3V3*%
X79050000Y-17000000D03*
%TO.P,C8,2*%
%TO.N,GND*%
X80950000Y-17000000D03*
%TD*%
D12*
%TO.P,R4,1*%
%TO.N,3V3*%
X88087500Y-55000000D03*
%TO.P,R4,2*%
%TO.N,KCAN_TX_A*%
X89912500Y-55000000D03*
%TD*%
D15*
%TO.P,TP12,1*%
%TO.N,KCAN_ERR_OD*%
X78000000Y-25000000D03*
%TD*%
D12*
%TO.P,R11,1*%
%TO.N,KCAN_STB*%
X66087500Y-49000000D03*
%TO.P,R11,2*%
%TO.N,GND*%
X67912500Y-49000000D03*
%TD*%
%TO.P,R7,1*%
%TO.N,KCAN_RXD_OD*%
X80087500Y-31000000D03*
%TO.P,R7,2*%
%TO.N,KCAN_RX_MCU*%
X81912500Y-31000000D03*
%TD*%
D19*
%TO.P,U3,1*%
%TO.N,BAT_PROTECTED*%
X55375000Y-70095000D03*
%TO.P,U3,2*%
X55375000Y-71365000D03*
%TO.P,U3,3*%
%TO.N,GND*%
X55375000Y-72635000D03*
%TO.P,U3,4*%
%TO.N,N/C*%
X55375000Y-73905000D03*
%TO.P,U3,5*%
X60625000Y-73905000D03*
%TO.P,U3,6*%
X60625000Y-72635000D03*
%TO.P,U3,7*%
X60625000Y-71365000D03*
%TO.P,U3,8*%
%TO.N,5V_TJA*%
X60625000Y-70095000D03*
D20*
%TO.P,U3,9*%
%TO.N,GND*%
X58000000Y-72000000D03*
%TD*%
D21*
%TO.P,F1,1*%
%TO.N,BAT_INPUT*%
X33775000Y-73000000D03*
%TO.P,F1,2*%
%TO.N,BAT_FUSED*%
X38225000Y-73000000D03*
%TD*%
D10*
%TO.P,C5,1*%
%TO.N,BAT_LOCAL*%
X50050000Y-54000000D03*
%TO.P,C5,2*%
%TO.N,GND*%
X51950000Y-54000000D03*
%TD*%
D15*
%TO.P,TP7,1*%
%TO.N,KCAN_TX_MCU*%
X91000000Y-19000000D03*
%TD*%
D12*
%TO.P,R10,1*%
%TO.N,KCAN_STB_MCU*%
X66087500Y-46000000D03*
%TO.P,R10,2*%
%TO.N,KCAN_STB*%
X67912500Y-46000000D03*
%TD*%
D10*
%TO.P,C6,1*%
%TO.N,3V3*%
X83050000Y-41000000D03*
%TO.P,C6,2*%
%TO.N,GND*%
X84950000Y-41000000D03*
%TD*%
D12*
%TO.P,R9,1*%
%TO.N,KCAN_ERR_OD*%
X80087500Y-35000000D03*
%TO.P,R9,2*%
%TO.N,KCAN_ERR_MCU*%
X81912500Y-35000000D03*
%TD*%
%TO.P,R2,1*%
%TO.N,5V_TJA*%
X68087500Y-38000000D03*
%TO.P,R2,2*%
%TO.N,KCAN_TXD*%
X69912500Y-38000000D03*
%TD*%
D15*
%TO.P,TP5,1*%
%TO.N,KCAN_TXD*%
X64000000Y-19000000D03*
%TD*%
D10*
%TO.P,C2,1*%
%TO.N,5V_TJA*%
X64050000Y-65000000D03*
%TO.P,C2,2*%
%TO.N,GND*%
X65950000Y-65000000D03*
%TD*%
D15*
%TO.P,TP2,1*%
%TO.N,5V_TJA*%
X65000000Y-74000000D03*
%TD*%
%TO.P,TP14,1*%
%TO.N,KCAN_L*%
X31000000Y-19000000D03*
%TD*%
%TO.P,TP11,1*%
%TO.N,KCAN_RXD_OD*%
X70000000Y-25000000D03*
%TD*%
D22*
%TO.P,D1,1*%
%TO.N,BAT_PROTECTED*%
X44000000Y-73000000D03*
%TO.P,D1,2*%
%TO.N,BAT_FUSED*%
X48000000Y-73000000D03*
%TD*%
D23*
%TO.P,J2,1*%
%TO.N,KCAN_H*%
X25000000Y-29000000D03*
D24*
%TO.P,J2,2*%
%TO.N,KCAN_L*%
X25000000Y-26500000D03*
%TO.P,J2,3*%
%TO.N,GND*%
X25000000Y-24000000D03*
%TD*%
D12*
%TO.P,R13,1*%
%TO.N,KCAN_EN*%
X66087500Y-55000000D03*
%TO.P,R13,2*%
%TO.N,GND*%
X67912500Y-55000000D03*
%TD*%
%TO.P,R14,1*%
%TO.N,KCAN_H*%
X38087500Y-28000000D03*
%TO.P,R14,2*%
%TO.N,RTH*%
X39912500Y-28000000D03*
%TD*%
D16*
%TO.P,H2,1*%
%TO.N,GND*%
X123400000Y-22000000D03*
D17*
%TO.P,H2,2*%
%TO.N,N/C*%
X123400000Y-24540000D03*
%TO.P,H2,3*%
X123400000Y-27080000D03*
%TO.P,H2,4*%
X123400000Y-29620000D03*
%TO.P,H2,5*%
X123400000Y-32160000D03*
%TO.P,H2,6*%
X123400000Y-34700000D03*
%TO.P,H2,7*%
X123400000Y-37240000D03*
%TO.P,H2,8*%
X123400000Y-39780000D03*
%TO.P,H2,9*%
X123400000Y-42320000D03*
%TO.P,H2,10*%
X123400000Y-44860000D03*
%TO.P,H2,11*%
X123400000Y-47400000D03*
%TO.P,H2,12*%
X123400000Y-49940000D03*
%TO.P,H2,13*%
X123400000Y-52480000D03*
%TO.P,H2,14*%
X123400000Y-55020000D03*
%TO.P,H2,15*%
X123400000Y-57560000D03*
%TO.P,H2,16*%
X123400000Y-60100000D03*
%TO.P,H2,17*%
X123400000Y-62640000D03*
%TO.P,H2,18*%
X123400000Y-65180000D03*
%TO.P,H2,19*%
X123400000Y-67720000D03*
%TO.P,H2,20*%
X123400000Y-70260000D03*
%TO.P,H2,21*%
X123400000Y-72800000D03*
%TO.P,H2,22*%
X123400000Y-75340000D03*
%TD*%
D25*
%TO.P,U1,1*%
%TO.N,N/C*%
X52190000Y-43475000D03*
%TO.P,U1,2*%
%TO.N,KCAN_TXD*%
X53460000Y-43475000D03*
%TO.P,U1,3*%
%TO.N,KCAN_RXD_OD*%
X54730000Y-43475000D03*
%TO.P,U1,4*%
%TO.N,KCAN_ERR_OD*%
X56000000Y-43475000D03*
%TO.P,U1,5*%
%TO.N,KCAN_STB*%
X57270000Y-43475000D03*
%TO.P,U1,6*%
%TO.N,KCAN_EN*%
X58540000Y-43475000D03*
%TO.P,U1,7*%
%TO.N,BAT_LOCAL*%
X59810000Y-43475000D03*
%TO.P,U1,8*%
%TO.N,RTH*%
X59810000Y-38525000D03*
%TO.P,U1,9*%
%TO.N,RTL*%
X58540000Y-38525000D03*
%TO.P,U1,10*%
%TO.N,5V_TJA*%
X57270000Y-38525000D03*
%TO.P,U1,11*%
%TO.N,KCAN_H*%
X56000000Y-38525000D03*
%TO.P,U1,12*%
%TO.N,KCAN_L*%
X54730000Y-38525000D03*
%TO.P,U1,13*%
%TO.N,GND*%
X53460000Y-38525000D03*
%TO.P,U1,14*%
%TO.N,BAT_LOCAL*%
X52190000Y-38525000D03*
%TD*%
D15*
%TO.P,TP8,1*%
%TO.N,RESET*%
X98000000Y-84000000D03*
%TD*%
%TO.P,TP10,1*%
%TO.N,KCAN_EN*%
X73000000Y-84000000D03*
%TD*%
%TO.P,TP15,1*%
%TO.N,GND*%
X38000000Y-19000000D03*
%TD*%
D26*
%TO.P,R1,1*%
%TO.N,BAT_PROTECTED*%
X43537500Y-57000000D03*
%TO.P,R1,2*%
%TO.N,BAT_LOCAL*%
X46462500Y-57000000D03*
%TD*%
D27*
%TO.N,GND*%
X58800000Y-70000000D03*
X82000000Y-17000000D03*
X87000000Y-22500000D03*
X84053400Y-40106600D03*
X57200000Y-74000000D03*
X57200000Y-70000000D03*
X81864000Y-46437500D03*
X90000000Y-26000000D03*
X58800000Y-74000000D03*
X51978200Y-40007100D03*
%TO.N,KCAN_EN*%
X66966500Y-56510000D03*
X73012300Y-82737600D03*
%TO.N,KCAN_L*%
X31000000Y-20258300D03*
%TO.N,RTL*%
X51461700Y-34468500D03*
X55330700Y-36607800D03*
%TO.N,BAT_LOCAL*%
X43894700Y-83105300D03*
X45000000Y-56827700D03*
%TO.N,3V3*%
X86000000Y-25000000D03*
X78000000Y-17000000D03*
X91126000Y-38112600D03*
X79000000Y-21000000D03*
%TO.N,KCAN_ERR_OD*%
X75939500Y-35147600D03*
X58506100Y-41595700D03*
%TO.N,KCAN_TX_MCU*%
X90843500Y-46791300D03*
%TO.N,KCAN_TX_A*%
X88050000Y-48713000D03*
X88000000Y-20000000D03*
%TO.N,KCAN_STB*%
X64494700Y-46147400D03*
X65898100Y-47779800D03*
X66252300Y-83903500D03*
%TO.N,5V_TJA*%
X65596500Y-63770200D03*
X73000000Y-48000000D03*
X81000000Y-25000000D03*
X86000000Y-28000000D03*
X65596500Y-70143100D03*
%TO.N,RESET*%
X98383800Y-82739900D03*
%TO.N,KCAN_RXD_OD*%
X54677800Y-41066100D03*
X65178300Y-25864600D03*
%TO.N,KCAN_TXD*%
X54481000Y-41983300D03*
X61318300Y-35147600D03*
%TO.N,KCAN_STB_MCU*%
X102000000Y-34700000D03*
X66000000Y-43500000D03*
%TO.N,KCAN_EN_MCU*%
X62000000Y-84000000D03*
X62000000Y-86000000D03*
X94000000Y-84000000D03*
X64000000Y-49500000D03*
X94000000Y-86000000D03*
X96000000Y-39780000D03*
%TD*%
%TO.N,BAT_PROTECTED*%
D28*
X50050000Y-65000000D02*
X43537500Y-58487500D01*
X45635000Y-71365000D02*
X55375000Y-71365000D01*
X43537500Y-58487500D02*
X43537500Y-57000000D01*
X55375000Y-71365000D02*
X55375000Y-70095000D01*
X55375000Y-70095000D02*
X55145000Y-70095000D01*
X44000000Y-73000000D02*
X45635000Y-71365000D01*
X55145000Y-70095000D02*
X50050000Y-65000000D01*
%TO.N,GND*%
X56925000Y-68392000D02*
X55342000Y-68392000D01*
X29536400Y-75036400D02*
X26151700Y-71651700D01*
X55342000Y-68392000D02*
X51950000Y-65000000D01*
X84950000Y-41000000D02*
X103248300Y-41000000D01*
X51560700Y-39589600D02*
X51978200Y-40007100D01*
X55375000Y-72635000D02*
X53450300Y-72635000D01*
X67475000Y-65000000D02*
X65950000Y-65000000D01*
X68732300Y-54180200D02*
X68732300Y-49819800D01*
X81864000Y-48320100D02*
X81864000Y-46437500D01*
X81992700Y-49819800D02*
X82862500Y-48950000D01*
X51048900Y-75036400D02*
X29536400Y-75036400D01*
X25000000Y-70500000D02*
X25000000Y-71651700D01*
X53450300Y-72635000D02*
X51048900Y-75036400D01*
X123400000Y-22000000D02*
X122248300Y-22000000D01*
X84837500Y-22000000D02*
X87000000Y-22500000D01*
X82493900Y-48950000D02*
X81864000Y-48320100D01*
X62558000Y-68392000D02*
X56925000Y-68392000D01*
X51560700Y-37477900D02*
X51560700Y-39589600D01*
X38000000Y-19000000D02*
X33000000Y-24000000D01*
X67912500Y-57437500D02*
X71475000Y-61000000D01*
X66148400Y-57198400D02*
X67912500Y-57198400D01*
X67912500Y-55000000D02*
X67912500Y-57198400D01*
X56925000Y-73250000D02*
X56310000Y-72635000D01*
X58000000Y-73250000D02*
X59075000Y-73250000D01*
X56310000Y-72635000D02*
X55375000Y-72635000D01*
X68732300Y-49819800D02*
X67912500Y-49000000D01*
X65950000Y-65000000D02*
X62558000Y-68392000D01*
X56925000Y-73250000D02*
X58000000Y-73250000D01*
X103248300Y-41000000D02*
X122248300Y-22000000D01*
X26151700Y-71651700D02*
X25000000Y-71651700D01*
X71475000Y-61000000D02*
X67475000Y-65000000D01*
X65950000Y-57000000D02*
X66148400Y-57198400D01*
X52589100Y-37247700D02*
X51790900Y-37247700D01*
X33000000Y-24000000D02*
X25000000Y-24000000D01*
X67912500Y-57198400D02*
X67912500Y-57437500D01*
X88950000Y-26000000D02*
X90000000Y-26000000D01*
X56925000Y-70750000D02*
X56925000Y-68392000D01*
X84053400Y-40106600D02*
X84056600Y-40106600D01*
X68732300Y-49819800D02*
X81992700Y-49819800D01*
X51790900Y-37247700D02*
X51560700Y-37477900D01*
X56925000Y-70750000D02*
X58000000Y-70750000D01*
X84056600Y-40106600D02*
X84950000Y-41000000D01*
X80950000Y-17000000D02*
X82000000Y-17000000D01*
X53460000Y-38118600D02*
X52589100Y-37247700D01*
X56925000Y-72000000D02*
X58000000Y-72000000D01*
X67912500Y-55000000D02*
X68732300Y-54180200D01*
X58000000Y-70750000D02*
X59075000Y-70750000D01*
X51950000Y-65000000D02*
X51950000Y-54000000D01*
X53460000Y-38525000D02*
X53460000Y-38118600D01*
X58000000Y-72000000D02*
X59075000Y-72000000D01*
X82862500Y-48950000D02*
X82493900Y-48950000D01*
%TO.N,KCAN_EN*%
X56635000Y-42462800D02*
X56635000Y-44511800D01*
X56926900Y-42170900D02*
X56635000Y-42462800D01*
X66087500Y-53002700D02*
X66087500Y-55000000D01*
X66087500Y-53002700D02*
X66909800Y-53002700D01*
X58540000Y-43018400D02*
X57692500Y-42170900D01*
X58540000Y-43475000D02*
X58540000Y-43018400D01*
X66087500Y-55000000D02*
X66087500Y-55631100D01*
X66909800Y-53002700D02*
X67912500Y-52000000D01*
X66087600Y-55631100D02*
X66966500Y-56510000D01*
X57692500Y-42170900D02*
X56926900Y-42170900D01*
X73000000Y-84000000D02*
X73012300Y-83987700D01*
X73012300Y-83987700D02*
X73012300Y-82737600D01*
X66087500Y-55631100D02*
X66087600Y-55631100D01*
X56635000Y-44511800D02*
X65125900Y-53002700D01*
X65125900Y-53002700D02*
X66087500Y-53002700D01*
%TO.N,BAT_INPUT*%
X30106700Y-69331700D02*
X24380500Y-69331700D01*
X23667000Y-70045200D02*
X23667000Y-71667000D01*
X23667000Y-71667000D02*
X25000000Y-73000000D01*
X33775000Y-73000000D02*
X30106700Y-69331700D01*
X24380500Y-69331700D02*
X23667000Y-70045200D01*
%TO.N,KCAN_L*%
X39559000Y-35471500D02*
X38087500Y-34000000D01*
X31000000Y-20258300D02*
X31000000Y-19000000D01*
X25000000Y-27651700D02*
X24208200Y-27651700D01*
X54730000Y-38170500D02*
X52031000Y-35471500D01*
X52031000Y-35471500D02*
X39559000Y-35471500D01*
X23665100Y-28194800D02*
X23665100Y-29826000D01*
X23665100Y-29826000D02*
X27839100Y-34000000D01*
X27839100Y-34000000D02*
X38087500Y-34000000D01*
X24208200Y-27651700D02*
X23665100Y-28194800D01*
X54730000Y-38525000D02*
X54730000Y-38170500D01*
X25000000Y-26500000D02*
X25000000Y-27651700D01*
%TO.N,RTL*%
X39912500Y-34000000D02*
X40381000Y-34468500D01*
X40381000Y-34468500D02*
X51461700Y-34468500D01*
X58540000Y-38525000D02*
X58540000Y-38101600D01*
X58540000Y-38101600D02*
X57046200Y-36607800D01*
X57046200Y-36607800D02*
X55330700Y-36607800D01*
%TO.N,BAT_LOCAL*%
X43000000Y-84000000D02*
X43894700Y-83105300D01*
X45000000Y-56827700D02*
X45645100Y-56827700D01*
X58225700Y-40464400D02*
X54428700Y-40464400D01*
X59810000Y-43475000D02*
X59810000Y-42048700D01*
X45645100Y-56827700D02*
X46290200Y-56827700D01*
X52825000Y-51225000D02*
X50050000Y-54000000D01*
X52190000Y-38525000D02*
X52190000Y-38876900D01*
X54103100Y-40790000D02*
X52825000Y-42068100D01*
X46290200Y-56827700D02*
X46462500Y-57000000D01*
X54428700Y-40464400D02*
X54103100Y-40790000D01*
X47222300Y-56827700D02*
X50050000Y-54000000D01*
X45645100Y-56827700D02*
X47222300Y-56827700D01*
X52825000Y-42068100D02*
X52825000Y-51225000D01*
X52190000Y-38876900D02*
X54103100Y-40790000D01*
X59810000Y-42048700D02*
X58225700Y-40464400D01*
%TO.N,KCAN_H*%
X26276900Y-26020300D02*
X25506700Y-25250100D01*
X38087500Y-28000000D02*
X40477900Y-30390400D01*
X38087500Y-28000000D02*
X26276900Y-28000000D01*
X24473400Y-25250100D02*
X23705500Y-24482200D01*
X48262200Y-30390400D02*
X56000000Y-38128200D01*
X26000000Y-28000000D02*
X25000000Y-29000000D01*
X40477900Y-30390400D02*
X48262200Y-30390400D01*
X56000000Y-38128200D02*
X56000000Y-38525000D01*
X23705500Y-19294500D02*
X24000000Y-19000000D01*
X26276900Y-28000000D02*
X26276900Y-26020300D01*
X26276900Y-28000000D02*
X26000000Y-28000000D01*
X25506700Y-25250100D02*
X24473400Y-25250100D01*
X23705500Y-24482200D02*
X23705500Y-19294500D01*
%TO.N,3V3*%
X82667200Y-40617200D02*
X85171800Y-38112600D01*
X92152800Y-45676200D02*
X93750100Y-47273500D01*
X78704700Y-40617200D02*
X73087500Y-35000000D01*
X83050000Y-41000000D02*
X82667200Y-40617200D01*
X85137500Y-45676200D02*
X92152800Y-45676200D01*
X79050000Y-17000000D02*
X78000000Y-17000000D01*
X88087500Y-55000000D02*
X89090200Y-56002700D01*
X89090200Y-56002700D02*
X90459600Y-56002700D01*
X85137500Y-43087500D02*
X83050000Y-41000000D01*
X85137500Y-45676200D02*
X85137500Y-43087500D01*
X93750100Y-47273500D02*
X93750100Y-52712200D01*
X82667200Y-40617200D02*
X78704700Y-40617200D01*
X84837500Y-22650000D02*
X86000000Y-25000000D01*
X83162500Y-22000000D02*
X79000000Y-21000000D01*
X73087500Y-35000000D02*
X73087500Y-31000000D01*
X85171800Y-38112600D02*
X91126000Y-38112600D01*
X90459600Y-56002700D02*
X90459600Y-73459600D01*
X90459600Y-73459600D02*
X91000000Y-74000000D01*
X93750100Y-52712200D02*
X90459600Y-56002700D01*
%TO.N,KCAN_ERR_OD*%
X56913100Y-41595700D02*
X58506100Y-41595700D01*
X80943000Y-27943000D02*
X78000000Y-25000000D01*
X80943000Y-34144500D02*
X80943000Y-27943000D01*
X75939500Y-35147600D02*
X79939900Y-35147600D01*
X75939500Y-35147600D02*
X75060100Y-35147600D01*
X79939900Y-35147600D02*
X80087500Y-35000000D01*
X56000000Y-43475000D02*
X56000000Y-42508800D01*
X75060100Y-35147600D02*
X74912500Y-35000000D01*
X56000000Y-42508800D02*
X56913100Y-41595700D01*
X80087500Y-35000000D02*
X80943000Y-34144500D01*
%TO.N,KCAN_TX_MCU*%
X99153900Y-29137400D02*
X98366500Y-28350000D01*
X99153900Y-31006100D02*
X99153900Y-29137400D01*
X98000000Y-32160000D02*
X99153900Y-31006100D01*
X90843500Y-47756000D02*
X90843500Y-46791300D01*
X97608200Y-28350000D02*
X91000000Y-21741800D01*
X91000000Y-21741800D02*
X91000000Y-19000000D01*
X91087500Y-48000000D02*
X90843500Y-47756000D01*
X98366500Y-28350000D02*
X97608200Y-28350000D01*
%TO.N,KCAN_TX_A*%
X92912500Y-48000000D02*
X91075000Y-46163000D01*
X89912500Y-50575000D02*
X88050000Y-48713000D01*
X89912500Y-55000000D02*
X89912500Y-50575000D01*
X88000000Y-20000000D02*
X84837500Y-21350000D01*
X91075000Y-46163000D02*
X90600000Y-46163000D01*
X90600000Y-46163000D02*
X88050000Y-48713000D01*
%TO.N,KCAN_STB*%
X66252300Y-83903500D02*
X65096500Y-83903500D01*
X57270000Y-43475000D02*
X57270000Y-43881400D01*
X66087500Y-49000000D02*
X66087500Y-47969200D01*
X59536000Y-46147400D02*
X64494700Y-46147400D01*
X65096500Y-83903500D02*
X65000000Y-84000000D01*
X57270000Y-43881400D02*
X59536000Y-46147400D01*
X66132700Y-47779800D02*
X65898100Y-47779800D01*
X67912500Y-46000000D02*
X66132700Y-47779800D01*
X66087500Y-47969200D02*
X65898100Y-47779800D01*
%TO.N,5V_TJA*%
X68208400Y-61158300D02*
X65596500Y-63770200D01*
X83162500Y-22650000D02*
X81000000Y-25000000D01*
X73000000Y-46848300D02*
X68087500Y-41935800D01*
X68366600Y-61158400D02*
X68208400Y-61158400D01*
X57270000Y-38525000D02*
X57270000Y-38935900D01*
X60625000Y-70095000D02*
X64951900Y-70095000D01*
X73000000Y-48000000D02*
X73000000Y-46848300D01*
X57270000Y-38935900D02*
X58148900Y-39814800D01*
X68525000Y-61000000D02*
X68366600Y-61158400D01*
X64951900Y-70095000D02*
X65000000Y-70143100D01*
X68087500Y-41935800D02*
X68087500Y-39814800D01*
X65000000Y-70143100D02*
X65596500Y-70143100D01*
X86000000Y-28000000D02*
X87050000Y-26000000D01*
X65596500Y-63770200D02*
X65279800Y-63770200D01*
X68087500Y-39814800D02*
X68087500Y-38000000D01*
X65279800Y-63770200D02*
X64050000Y-65000000D01*
X65000000Y-70143100D02*
X65000000Y-74000000D01*
X68208400Y-61158400D02*
X68208400Y-61158300D01*
X58148900Y-39814800D02*
X68087500Y-39814800D01*
X64050000Y-57000000D02*
X68208400Y-61158300D01*
%TO.N,RESET*%
X98000000Y-83123700D02*
X98000000Y-84000000D01*
X98383800Y-82739900D02*
X98000000Y-83123700D01*
%TO.N,KCAN_RX_MCU*%
X96620000Y-31000000D02*
X98000000Y-29620000D01*
X81912500Y-31000000D02*
X96620000Y-31000000D01*
%TO.N,KCAN_ERR_MCU*%
X95760000Y-35000000D02*
X98000000Y-37240000D01*
X81912500Y-35000000D02*
X95760000Y-35000000D01*
%TO.N,KCAN_RXD_OD*%
X69135400Y-25864600D02*
X69456300Y-25543700D01*
X55082800Y-41471100D02*
X54677800Y-41066100D01*
X54730000Y-43475000D02*
X55082800Y-43122200D01*
X65178300Y-25864600D02*
X69135400Y-25864600D01*
X55082800Y-43122200D02*
X55082800Y-41471100D01*
X74912500Y-31000000D02*
X80087500Y-31000000D01*
X69456300Y-25543700D02*
X70000000Y-25000000D01*
X74912500Y-31000000D02*
X69456300Y-25543700D01*
%TO.N,BAT_FUSED*%
X46789700Y-74210300D02*
X48000000Y-73000000D01*
X39435300Y-74210300D02*
X46789700Y-74210300D01*
X38225000Y-73000000D02*
X39435300Y-74210300D01*
%TO.N,KCAN_TXD*%
X67060100Y-35147600D02*
X64000000Y-35147600D01*
X69912500Y-38000000D02*
X67060100Y-35147600D01*
X83162500Y-21350000D02*
X80000000Y-19000000D01*
X53460000Y-43475000D02*
X53460000Y-43004300D01*
X64000000Y-35147600D02*
X61318300Y-35147600D01*
X80000000Y-19000000D02*
X64000000Y-19000000D01*
X53460000Y-43004300D02*
X54481000Y-41983300D01*
X64000000Y-35147600D02*
X64000000Y-19000000D01*
%TO.N,RTH*%
X49680300Y-28000000D02*
X39912500Y-28000000D01*
X59810000Y-38525000D02*
X59810000Y-38129700D01*
X59810000Y-38129700D02*
X49680300Y-28000000D01*
%TO.N,KCAN_STB_MCU*%
X98000000Y-34700000D02*
X102000000Y-34700000D01*
X66000000Y-43500000D02*
X66087500Y-46000000D01*
%TO.N,KCAN_EN_MCU*%
X98000000Y-39780000D02*
X96000000Y-39780000D01*
X94000000Y-84000000D02*
X94000000Y-86000000D01*
X62000000Y-86000000D02*
X62000000Y-84000000D01*
X64000000Y-49500000D02*
X66087500Y-52000000D01*
%TD*%
%TA.AperFunction,Conductor*%
%TO.N,GND*%
G36*
X66567983Y-62019685D02*
G01*
X66613738Y-62072489D01*
X66623682Y-62141647D01*
X66594657Y-62205203D01*
X66588625Y-62211681D01*
X65666926Y-63133381D01*
X65605603Y-63166866D01*
X65579245Y-63169700D01*
X65517443Y-63169700D01*
X65364716Y-63210623D01*
X65364709Y-63210626D01*
X65227790Y-63289675D01*
X65227786Y-63289678D01*
X65125539Y-63391925D01*
X65099860Y-63411629D01*
X65033884Y-63449721D01*
X64533929Y-63949676D01*
X64472606Y-63983161D01*
X64431465Y-63985111D01*
X64417620Y-63983448D01*
X64343102Y-63974500D01*
X63756898Y-63974500D01*
X63717853Y-63979188D01*
X63668438Y-63985122D01*
X63527656Y-64040639D01*
X63407077Y-64132077D01*
X63315639Y-64252656D01*
X63260122Y-64393438D01*
X63254188Y-64442853D01*
X63249500Y-64481898D01*
X63249500Y-65518102D01*
X63255126Y-65564954D01*
X63260122Y-65606561D01*
X63315639Y-65747343D01*
X63407077Y-65867922D01*
X63527656Y-65959360D01*
X63527657Y-65959360D01*
X63527658Y-65959361D01*
X63668436Y-66014877D01*
X63756898Y-66025500D01*
X63756903Y-66025500D01*
X64343097Y-66025500D01*
X64343102Y-66025500D01*
X64431564Y-66014877D01*
X64572342Y-65959361D01*
X64692922Y-65867922D01*
X64784361Y-65747342D01*
X64839877Y-65606564D01*
X64850500Y-65518102D01*
X64850500Y-64817254D01*
X64870185Y-64750215D01*
X64886815Y-64729577D01*
X65252497Y-64363894D01*
X65313820Y-64330410D01*
X65372269Y-64331800D01*
X65517443Y-64370700D01*
X65517445Y-64370700D01*
X65675555Y-64370700D01*
X65675557Y-64370700D01*
X65828284Y-64329777D01*
X65965216Y-64250720D01*
X66077020Y-64138916D01*
X66156077Y-64001984D01*
X66197000Y-63849257D01*
X66197000Y-63787454D01*
X66216685Y-63720415D01*
X66233314Y-63699778D01*
X67778643Y-62154448D01*
X67839964Y-62120965D01*
X67909656Y-62125949D01*
X67927091Y-62134043D01*
X67927655Y-62134360D01*
X67927658Y-62134361D01*
X68068436Y-62189877D01*
X68156898Y-62200500D01*
X68156903Y-62200500D01*
X68893097Y-62200500D01*
X68893102Y-62200500D01*
X68981564Y-62189877D01*
X69122342Y-62134361D01*
X69242922Y-62042922D01*
X69242924Y-62042920D01*
X69248920Y-62036925D01*
X69251369Y-62039374D01*
X69294505Y-62007531D01*
X69337061Y-62000000D01*
X72876000Y-62000000D01*
X72943039Y-62019685D01*
X72988794Y-62072489D01*
X73000000Y-62124000D01*
X73000000Y-81876000D01*
X72980315Y-81943039D01*
X72927511Y-81988794D01*
X72876000Y-82000000D01*
X43124000Y-82000000D01*
X43056961Y-81980315D01*
X43011206Y-81927511D01*
X43000000Y-81876000D01*
X43000000Y-74734800D01*
X43019685Y-74667761D01*
X43072489Y-74622006D01*
X43124000Y-74610800D01*
X46842425Y-74610800D01*
X46842427Y-74610800D01*
X46944288Y-74583507D01*
X47035613Y-74530780D01*
X47329574Y-74236819D01*
X47390897Y-74203334D01*
X47417255Y-74200500D01*
X49043097Y-74200500D01*
X49043102Y-74200500D01*
X49131564Y-74189877D01*
X49272342Y-74134361D01*
X49392922Y-74042922D01*
X49484361Y-73922342D01*
X49539877Y-73781564D01*
X49549584Y-73700730D01*
X54249500Y-73700730D01*
X54249500Y-74109269D01*
X54252353Y-74139699D01*
X54252353Y-74139701D01*
X54295508Y-74263027D01*
X54297207Y-74267882D01*
X54377850Y-74377150D01*
X54487118Y-74457793D01*
X54529845Y-74472744D01*
X54615299Y-74502646D01*
X54645730Y-74505500D01*
X54645734Y-74505500D01*
X56104270Y-74505500D01*
X56134699Y-74502646D01*
X56134701Y-74502646D01*
X56198790Y-74480219D01*
X56262882Y-74457793D01*
X56372150Y-74377150D01*
X56452793Y-74267882D01*
X56491392Y-74157573D01*
X56497646Y-74139701D01*
X56497646Y-74139699D01*
X56500500Y-74109269D01*
X56500500Y-73700730D01*
X56497646Y-73670300D01*
X56497646Y-73670298D01*
X56452793Y-73542119D01*
X56452792Y-73542117D01*
X56423481Y-73502402D01*
X56372150Y-73432850D01*
X56262882Y-73352207D01*
X56262880Y-73352206D01*
X56134700Y-73307353D01*
X56104270Y-73304500D01*
X56104266Y-73304500D01*
X54645734Y-73304500D01*
X54645730Y-73304500D01*
X54615300Y-73307353D01*
X54615298Y-73307353D01*
X54487119Y-73352206D01*
X54487117Y-73352207D01*
X54377850Y-73432850D01*
X54297207Y-73542117D01*
X54297206Y-73542119D01*
X54252353Y-73670298D01*
X54252353Y-73670300D01*
X54249500Y-73700730D01*
X49549584Y-73700730D01*
X49550500Y-73693102D01*
X49550500Y-72306898D01*
X49539877Y-72218436D01*
X49484361Y-72077658D01*
X49484360Y-72077657D01*
X49484360Y-72077656D01*
X49398494Y-71964425D01*
X49373671Y-71899114D01*
X49388099Y-71830750D01*
X49437197Y-71781039D01*
X49497298Y-71765500D01*
X54262372Y-71765500D01*
X54329411Y-71785185D01*
X54362141Y-71815865D01*
X54377850Y-71837150D01*
X54487118Y-71917793D01*
X54529845Y-71932744D01*
X54615299Y-71962646D01*
X54645730Y-71965500D01*
X54645734Y-71965500D01*
X56104270Y-71965500D01*
X56134699Y-71962646D01*
X56134701Y-71962646D01*
X56198790Y-71940219D01*
X56262882Y-71917793D01*
X56372150Y-71837150D01*
X56452793Y-71727882D01*
X56475219Y-71663790D01*
X56497646Y-71599701D01*
X56497646Y-71599699D01*
X56500500Y-71569269D01*
X56500500Y-71160730D01*
X56497646Y-71130300D01*
X56497646Y-71130298D01*
X56452793Y-71002119D01*
X56452792Y-71002117D01*
X56372150Y-70892850D01*
X56337937Y-70867600D01*
X56286677Y-70829768D01*
X56244428Y-70774123D01*
X56238969Y-70704467D01*
X56272036Y-70642917D01*
X56286670Y-70630236D01*
X56372150Y-70567150D01*
X56452793Y-70457882D01*
X56481835Y-70374884D01*
X56497646Y-70329701D01*
X56497646Y-70329699D01*
X56500500Y-70299269D01*
X56500500Y-69890730D01*
X59499500Y-69890730D01*
X59499500Y-70299269D01*
X59502353Y-70329699D01*
X59502353Y-70329701D01*
X59547206Y-70457880D01*
X59547207Y-70457882D01*
X59627850Y-70567150D01*
X59713321Y-70630230D01*
X59755571Y-70685877D01*
X59761030Y-70755534D01*
X59727962Y-70817083D01*
X59713321Y-70829769D01*
X59662063Y-70867600D01*
X59627850Y-70892850D01*
X59547207Y-71002117D01*
X59547206Y-71002119D01*
X59502353Y-71130298D01*
X59502353Y-71130300D01*
X59499500Y-71160730D01*
X59499500Y-71569269D01*
X59502353Y-71599699D01*
X59502353Y-71599701D01*
X59546902Y-71727011D01*
X59547207Y-71727882D01*
X59627850Y-71837150D01*
X59713321Y-71900230D01*
X59755571Y-71955877D01*
X59761030Y-72025534D01*
X59727962Y-72087083D01*
X59713321Y-72099769D01*
X59636516Y-72156454D01*
X59627850Y-72162850D01*
X59547207Y-72272117D01*
X59547206Y-72272119D01*
X59502353Y-72400298D01*
X59502353Y-72400300D01*
X59499500Y-72430730D01*
X59499500Y-72839269D01*
X59502353Y-72869699D01*
X59502353Y-72869701D01*
X59547206Y-72997880D01*
X59547207Y-72997882D01*
X59627850Y-73107150D01*
X59713321Y-73170230D01*
X59755571Y-73225877D01*
X59761030Y-73295534D01*
X59727962Y-73357083D01*
X59713321Y-73369769D01*
X59627850Y-73432850D01*
X59547207Y-73542117D01*
X59547206Y-73542119D01*
X59502353Y-73670298D01*
X59502353Y-73670300D01*
X59499500Y-73700730D01*
X59499500Y-74109269D01*
X59502353Y-74139699D01*
X59502353Y-74139701D01*
X59545508Y-74263027D01*
X59547207Y-74267882D01*
X59627850Y-74377150D01*
X59737118Y-74457793D01*
X59779845Y-74472744D01*
X59865299Y-74502646D01*
X59895730Y-74505500D01*
X59895734Y-74505500D01*
X61354270Y-74505500D01*
X61384699Y-74502646D01*
X61384701Y-74502646D01*
X61448790Y-74480219D01*
X61512882Y-74457793D01*
X61622150Y-74377150D01*
X61702793Y-74267882D01*
X61741392Y-74157573D01*
X61747646Y-74139701D01*
X61747646Y-74139699D01*
X61750500Y-74109269D01*
X61750500Y-73700730D01*
X61747646Y-73670300D01*
X61747646Y-73670298D01*
X61702793Y-73542119D01*
X61702792Y-73542117D01*
X61622150Y-73432850D01*
X61536677Y-73369768D01*
X61494428Y-73314123D01*
X61488969Y-73244467D01*
X61522036Y-73182917D01*
X61536670Y-73170236D01*
X61622150Y-73107150D01*
X61702793Y-72997882D01*
X61725219Y-72933790D01*
X61747646Y-72869701D01*
X61747646Y-72869699D01*
X61750500Y-72839269D01*
X61750500Y-72430730D01*
X61747646Y-72400300D01*
X61747646Y-72400298D01*
X61702793Y-72272119D01*
X61702792Y-72272117D01*
X61663175Y-72218438D01*
X61622150Y-72162850D01*
X61536677Y-72099768D01*
X61494428Y-72044123D01*
X61488969Y-71974467D01*
X61522036Y-71912917D01*
X61536670Y-71900236D01*
X61622150Y-71837150D01*
X61702793Y-71727882D01*
X61725219Y-71663790D01*
X61747646Y-71599701D01*
X61747646Y-71599699D01*
X61750500Y-71569269D01*
X61750500Y-71160730D01*
X61747646Y-71130300D01*
X61747646Y-71130298D01*
X61702793Y-71002119D01*
X61702792Y-71002117D01*
X61622150Y-70892850D01*
X61587937Y-70867600D01*
X61536677Y-70829768D01*
X61494428Y-70774123D01*
X61488969Y-70704467D01*
X61522036Y-70642917D01*
X61536670Y-70630236D01*
X61622150Y-70567150D01*
X61637858Y-70545865D01*
X61693506Y-70503615D01*
X61737628Y-70495500D01*
X64475500Y-70495500D01*
X64542539Y-70515185D01*
X64588294Y-70567989D01*
X64599500Y-70619500D01*
X64599500Y-72945985D01*
X64579815Y-73013024D01*
X64527011Y-73058779D01*
X64522954Y-73060546D01*
X64502402Y-73069059D01*
X64502395Y-73069062D01*
X64330344Y-73184022D01*
X64184024Y-73330342D01*
X64069058Y-73502403D01*
X63989870Y-73693579D01*
X63989868Y-73693587D01*
X63949500Y-73896530D01*
X63949500Y-74103469D01*
X63989868Y-74306412D01*
X63989870Y-74306420D01*
X64019167Y-74377150D01*
X64069059Y-74497598D01*
X64126460Y-74583506D01*
X64184024Y-74669657D01*
X64330342Y-74815975D01*
X64330345Y-74815977D01*
X64502402Y-74930941D01*
X64693580Y-75010130D01*
X64896530Y-75050499D01*
X64896534Y-75050500D01*
X64896535Y-75050500D01*
X65103466Y-75050500D01*
X65103467Y-75050499D01*
X65306420Y-75010130D01*
X65497598Y-74930941D01*
X65669655Y-74815977D01*
X65815977Y-74669655D01*
X65930941Y-74497598D01*
X66010130Y-74306420D01*
X66050500Y-74103465D01*
X66050500Y-73896535D01*
X66010130Y-73693580D01*
X65930941Y-73502402D01*
X65815977Y-73330345D01*
X65815975Y-73330342D01*
X65669655Y-73184022D01*
X65497604Y-73069062D01*
X65497599Y-73069060D01*
X65497598Y-73069059D01*
X65477045Y-73060545D01*
X65422643Y-73016704D01*
X65400579Y-72950410D01*
X65400500Y-72945985D01*
X65400500Y-70867600D01*
X65420185Y-70800561D01*
X65472989Y-70754806D01*
X65524500Y-70743600D01*
X65675555Y-70743600D01*
X65675557Y-70743600D01*
X65828284Y-70702677D01*
X65965216Y-70623620D01*
X66077020Y-70511816D01*
X66156077Y-70374884D01*
X66197000Y-70222157D01*
X66197000Y-70064043D01*
X66156077Y-69911316D01*
X66126622Y-69860298D01*
X66077024Y-69774390D01*
X66077018Y-69774382D01*
X65965217Y-69662581D01*
X65965209Y-69662575D01*
X65828290Y-69583526D01*
X65828286Y-69583524D01*
X65828284Y-69583523D01*
X65675557Y-69542600D01*
X65517443Y-69542600D01*
X65364716Y-69583523D01*
X65364709Y-69583526D01*
X65227790Y-69662575D01*
X65227786Y-69662578D01*
X65206072Y-69684292D01*
X65144748Y-69717776D01*
X65086301Y-69716384D01*
X65004627Y-69694500D01*
X65004626Y-69694500D01*
X61737628Y-69694500D01*
X61670589Y-69674815D01*
X61637858Y-69644134D01*
X61622150Y-69622850D01*
X61512882Y-69542207D01*
X61512880Y-69542206D01*
X61384700Y-69497353D01*
X61354270Y-69494500D01*
X61354266Y-69494500D01*
X59895734Y-69494500D01*
X59895730Y-69494500D01*
X59865300Y-69497353D01*
X59865298Y-69497353D01*
X59737119Y-69542206D01*
X59737117Y-69542207D01*
X59627850Y-69622850D01*
X59547207Y-69732117D01*
X59547206Y-69732119D01*
X59502353Y-69860298D01*
X59502353Y-69860300D01*
X59499500Y-69890730D01*
X56500500Y-69890730D01*
X56497646Y-69860300D01*
X56497646Y-69860298D01*
X56452793Y-69732119D01*
X56452792Y-69732117D01*
X56442208Y-69717776D01*
X56372150Y-69622850D01*
X56262882Y-69542207D01*
X56262880Y-69542206D01*
X56134700Y-69497353D01*
X56104270Y-69494500D01*
X56104266Y-69494500D01*
X55162255Y-69494500D01*
X55095216Y-69474815D01*
X55074574Y-69458181D01*
X50886819Y-65270426D01*
X50853334Y-65209103D01*
X50850500Y-65182745D01*
X50850500Y-64481903D01*
X50850500Y-64481898D01*
X50839877Y-64393436D01*
X50784361Y-64252658D01*
X50784360Y-64252657D01*
X50784360Y-64252656D01*
X50692922Y-64132077D01*
X50572343Y-64040639D01*
X50431561Y-63985122D01*
X50385926Y-63979642D01*
X50343102Y-63974500D01*
X49756898Y-63974500D01*
X49701176Y-63981191D01*
X49668533Y-63985111D01*
X49599625Y-63973559D01*
X49566069Y-63949676D01*
X47828074Y-62211681D01*
X47794589Y-62150358D01*
X47799573Y-62080666D01*
X47841445Y-62024733D01*
X47906909Y-62000316D01*
X47915755Y-62000000D01*
X66500944Y-62000000D01*
X66567983Y-62019685D01*
G37*
%TD.AperFunction*%
%TD*%
M02*
