%TF.GenerationSoftware,KiCad,Pcbnew,10.0.6*%
%TF.CreationDate,2026-10-03T21:00:23+02:00*%
%TF.ProjectId,BMW-E9x-KCAN-RXOnly,424d572d-4539-4782-9d4b-43414e2d5258,rev?*%
%TF.SameCoordinates,Original*%
%TF.FileFunction,Legend,Bot*%
%TF.FilePolarity,Positive*%
%FSLAX46Y46*%
G04 Gerber Fmt 4.6, Leading zero omitted, Abs format (unit mm)*
G04 Created by KiCad (PCBNEW 10.0.6) date 2026-10-03 21:00:23*
%MOMM*%
%LPD*%
G01*
G04 APERTURE LIST*
G04 Aperture macros list*
%AMRoundRect*
0 Rectangle with rounded corners*
0 $1 Rounding radius*
0 $2 $3 $4 $5 $6 $7 $8 $9 X,Y pos of 4 corners*
0 Add a 4 corners polygon primitive as box body*
4,1,4,$2,$3,$4,$5,$6,$7,$8,$9,$2,$3,0*
0 Add four circle primitives for the rounded corners*
1,1,$1+$1,$2,$3*
1,1,$1+$1,$4,$5*
1,1,$1+$1,$6,$7*
1,1,$1+$1,$8,$9*
0 Add four rect primitives between the rounded corners*
20,1,$1+$1,$2,$3,$4,$5,0*
20,1,$1+$1,$4,$5,$6,$7,0*
20,1,$1+$1,$6,$7,$8,$9,0*
20,1,$1+$1,$8,$9,$2,$3,0*%
G04 Aperture macros list end*
%ADD10C,3.200000*%
%ADD11RoundRect,0.250000X0.750000X-0.600000X0.750000X0.600000X-0.750000X0.600000X-0.750000X-0.600000X0*%
%ADD12O,2.000000X1.700000*%
%ADD13R,1.700000X1.700000*%
%ADD14C,1.700000*%
%ADD15RoundRect,0.250000X0.725000X-0.600000X0.725000X0.600000X-0.725000X0.600000X-0.725000X-0.600000X0*%
%ADD16O,1.950000X1.700000*%
G04 APERTURE END LIST*
%LPC*%
D10*
%TO.C,MH4*%
X136000000Y-86000000D03*
%TD*%
D11*
%TO.C,J1*%
X25000000Y-73000000D03*
D12*
X25000000Y-70500000D03*
%TD*%
D13*
%TO.C,JP1*%
X73000000Y-48000000D03*
D14*
X75540000Y-48000000D03*
%TD*%
D10*
%TO.C,MH2*%
X136000000Y-14000000D03*
%TD*%
D13*
%TO.C,H1*%
X98000000Y-22000000D03*
D14*
X98000000Y-24540000D03*
X98000000Y-27080000D03*
X98000000Y-29620000D03*
X98000000Y-32160000D03*
X98000000Y-34700000D03*
X98000000Y-37240000D03*
X98000000Y-39780000D03*
X98000000Y-42320000D03*
X98000000Y-44860000D03*
X98000000Y-47400000D03*
X98000000Y-49940000D03*
X98000000Y-52480000D03*
X98000000Y-55020000D03*
X98000000Y-57560000D03*
X98000000Y-60100000D03*
X98000000Y-62640000D03*
X98000000Y-65180000D03*
X98000000Y-67720000D03*
X98000000Y-70260000D03*
X98000000Y-72800000D03*
X98000000Y-75340000D03*
%TD*%
D10*
%TO.C,MH3*%
X24000000Y-86000000D03*
%TD*%
D15*
%TO.C,J2*%
X25000000Y-29000000D03*
D16*
X25000000Y-26500000D03*
X25000000Y-24000000D03*
%TD*%
D13*
%TO.C,H2*%
X123400000Y-22000000D03*
D14*
X123400000Y-24540000D03*
X123400000Y-27080000D03*
X123400000Y-29620000D03*
X123400000Y-32160000D03*
X123400000Y-34700000D03*
X123400000Y-37240000D03*
X123400000Y-39780000D03*
X123400000Y-42320000D03*
X123400000Y-44860000D03*
X123400000Y-47400000D03*
X123400000Y-49940000D03*
X123400000Y-52480000D03*
X123400000Y-55020000D03*
X123400000Y-57560000D03*
X123400000Y-60100000D03*
X123400000Y-62640000D03*
X123400000Y-65180000D03*
X123400000Y-67720000D03*
X123400000Y-70260000D03*
X123400000Y-72800000D03*
X123400000Y-75340000D03*
%TD*%
D10*
%TO.C,MH1*%
X24000000Y-14000000D03*
%TD*%
%LPD*%
M02*
