%TF.GenerationSoftware,KiCad,Pcbnew,10.0.6*%
%TF.CreationDate,2026-10-03T21:00:23+02:00*%
%TF.ProjectId,BMW-E9x-KCAN-RXOnly,424d572d-4539-4782-9d4b-43414e2d5258,rev?*%
%TF.SameCoordinates,Original*%
%TF.FileFunction,Paste,Top*%
%TF.FilePolarity,Positive*%
%FSLAX46Y46*%
G04 Gerber Fmt 4.6, Leading zero omitted, Abs format (unit mm)*
G04 Created by KiCad (PCBNEW 10.0.6) date 2026-10-03 21:00:23*
%MOMM*%
%LPD*%
G01*
G04 APERTURE LIST*
G04 Aperture macros list*
%AMRoundRect*
0 Rectangle with rounded corners*
0 $1 Rounding radius*
0 $2 $3 $4 $5 $6 $7 $8 $9 X,Y pos of 4 corners*
0 Add a 4 corners polygon primitive as box body*
4,1,4,$2,$3,$4,$5,$6,$7,$8,$9,$2,$3,0*
0 Add four circle primitives for the rounded corners*
1,1,$1+$1,$2,$3*
1,1,$1+$1,$4,$5*
1,1,$1+$1,$6,$7*
1,1,$1+$1,$8,$9*
0 Add four rect primitives between the rounded corners*
20,1,$1+$1,$2,$3,$4,$5,0*
20,1,$1+$1,$4,$5,$6,$7,0*
20,1,$1+$1,$6,$7,$8,$9,0*
20,1,$1+$1,$8,$9,$2,$3,0*%
G04 Aperture macros list end*
%ADD10RoundRect,0.250000X-0.250000X-0.475000X0.250000X-0.475000X0.250000X0.475000X-0.250000X0.475000X0*%
%ADD11RoundRect,0.250000X-0.262500X-0.450000X0.262500X-0.450000X0.262500X0.450000X-0.262500X0.450000X0*%
%ADD12RoundRect,0.150000X-0.512500X-0.150000X0.512500X-0.150000X0.512500X0.150000X-0.512500X0.150000X0*%
%ADD13RoundRect,0.250000X-0.305000X-0.375000X0.305000X-0.375000X0.305000X0.375000X-0.305000X0.375000X0*%
%ADD14RoundRect,0.150000X-0.675000X-0.150000X0.675000X-0.150000X0.675000X0.150000X-0.675000X0.150000X0*%
%ADD15RoundRect,0.250000X-0.325000X-0.650000X0.325000X-0.650000X0.325000X0.650000X-0.325000X0.650000X0*%
%ADD16RoundRect,0.250000X-0.400000X-1.450000X0.400000X-1.450000X0.400000X1.450000X-0.400000X1.450000X0*%
%ADD17RoundRect,0.250000X-1.000000X-0.650000X1.000000X-0.650000X1.000000X0.650000X-1.000000X0.650000X0*%
%ADD18RoundRect,0.150000X0.150000X-0.825000X0.150000X0.825000X-0.150000X0.825000X-0.150000X-0.825000X0*%
%ADD19RoundRect,0.250000X-0.312500X-0.625000X0.312500X-0.625000X0.312500X0.625000X-0.312500X0.625000X0*%
G04 APERTURE END LIST*
D10*
%TO.C,C1*%
X50050000Y-65000000D03*
X51950000Y-65000000D03*
%TD*%
D11*
%TO.C,R12*%
X66087500Y-52000000D03*
X67912500Y-52000000D03*
%TD*%
%TO.C,R15*%
X38087500Y-34000000D03*
X39912500Y-34000000D03*
%TD*%
D12*
%TO.C,U2*%
X82862500Y-47050000D03*
X82862500Y-48000000D03*
X82862500Y-48950000D03*
X85137500Y-48950000D03*
X85137500Y-47050000D03*
%TD*%
D11*
%TO.C,R8*%
X73087500Y-35000000D03*
X74912500Y-35000000D03*
%TD*%
%TO.C,R5*%
X91087500Y-48000000D03*
X92912500Y-48000000D03*
%TD*%
D13*
%TO.C,U3*%
X57340000Y-71250000D03*
X57340000Y-72750000D03*
X58660000Y-71250000D03*
X58660000Y-72750000D03*
D14*
X55375000Y-70095000D03*
X55375000Y-71365000D03*
X55375000Y-72635000D03*
X55375000Y-73905000D03*
X60625000Y-73905000D03*
X60625000Y-72635000D03*
X60625000Y-71365000D03*
X60625000Y-70095000D03*
%TD*%
D10*
%TO.C,C3*%
X64050000Y-57000000D03*
X65950000Y-57000000D03*
%TD*%
D11*
%TO.C,R6*%
X73087500Y-31000000D03*
X74912500Y-31000000D03*
%TD*%
D15*
%TO.C,C4*%
X68525000Y-61000000D03*
X71475000Y-61000000D03*
%TD*%
D11*
%TO.C,R4*%
X88087500Y-55000000D03*
X89912500Y-55000000D03*
%TD*%
%TO.C,R11*%
X66087500Y-49000000D03*
X67912500Y-49000000D03*
%TD*%
%TO.C,R7*%
X80087500Y-31000000D03*
X81912500Y-31000000D03*
%TD*%
D16*
%TO.C,F1*%
X33775000Y-73000000D03*
X38225000Y-73000000D03*
%TD*%
D10*
%TO.C,C5*%
X50050000Y-54000000D03*
X51950000Y-54000000D03*
%TD*%
D11*
%TO.C,R3*%
X81087500Y-55000000D03*
X82912500Y-55000000D03*
%TD*%
%TO.C,R10*%
X66087500Y-46000000D03*
X67912500Y-46000000D03*
%TD*%
D10*
%TO.C,C6*%
X83050000Y-41000000D03*
X84950000Y-41000000D03*
%TD*%
D11*
%TO.C,R9*%
X80087500Y-35000000D03*
X81912500Y-35000000D03*
%TD*%
%TO.C,R2*%
X68087500Y-38000000D03*
X69912500Y-38000000D03*
%TD*%
D10*
%TO.C,C2*%
X64050000Y-65000000D03*
X65950000Y-65000000D03*
%TD*%
D17*
%TO.C,D1*%
X44000000Y-73000000D03*
X48000000Y-73000000D03*
%TD*%
D11*
%TO.C,R13*%
X66087500Y-55000000D03*
X67912500Y-55000000D03*
%TD*%
%TO.C,R14*%
X38087500Y-28000000D03*
X39912500Y-28000000D03*
%TD*%
D18*
%TO.C,U1*%
X52190000Y-43475000D03*
X53460000Y-43475000D03*
X54730000Y-43475000D03*
X56000000Y-43475000D03*
X57270000Y-43475000D03*
X58540000Y-43475000D03*
X59810000Y-43475000D03*
X59810000Y-38525000D03*
X58540000Y-38525000D03*
X57270000Y-38525000D03*
X56000000Y-38525000D03*
X54730000Y-38525000D03*
X53460000Y-38525000D03*
X52190000Y-38525000D03*
%TD*%
D19*
%TO.C,R1*%
X43537500Y-57000000D03*
X46462500Y-57000000D03*
%TD*%
M02*
