%TF.GenerationSoftware,KiCad,Pcbnew,10.0.6*%
%TF.CreationDate,2026-10-03T21:00:23+02:00*%
%TF.ProjectId,BMW-E9x-KCAN-RXOnly,424d572d-4539-4782-9d4b-43414e2d5258,rev?*%
%TF.SameCoordinates,Original*%
%TF.FileFunction,Legend,Top*%
%TF.FilePolarity,Positive*%
%FSLAX46Y46*%
G04 Gerber Fmt 4.6, Leading zero omitted, Abs format (unit mm)*
G04 Created by KiCad (PCBNEW 10.0.6) date 2026-10-03 21:00:23*
%MOMM*%
%LPD*%
G01*
G04 APERTURE LIST*
G04 Aperture macros list*
%AMRoundRect*
0 Rectangle with rounded corners*
0 $1 Rounding radius*
0 $2 $3 $4 $5 $6 $7 $8 $9 X,Y pos of 4 corners*
0 Add a 4 corners polygon primitive as box body*
4,1,4,$2,$3,$4,$5,$6,$7,$8,$9,$2,$3,0*
0 Add four circle primitives for the rounded corners*
1,1,$1+$1,$2,$3*
1,1,$1+$1,$4,$5*
1,1,$1+$1,$6,$7*
1,1,$1+$1,$8,$9*
0 Add four rect primitives between the rounded corners*
20,1,$1+$1,$2,$3,$4,$5,0*
20,1,$1+$1,$4,$5,$6,$7,0*
20,1,$1+$1,$6,$7,$8,$9,0*
20,1,$1+$1,$8,$9,$2,$3,0*%
G04 Aperture macros list end*
%ADD10C,0.150000*%
%ADD11C,0.180000*%
%ADD12C,0.240000*%
%ADD13C,0.120000*%
%ADD14RoundRect,0.250000X-0.250000X-0.475000X0.250000X-0.475000X0.250000X0.475000X-0.250000X0.475000X0*%
%ADD15RoundRect,0.250000X-0.262500X-0.450000X0.262500X-0.450000X0.262500X0.450000X-0.262500X0.450000X0*%
%ADD16C,3.200000*%
%ADD17RoundRect,0.250000X0.750000X-0.600000X0.750000X0.600000X-0.750000X0.600000X-0.750000X-0.600000X0*%
%ADD18O,2.000000X1.700000*%
%ADD19RoundRect,0.150000X-0.512500X-0.150000X0.512500X-0.150000X0.512500X0.150000X-0.512500X0.150000X0*%
%ADD20C,1.500000*%
%ADD21RoundRect,0.150000X-0.675000X-0.150000X0.675000X-0.150000X0.675000X0.150000X-0.675000X0.150000X0*%
%ADD22R,2.650000X3.000000*%
%ADD23R,1.700000X1.700000*%
%ADD24C,1.700000*%
%ADD25RoundRect,0.250000X-0.325000X-0.650000X0.325000X-0.650000X0.325000X0.650000X-0.325000X0.650000X0*%
%ADD26RoundRect,0.250000X-0.400000X-1.450000X0.400000X-1.450000X0.400000X1.450000X-0.400000X1.450000X0*%
%ADD27RoundRect,0.250000X-1.000000X-0.650000X1.000000X-0.650000X1.000000X0.650000X-1.000000X0.650000X0*%
%ADD28RoundRect,0.250000X0.725000X-0.600000X0.725000X0.600000X-0.725000X0.600000X-0.725000X-0.600000X0*%
%ADD29O,1.950000X1.700000*%
%ADD30RoundRect,0.150000X0.150000X-0.825000X0.150000X0.825000X-0.150000X0.825000X-0.150000X-0.825000X0*%
%ADD31RoundRect,0.250000X-0.312500X-0.625000X0.312500X-0.625000X0.312500X0.625000X-0.312500X0.625000X0*%
G04 APERTURE END LIST*
D10*
X22833333Y-17359580D02*
X22785714Y-17407200D01*
X22785714Y-17407200D02*
X22642857Y-17454819D01*
X22642857Y-17454819D02*
X22547619Y-17454819D01*
X22547619Y-17454819D02*
X22404762Y-17407200D01*
X22404762Y-17407200D02*
X22309524Y-17311961D01*
X22309524Y-17311961D02*
X22261905Y-17216723D01*
X22261905Y-17216723D02*
X22214286Y-17026247D01*
X22214286Y-17026247D02*
X22214286Y-16883390D01*
X22214286Y-16883390D02*
X22261905Y-16692914D01*
X22261905Y-16692914D02*
X22309524Y-16597676D01*
X22309524Y-16597676D02*
X22404762Y-16502438D01*
X22404762Y-16502438D02*
X22547619Y-16454819D01*
X22547619Y-16454819D02*
X22642857Y-16454819D01*
X22642857Y-16454819D02*
X22785714Y-16502438D01*
X22785714Y-16502438D02*
X22833333Y-16550057D01*
X23214286Y-17169104D02*
X23690476Y-17169104D01*
X23119048Y-17454819D02*
X23452381Y-16454819D01*
X23452381Y-16454819D02*
X23785714Y-17454819D01*
X24119048Y-17454819D02*
X24119048Y-16454819D01*
X24119048Y-16454819D02*
X24690476Y-17454819D01*
X24690476Y-17454819D02*
X24690476Y-16454819D01*
X25166667Y-17454819D02*
X25166667Y-16454819D01*
X25166667Y-16931009D02*
X25738095Y-16931009D01*
X25738095Y-17454819D02*
X25738095Y-16454819D01*
X21071428Y-77931009D02*
X21214285Y-77978628D01*
X21214285Y-77978628D02*
X21261904Y-78026247D01*
X21261904Y-78026247D02*
X21309523Y-78121485D01*
X21309523Y-78121485D02*
X21309523Y-78264342D01*
X21309523Y-78264342D02*
X21261904Y-78359580D01*
X21261904Y-78359580D02*
X21214285Y-78407200D01*
X21214285Y-78407200D02*
X21119047Y-78454819D01*
X21119047Y-78454819D02*
X20738095Y-78454819D01*
X20738095Y-78454819D02*
X20738095Y-77454819D01*
X20738095Y-77454819D02*
X21071428Y-77454819D01*
X21071428Y-77454819D02*
X21166666Y-77502438D01*
X21166666Y-77502438D02*
X21214285Y-77550057D01*
X21214285Y-77550057D02*
X21261904Y-77645295D01*
X21261904Y-77645295D02*
X21261904Y-77740533D01*
X21261904Y-77740533D02*
X21214285Y-77835771D01*
X21214285Y-77835771D02*
X21166666Y-77883390D01*
X21166666Y-77883390D02*
X21071428Y-77931009D01*
X21071428Y-77931009D02*
X20738095Y-77931009D01*
X21690476Y-78169104D02*
X22166666Y-78169104D01*
X21595238Y-78454819D02*
X21928571Y-77454819D01*
X21928571Y-77454819D02*
X22261904Y-78454819D01*
X22452381Y-77454819D02*
X23023809Y-77454819D01*
X22738095Y-78454819D02*
X22738095Y-77454819D01*
X24642857Y-78454819D02*
X24071429Y-78454819D01*
X24357143Y-78454819D02*
X24357143Y-77454819D01*
X24357143Y-77454819D02*
X24261905Y-77597676D01*
X24261905Y-77597676D02*
X24166667Y-77692914D01*
X24166667Y-77692914D02*
X24071429Y-77740533D01*
X25261905Y-77454819D02*
X25357143Y-77454819D01*
X25357143Y-77454819D02*
X25452381Y-77502438D01*
X25452381Y-77502438D02*
X25500000Y-77550057D01*
X25500000Y-77550057D02*
X25547619Y-77645295D01*
X25547619Y-77645295D02*
X25595238Y-77835771D01*
X25595238Y-77835771D02*
X25595238Y-78073866D01*
X25595238Y-78073866D02*
X25547619Y-78264342D01*
X25547619Y-78264342D02*
X25500000Y-78359580D01*
X25500000Y-78359580D02*
X25452381Y-78407200D01*
X25452381Y-78407200D02*
X25357143Y-78454819D01*
X25357143Y-78454819D02*
X25261905Y-78454819D01*
X25261905Y-78454819D02*
X25166667Y-78407200D01*
X25166667Y-78407200D02*
X25119048Y-78359580D01*
X25119048Y-78359580D02*
X25071429Y-78264342D01*
X25071429Y-78264342D02*
X25023810Y-78073866D01*
X25023810Y-78073866D02*
X25023810Y-77835771D01*
X25023810Y-77835771D02*
X25071429Y-77645295D01*
X25071429Y-77645295D02*
X25119048Y-77550057D01*
X25119048Y-77550057D02*
X25166667Y-77502438D01*
X25166667Y-77502438D02*
X25261905Y-77454819D01*
X26023810Y-78359580D02*
X26071429Y-78407200D01*
X26071429Y-78407200D02*
X26023810Y-78454819D01*
X26023810Y-78454819D02*
X25976191Y-78407200D01*
X25976191Y-78407200D02*
X26023810Y-78359580D01*
X26023810Y-78359580D02*
X26023810Y-78454819D01*
X26500000Y-78359580D02*
X26547619Y-78407200D01*
X26547619Y-78407200D02*
X26500000Y-78454819D01*
X26500000Y-78454819D02*
X26452381Y-78407200D01*
X26452381Y-78407200D02*
X26500000Y-78359580D01*
X26500000Y-78359580D02*
X26500000Y-78454819D01*
X27499999Y-78454819D02*
X26928571Y-78454819D01*
X27214285Y-78454819D02*
X27214285Y-77454819D01*
X27214285Y-77454819D02*
X27119047Y-77597676D01*
X27119047Y-77597676D02*
X27023809Y-77692914D01*
X27023809Y-77692914D02*
X26928571Y-77740533D01*
X28071428Y-77883390D02*
X27976190Y-77835771D01*
X27976190Y-77835771D02*
X27928571Y-77788152D01*
X27928571Y-77788152D02*
X27880952Y-77692914D01*
X27880952Y-77692914D02*
X27880952Y-77645295D01*
X27880952Y-77645295D02*
X27928571Y-77550057D01*
X27928571Y-77550057D02*
X27976190Y-77502438D01*
X27976190Y-77502438D02*
X28071428Y-77454819D01*
X28071428Y-77454819D02*
X28261904Y-77454819D01*
X28261904Y-77454819D02*
X28357142Y-77502438D01*
X28357142Y-77502438D02*
X28404761Y-77550057D01*
X28404761Y-77550057D02*
X28452380Y-77645295D01*
X28452380Y-77645295D02*
X28452380Y-77692914D01*
X28452380Y-77692914D02*
X28404761Y-77788152D01*
X28404761Y-77788152D02*
X28357142Y-77835771D01*
X28357142Y-77835771D02*
X28261904Y-77883390D01*
X28261904Y-77883390D02*
X28071428Y-77883390D01*
X28071428Y-77883390D02*
X27976190Y-77931009D01*
X27976190Y-77931009D02*
X27928571Y-77978628D01*
X27928571Y-77978628D02*
X27880952Y-78073866D01*
X27880952Y-78073866D02*
X27880952Y-78264342D01*
X27880952Y-78264342D02*
X27928571Y-78359580D01*
X27928571Y-78359580D02*
X27976190Y-78407200D01*
X27976190Y-78407200D02*
X28071428Y-78454819D01*
X28071428Y-78454819D02*
X28261904Y-78454819D01*
X28261904Y-78454819D02*
X28357142Y-78407200D01*
X28357142Y-78407200D02*
X28404761Y-78359580D01*
X28404761Y-78359580D02*
X28452380Y-78264342D01*
X28452380Y-78264342D02*
X28452380Y-78073866D01*
X28452380Y-78073866D02*
X28404761Y-77978628D01*
X28404761Y-77978628D02*
X28357142Y-77931009D01*
X28357142Y-77931009D02*
X28261904Y-77883390D01*
X28738095Y-77454819D02*
X29071428Y-78454819D01*
X29071428Y-78454819D02*
X29404761Y-77454819D01*
X21428571Y-80454819D02*
X20857143Y-80454819D01*
X21142857Y-80454819D02*
X21142857Y-79454819D01*
X21142857Y-79454819D02*
X21047619Y-79597676D01*
X21047619Y-79597676D02*
X20952381Y-79692914D01*
X20952381Y-79692914D02*
X20857143Y-79740533D01*
X21857143Y-80359580D02*
X21904762Y-80407200D01*
X21904762Y-80407200D02*
X21857143Y-80454819D01*
X21857143Y-80454819D02*
X21809524Y-80407200D01*
X21809524Y-80407200D02*
X21857143Y-80359580D01*
X21857143Y-80359580D02*
X21857143Y-80454819D01*
X21857143Y-79835771D02*
X21904762Y-79883390D01*
X21904762Y-79883390D02*
X21857143Y-79931009D01*
X21857143Y-79931009D02*
X21809524Y-79883390D01*
X21809524Y-79883390D02*
X21857143Y-79835771D01*
X21857143Y-79835771D02*
X21857143Y-79931009D01*
X22333333Y-80073866D02*
X23095238Y-80073866D01*
X22714285Y-80454819D02*
X22714285Y-79692914D01*
X25047619Y-79550057D02*
X25095238Y-79502438D01*
X25095238Y-79502438D02*
X25190476Y-79454819D01*
X25190476Y-79454819D02*
X25428571Y-79454819D01*
X25428571Y-79454819D02*
X25523809Y-79502438D01*
X25523809Y-79502438D02*
X25571428Y-79550057D01*
X25571428Y-79550057D02*
X25619047Y-79645295D01*
X25619047Y-79645295D02*
X25619047Y-79740533D01*
X25619047Y-79740533D02*
X25571428Y-79883390D01*
X25571428Y-79883390D02*
X25000000Y-80454819D01*
X25000000Y-80454819D02*
X25619047Y-80454819D01*
X26047619Y-80359580D02*
X26095238Y-80407200D01*
X26095238Y-80407200D02*
X26047619Y-80454819D01*
X26047619Y-80454819D02*
X26000000Y-80407200D01*
X26000000Y-80407200D02*
X26047619Y-80359580D01*
X26047619Y-80359580D02*
X26047619Y-80454819D01*
X26047619Y-79835771D02*
X26095238Y-79883390D01*
X26095238Y-79883390D02*
X26047619Y-79931009D01*
X26047619Y-79931009D02*
X26000000Y-79883390D01*
X26000000Y-79883390D02*
X26047619Y-79835771D01*
X26047619Y-79835771D02*
X26047619Y-79931009D01*
X27047618Y-79502438D02*
X26952380Y-79454819D01*
X26952380Y-79454819D02*
X26809523Y-79454819D01*
X26809523Y-79454819D02*
X26666666Y-79502438D01*
X26666666Y-79502438D02*
X26571428Y-79597676D01*
X26571428Y-79597676D02*
X26523809Y-79692914D01*
X26523809Y-79692914D02*
X26476190Y-79883390D01*
X26476190Y-79883390D02*
X26476190Y-80026247D01*
X26476190Y-80026247D02*
X26523809Y-80216723D01*
X26523809Y-80216723D02*
X26571428Y-80311961D01*
X26571428Y-80311961D02*
X26666666Y-80407200D01*
X26666666Y-80407200D02*
X26809523Y-80454819D01*
X26809523Y-80454819D02*
X26904761Y-80454819D01*
X26904761Y-80454819D02*
X27047618Y-80407200D01*
X27047618Y-80407200D02*
X27095237Y-80359580D01*
X27095237Y-80359580D02*
X27095237Y-80026247D01*
X27095237Y-80026247D02*
X26904761Y-80026247D01*
X27523809Y-80454819D02*
X27523809Y-79454819D01*
X27523809Y-79454819D02*
X28095237Y-80454819D01*
X28095237Y-80454819D02*
X28095237Y-79454819D01*
X28571428Y-80454819D02*
X28571428Y-79454819D01*
X28571428Y-79454819D02*
X28809523Y-79454819D01*
X28809523Y-79454819D02*
X28952380Y-79502438D01*
X28952380Y-79502438D02*
X29047618Y-79597676D01*
X29047618Y-79597676D02*
X29095237Y-79692914D01*
X29095237Y-79692914D02*
X29142856Y-79883390D01*
X29142856Y-79883390D02*
X29142856Y-80026247D01*
X29142856Y-80026247D02*
X29095237Y-80216723D01*
X29095237Y-80216723D02*
X29047618Y-80311961D01*
X29047618Y-80311961D02*
X28952380Y-80407200D01*
X28952380Y-80407200D02*
X28809523Y-80454819D01*
X28809523Y-80454819D02*
X28571428Y-80454819D01*
X29952380Y-17359580D02*
X29904761Y-17407200D01*
X29904761Y-17407200D02*
X29761904Y-17454819D01*
X29761904Y-17454819D02*
X29666666Y-17454819D01*
X29666666Y-17454819D02*
X29523809Y-17407200D01*
X29523809Y-17407200D02*
X29428571Y-17311961D01*
X29428571Y-17311961D02*
X29380952Y-17216723D01*
X29380952Y-17216723D02*
X29333333Y-17026247D01*
X29333333Y-17026247D02*
X29333333Y-16883390D01*
X29333333Y-16883390D02*
X29380952Y-16692914D01*
X29380952Y-16692914D02*
X29428571Y-16597676D01*
X29428571Y-16597676D02*
X29523809Y-16502438D01*
X29523809Y-16502438D02*
X29666666Y-16454819D01*
X29666666Y-16454819D02*
X29761904Y-16454819D01*
X29761904Y-16454819D02*
X29904761Y-16502438D01*
X29904761Y-16502438D02*
X29952380Y-16550057D01*
X30333333Y-17169104D02*
X30809523Y-17169104D01*
X30238095Y-17454819D02*
X30571428Y-16454819D01*
X30571428Y-16454819D02*
X30904761Y-17454819D01*
X31238095Y-17454819D02*
X31238095Y-16454819D01*
X31238095Y-16454819D02*
X31809523Y-17454819D01*
X31809523Y-17454819D02*
X31809523Y-16454819D01*
X32761904Y-17454819D02*
X32285714Y-17454819D01*
X32285714Y-17454819D02*
X32285714Y-16454819D01*
X23547619Y-38454819D02*
X23547619Y-37454819D01*
X24119047Y-38454819D02*
X23690476Y-37883390D01*
X24119047Y-37454819D02*
X23547619Y-38026247D01*
X25119047Y-38359580D02*
X25071428Y-38407200D01*
X25071428Y-38407200D02*
X24928571Y-38454819D01*
X24928571Y-38454819D02*
X24833333Y-38454819D01*
X24833333Y-38454819D02*
X24690476Y-38407200D01*
X24690476Y-38407200D02*
X24595238Y-38311961D01*
X24595238Y-38311961D02*
X24547619Y-38216723D01*
X24547619Y-38216723D02*
X24500000Y-38026247D01*
X24500000Y-38026247D02*
X24500000Y-37883390D01*
X24500000Y-37883390D02*
X24547619Y-37692914D01*
X24547619Y-37692914D02*
X24595238Y-37597676D01*
X24595238Y-37597676D02*
X24690476Y-37502438D01*
X24690476Y-37502438D02*
X24833333Y-37454819D01*
X24833333Y-37454819D02*
X24928571Y-37454819D01*
X24928571Y-37454819D02*
X25071428Y-37502438D01*
X25071428Y-37502438D02*
X25119047Y-37550057D01*
X25500000Y-38169104D02*
X25976190Y-38169104D01*
X25404762Y-38454819D02*
X25738095Y-37454819D01*
X25738095Y-37454819D02*
X26071428Y-38454819D01*
X26404762Y-38454819D02*
X26404762Y-37454819D01*
X26404762Y-37454819D02*
X26976190Y-38454819D01*
X26976190Y-38454819D02*
X26976190Y-37454819D01*
X28738095Y-38454819D02*
X28166667Y-38454819D01*
X28452381Y-38454819D02*
X28452381Y-37454819D01*
X28452381Y-37454819D02*
X28357143Y-37597676D01*
X28357143Y-37597676D02*
X28261905Y-37692914D01*
X28261905Y-37692914D02*
X28166667Y-37740533D01*
X29166667Y-38359580D02*
X29214286Y-38407200D01*
X29214286Y-38407200D02*
X29166667Y-38454819D01*
X29166667Y-38454819D02*
X29119048Y-38407200D01*
X29119048Y-38407200D02*
X29166667Y-38359580D01*
X29166667Y-38359580D02*
X29166667Y-38454819D01*
X29166667Y-37835771D02*
X29214286Y-37883390D01*
X29214286Y-37883390D02*
X29166667Y-37931009D01*
X29166667Y-37931009D02*
X29119048Y-37883390D01*
X29119048Y-37883390D02*
X29166667Y-37835771D01*
X29166667Y-37835771D02*
X29166667Y-37931009D01*
X29642857Y-38454819D02*
X29642857Y-37454819D01*
X29642857Y-37931009D02*
X30214285Y-37931009D01*
X30214285Y-38454819D02*
X30214285Y-37454819D01*
X31404762Y-37550057D02*
X31452381Y-37502438D01*
X31452381Y-37502438D02*
X31547619Y-37454819D01*
X31547619Y-37454819D02*
X31785714Y-37454819D01*
X31785714Y-37454819D02*
X31880952Y-37502438D01*
X31880952Y-37502438D02*
X31928571Y-37550057D01*
X31928571Y-37550057D02*
X31976190Y-37645295D01*
X31976190Y-37645295D02*
X31976190Y-37740533D01*
X31976190Y-37740533D02*
X31928571Y-37883390D01*
X31928571Y-37883390D02*
X31357143Y-38454819D01*
X31357143Y-38454819D02*
X31976190Y-38454819D01*
X32404762Y-38359580D02*
X32452381Y-38407200D01*
X32452381Y-38407200D02*
X32404762Y-38454819D01*
X32404762Y-38454819D02*
X32357143Y-38407200D01*
X32357143Y-38407200D02*
X32404762Y-38359580D01*
X32404762Y-38359580D02*
X32404762Y-38454819D01*
X32404762Y-37835771D02*
X32452381Y-37883390D01*
X32452381Y-37883390D02*
X32404762Y-37931009D01*
X32404762Y-37931009D02*
X32357143Y-37883390D01*
X32357143Y-37883390D02*
X32404762Y-37835771D01*
X32404762Y-37835771D02*
X32404762Y-37931009D01*
X33357142Y-38454819D02*
X32880952Y-38454819D01*
X32880952Y-38454819D02*
X32880952Y-37454819D01*
X34357143Y-37454819D02*
X34976190Y-37454819D01*
X34976190Y-37454819D02*
X34642857Y-37835771D01*
X34642857Y-37835771D02*
X34785714Y-37835771D01*
X34785714Y-37835771D02*
X34880952Y-37883390D01*
X34880952Y-37883390D02*
X34928571Y-37931009D01*
X34928571Y-37931009D02*
X34976190Y-38026247D01*
X34976190Y-38026247D02*
X34976190Y-38264342D01*
X34976190Y-38264342D02*
X34928571Y-38359580D01*
X34928571Y-38359580D02*
X34880952Y-38407200D01*
X34880952Y-38407200D02*
X34785714Y-38454819D01*
X34785714Y-38454819D02*
X34500000Y-38454819D01*
X34500000Y-38454819D02*
X34404762Y-38407200D01*
X34404762Y-38407200D02*
X34357143Y-38359580D01*
X35404762Y-38359580D02*
X35452381Y-38407200D01*
X35452381Y-38407200D02*
X35404762Y-38454819D01*
X35404762Y-38454819D02*
X35357143Y-38407200D01*
X35357143Y-38407200D02*
X35404762Y-38359580D01*
X35404762Y-38359580D02*
X35404762Y-38454819D01*
X35404762Y-37835771D02*
X35452381Y-37883390D01*
X35452381Y-37883390D02*
X35404762Y-37931009D01*
X35404762Y-37931009D02*
X35357143Y-37883390D01*
X35357143Y-37883390D02*
X35404762Y-37835771D01*
X35404762Y-37835771D02*
X35404762Y-37931009D01*
X36404761Y-37502438D02*
X36309523Y-37454819D01*
X36309523Y-37454819D02*
X36166666Y-37454819D01*
X36166666Y-37454819D02*
X36023809Y-37502438D01*
X36023809Y-37502438D02*
X35928571Y-37597676D01*
X35928571Y-37597676D02*
X35880952Y-37692914D01*
X35880952Y-37692914D02*
X35833333Y-37883390D01*
X35833333Y-37883390D02*
X35833333Y-38026247D01*
X35833333Y-38026247D02*
X35880952Y-38216723D01*
X35880952Y-38216723D02*
X35928571Y-38311961D01*
X35928571Y-38311961D02*
X36023809Y-38407200D01*
X36023809Y-38407200D02*
X36166666Y-38454819D01*
X36166666Y-38454819D02*
X36261904Y-38454819D01*
X36261904Y-38454819D02*
X36404761Y-38407200D01*
X36404761Y-38407200D02*
X36452380Y-38359580D01*
X36452380Y-38359580D02*
X36452380Y-38026247D01*
X36452380Y-38026247D02*
X36261904Y-38026247D01*
X36880952Y-38454819D02*
X36880952Y-37454819D01*
X36880952Y-37454819D02*
X37452380Y-38454819D01*
X37452380Y-38454819D02*
X37452380Y-37454819D01*
X37928571Y-38454819D02*
X37928571Y-37454819D01*
X37928571Y-37454819D02*
X38166666Y-37454819D01*
X38166666Y-37454819D02*
X38309523Y-37502438D01*
X38309523Y-37502438D02*
X38404761Y-37597676D01*
X38404761Y-37597676D02*
X38452380Y-37692914D01*
X38452380Y-37692914D02*
X38499999Y-37883390D01*
X38499999Y-37883390D02*
X38499999Y-38026247D01*
X38499999Y-38026247D02*
X38452380Y-38216723D01*
X38452380Y-38216723D02*
X38404761Y-38311961D01*
X38404761Y-38311961D02*
X38309523Y-38407200D01*
X38309523Y-38407200D02*
X38166666Y-38454819D01*
X38166666Y-38454819D02*
X37928571Y-38454819D01*
X37238095Y-16502438D02*
X37142857Y-16454819D01*
X37142857Y-16454819D02*
X37000000Y-16454819D01*
X37000000Y-16454819D02*
X36857143Y-16502438D01*
X36857143Y-16502438D02*
X36761905Y-16597676D01*
X36761905Y-16597676D02*
X36714286Y-16692914D01*
X36714286Y-16692914D02*
X36666667Y-16883390D01*
X36666667Y-16883390D02*
X36666667Y-17026247D01*
X36666667Y-17026247D02*
X36714286Y-17216723D01*
X36714286Y-17216723D02*
X36761905Y-17311961D01*
X36761905Y-17311961D02*
X36857143Y-17407200D01*
X36857143Y-17407200D02*
X37000000Y-17454819D01*
X37000000Y-17454819D02*
X37095238Y-17454819D01*
X37095238Y-17454819D02*
X37238095Y-17407200D01*
X37238095Y-17407200D02*
X37285714Y-17359580D01*
X37285714Y-17359580D02*
X37285714Y-17026247D01*
X37285714Y-17026247D02*
X37095238Y-17026247D01*
X37714286Y-17454819D02*
X37714286Y-16454819D01*
X37714286Y-16454819D02*
X38285714Y-17454819D01*
X38285714Y-17454819D02*
X38285714Y-16454819D01*
X38761905Y-17454819D02*
X38761905Y-16454819D01*
X38761905Y-16454819D02*
X39000000Y-16454819D01*
X39000000Y-16454819D02*
X39142857Y-16502438D01*
X39142857Y-16502438D02*
X39238095Y-16597676D01*
X39238095Y-16597676D02*
X39285714Y-16692914D01*
X39285714Y-16692914D02*
X39333333Y-16883390D01*
X39333333Y-16883390D02*
X39333333Y-17026247D01*
X39333333Y-17026247D02*
X39285714Y-17216723D01*
X39285714Y-17216723D02*
X39238095Y-17311961D01*
X39238095Y-17311961D02*
X39142857Y-17407200D01*
X39142857Y-17407200D02*
X39000000Y-17454819D01*
X39000000Y-17454819D02*
X38761905Y-17454819D01*
X42261904Y-85931009D02*
X42404761Y-85978628D01*
X42404761Y-85978628D02*
X42452380Y-86026247D01*
X42452380Y-86026247D02*
X42499999Y-86121485D01*
X42499999Y-86121485D02*
X42499999Y-86264342D01*
X42499999Y-86264342D02*
X42452380Y-86359580D01*
X42452380Y-86359580D02*
X42404761Y-86407200D01*
X42404761Y-86407200D02*
X42309523Y-86454819D01*
X42309523Y-86454819D02*
X41928571Y-86454819D01*
X41928571Y-86454819D02*
X41928571Y-85454819D01*
X41928571Y-85454819D02*
X42261904Y-85454819D01*
X42261904Y-85454819D02*
X42357142Y-85502438D01*
X42357142Y-85502438D02*
X42404761Y-85550057D01*
X42404761Y-85550057D02*
X42452380Y-85645295D01*
X42452380Y-85645295D02*
X42452380Y-85740533D01*
X42452380Y-85740533D02*
X42404761Y-85835771D01*
X42404761Y-85835771D02*
X42357142Y-85883390D01*
X42357142Y-85883390D02*
X42261904Y-85931009D01*
X42261904Y-85931009D02*
X41928571Y-85931009D01*
X42880952Y-86169104D02*
X43357142Y-86169104D01*
X42785714Y-86454819D02*
X43119047Y-85454819D01*
X43119047Y-85454819D02*
X43452380Y-86454819D01*
X43642857Y-85454819D02*
X44214285Y-85454819D01*
X43928571Y-86454819D02*
X43928571Y-85454819D01*
X51761904Y-46454819D02*
X51761904Y-47264342D01*
X51761904Y-47264342D02*
X51809523Y-47359580D01*
X51809523Y-47359580D02*
X51857142Y-47407200D01*
X51857142Y-47407200D02*
X51952380Y-47454819D01*
X51952380Y-47454819D02*
X52142856Y-47454819D01*
X52142856Y-47454819D02*
X52238094Y-47407200D01*
X52238094Y-47407200D02*
X52285713Y-47359580D01*
X52285713Y-47359580D02*
X52333332Y-47264342D01*
X52333332Y-47264342D02*
X52333332Y-46454819D01*
X53333332Y-47454819D02*
X52761904Y-47454819D01*
X53047618Y-47454819D02*
X53047618Y-46454819D01*
X53047618Y-46454819D02*
X52952380Y-46597676D01*
X52952380Y-46597676D02*
X52857142Y-46692914D01*
X52857142Y-46692914D02*
X52761904Y-46740533D01*
X54380952Y-46454819D02*
X54952380Y-46454819D01*
X54666666Y-47454819D02*
X54666666Y-46454819D01*
X55571428Y-46454819D02*
X55571428Y-47169104D01*
X55571428Y-47169104D02*
X55523809Y-47311961D01*
X55523809Y-47311961D02*
X55428571Y-47407200D01*
X55428571Y-47407200D02*
X55285714Y-47454819D01*
X55285714Y-47454819D02*
X55190476Y-47454819D01*
X56000000Y-47169104D02*
X56476190Y-47169104D01*
X55904762Y-47454819D02*
X56238095Y-46454819D01*
X56238095Y-46454819D02*
X56571428Y-47454819D01*
X57428571Y-47454819D02*
X56857143Y-47454819D01*
X57142857Y-47454819D02*
X57142857Y-46454819D01*
X57142857Y-46454819D02*
X57047619Y-46597676D01*
X57047619Y-46597676D02*
X56952381Y-46692914D01*
X56952381Y-46692914D02*
X56857143Y-46740533D01*
X58047619Y-46454819D02*
X58142857Y-46454819D01*
X58142857Y-46454819D02*
X58238095Y-46502438D01*
X58238095Y-46502438D02*
X58285714Y-46550057D01*
X58285714Y-46550057D02*
X58333333Y-46645295D01*
X58333333Y-46645295D02*
X58380952Y-46835771D01*
X58380952Y-46835771D02*
X58380952Y-47073866D01*
X58380952Y-47073866D02*
X58333333Y-47264342D01*
X58333333Y-47264342D02*
X58285714Y-47359580D01*
X58285714Y-47359580D02*
X58238095Y-47407200D01*
X58238095Y-47407200D02*
X58142857Y-47454819D01*
X58142857Y-47454819D02*
X58047619Y-47454819D01*
X58047619Y-47454819D02*
X57952381Y-47407200D01*
X57952381Y-47407200D02*
X57904762Y-47359580D01*
X57904762Y-47359580D02*
X57857143Y-47264342D01*
X57857143Y-47264342D02*
X57809524Y-47073866D01*
X57809524Y-47073866D02*
X57809524Y-46835771D01*
X57809524Y-46835771D02*
X57857143Y-46645295D01*
X57857143Y-46645295D02*
X57904762Y-46550057D01*
X57904762Y-46550057D02*
X57952381Y-46502438D01*
X57952381Y-46502438D02*
X58047619Y-46454819D01*
X59285714Y-46454819D02*
X58809524Y-46454819D01*
X58809524Y-46454819D02*
X58761905Y-46931009D01*
X58761905Y-46931009D02*
X58809524Y-46883390D01*
X58809524Y-46883390D02*
X58904762Y-46835771D01*
X58904762Y-46835771D02*
X59142857Y-46835771D01*
X59142857Y-46835771D02*
X59238095Y-46883390D01*
X59238095Y-46883390D02*
X59285714Y-46931009D01*
X59285714Y-46931009D02*
X59333333Y-47026247D01*
X59333333Y-47026247D02*
X59333333Y-47264342D01*
X59333333Y-47264342D02*
X59285714Y-47359580D01*
X59285714Y-47359580D02*
X59238095Y-47407200D01*
X59238095Y-47407200D02*
X59142857Y-47454819D01*
X59142857Y-47454819D02*
X58904762Y-47454819D01*
X58904762Y-47454819D02*
X58809524Y-47407200D01*
X58809524Y-47407200D02*
X58761905Y-47359580D01*
X60238095Y-46454819D02*
X59761905Y-46454819D01*
X59761905Y-46454819D02*
X59714286Y-46931009D01*
X59714286Y-46931009D02*
X59761905Y-46883390D01*
X59761905Y-46883390D02*
X59857143Y-46835771D01*
X59857143Y-46835771D02*
X60095238Y-46835771D01*
X60095238Y-46835771D02*
X60190476Y-46883390D01*
X60190476Y-46883390D02*
X60238095Y-46931009D01*
X60238095Y-46931009D02*
X60285714Y-47026247D01*
X60285714Y-47026247D02*
X60285714Y-47264342D01*
X60285714Y-47264342D02*
X60238095Y-47359580D01*
X60238095Y-47359580D02*
X60190476Y-47407200D01*
X60190476Y-47407200D02*
X60095238Y-47454819D01*
X60095238Y-47454819D02*
X59857143Y-47454819D01*
X59857143Y-47454819D02*
X59761905Y-47407200D01*
X59761905Y-47407200D02*
X59714286Y-47359580D01*
X54142857Y-76454819D02*
X54142857Y-77264342D01*
X54142857Y-77264342D02*
X54190476Y-77359580D01*
X54190476Y-77359580D02*
X54238095Y-77407200D01*
X54238095Y-77407200D02*
X54333333Y-77454819D01*
X54333333Y-77454819D02*
X54523809Y-77454819D01*
X54523809Y-77454819D02*
X54619047Y-77407200D01*
X54619047Y-77407200D02*
X54666666Y-77359580D01*
X54666666Y-77359580D02*
X54714285Y-77264342D01*
X54714285Y-77264342D02*
X54714285Y-76454819D01*
X55095238Y-76454819D02*
X55714285Y-76454819D01*
X55714285Y-76454819D02*
X55380952Y-76835771D01*
X55380952Y-76835771D02*
X55523809Y-76835771D01*
X55523809Y-76835771D02*
X55619047Y-76883390D01*
X55619047Y-76883390D02*
X55666666Y-76931009D01*
X55666666Y-76931009D02*
X55714285Y-77026247D01*
X55714285Y-77026247D02*
X55714285Y-77264342D01*
X55714285Y-77264342D02*
X55666666Y-77359580D01*
X55666666Y-77359580D02*
X55619047Y-77407200D01*
X55619047Y-77407200D02*
X55523809Y-77454819D01*
X55523809Y-77454819D02*
X55238095Y-77454819D01*
X55238095Y-77454819D02*
X55142857Y-77407200D01*
X55142857Y-77407200D02*
X55095238Y-77359580D01*
X57380952Y-76454819D02*
X56904762Y-76454819D01*
X56904762Y-76454819D02*
X56857143Y-76931009D01*
X56857143Y-76931009D02*
X56904762Y-76883390D01*
X56904762Y-76883390D02*
X57000000Y-76835771D01*
X57000000Y-76835771D02*
X57238095Y-76835771D01*
X57238095Y-76835771D02*
X57333333Y-76883390D01*
X57333333Y-76883390D02*
X57380952Y-76931009D01*
X57380952Y-76931009D02*
X57428571Y-77026247D01*
X57428571Y-77026247D02*
X57428571Y-77264342D01*
X57428571Y-77264342D02*
X57380952Y-77359580D01*
X57380952Y-77359580D02*
X57333333Y-77407200D01*
X57333333Y-77407200D02*
X57238095Y-77454819D01*
X57238095Y-77454819D02*
X57000000Y-77454819D01*
X57000000Y-77454819D02*
X56904762Y-77407200D01*
X56904762Y-77407200D02*
X56857143Y-77359580D01*
X57714286Y-76454819D02*
X58047619Y-77454819D01*
X58047619Y-77454819D02*
X58380952Y-76454819D01*
X59952381Y-77454819D02*
X59476191Y-77454819D01*
X59476191Y-77454819D02*
X59476191Y-76454819D01*
X60285715Y-77454819D02*
X60285715Y-76454819D01*
X60285715Y-76454819D02*
X60523810Y-76454819D01*
X60523810Y-76454819D02*
X60666667Y-76502438D01*
X60666667Y-76502438D02*
X60761905Y-76597676D01*
X60761905Y-76597676D02*
X60809524Y-76692914D01*
X60809524Y-76692914D02*
X60857143Y-76883390D01*
X60857143Y-76883390D02*
X60857143Y-77026247D01*
X60857143Y-77026247D02*
X60809524Y-77216723D01*
X60809524Y-77216723D02*
X60761905Y-77311961D01*
X60761905Y-77311961D02*
X60666667Y-77407200D01*
X60666667Y-77407200D02*
X60523810Y-77454819D01*
X60523810Y-77454819D02*
X60285715Y-77454819D01*
X61476191Y-76454819D02*
X61666667Y-76454819D01*
X61666667Y-76454819D02*
X61761905Y-76502438D01*
X61761905Y-76502438D02*
X61857143Y-76597676D01*
X61857143Y-76597676D02*
X61904762Y-76788152D01*
X61904762Y-76788152D02*
X61904762Y-77121485D01*
X61904762Y-77121485D02*
X61857143Y-77311961D01*
X61857143Y-77311961D02*
X61761905Y-77407200D01*
X61761905Y-77407200D02*
X61666667Y-77454819D01*
X61666667Y-77454819D02*
X61476191Y-77454819D01*
X61476191Y-77454819D02*
X61380953Y-77407200D01*
X61380953Y-77407200D02*
X61285715Y-77311961D01*
X61285715Y-77311961D02*
X61238096Y-77121485D01*
X61238096Y-77121485D02*
X61238096Y-76788152D01*
X61238096Y-76788152D02*
X61285715Y-76597676D01*
X61285715Y-76597676D02*
X61380953Y-76502438D01*
X61380953Y-76502438D02*
X61476191Y-76454819D01*
X62738095Y-16454819D02*
X63309523Y-16454819D01*
X63023809Y-17454819D02*
X63023809Y-16454819D01*
X63547619Y-16454819D02*
X64214285Y-17454819D01*
X64214285Y-16454819D02*
X63547619Y-17454819D01*
X64595238Y-17454819D02*
X64595238Y-16454819D01*
X64595238Y-16454819D02*
X64833333Y-16454819D01*
X64833333Y-16454819D02*
X64976190Y-16502438D01*
X64976190Y-16502438D02*
X65071428Y-16597676D01*
X65071428Y-16597676D02*
X65119047Y-16692914D01*
X65119047Y-16692914D02*
X65166666Y-16883390D01*
X65166666Y-16883390D02*
X65166666Y-17026247D01*
X65166666Y-17026247D02*
X65119047Y-17216723D01*
X65119047Y-17216723D02*
X65071428Y-17311961D01*
X65071428Y-17311961D02*
X64976190Y-17407200D01*
X64976190Y-17407200D02*
X64833333Y-17454819D01*
X64833333Y-17454819D02*
X64595238Y-17454819D01*
X64809523Y-75454819D02*
X64333333Y-75454819D01*
X64333333Y-75454819D02*
X64285714Y-75931009D01*
X64285714Y-75931009D02*
X64333333Y-75883390D01*
X64333333Y-75883390D02*
X64428571Y-75835771D01*
X64428571Y-75835771D02*
X64666666Y-75835771D01*
X64666666Y-75835771D02*
X64761904Y-75883390D01*
X64761904Y-75883390D02*
X64809523Y-75931009D01*
X64809523Y-75931009D02*
X64857142Y-76026247D01*
X64857142Y-76026247D02*
X64857142Y-76264342D01*
X64857142Y-76264342D02*
X64809523Y-76359580D01*
X64809523Y-76359580D02*
X64761904Y-76407200D01*
X64761904Y-76407200D02*
X64666666Y-76454819D01*
X64666666Y-76454819D02*
X64428571Y-76454819D01*
X64428571Y-76454819D02*
X64333333Y-76407200D01*
X64333333Y-76407200D02*
X64285714Y-76359580D01*
X65142857Y-75454819D02*
X65476190Y-76454819D01*
X65476190Y-76454819D02*
X65809523Y-75454819D01*
X63833333Y-86407200D02*
X63976190Y-86454819D01*
X63976190Y-86454819D02*
X64214285Y-86454819D01*
X64214285Y-86454819D02*
X64309523Y-86407200D01*
X64309523Y-86407200D02*
X64357142Y-86359580D01*
X64357142Y-86359580D02*
X64404761Y-86264342D01*
X64404761Y-86264342D02*
X64404761Y-86169104D01*
X64404761Y-86169104D02*
X64357142Y-86073866D01*
X64357142Y-86073866D02*
X64309523Y-86026247D01*
X64309523Y-86026247D02*
X64214285Y-85978628D01*
X64214285Y-85978628D02*
X64023809Y-85931009D01*
X64023809Y-85931009D02*
X63928571Y-85883390D01*
X63928571Y-85883390D02*
X63880952Y-85835771D01*
X63880952Y-85835771D02*
X63833333Y-85740533D01*
X63833333Y-85740533D02*
X63833333Y-85645295D01*
X63833333Y-85645295D02*
X63880952Y-85550057D01*
X63880952Y-85550057D02*
X63928571Y-85502438D01*
X63928571Y-85502438D02*
X64023809Y-85454819D01*
X64023809Y-85454819D02*
X64261904Y-85454819D01*
X64261904Y-85454819D02*
X64404761Y-85502438D01*
X64690476Y-85454819D02*
X65261904Y-85454819D01*
X64976190Y-86454819D02*
X64976190Y-85454819D01*
X65928571Y-85931009D02*
X66071428Y-85978628D01*
X66071428Y-85978628D02*
X66119047Y-86026247D01*
X66119047Y-86026247D02*
X66166666Y-86121485D01*
X66166666Y-86121485D02*
X66166666Y-86264342D01*
X66166666Y-86264342D02*
X66119047Y-86359580D01*
X66119047Y-86359580D02*
X66071428Y-86407200D01*
X66071428Y-86407200D02*
X65976190Y-86454819D01*
X65976190Y-86454819D02*
X65595238Y-86454819D01*
X65595238Y-86454819D02*
X65595238Y-85454819D01*
X65595238Y-85454819D02*
X65928571Y-85454819D01*
X65928571Y-85454819D02*
X66023809Y-85502438D01*
X66023809Y-85502438D02*
X66071428Y-85550057D01*
X66071428Y-85550057D02*
X66119047Y-85645295D01*
X66119047Y-85645295D02*
X66119047Y-85740533D01*
X66119047Y-85740533D02*
X66071428Y-85835771D01*
X66071428Y-85835771D02*
X66023809Y-85883390D01*
X66023809Y-85883390D02*
X65928571Y-85931009D01*
X65928571Y-85931009D02*
X65595238Y-85931009D01*
X69333333Y-27454819D02*
X69000000Y-26978628D01*
X68761905Y-27454819D02*
X68761905Y-26454819D01*
X68761905Y-26454819D02*
X69142857Y-26454819D01*
X69142857Y-26454819D02*
X69238095Y-26502438D01*
X69238095Y-26502438D02*
X69285714Y-26550057D01*
X69285714Y-26550057D02*
X69333333Y-26645295D01*
X69333333Y-26645295D02*
X69333333Y-26788152D01*
X69333333Y-26788152D02*
X69285714Y-26883390D01*
X69285714Y-26883390D02*
X69238095Y-26931009D01*
X69238095Y-26931009D02*
X69142857Y-26978628D01*
X69142857Y-26978628D02*
X68761905Y-26978628D01*
X69666667Y-26454819D02*
X70333333Y-27454819D01*
X70333333Y-26454819D02*
X69666667Y-27454819D01*
X70714286Y-27454819D02*
X70714286Y-26454819D01*
X70714286Y-26454819D02*
X70952381Y-26454819D01*
X70952381Y-26454819D02*
X71095238Y-26502438D01*
X71095238Y-26502438D02*
X71190476Y-26597676D01*
X71190476Y-26597676D02*
X71238095Y-26692914D01*
X71238095Y-26692914D02*
X71285714Y-26883390D01*
X71285714Y-26883390D02*
X71285714Y-27026247D01*
X71285714Y-27026247D02*
X71238095Y-27216723D01*
X71238095Y-27216723D02*
X71190476Y-27311961D01*
X71190476Y-27311961D02*
X71095238Y-27407200D01*
X71095238Y-27407200D02*
X70952381Y-27454819D01*
X70952381Y-27454819D02*
X70714286Y-27454819D01*
X72261905Y-85931009D02*
X72595238Y-85931009D01*
X72738095Y-86454819D02*
X72261905Y-86454819D01*
X72261905Y-86454819D02*
X72261905Y-85454819D01*
X72261905Y-85454819D02*
X72738095Y-85454819D01*
X73166667Y-86454819D02*
X73166667Y-85454819D01*
X73166667Y-85454819D02*
X73738095Y-86454819D01*
X73738095Y-86454819D02*
X73738095Y-85454819D01*
X70857142Y-58454819D02*
X70857142Y-59169104D01*
X70857142Y-59169104D02*
X70809523Y-59311961D01*
X70809523Y-59311961D02*
X70714285Y-59407200D01*
X70714285Y-59407200D02*
X70571428Y-59454819D01*
X70571428Y-59454819D02*
X70476190Y-59454819D01*
X71333333Y-59454819D02*
X71333333Y-58454819D01*
X71333333Y-58454819D02*
X71714285Y-58454819D01*
X71714285Y-58454819D02*
X71809523Y-58502438D01*
X71809523Y-58502438D02*
X71857142Y-58550057D01*
X71857142Y-58550057D02*
X71904761Y-58645295D01*
X71904761Y-58645295D02*
X71904761Y-58788152D01*
X71904761Y-58788152D02*
X71857142Y-58883390D01*
X71857142Y-58883390D02*
X71809523Y-58931009D01*
X71809523Y-58931009D02*
X71714285Y-58978628D01*
X71714285Y-58978628D02*
X71333333Y-58978628D01*
X72095238Y-59550057D02*
X72857142Y-59550057D01*
X73666666Y-59454819D02*
X73333333Y-58978628D01*
X73095238Y-59454819D02*
X73095238Y-58454819D01*
X73095238Y-58454819D02*
X73476190Y-58454819D01*
X73476190Y-58454819D02*
X73571428Y-58502438D01*
X73571428Y-58502438D02*
X73619047Y-58550057D01*
X73619047Y-58550057D02*
X73666666Y-58645295D01*
X73666666Y-58645295D02*
X73666666Y-58788152D01*
X73666666Y-58788152D02*
X73619047Y-58883390D01*
X73619047Y-58883390D02*
X73571428Y-58931009D01*
X73571428Y-58931009D02*
X73476190Y-58978628D01*
X73476190Y-58978628D02*
X73095238Y-58978628D01*
X74000000Y-58454819D02*
X74666666Y-59454819D01*
X74666666Y-58454819D02*
X74000000Y-59454819D01*
X74809524Y-59550057D02*
X75571428Y-59550057D01*
X75809524Y-59454819D02*
X75809524Y-58454819D01*
X75809524Y-58454819D02*
X76142857Y-59169104D01*
X76142857Y-59169104D02*
X76476190Y-58454819D01*
X76476190Y-58454819D02*
X76476190Y-59454819D01*
X77142857Y-58454819D02*
X77333333Y-58454819D01*
X77333333Y-58454819D02*
X77428571Y-58502438D01*
X77428571Y-58502438D02*
X77523809Y-58597676D01*
X77523809Y-58597676D02*
X77571428Y-58788152D01*
X77571428Y-58788152D02*
X77571428Y-59121485D01*
X77571428Y-59121485D02*
X77523809Y-59311961D01*
X77523809Y-59311961D02*
X77428571Y-59407200D01*
X77428571Y-59407200D02*
X77333333Y-59454819D01*
X77333333Y-59454819D02*
X77142857Y-59454819D01*
X77142857Y-59454819D02*
X77047619Y-59407200D01*
X77047619Y-59407200D02*
X76952381Y-59311961D01*
X76952381Y-59311961D02*
X76904762Y-59121485D01*
X76904762Y-59121485D02*
X76904762Y-58788152D01*
X76904762Y-58788152D02*
X76952381Y-58597676D01*
X76952381Y-58597676D02*
X77047619Y-58502438D01*
X77047619Y-58502438D02*
X77142857Y-58454819D01*
X78000000Y-59454819D02*
X78000000Y-58454819D01*
X78000000Y-58454819D02*
X78238095Y-58454819D01*
X78238095Y-58454819D02*
X78380952Y-58502438D01*
X78380952Y-58502438D02*
X78476190Y-58597676D01*
X78476190Y-58597676D02*
X78523809Y-58692914D01*
X78523809Y-58692914D02*
X78571428Y-58883390D01*
X78571428Y-58883390D02*
X78571428Y-59026247D01*
X78571428Y-59026247D02*
X78523809Y-59216723D01*
X78523809Y-59216723D02*
X78476190Y-59311961D01*
X78476190Y-59311961D02*
X78380952Y-59407200D01*
X78380952Y-59407200D02*
X78238095Y-59454819D01*
X78238095Y-59454819D02*
X78000000Y-59454819D01*
X79000000Y-58931009D02*
X79333333Y-58931009D01*
X79476190Y-59454819D02*
X79000000Y-59454819D01*
X79000000Y-59454819D02*
X79000000Y-58454819D01*
X79000000Y-58454819D02*
X79476190Y-58454819D01*
X76785714Y-26931009D02*
X77119047Y-26931009D01*
X77261904Y-27454819D02*
X76785714Y-27454819D01*
X76785714Y-27454819D02*
X76785714Y-26454819D01*
X76785714Y-26454819D02*
X77261904Y-26454819D01*
X78261904Y-27454819D02*
X77928571Y-26978628D01*
X77690476Y-27454819D02*
X77690476Y-26454819D01*
X77690476Y-26454819D02*
X78071428Y-26454819D01*
X78071428Y-26454819D02*
X78166666Y-26502438D01*
X78166666Y-26502438D02*
X78214285Y-26550057D01*
X78214285Y-26550057D02*
X78261904Y-26645295D01*
X78261904Y-26645295D02*
X78261904Y-26788152D01*
X78261904Y-26788152D02*
X78214285Y-26883390D01*
X78214285Y-26883390D02*
X78166666Y-26931009D01*
X78166666Y-26931009D02*
X78071428Y-26978628D01*
X78071428Y-26978628D02*
X77690476Y-26978628D01*
X79261904Y-27454819D02*
X78928571Y-26978628D01*
X78690476Y-27454819D02*
X78690476Y-26454819D01*
X78690476Y-26454819D02*
X79071428Y-26454819D01*
X79071428Y-26454819D02*
X79166666Y-26502438D01*
X79166666Y-26502438D02*
X79214285Y-26550057D01*
X79214285Y-26550057D02*
X79261904Y-26645295D01*
X79261904Y-26645295D02*
X79261904Y-26788152D01*
X79261904Y-26788152D02*
X79214285Y-26883390D01*
X79214285Y-26883390D02*
X79166666Y-26931009D01*
X79166666Y-26931009D02*
X79071428Y-26978628D01*
X79071428Y-26978628D02*
X78690476Y-26978628D01*
X77095238Y-61454819D02*
X77285714Y-61454819D01*
X77285714Y-61454819D02*
X77380952Y-61502438D01*
X77380952Y-61502438D02*
X77476190Y-61597676D01*
X77476190Y-61597676D02*
X77523809Y-61788152D01*
X77523809Y-61788152D02*
X77523809Y-62121485D01*
X77523809Y-62121485D02*
X77476190Y-62311961D01*
X77476190Y-62311961D02*
X77380952Y-62407200D01*
X77380952Y-62407200D02*
X77285714Y-62454819D01*
X77285714Y-62454819D02*
X77095238Y-62454819D01*
X77095238Y-62454819D02*
X77000000Y-62407200D01*
X77000000Y-62407200D02*
X76904762Y-62311961D01*
X76904762Y-62311961D02*
X76857143Y-62121485D01*
X76857143Y-62121485D02*
X76857143Y-61788152D01*
X76857143Y-61788152D02*
X76904762Y-61597676D01*
X76904762Y-61597676D02*
X77000000Y-61502438D01*
X77000000Y-61502438D02*
X77095238Y-61454819D01*
X77952381Y-62454819D02*
X77952381Y-61454819D01*
X77952381Y-61454819D02*
X78333333Y-61454819D01*
X78333333Y-61454819D02*
X78428571Y-61502438D01*
X78428571Y-61502438D02*
X78476190Y-61550057D01*
X78476190Y-61550057D02*
X78523809Y-61645295D01*
X78523809Y-61645295D02*
X78523809Y-61788152D01*
X78523809Y-61788152D02*
X78476190Y-61883390D01*
X78476190Y-61883390D02*
X78428571Y-61931009D01*
X78428571Y-61931009D02*
X78333333Y-61978628D01*
X78333333Y-61978628D02*
X77952381Y-61978628D01*
X78952381Y-61931009D02*
X79285714Y-61931009D01*
X79428571Y-62454819D02*
X78952381Y-62454819D01*
X78952381Y-62454819D02*
X78952381Y-61454819D01*
X78952381Y-61454819D02*
X79428571Y-61454819D01*
X79857143Y-62454819D02*
X79857143Y-61454819D01*
X79857143Y-61454819D02*
X80428571Y-62454819D01*
X80428571Y-62454819D02*
X80428571Y-61454819D01*
X82285714Y-61978628D02*
X82238095Y-61931009D01*
X82238095Y-61931009D02*
X82142857Y-61883390D01*
X82142857Y-61883390D02*
X82047619Y-61883390D01*
X82047619Y-61883390D02*
X81952381Y-61931009D01*
X81952381Y-61931009D02*
X81904762Y-61978628D01*
X81904762Y-61978628D02*
X81857143Y-62073866D01*
X81857143Y-62073866D02*
X81857143Y-62169104D01*
X81857143Y-62169104D02*
X81904762Y-62264342D01*
X81904762Y-62264342D02*
X81952381Y-62311961D01*
X81952381Y-62311961D02*
X82047619Y-62359580D01*
X82047619Y-62359580D02*
X82142857Y-62359580D01*
X82142857Y-62359580D02*
X82238095Y-62311961D01*
X82238095Y-62311961D02*
X82285714Y-62264342D01*
X82285714Y-61883390D02*
X82285714Y-62264342D01*
X82285714Y-62264342D02*
X82333333Y-62311961D01*
X82333333Y-62311961D02*
X82380952Y-62311961D01*
X82380952Y-62311961D02*
X82476191Y-62264342D01*
X82476191Y-62264342D02*
X82523810Y-62169104D01*
X82523810Y-62169104D02*
X82523810Y-61931009D01*
X82523810Y-61931009D02*
X82428572Y-61788152D01*
X82428572Y-61788152D02*
X82285714Y-61692914D01*
X82285714Y-61692914D02*
X82095238Y-61645295D01*
X82095238Y-61645295D02*
X81904762Y-61692914D01*
X81904762Y-61692914D02*
X81761905Y-61788152D01*
X81761905Y-61788152D02*
X81666667Y-61931009D01*
X81666667Y-61931009D02*
X81619048Y-62121485D01*
X81619048Y-62121485D02*
X81666667Y-62311961D01*
X81666667Y-62311961D02*
X81761905Y-62454819D01*
X81761905Y-62454819D02*
X81904762Y-62550057D01*
X81904762Y-62550057D02*
X82095238Y-62597676D01*
X82095238Y-62597676D02*
X82285714Y-62550057D01*
X82285714Y-62550057D02*
X82428572Y-62454819D01*
X84047619Y-61931009D02*
X84190476Y-61978628D01*
X84190476Y-61978628D02*
X84238095Y-62026247D01*
X84238095Y-62026247D02*
X84285714Y-62121485D01*
X84285714Y-62121485D02*
X84285714Y-62264342D01*
X84285714Y-62264342D02*
X84238095Y-62359580D01*
X84238095Y-62359580D02*
X84190476Y-62407200D01*
X84190476Y-62407200D02*
X84095238Y-62454819D01*
X84095238Y-62454819D02*
X83714286Y-62454819D01*
X83714286Y-62454819D02*
X83714286Y-61454819D01*
X83714286Y-61454819D02*
X84047619Y-61454819D01*
X84047619Y-61454819D02*
X84142857Y-61502438D01*
X84142857Y-61502438D02*
X84190476Y-61550057D01*
X84190476Y-61550057D02*
X84238095Y-61645295D01*
X84238095Y-61645295D02*
X84238095Y-61740533D01*
X84238095Y-61740533D02*
X84190476Y-61835771D01*
X84190476Y-61835771D02*
X84142857Y-61883390D01*
X84142857Y-61883390D02*
X84047619Y-61931009D01*
X84047619Y-61931009D02*
X83714286Y-61931009D01*
X84904762Y-61454819D02*
X85095238Y-61454819D01*
X85095238Y-61454819D02*
X85190476Y-61502438D01*
X85190476Y-61502438D02*
X85285714Y-61597676D01*
X85285714Y-61597676D02*
X85333333Y-61788152D01*
X85333333Y-61788152D02*
X85333333Y-62121485D01*
X85333333Y-62121485D02*
X85285714Y-62311961D01*
X85285714Y-62311961D02*
X85190476Y-62407200D01*
X85190476Y-62407200D02*
X85095238Y-62454819D01*
X85095238Y-62454819D02*
X84904762Y-62454819D01*
X84904762Y-62454819D02*
X84809524Y-62407200D01*
X84809524Y-62407200D02*
X84714286Y-62311961D01*
X84714286Y-62311961D02*
X84666667Y-62121485D01*
X84666667Y-62121485D02*
X84666667Y-61788152D01*
X84666667Y-61788152D02*
X84714286Y-61597676D01*
X84714286Y-61597676D02*
X84809524Y-61502438D01*
X84809524Y-61502438D02*
X84904762Y-61454819D01*
X85952381Y-61454819D02*
X86142857Y-61454819D01*
X86142857Y-61454819D02*
X86238095Y-61502438D01*
X86238095Y-61502438D02*
X86333333Y-61597676D01*
X86333333Y-61597676D02*
X86380952Y-61788152D01*
X86380952Y-61788152D02*
X86380952Y-62121485D01*
X86380952Y-62121485D02*
X86333333Y-62311961D01*
X86333333Y-62311961D02*
X86238095Y-62407200D01*
X86238095Y-62407200D02*
X86142857Y-62454819D01*
X86142857Y-62454819D02*
X85952381Y-62454819D01*
X85952381Y-62454819D02*
X85857143Y-62407200D01*
X85857143Y-62407200D02*
X85761905Y-62311961D01*
X85761905Y-62311961D02*
X85714286Y-62121485D01*
X85714286Y-62121485D02*
X85714286Y-61788152D01*
X85714286Y-61788152D02*
X85761905Y-61597676D01*
X85761905Y-61597676D02*
X85857143Y-61502438D01*
X85857143Y-61502438D02*
X85952381Y-61454819D01*
X86666667Y-61454819D02*
X87238095Y-61454819D01*
X86952381Y-62454819D02*
X86952381Y-61454819D01*
X82190475Y-16502438D02*
X82095237Y-16454819D01*
X82095237Y-16454819D02*
X81952380Y-16454819D01*
X81952380Y-16454819D02*
X81809523Y-16502438D01*
X81809523Y-16502438D02*
X81714285Y-16597676D01*
X81714285Y-16597676D02*
X81666666Y-16692914D01*
X81666666Y-16692914D02*
X81619047Y-16883390D01*
X81619047Y-16883390D02*
X81619047Y-17026247D01*
X81619047Y-17026247D02*
X81666666Y-17216723D01*
X81666666Y-17216723D02*
X81714285Y-17311961D01*
X81714285Y-17311961D02*
X81809523Y-17407200D01*
X81809523Y-17407200D02*
X81952380Y-17454819D01*
X81952380Y-17454819D02*
X82047618Y-17454819D01*
X82047618Y-17454819D02*
X82190475Y-17407200D01*
X82190475Y-17407200D02*
X82238094Y-17359580D01*
X82238094Y-17359580D02*
X82238094Y-17026247D01*
X82238094Y-17026247D02*
X82047618Y-17026247D01*
X82619047Y-17169104D02*
X83095237Y-17169104D01*
X82523809Y-17454819D02*
X82857142Y-16454819D01*
X82857142Y-16454819D02*
X83190475Y-17454819D01*
X83380952Y-16454819D02*
X83952380Y-16454819D01*
X83666666Y-17454819D02*
X83666666Y-16454819D01*
X84285714Y-16931009D02*
X84619047Y-16931009D01*
X84761904Y-17454819D02*
X84285714Y-17454819D01*
X84285714Y-17454819D02*
X84285714Y-16454819D01*
X84285714Y-16454819D02*
X84761904Y-16454819D01*
X84952381Y-17550057D02*
X85714285Y-17550057D01*
X86142857Y-16978628D02*
X86142857Y-17454819D01*
X85809524Y-16454819D02*
X86142857Y-16978628D01*
X86142857Y-16978628D02*
X86476190Y-16454819D01*
X79857142Y-44454819D02*
X79857142Y-45264342D01*
X79857142Y-45264342D02*
X79904761Y-45359580D01*
X79904761Y-45359580D02*
X79952380Y-45407200D01*
X79952380Y-45407200D02*
X80047618Y-45454819D01*
X80047618Y-45454819D02*
X80238094Y-45454819D01*
X80238094Y-45454819D02*
X80333332Y-45407200D01*
X80333332Y-45407200D02*
X80380951Y-45359580D01*
X80380951Y-45359580D02*
X80428570Y-45264342D01*
X80428570Y-45264342D02*
X80428570Y-44454819D01*
X80857142Y-44550057D02*
X80904761Y-44502438D01*
X80904761Y-44502438D02*
X80999999Y-44454819D01*
X80999999Y-44454819D02*
X81238094Y-44454819D01*
X81238094Y-44454819D02*
X81333332Y-44502438D01*
X81333332Y-44502438D02*
X81380951Y-44550057D01*
X81380951Y-44550057D02*
X81428570Y-44645295D01*
X81428570Y-44645295D02*
X81428570Y-44740533D01*
X81428570Y-44740533D02*
X81380951Y-44883390D01*
X81380951Y-44883390D02*
X80809523Y-45454819D01*
X80809523Y-45454819D02*
X81428570Y-45454819D01*
X82476190Y-44454819D02*
X83047618Y-44454819D01*
X82761904Y-45454819D02*
X82761904Y-44454819D01*
X83285714Y-44454819D02*
X83952380Y-45454819D01*
X83952380Y-44454819D02*
X83285714Y-45454819D01*
X85619047Y-44502438D02*
X85523809Y-44454819D01*
X85523809Y-44454819D02*
X85380952Y-44454819D01*
X85380952Y-44454819D02*
X85238095Y-44502438D01*
X85238095Y-44502438D02*
X85142857Y-44597676D01*
X85142857Y-44597676D02*
X85095238Y-44692914D01*
X85095238Y-44692914D02*
X85047619Y-44883390D01*
X85047619Y-44883390D02*
X85047619Y-45026247D01*
X85047619Y-45026247D02*
X85095238Y-45216723D01*
X85095238Y-45216723D02*
X85142857Y-45311961D01*
X85142857Y-45311961D02*
X85238095Y-45407200D01*
X85238095Y-45407200D02*
X85380952Y-45454819D01*
X85380952Y-45454819D02*
X85476190Y-45454819D01*
X85476190Y-45454819D02*
X85619047Y-45407200D01*
X85619047Y-45407200D02*
X85666666Y-45359580D01*
X85666666Y-45359580D02*
X85666666Y-45026247D01*
X85666666Y-45026247D02*
X85476190Y-45026247D01*
X86047619Y-45169104D02*
X86523809Y-45169104D01*
X85952381Y-45454819D02*
X86285714Y-44454819D01*
X86285714Y-44454819D02*
X86619047Y-45454819D01*
X86809524Y-44454819D02*
X87380952Y-44454819D01*
X87095238Y-45454819D02*
X87095238Y-44454819D01*
X87714286Y-44931009D02*
X88047619Y-44931009D01*
X88190476Y-45454819D02*
X87714286Y-45454819D01*
X87714286Y-45454819D02*
X87714286Y-44454819D01*
X87714286Y-44454819D02*
X88190476Y-44454819D01*
X85452381Y-26454819D02*
X85642857Y-26454819D01*
X85642857Y-26454819D02*
X85738095Y-26502438D01*
X85738095Y-26502438D02*
X85833333Y-26597676D01*
X85833333Y-26597676D02*
X85880952Y-26788152D01*
X85880952Y-26788152D02*
X85880952Y-27121485D01*
X85880952Y-27121485D02*
X85833333Y-27311961D01*
X85833333Y-27311961D02*
X85738095Y-27407200D01*
X85738095Y-27407200D02*
X85642857Y-27454819D01*
X85642857Y-27454819D02*
X85452381Y-27454819D01*
X85452381Y-27454819D02*
X85357143Y-27407200D01*
X85357143Y-27407200D02*
X85261905Y-27311961D01*
X85261905Y-27311961D02*
X85214286Y-27121485D01*
X85214286Y-27121485D02*
X85214286Y-26788152D01*
X85214286Y-26788152D02*
X85261905Y-26597676D01*
X85261905Y-26597676D02*
X85357143Y-26502438D01*
X85357143Y-26502438D02*
X85452381Y-26454819D01*
X86309524Y-26931009D02*
X86642857Y-26931009D01*
X86785714Y-27454819D02*
X86309524Y-27454819D01*
X86309524Y-27454819D02*
X86309524Y-26454819D01*
X86309524Y-26454819D02*
X86785714Y-26454819D01*
X88238095Y-16454819D02*
X88809523Y-16454819D01*
X88523809Y-17454819D02*
X88523809Y-16454819D01*
X89047619Y-16454819D02*
X89285714Y-17454819D01*
X89285714Y-17454819D02*
X89476190Y-16740533D01*
X89476190Y-16740533D02*
X89666666Y-17454819D01*
X89666666Y-17454819D02*
X89904762Y-16454819D01*
X90238095Y-17169104D02*
X90714285Y-17169104D01*
X90142857Y-17454819D02*
X90476190Y-16454819D01*
X90476190Y-16454819D02*
X90809523Y-17454819D01*
X91142857Y-17454819D02*
X91142857Y-16454819D01*
X91380952Y-17550057D02*
X92142856Y-17550057D01*
X92238095Y-16454819D02*
X92809523Y-16454819D01*
X92523809Y-17454819D02*
X92523809Y-16454819D01*
X93047619Y-16454819D02*
X93714285Y-17454819D01*
X93714285Y-16454819D02*
X93047619Y-17454819D01*
X89761905Y-75454819D02*
X90380952Y-75454819D01*
X90380952Y-75454819D02*
X90047619Y-75835771D01*
X90047619Y-75835771D02*
X90190476Y-75835771D01*
X90190476Y-75835771D02*
X90285714Y-75883390D01*
X90285714Y-75883390D02*
X90333333Y-75931009D01*
X90333333Y-75931009D02*
X90380952Y-76026247D01*
X90380952Y-76026247D02*
X90380952Y-76264342D01*
X90380952Y-76264342D02*
X90333333Y-76359580D01*
X90333333Y-76359580D02*
X90285714Y-76407200D01*
X90285714Y-76407200D02*
X90190476Y-76454819D01*
X90190476Y-76454819D02*
X89904762Y-76454819D01*
X89904762Y-76454819D02*
X89809524Y-76407200D01*
X89809524Y-76407200D02*
X89761905Y-76359580D01*
X90666667Y-75454819D02*
X91000000Y-76454819D01*
X91000000Y-76454819D02*
X91333333Y-75454819D01*
X91571429Y-75454819D02*
X92190476Y-75454819D01*
X92190476Y-75454819D02*
X91857143Y-75835771D01*
X91857143Y-75835771D02*
X92000000Y-75835771D01*
X92000000Y-75835771D02*
X92095238Y-75883390D01*
X92095238Y-75883390D02*
X92142857Y-75931009D01*
X92142857Y-75931009D02*
X92190476Y-76026247D01*
X92190476Y-76026247D02*
X92190476Y-76264342D01*
X92190476Y-76264342D02*
X92142857Y-76359580D01*
X92142857Y-76359580D02*
X92095238Y-76407200D01*
X92095238Y-76407200D02*
X92000000Y-76454819D01*
X92000000Y-76454819D02*
X91714286Y-76454819D01*
X91714286Y-76454819D02*
X91619048Y-76407200D01*
X91619048Y-76407200D02*
X91571429Y-76359580D01*
X96547618Y-86454819D02*
X96214285Y-85978628D01*
X95976190Y-86454819D02*
X95976190Y-85454819D01*
X95976190Y-85454819D02*
X96357142Y-85454819D01*
X96357142Y-85454819D02*
X96452380Y-85502438D01*
X96452380Y-85502438D02*
X96499999Y-85550057D01*
X96499999Y-85550057D02*
X96547618Y-85645295D01*
X96547618Y-85645295D02*
X96547618Y-85788152D01*
X96547618Y-85788152D02*
X96499999Y-85883390D01*
X96499999Y-85883390D02*
X96452380Y-85931009D01*
X96452380Y-85931009D02*
X96357142Y-85978628D01*
X96357142Y-85978628D02*
X95976190Y-85978628D01*
X96976190Y-85931009D02*
X97309523Y-85931009D01*
X97452380Y-86454819D02*
X96976190Y-86454819D01*
X96976190Y-86454819D02*
X96976190Y-85454819D01*
X96976190Y-85454819D02*
X97452380Y-85454819D01*
X97833333Y-86407200D02*
X97976190Y-86454819D01*
X97976190Y-86454819D02*
X98214285Y-86454819D01*
X98214285Y-86454819D02*
X98309523Y-86407200D01*
X98309523Y-86407200D02*
X98357142Y-86359580D01*
X98357142Y-86359580D02*
X98404761Y-86264342D01*
X98404761Y-86264342D02*
X98404761Y-86169104D01*
X98404761Y-86169104D02*
X98357142Y-86073866D01*
X98357142Y-86073866D02*
X98309523Y-86026247D01*
X98309523Y-86026247D02*
X98214285Y-85978628D01*
X98214285Y-85978628D02*
X98023809Y-85931009D01*
X98023809Y-85931009D02*
X97928571Y-85883390D01*
X97928571Y-85883390D02*
X97880952Y-85835771D01*
X97880952Y-85835771D02*
X97833333Y-85740533D01*
X97833333Y-85740533D02*
X97833333Y-85645295D01*
X97833333Y-85645295D02*
X97880952Y-85550057D01*
X97880952Y-85550057D02*
X97928571Y-85502438D01*
X97928571Y-85502438D02*
X98023809Y-85454819D01*
X98023809Y-85454819D02*
X98261904Y-85454819D01*
X98261904Y-85454819D02*
X98404761Y-85502438D01*
X98833333Y-85931009D02*
X99166666Y-85931009D01*
X99309523Y-86454819D02*
X98833333Y-86454819D01*
X98833333Y-86454819D02*
X98833333Y-85454819D01*
X98833333Y-85454819D02*
X99309523Y-85454819D01*
X99595238Y-85454819D02*
X100166666Y-85454819D01*
X99880952Y-86454819D02*
X99880952Y-85454819D01*
X88428570Y-81454819D02*
X87952380Y-81454819D01*
X87952380Y-81454819D02*
X87904761Y-81931009D01*
X87904761Y-81931009D02*
X87952380Y-81883390D01*
X87952380Y-81883390D02*
X88047618Y-81835771D01*
X88047618Y-81835771D02*
X88285713Y-81835771D01*
X88285713Y-81835771D02*
X88380951Y-81883390D01*
X88380951Y-81883390D02*
X88428570Y-81931009D01*
X88428570Y-81931009D02*
X88476189Y-82026247D01*
X88476189Y-82026247D02*
X88476189Y-82264342D01*
X88476189Y-82264342D02*
X88428570Y-82359580D01*
X88428570Y-82359580D02*
X88380951Y-82407200D01*
X88380951Y-82407200D02*
X88285713Y-82454819D01*
X88285713Y-82454819D02*
X88047618Y-82454819D01*
X88047618Y-82454819D02*
X87952380Y-82407200D01*
X87952380Y-82407200D02*
X87904761Y-82359580D01*
X88761904Y-81454819D02*
X89095237Y-82454819D01*
X89095237Y-82454819D02*
X89428570Y-81454819D01*
X89523809Y-82550057D02*
X90285713Y-82550057D01*
X90380952Y-81454819D02*
X90952380Y-81454819D01*
X90666666Y-82454819D02*
X90666666Y-81454819D01*
X91571428Y-81454819D02*
X91571428Y-82169104D01*
X91571428Y-82169104D02*
X91523809Y-82311961D01*
X91523809Y-82311961D02*
X91428571Y-82407200D01*
X91428571Y-82407200D02*
X91285714Y-82454819D01*
X91285714Y-82454819D02*
X91190476Y-82454819D01*
X92000000Y-82169104D02*
X92476190Y-82169104D01*
X91904762Y-82454819D02*
X92238095Y-81454819D01*
X92238095Y-81454819D02*
X92571428Y-82454819D01*
X93666667Y-82454819D02*
X93666667Y-81454819D01*
X94095238Y-82407200D02*
X94238095Y-82454819D01*
X94238095Y-82454819D02*
X94476190Y-82454819D01*
X94476190Y-82454819D02*
X94571428Y-82407200D01*
X94571428Y-82407200D02*
X94619047Y-82359580D01*
X94619047Y-82359580D02*
X94666666Y-82264342D01*
X94666666Y-82264342D02*
X94666666Y-82169104D01*
X94666666Y-82169104D02*
X94619047Y-82073866D01*
X94619047Y-82073866D02*
X94571428Y-82026247D01*
X94571428Y-82026247D02*
X94476190Y-81978628D01*
X94476190Y-81978628D02*
X94285714Y-81931009D01*
X94285714Y-81931009D02*
X94190476Y-81883390D01*
X94190476Y-81883390D02*
X94142857Y-81835771D01*
X94142857Y-81835771D02*
X94095238Y-81740533D01*
X94095238Y-81740533D02*
X94095238Y-81645295D01*
X94095238Y-81645295D02*
X94142857Y-81550057D01*
X94142857Y-81550057D02*
X94190476Y-81502438D01*
X94190476Y-81502438D02*
X94285714Y-81454819D01*
X94285714Y-81454819D02*
X94523809Y-81454819D01*
X94523809Y-81454819D02*
X94666666Y-81502438D01*
X95285714Y-81454819D02*
X95476190Y-81454819D01*
X95476190Y-81454819D02*
X95571428Y-81502438D01*
X95571428Y-81502438D02*
X95666666Y-81597676D01*
X95666666Y-81597676D02*
X95714285Y-81788152D01*
X95714285Y-81788152D02*
X95714285Y-82121485D01*
X95714285Y-82121485D02*
X95666666Y-82311961D01*
X95666666Y-82311961D02*
X95571428Y-82407200D01*
X95571428Y-82407200D02*
X95476190Y-82454819D01*
X95476190Y-82454819D02*
X95285714Y-82454819D01*
X95285714Y-82454819D02*
X95190476Y-82407200D01*
X95190476Y-82407200D02*
X95095238Y-82311961D01*
X95095238Y-82311961D02*
X95047619Y-82121485D01*
X95047619Y-82121485D02*
X95047619Y-81788152D01*
X95047619Y-81788152D02*
X95095238Y-81597676D01*
X95095238Y-81597676D02*
X95190476Y-81502438D01*
X95190476Y-81502438D02*
X95285714Y-81454819D01*
X96619047Y-82454819D02*
X96142857Y-82454819D01*
X96142857Y-82454819D02*
X96142857Y-81454819D01*
X96904762Y-82169104D02*
X97380952Y-82169104D01*
X96809524Y-82454819D02*
X97142857Y-81454819D01*
X97142857Y-81454819D02*
X97476190Y-82454819D01*
X97666667Y-81454819D02*
X98238095Y-81454819D01*
X97952381Y-82454819D02*
X97952381Y-81454819D01*
X98571429Y-81931009D02*
X98904762Y-81931009D01*
X99047619Y-82454819D02*
X98571429Y-82454819D01*
X98571429Y-82454819D02*
X98571429Y-81454819D01*
X98571429Y-81454819D02*
X99047619Y-81454819D01*
X99476191Y-82454819D02*
X99476191Y-81454819D01*
X99476191Y-81454819D02*
X99714286Y-81454819D01*
X99714286Y-81454819D02*
X99857143Y-81502438D01*
X99857143Y-81502438D02*
X99952381Y-81597676D01*
X99952381Y-81597676D02*
X100000000Y-81692914D01*
X100000000Y-81692914D02*
X100047619Y-81883390D01*
X100047619Y-81883390D02*
X100047619Y-82026247D01*
X100047619Y-82026247D02*
X100000000Y-82216723D01*
X100000000Y-82216723D02*
X99952381Y-82311961D01*
X99952381Y-82311961D02*
X99857143Y-82407200D01*
X99857143Y-82407200D02*
X99714286Y-82454819D01*
X99714286Y-82454819D02*
X99476191Y-82454819D01*
X101571429Y-81931009D02*
X101238096Y-81931009D01*
X101238096Y-82454819D02*
X101238096Y-81454819D01*
X101238096Y-81454819D02*
X101714286Y-81454819D01*
X102666667Y-82454819D02*
X102333334Y-81978628D01*
X102095239Y-82454819D02*
X102095239Y-81454819D01*
X102095239Y-81454819D02*
X102476191Y-81454819D01*
X102476191Y-81454819D02*
X102571429Y-81502438D01*
X102571429Y-81502438D02*
X102619048Y-81550057D01*
X102619048Y-81550057D02*
X102666667Y-81645295D01*
X102666667Y-81645295D02*
X102666667Y-81788152D01*
X102666667Y-81788152D02*
X102619048Y-81883390D01*
X102619048Y-81883390D02*
X102571429Y-81931009D01*
X102571429Y-81931009D02*
X102476191Y-81978628D01*
X102476191Y-81978628D02*
X102095239Y-81978628D01*
X103285715Y-81454819D02*
X103476191Y-81454819D01*
X103476191Y-81454819D02*
X103571429Y-81502438D01*
X103571429Y-81502438D02*
X103666667Y-81597676D01*
X103666667Y-81597676D02*
X103714286Y-81788152D01*
X103714286Y-81788152D02*
X103714286Y-82121485D01*
X103714286Y-82121485D02*
X103666667Y-82311961D01*
X103666667Y-82311961D02*
X103571429Y-82407200D01*
X103571429Y-82407200D02*
X103476191Y-82454819D01*
X103476191Y-82454819D02*
X103285715Y-82454819D01*
X103285715Y-82454819D02*
X103190477Y-82407200D01*
X103190477Y-82407200D02*
X103095239Y-82311961D01*
X103095239Y-82311961D02*
X103047620Y-82121485D01*
X103047620Y-82121485D02*
X103047620Y-81788152D01*
X103047620Y-81788152D02*
X103095239Y-81597676D01*
X103095239Y-81597676D02*
X103190477Y-81502438D01*
X103190477Y-81502438D02*
X103285715Y-81454819D01*
X104142858Y-82454819D02*
X104142858Y-81454819D01*
X104142858Y-81454819D02*
X104476191Y-82169104D01*
X104476191Y-82169104D02*
X104809524Y-81454819D01*
X104809524Y-81454819D02*
X104809524Y-82454819D01*
X106047620Y-82454819D02*
X106047620Y-81454819D01*
X106047620Y-81454819D02*
X106285715Y-81454819D01*
X106285715Y-81454819D02*
X106428572Y-81502438D01*
X106428572Y-81502438D02*
X106523810Y-81597676D01*
X106523810Y-81597676D02*
X106571429Y-81692914D01*
X106571429Y-81692914D02*
X106619048Y-81883390D01*
X106619048Y-81883390D02*
X106619048Y-82026247D01*
X106619048Y-82026247D02*
X106571429Y-82216723D01*
X106571429Y-82216723D02*
X106523810Y-82311961D01*
X106523810Y-82311961D02*
X106428572Y-82407200D01*
X106428572Y-82407200D02*
X106285715Y-82454819D01*
X106285715Y-82454819D02*
X106047620Y-82454819D01*
X107047620Y-81931009D02*
X107380953Y-81931009D01*
X107523810Y-82454819D02*
X107047620Y-82454819D01*
X107047620Y-82454819D02*
X107047620Y-81454819D01*
X107047620Y-81454819D02*
X107523810Y-81454819D01*
X107809525Y-81454819D02*
X108142858Y-82454819D01*
X108142858Y-82454819D02*
X108476191Y-81454819D01*
X108809525Y-82454819D02*
X108809525Y-81454819D01*
X109380953Y-82454819D02*
X108952382Y-81883390D01*
X109380953Y-81454819D02*
X108809525Y-82026247D01*
X109809525Y-82454819D02*
X109809525Y-81454819D01*
X110142858Y-81454819D02*
X110714286Y-81454819D01*
X110428572Y-82454819D02*
X110428572Y-81454819D01*
X112285715Y-81454819D02*
X111809525Y-81454819D01*
X111809525Y-81454819D02*
X111761906Y-81931009D01*
X111761906Y-81931009D02*
X111809525Y-81883390D01*
X111809525Y-81883390D02*
X111904763Y-81835771D01*
X111904763Y-81835771D02*
X112142858Y-81835771D01*
X112142858Y-81835771D02*
X112238096Y-81883390D01*
X112238096Y-81883390D02*
X112285715Y-81931009D01*
X112285715Y-81931009D02*
X112333334Y-82026247D01*
X112333334Y-82026247D02*
X112333334Y-82264342D01*
X112333334Y-82264342D02*
X112285715Y-82359580D01*
X112285715Y-82359580D02*
X112238096Y-82407200D01*
X112238096Y-82407200D02*
X112142858Y-82454819D01*
X112142858Y-82454819D02*
X111904763Y-82454819D01*
X111904763Y-82454819D02*
X111809525Y-82407200D01*
X111809525Y-82407200D02*
X111761906Y-82359580D01*
X112619049Y-81454819D02*
X112952382Y-82454819D01*
X112952382Y-82454819D02*
X113285715Y-81454819D01*
X114333334Y-81407200D02*
X113476192Y-82692914D01*
X114523811Y-81454819D02*
X114857144Y-82454819D01*
X114857144Y-82454819D02*
X115190477Y-81454819D01*
X115857144Y-81931009D02*
X116000001Y-81978628D01*
X116000001Y-81978628D02*
X116047620Y-82026247D01*
X116047620Y-82026247D02*
X116095239Y-82121485D01*
X116095239Y-82121485D02*
X116095239Y-82264342D01*
X116095239Y-82264342D02*
X116047620Y-82359580D01*
X116047620Y-82359580D02*
X116000001Y-82407200D01*
X116000001Y-82407200D02*
X115904763Y-82454819D01*
X115904763Y-82454819D02*
X115523811Y-82454819D01*
X115523811Y-82454819D02*
X115523811Y-81454819D01*
X115523811Y-81454819D02*
X115857144Y-81454819D01*
X115857144Y-81454819D02*
X115952382Y-81502438D01*
X115952382Y-81502438D02*
X116000001Y-81550057D01*
X116000001Y-81550057D02*
X116047620Y-81645295D01*
X116047620Y-81645295D02*
X116047620Y-81740533D01*
X116047620Y-81740533D02*
X116000001Y-81835771D01*
X116000001Y-81835771D02*
X115952382Y-81883390D01*
X115952382Y-81883390D02*
X115857144Y-81931009D01*
X115857144Y-81931009D02*
X115523811Y-81931009D01*
X116523811Y-81454819D02*
X116523811Y-82264342D01*
X116523811Y-82264342D02*
X116571430Y-82359580D01*
X116571430Y-82359580D02*
X116619049Y-82407200D01*
X116619049Y-82407200D02*
X116714287Y-82454819D01*
X116714287Y-82454819D02*
X116904763Y-82454819D01*
X116904763Y-82454819D02*
X117000001Y-82407200D01*
X117000001Y-82407200D02*
X117047620Y-82359580D01*
X117047620Y-82359580D02*
X117095239Y-82264342D01*
X117095239Y-82264342D02*
X117095239Y-81454819D01*
X117523811Y-82407200D02*
X117666668Y-82454819D01*
X117666668Y-82454819D02*
X117904763Y-82454819D01*
X117904763Y-82454819D02*
X118000001Y-82407200D01*
X118000001Y-82407200D02*
X118047620Y-82359580D01*
X118047620Y-82359580D02*
X118095239Y-82264342D01*
X118095239Y-82264342D02*
X118095239Y-82169104D01*
X118095239Y-82169104D02*
X118047620Y-82073866D01*
X118047620Y-82073866D02*
X118000001Y-82026247D01*
X118000001Y-82026247D02*
X117904763Y-81978628D01*
X117904763Y-81978628D02*
X117714287Y-81931009D01*
X117714287Y-81931009D02*
X117619049Y-81883390D01*
X117619049Y-81883390D02*
X117571430Y-81835771D01*
X117571430Y-81835771D02*
X117523811Y-81740533D01*
X117523811Y-81740533D02*
X117523811Y-81645295D01*
X117523811Y-81645295D02*
X117571430Y-81550057D01*
X117571430Y-81550057D02*
X117619049Y-81502438D01*
X117619049Y-81502438D02*
X117714287Y-81454819D01*
X117714287Y-81454819D02*
X117952382Y-81454819D01*
X117952382Y-81454819D02*
X118095239Y-81502438D01*
X105047619Y-86454819D02*
X105047619Y-85454819D01*
X105047619Y-85454819D02*
X105285714Y-85454819D01*
X105285714Y-85454819D02*
X105428571Y-85502438D01*
X105428571Y-85502438D02*
X105523809Y-85597676D01*
X105523809Y-85597676D02*
X105571428Y-85692914D01*
X105571428Y-85692914D02*
X105619047Y-85883390D01*
X105619047Y-85883390D02*
X105619047Y-86026247D01*
X105619047Y-86026247D02*
X105571428Y-86216723D01*
X105571428Y-86216723D02*
X105523809Y-86311961D01*
X105523809Y-86311961D02*
X105428571Y-86407200D01*
X105428571Y-86407200D02*
X105285714Y-86454819D01*
X105285714Y-86454819D02*
X105047619Y-86454819D01*
X106047619Y-85931009D02*
X106380952Y-85931009D01*
X106523809Y-86454819D02*
X106047619Y-86454819D01*
X106047619Y-86454819D02*
X106047619Y-85454819D01*
X106047619Y-85454819D02*
X106523809Y-85454819D01*
X106809524Y-85454819D02*
X107142857Y-86454819D01*
X107142857Y-86454819D02*
X107476190Y-85454819D01*
X107809524Y-86454819D02*
X107809524Y-85454819D01*
X108380952Y-86454819D02*
X107952381Y-85883390D01*
X108380952Y-85454819D02*
X107809524Y-86026247D01*
X108809524Y-86454819D02*
X108809524Y-85454819D01*
X109142857Y-85454819D02*
X109714285Y-85454819D01*
X109428571Y-86454819D02*
X109428571Y-85454819D01*
X110809524Y-85454819D02*
X110809524Y-86264342D01*
X110809524Y-86264342D02*
X110857143Y-86359580D01*
X110857143Y-86359580D02*
X110904762Y-86407200D01*
X110904762Y-86407200D02*
X111000000Y-86454819D01*
X111000000Y-86454819D02*
X111190476Y-86454819D01*
X111190476Y-86454819D02*
X111285714Y-86407200D01*
X111285714Y-86407200D02*
X111333333Y-86359580D01*
X111333333Y-86359580D02*
X111380952Y-86264342D01*
X111380952Y-86264342D02*
X111380952Y-85454819D01*
X111809524Y-86407200D02*
X111952381Y-86454819D01*
X111952381Y-86454819D02*
X112190476Y-86454819D01*
X112190476Y-86454819D02*
X112285714Y-86407200D01*
X112285714Y-86407200D02*
X112333333Y-86359580D01*
X112333333Y-86359580D02*
X112380952Y-86264342D01*
X112380952Y-86264342D02*
X112380952Y-86169104D01*
X112380952Y-86169104D02*
X112333333Y-86073866D01*
X112333333Y-86073866D02*
X112285714Y-86026247D01*
X112285714Y-86026247D02*
X112190476Y-85978628D01*
X112190476Y-85978628D02*
X112000000Y-85931009D01*
X112000000Y-85931009D02*
X111904762Y-85883390D01*
X111904762Y-85883390D02*
X111857143Y-85835771D01*
X111857143Y-85835771D02*
X111809524Y-85740533D01*
X111809524Y-85740533D02*
X111809524Y-85645295D01*
X111809524Y-85645295D02*
X111857143Y-85550057D01*
X111857143Y-85550057D02*
X111904762Y-85502438D01*
X111904762Y-85502438D02*
X112000000Y-85454819D01*
X112000000Y-85454819D02*
X112238095Y-85454819D01*
X112238095Y-85454819D02*
X112380952Y-85502438D01*
X113142857Y-85931009D02*
X113285714Y-85978628D01*
X113285714Y-85978628D02*
X113333333Y-86026247D01*
X113333333Y-86026247D02*
X113380952Y-86121485D01*
X113380952Y-86121485D02*
X113380952Y-86264342D01*
X113380952Y-86264342D02*
X113333333Y-86359580D01*
X113333333Y-86359580D02*
X113285714Y-86407200D01*
X113285714Y-86407200D02*
X113190476Y-86454819D01*
X113190476Y-86454819D02*
X112809524Y-86454819D01*
X112809524Y-86454819D02*
X112809524Y-85454819D01*
X112809524Y-85454819D02*
X113142857Y-85454819D01*
X113142857Y-85454819D02*
X113238095Y-85502438D01*
X113238095Y-85502438D02*
X113285714Y-85550057D01*
X113285714Y-85550057D02*
X113333333Y-85645295D01*
X113333333Y-85645295D02*
X113333333Y-85740533D01*
X113333333Y-85740533D02*
X113285714Y-85835771D01*
X113285714Y-85835771D02*
X113238095Y-85883390D01*
X113238095Y-85883390D02*
X113142857Y-85931009D01*
X113142857Y-85931009D02*
X112809524Y-85931009D01*
X114761905Y-85454819D02*
X114952381Y-85454819D01*
X114952381Y-85454819D02*
X115047619Y-85502438D01*
X115047619Y-85502438D02*
X115142857Y-85597676D01*
X115142857Y-85597676D02*
X115190476Y-85788152D01*
X115190476Y-85788152D02*
X115190476Y-86121485D01*
X115190476Y-86121485D02*
X115142857Y-86311961D01*
X115142857Y-86311961D02*
X115047619Y-86407200D01*
X115047619Y-86407200D02*
X114952381Y-86454819D01*
X114952381Y-86454819D02*
X114761905Y-86454819D01*
X114761905Y-86454819D02*
X114666667Y-86407200D01*
X114666667Y-86407200D02*
X114571429Y-86311961D01*
X114571429Y-86311961D02*
X114523810Y-86121485D01*
X114523810Y-86121485D02*
X114523810Y-85788152D01*
X114523810Y-85788152D02*
X114571429Y-85597676D01*
X114571429Y-85597676D02*
X114666667Y-85502438D01*
X114666667Y-85502438D02*
X114761905Y-85454819D01*
X115619048Y-85454819D02*
X115619048Y-86264342D01*
X115619048Y-86264342D02*
X115666667Y-86359580D01*
X115666667Y-86359580D02*
X115714286Y-86407200D01*
X115714286Y-86407200D02*
X115809524Y-86454819D01*
X115809524Y-86454819D02*
X116000000Y-86454819D01*
X116000000Y-86454819D02*
X116095238Y-86407200D01*
X116095238Y-86407200D02*
X116142857Y-86359580D01*
X116142857Y-86359580D02*
X116190476Y-86264342D01*
X116190476Y-86264342D02*
X116190476Y-85454819D01*
X116523810Y-85454819D02*
X117095238Y-85454819D01*
X116809524Y-86454819D02*
X116809524Y-85454819D01*
D11*
X26071428Y-40929449D02*
X26214285Y-40977068D01*
X26214285Y-40977068D02*
X26261904Y-41024687D01*
X26261904Y-41024687D02*
X26309523Y-41119925D01*
X26309523Y-41119925D02*
X26309523Y-41262782D01*
X26309523Y-41262782D02*
X26261904Y-41358020D01*
X26261904Y-41358020D02*
X26214285Y-41405640D01*
X26214285Y-41405640D02*
X26119047Y-41453259D01*
X26119047Y-41453259D02*
X25738095Y-41453259D01*
X25738095Y-41453259D02*
X25738095Y-40453259D01*
X25738095Y-40453259D02*
X26071428Y-40453259D01*
X26071428Y-40453259D02*
X26166666Y-40500878D01*
X26166666Y-40500878D02*
X26214285Y-40548497D01*
X26214285Y-40548497D02*
X26261904Y-40643735D01*
X26261904Y-40643735D02*
X26261904Y-40738973D01*
X26261904Y-40738973D02*
X26214285Y-40834211D01*
X26214285Y-40834211D02*
X26166666Y-40881830D01*
X26166666Y-40881830D02*
X26071428Y-40929449D01*
X26071428Y-40929449D02*
X25738095Y-40929449D01*
X26738095Y-40453259D02*
X26738095Y-41262782D01*
X26738095Y-41262782D02*
X26785714Y-41358020D01*
X26785714Y-41358020D02*
X26833333Y-41405640D01*
X26833333Y-41405640D02*
X26928571Y-41453259D01*
X26928571Y-41453259D02*
X27119047Y-41453259D01*
X27119047Y-41453259D02*
X27214285Y-41405640D01*
X27214285Y-41405640D02*
X27261904Y-41358020D01*
X27261904Y-41358020D02*
X27309523Y-41262782D01*
X27309523Y-41262782D02*
X27309523Y-40453259D01*
X27738095Y-41405640D02*
X27880952Y-41453259D01*
X27880952Y-41453259D02*
X28119047Y-41453259D01*
X28119047Y-41453259D02*
X28214285Y-41405640D01*
X28214285Y-41405640D02*
X28261904Y-41358020D01*
X28261904Y-41358020D02*
X28309523Y-41262782D01*
X28309523Y-41262782D02*
X28309523Y-41167544D01*
X28309523Y-41167544D02*
X28261904Y-41072306D01*
X28261904Y-41072306D02*
X28214285Y-41024687D01*
X28214285Y-41024687D02*
X28119047Y-40977068D01*
X28119047Y-40977068D02*
X27928571Y-40929449D01*
X27928571Y-40929449D02*
X27833333Y-40881830D01*
X27833333Y-40881830D02*
X27785714Y-40834211D01*
X27785714Y-40834211D02*
X27738095Y-40738973D01*
X27738095Y-40738973D02*
X27738095Y-40643735D01*
X27738095Y-40643735D02*
X27785714Y-40548497D01*
X27785714Y-40548497D02*
X27833333Y-40500878D01*
X27833333Y-40500878D02*
X27928571Y-40453259D01*
X27928571Y-40453259D02*
X28166666Y-40453259D01*
X28166666Y-40453259D02*
X28309523Y-40500878D01*
X42690476Y-88453259D02*
X42690476Y-87453259D01*
X42690476Y-87453259D02*
X43071428Y-87453259D01*
X43071428Y-87453259D02*
X43166666Y-87500878D01*
X43166666Y-87500878D02*
X43214285Y-87548497D01*
X43214285Y-87548497D02*
X43261904Y-87643735D01*
X43261904Y-87643735D02*
X43261904Y-87786592D01*
X43261904Y-87786592D02*
X43214285Y-87881830D01*
X43214285Y-87881830D02*
X43166666Y-87929449D01*
X43166666Y-87929449D02*
X43071428Y-87977068D01*
X43071428Y-87977068D02*
X42690476Y-87977068D01*
X43880952Y-87453259D02*
X44071428Y-87453259D01*
X44071428Y-87453259D02*
X44166666Y-87500878D01*
X44166666Y-87500878D02*
X44261904Y-87596116D01*
X44261904Y-87596116D02*
X44309523Y-87786592D01*
X44309523Y-87786592D02*
X44309523Y-88119925D01*
X44309523Y-88119925D02*
X44261904Y-88310401D01*
X44261904Y-88310401D02*
X44166666Y-88405640D01*
X44166666Y-88405640D02*
X44071428Y-88453259D01*
X44071428Y-88453259D02*
X43880952Y-88453259D01*
X43880952Y-88453259D02*
X43785714Y-88405640D01*
X43785714Y-88405640D02*
X43690476Y-88310401D01*
X43690476Y-88310401D02*
X43642857Y-88119925D01*
X43642857Y-88119925D02*
X43642857Y-87786592D01*
X43642857Y-87786592D02*
X43690476Y-87596116D01*
X43690476Y-87596116D02*
X43785714Y-87500878D01*
X43785714Y-87500878D02*
X43880952Y-87453259D01*
X44642857Y-87453259D02*
X44880952Y-88453259D01*
X44880952Y-88453259D02*
X45071428Y-87738973D01*
X45071428Y-87738973D02*
X45261904Y-88453259D01*
X45261904Y-88453259D02*
X45500000Y-87453259D01*
X45880952Y-87929449D02*
X46214285Y-87929449D01*
X46357142Y-88453259D02*
X45880952Y-88453259D01*
X45880952Y-88453259D02*
X45880952Y-87453259D01*
X45880952Y-87453259D02*
X46357142Y-87453259D01*
X47357142Y-88453259D02*
X47023809Y-87977068D01*
X46785714Y-88453259D02*
X46785714Y-87453259D01*
X46785714Y-87453259D02*
X47166666Y-87453259D01*
X47166666Y-87453259D02*
X47261904Y-87500878D01*
X47261904Y-87500878D02*
X47309523Y-87548497D01*
X47309523Y-87548497D02*
X47357142Y-87643735D01*
X47357142Y-87643735D02*
X47357142Y-87786592D01*
X47357142Y-87786592D02*
X47309523Y-87881830D01*
X47309523Y-87881830D02*
X47261904Y-87929449D01*
X47261904Y-87929449D02*
X47166666Y-87977068D01*
X47166666Y-87977068D02*
X46785714Y-87977068D01*
X61523809Y-23453259D02*
X61523809Y-22453259D01*
X61523809Y-22453259D02*
X61761904Y-22453259D01*
X61761904Y-22453259D02*
X61904761Y-22500878D01*
X61904761Y-22500878D02*
X61999999Y-22596116D01*
X61999999Y-22596116D02*
X62047618Y-22691354D01*
X62047618Y-22691354D02*
X62095237Y-22881830D01*
X62095237Y-22881830D02*
X62095237Y-23024687D01*
X62095237Y-23024687D02*
X62047618Y-23215163D01*
X62047618Y-23215163D02*
X61999999Y-23310401D01*
X61999999Y-23310401D02*
X61904761Y-23405640D01*
X61904761Y-23405640D02*
X61761904Y-23453259D01*
X61761904Y-23453259D02*
X61523809Y-23453259D01*
X62714285Y-22453259D02*
X62904761Y-22453259D01*
X62904761Y-22453259D02*
X62999999Y-22500878D01*
X62999999Y-22500878D02*
X63095237Y-22596116D01*
X63095237Y-22596116D02*
X63142856Y-22786592D01*
X63142856Y-22786592D02*
X63142856Y-23119925D01*
X63142856Y-23119925D02*
X63095237Y-23310401D01*
X63095237Y-23310401D02*
X62999999Y-23405640D01*
X62999999Y-23405640D02*
X62904761Y-23453259D01*
X62904761Y-23453259D02*
X62714285Y-23453259D01*
X62714285Y-23453259D02*
X62619047Y-23405640D01*
X62619047Y-23405640D02*
X62523809Y-23310401D01*
X62523809Y-23310401D02*
X62476190Y-23119925D01*
X62476190Y-23119925D02*
X62476190Y-22786592D01*
X62476190Y-22786592D02*
X62523809Y-22596116D01*
X62523809Y-22596116D02*
X62619047Y-22500878D01*
X62619047Y-22500878D02*
X62714285Y-22453259D01*
X64333333Y-23453259D02*
X64333333Y-22453259D01*
X64333333Y-22453259D02*
X64904761Y-23453259D01*
X64904761Y-23453259D02*
X64904761Y-22453259D01*
X65571428Y-22453259D02*
X65761904Y-22453259D01*
X65761904Y-22453259D02*
X65857142Y-22500878D01*
X65857142Y-22500878D02*
X65952380Y-22596116D01*
X65952380Y-22596116D02*
X65999999Y-22786592D01*
X65999999Y-22786592D02*
X65999999Y-23119925D01*
X65999999Y-23119925D02*
X65952380Y-23310401D01*
X65952380Y-23310401D02*
X65857142Y-23405640D01*
X65857142Y-23405640D02*
X65761904Y-23453259D01*
X65761904Y-23453259D02*
X65571428Y-23453259D01*
X65571428Y-23453259D02*
X65476190Y-23405640D01*
X65476190Y-23405640D02*
X65380952Y-23310401D01*
X65380952Y-23310401D02*
X65333333Y-23119925D01*
X65333333Y-23119925D02*
X65333333Y-22786592D01*
X65333333Y-22786592D02*
X65380952Y-22596116D01*
X65380952Y-22596116D02*
X65476190Y-22500878D01*
X65476190Y-22500878D02*
X65571428Y-22453259D01*
X66285714Y-22453259D02*
X66857142Y-22453259D01*
X66571428Y-23453259D02*
X66571428Y-22453259D01*
X67952381Y-23453259D02*
X67952381Y-22453259D01*
X67952381Y-22453259D02*
X68333333Y-22453259D01*
X68333333Y-22453259D02*
X68428571Y-22500878D01*
X68428571Y-22500878D02*
X68476190Y-22548497D01*
X68476190Y-22548497D02*
X68523809Y-22643735D01*
X68523809Y-22643735D02*
X68523809Y-22786592D01*
X68523809Y-22786592D02*
X68476190Y-22881830D01*
X68476190Y-22881830D02*
X68428571Y-22929449D01*
X68428571Y-22929449D02*
X68333333Y-22977068D01*
X68333333Y-22977068D02*
X67952381Y-22977068D01*
X69142857Y-22453259D02*
X69333333Y-22453259D01*
X69333333Y-22453259D02*
X69428571Y-22500878D01*
X69428571Y-22500878D02*
X69523809Y-22596116D01*
X69523809Y-22596116D02*
X69571428Y-22786592D01*
X69571428Y-22786592D02*
X69571428Y-23119925D01*
X69571428Y-23119925D02*
X69523809Y-23310401D01*
X69523809Y-23310401D02*
X69428571Y-23405640D01*
X69428571Y-23405640D02*
X69333333Y-23453259D01*
X69333333Y-23453259D02*
X69142857Y-23453259D01*
X69142857Y-23453259D02*
X69047619Y-23405640D01*
X69047619Y-23405640D02*
X68952381Y-23310401D01*
X68952381Y-23310401D02*
X68904762Y-23119925D01*
X68904762Y-23119925D02*
X68904762Y-22786592D01*
X68904762Y-22786592D02*
X68952381Y-22596116D01*
X68952381Y-22596116D02*
X69047619Y-22500878D01*
X69047619Y-22500878D02*
X69142857Y-22453259D01*
X70000000Y-23453259D02*
X70000000Y-22453259D01*
X70000000Y-22453259D02*
X70380952Y-22453259D01*
X70380952Y-22453259D02*
X70476190Y-22500878D01*
X70476190Y-22500878D02*
X70523809Y-22548497D01*
X70523809Y-22548497D02*
X70571428Y-22643735D01*
X70571428Y-22643735D02*
X70571428Y-22786592D01*
X70571428Y-22786592D02*
X70523809Y-22881830D01*
X70523809Y-22881830D02*
X70476190Y-22929449D01*
X70476190Y-22929449D02*
X70380952Y-22977068D01*
X70380952Y-22977068D02*
X70000000Y-22977068D01*
X71000000Y-22453259D02*
X71000000Y-23262782D01*
X71000000Y-23262782D02*
X71047619Y-23358020D01*
X71047619Y-23358020D02*
X71095238Y-23405640D01*
X71095238Y-23405640D02*
X71190476Y-23453259D01*
X71190476Y-23453259D02*
X71380952Y-23453259D01*
X71380952Y-23453259D02*
X71476190Y-23405640D01*
X71476190Y-23405640D02*
X71523809Y-23358020D01*
X71523809Y-23358020D02*
X71571428Y-23262782D01*
X71571428Y-23262782D02*
X71571428Y-22453259D01*
X72523809Y-23453259D02*
X72047619Y-23453259D01*
X72047619Y-23453259D02*
X72047619Y-22453259D01*
X72809524Y-23167544D02*
X73285714Y-23167544D01*
X72714286Y-23453259D02*
X73047619Y-22453259D01*
X73047619Y-22453259D02*
X73380952Y-23453259D01*
X73571429Y-22453259D02*
X74142857Y-22453259D01*
X73857143Y-23453259D02*
X73857143Y-22453259D01*
X74476191Y-22929449D02*
X74809524Y-22929449D01*
X74952381Y-23453259D02*
X74476191Y-23453259D01*
X74476191Y-23453259D02*
X74476191Y-22453259D01*
X74476191Y-22453259D02*
X74952381Y-22453259D01*
X76142858Y-23072306D02*
X76904763Y-23072306D01*
X78142858Y-23453259D02*
X78142858Y-22453259D01*
X78142858Y-22453259D02*
X78714286Y-23453259D01*
X78714286Y-23453259D02*
X78714286Y-22453259D01*
X79380953Y-22453259D02*
X79571429Y-22453259D01*
X79571429Y-22453259D02*
X79666667Y-22500878D01*
X79666667Y-22500878D02*
X79761905Y-22596116D01*
X79761905Y-22596116D02*
X79809524Y-22786592D01*
X79809524Y-22786592D02*
X79809524Y-23119925D01*
X79809524Y-23119925D02*
X79761905Y-23310401D01*
X79761905Y-23310401D02*
X79666667Y-23405640D01*
X79666667Y-23405640D02*
X79571429Y-23453259D01*
X79571429Y-23453259D02*
X79380953Y-23453259D01*
X79380953Y-23453259D02*
X79285715Y-23405640D01*
X79285715Y-23405640D02*
X79190477Y-23310401D01*
X79190477Y-23310401D02*
X79142858Y-23119925D01*
X79142858Y-23119925D02*
X79142858Y-22786592D01*
X79142858Y-22786592D02*
X79190477Y-22596116D01*
X79190477Y-22596116D02*
X79285715Y-22500878D01*
X79285715Y-22500878D02*
X79380953Y-22453259D01*
X81571429Y-23358020D02*
X81523810Y-23405640D01*
X81523810Y-23405640D02*
X81380953Y-23453259D01*
X81380953Y-23453259D02*
X81285715Y-23453259D01*
X81285715Y-23453259D02*
X81142858Y-23405640D01*
X81142858Y-23405640D02*
X81047620Y-23310401D01*
X81047620Y-23310401D02*
X81000001Y-23215163D01*
X81000001Y-23215163D02*
X80952382Y-23024687D01*
X80952382Y-23024687D02*
X80952382Y-22881830D01*
X80952382Y-22881830D02*
X81000001Y-22691354D01*
X81000001Y-22691354D02*
X81047620Y-22596116D01*
X81047620Y-22596116D02*
X81142858Y-22500878D01*
X81142858Y-22500878D02*
X81285715Y-22453259D01*
X81285715Y-22453259D02*
X81380953Y-22453259D01*
X81380953Y-22453259D02*
X81523810Y-22500878D01*
X81523810Y-22500878D02*
X81571429Y-22548497D01*
X82190477Y-22453259D02*
X82380953Y-22453259D01*
X82380953Y-22453259D02*
X82476191Y-22500878D01*
X82476191Y-22500878D02*
X82571429Y-22596116D01*
X82571429Y-22596116D02*
X82619048Y-22786592D01*
X82619048Y-22786592D02*
X82619048Y-23119925D01*
X82619048Y-23119925D02*
X82571429Y-23310401D01*
X82571429Y-23310401D02*
X82476191Y-23405640D01*
X82476191Y-23405640D02*
X82380953Y-23453259D01*
X82380953Y-23453259D02*
X82190477Y-23453259D01*
X82190477Y-23453259D02*
X82095239Y-23405640D01*
X82095239Y-23405640D02*
X82000001Y-23310401D01*
X82000001Y-23310401D02*
X81952382Y-23119925D01*
X81952382Y-23119925D02*
X81952382Y-22786592D01*
X81952382Y-22786592D02*
X82000001Y-22596116D01*
X82000001Y-22596116D02*
X82095239Y-22500878D01*
X82095239Y-22500878D02*
X82190477Y-22453259D01*
X83047620Y-23453259D02*
X83047620Y-22453259D01*
X83047620Y-22453259D02*
X83428572Y-22453259D01*
X83428572Y-22453259D02*
X83523810Y-22500878D01*
X83523810Y-22500878D02*
X83571429Y-22548497D01*
X83571429Y-22548497D02*
X83619048Y-22643735D01*
X83619048Y-22643735D02*
X83619048Y-22786592D01*
X83619048Y-22786592D02*
X83571429Y-22881830D01*
X83571429Y-22881830D02*
X83523810Y-22929449D01*
X83523810Y-22929449D02*
X83428572Y-22977068D01*
X83428572Y-22977068D02*
X83047620Y-22977068D01*
X84047620Y-23453259D02*
X84047620Y-22453259D01*
X84047620Y-22453259D02*
X84428572Y-22453259D01*
X84428572Y-22453259D02*
X84523810Y-22500878D01*
X84523810Y-22500878D02*
X84571429Y-22548497D01*
X84571429Y-22548497D02*
X84619048Y-22643735D01*
X84619048Y-22643735D02*
X84619048Y-22786592D01*
X84619048Y-22786592D02*
X84571429Y-22881830D01*
X84571429Y-22881830D02*
X84523810Y-22929449D01*
X84523810Y-22929449D02*
X84428572Y-22977068D01*
X84428572Y-22977068D02*
X84047620Y-22977068D01*
X85047620Y-22929449D02*
X85380953Y-22929449D01*
X85523810Y-23453259D02*
X85047620Y-23453259D01*
X85047620Y-23453259D02*
X85047620Y-22453259D01*
X85047620Y-22453259D02*
X85523810Y-22453259D01*
X86523810Y-23453259D02*
X86190477Y-22977068D01*
X85952382Y-23453259D02*
X85952382Y-22453259D01*
X85952382Y-22453259D02*
X86333334Y-22453259D01*
X86333334Y-22453259D02*
X86428572Y-22500878D01*
X86428572Y-22500878D02*
X86476191Y-22548497D01*
X86476191Y-22548497D02*
X86523810Y-22643735D01*
X86523810Y-22643735D02*
X86523810Y-22786592D01*
X86523810Y-22786592D02*
X86476191Y-22881830D01*
X86476191Y-22881830D02*
X86428572Y-22929449D01*
X86428572Y-22929449D02*
X86333334Y-22977068D01*
X86333334Y-22977068D02*
X85952382Y-22977068D01*
X55738095Y-88453259D02*
X55738095Y-87453259D01*
X55738095Y-87453259D02*
X56309523Y-88453259D01*
X56309523Y-88453259D02*
X56309523Y-87453259D01*
X56976190Y-87453259D02*
X57166666Y-87453259D01*
X57166666Y-87453259D02*
X57261904Y-87500878D01*
X57261904Y-87500878D02*
X57357142Y-87596116D01*
X57357142Y-87596116D02*
X57404761Y-87786592D01*
X57404761Y-87786592D02*
X57404761Y-88119925D01*
X57404761Y-88119925D02*
X57357142Y-88310401D01*
X57357142Y-88310401D02*
X57261904Y-88405640D01*
X57261904Y-88405640D02*
X57166666Y-88453259D01*
X57166666Y-88453259D02*
X56976190Y-88453259D01*
X56976190Y-88453259D02*
X56880952Y-88405640D01*
X56880952Y-88405640D02*
X56785714Y-88310401D01*
X56785714Y-88310401D02*
X56738095Y-88119925D01*
X56738095Y-88119925D02*
X56738095Y-87786592D01*
X56738095Y-87786592D02*
X56785714Y-87596116D01*
X56785714Y-87596116D02*
X56880952Y-87500878D01*
X56880952Y-87500878D02*
X56976190Y-87453259D01*
X58452381Y-87453259D02*
X58785714Y-88453259D01*
X58785714Y-88453259D02*
X59119047Y-87453259D01*
X59452381Y-87929449D02*
X59785714Y-87929449D01*
X59928571Y-88453259D02*
X59452381Y-88453259D01*
X59452381Y-88453259D02*
X59452381Y-87453259D01*
X59452381Y-87453259D02*
X59928571Y-87453259D01*
X60357143Y-88453259D02*
X60357143Y-87453259D01*
X60357143Y-87929449D02*
X60928571Y-87929449D01*
X60928571Y-88453259D02*
X60928571Y-87453259D01*
X61404762Y-88453259D02*
X61404762Y-87453259D01*
X62452380Y-88358020D02*
X62404761Y-88405640D01*
X62404761Y-88405640D02*
X62261904Y-88453259D01*
X62261904Y-88453259D02*
X62166666Y-88453259D01*
X62166666Y-88453259D02*
X62023809Y-88405640D01*
X62023809Y-88405640D02*
X61928571Y-88310401D01*
X61928571Y-88310401D02*
X61880952Y-88215163D01*
X61880952Y-88215163D02*
X61833333Y-88024687D01*
X61833333Y-88024687D02*
X61833333Y-87881830D01*
X61833333Y-87881830D02*
X61880952Y-87691354D01*
X61880952Y-87691354D02*
X61928571Y-87596116D01*
X61928571Y-87596116D02*
X62023809Y-87500878D01*
X62023809Y-87500878D02*
X62166666Y-87453259D01*
X62166666Y-87453259D02*
X62261904Y-87453259D01*
X62261904Y-87453259D02*
X62404761Y-87500878D01*
X62404761Y-87500878D02*
X62452380Y-87548497D01*
X63357142Y-88453259D02*
X62880952Y-88453259D01*
X62880952Y-88453259D02*
X62880952Y-87453259D01*
X63690476Y-87929449D02*
X64023809Y-87929449D01*
X64166666Y-88453259D02*
X63690476Y-88453259D01*
X63690476Y-88453259D02*
X63690476Y-87453259D01*
X63690476Y-87453259D02*
X64166666Y-87453259D01*
X65928571Y-88358020D02*
X65880952Y-88405640D01*
X65880952Y-88405640D02*
X65738095Y-88453259D01*
X65738095Y-88453259D02*
X65642857Y-88453259D01*
X65642857Y-88453259D02*
X65500000Y-88405640D01*
X65500000Y-88405640D02*
X65404762Y-88310401D01*
X65404762Y-88310401D02*
X65357143Y-88215163D01*
X65357143Y-88215163D02*
X65309524Y-88024687D01*
X65309524Y-88024687D02*
X65309524Y-87881830D01*
X65309524Y-87881830D02*
X65357143Y-87691354D01*
X65357143Y-87691354D02*
X65404762Y-87596116D01*
X65404762Y-87596116D02*
X65500000Y-87500878D01*
X65500000Y-87500878D02*
X65642857Y-87453259D01*
X65642857Y-87453259D02*
X65738095Y-87453259D01*
X65738095Y-87453259D02*
X65880952Y-87500878D01*
X65880952Y-87500878D02*
X65928571Y-87548497D01*
X66547619Y-87453259D02*
X66738095Y-87453259D01*
X66738095Y-87453259D02*
X66833333Y-87500878D01*
X66833333Y-87500878D02*
X66928571Y-87596116D01*
X66928571Y-87596116D02*
X66976190Y-87786592D01*
X66976190Y-87786592D02*
X66976190Y-88119925D01*
X66976190Y-88119925D02*
X66928571Y-88310401D01*
X66928571Y-88310401D02*
X66833333Y-88405640D01*
X66833333Y-88405640D02*
X66738095Y-88453259D01*
X66738095Y-88453259D02*
X66547619Y-88453259D01*
X66547619Y-88453259D02*
X66452381Y-88405640D01*
X66452381Y-88405640D02*
X66357143Y-88310401D01*
X66357143Y-88310401D02*
X66309524Y-88119925D01*
X66309524Y-88119925D02*
X66309524Y-87786592D01*
X66309524Y-87786592D02*
X66357143Y-87596116D01*
X66357143Y-87596116D02*
X66452381Y-87500878D01*
X66452381Y-87500878D02*
X66547619Y-87453259D01*
X67404762Y-88453259D02*
X67404762Y-87453259D01*
X67404762Y-87453259D02*
X67976190Y-88453259D01*
X67976190Y-88453259D02*
X67976190Y-87453259D01*
X68452381Y-88453259D02*
X68452381Y-87453259D01*
X68452381Y-87453259D02*
X69023809Y-88453259D01*
X69023809Y-88453259D02*
X69023809Y-87453259D01*
X69500000Y-87929449D02*
X69833333Y-87929449D01*
X69976190Y-88453259D02*
X69500000Y-88453259D01*
X69500000Y-88453259D02*
X69500000Y-87453259D01*
X69500000Y-87453259D02*
X69976190Y-87453259D01*
X70976190Y-88358020D02*
X70928571Y-88405640D01*
X70928571Y-88405640D02*
X70785714Y-88453259D01*
X70785714Y-88453259D02*
X70690476Y-88453259D01*
X70690476Y-88453259D02*
X70547619Y-88405640D01*
X70547619Y-88405640D02*
X70452381Y-88310401D01*
X70452381Y-88310401D02*
X70404762Y-88215163D01*
X70404762Y-88215163D02*
X70357143Y-88024687D01*
X70357143Y-88024687D02*
X70357143Y-87881830D01*
X70357143Y-87881830D02*
X70404762Y-87691354D01*
X70404762Y-87691354D02*
X70452381Y-87596116D01*
X70452381Y-87596116D02*
X70547619Y-87500878D01*
X70547619Y-87500878D02*
X70690476Y-87453259D01*
X70690476Y-87453259D02*
X70785714Y-87453259D01*
X70785714Y-87453259D02*
X70928571Y-87500878D01*
X70928571Y-87500878D02*
X70976190Y-87548497D01*
X71261905Y-87453259D02*
X71833333Y-87453259D01*
X71547619Y-88453259D02*
X71547619Y-87453259D01*
X72166667Y-88453259D02*
X72166667Y-87453259D01*
X72833333Y-87453259D02*
X73023809Y-87453259D01*
X73023809Y-87453259D02*
X73119047Y-87500878D01*
X73119047Y-87500878D02*
X73214285Y-87596116D01*
X73214285Y-87596116D02*
X73261904Y-87786592D01*
X73261904Y-87786592D02*
X73261904Y-88119925D01*
X73261904Y-88119925D02*
X73214285Y-88310401D01*
X73214285Y-88310401D02*
X73119047Y-88405640D01*
X73119047Y-88405640D02*
X73023809Y-88453259D01*
X73023809Y-88453259D02*
X72833333Y-88453259D01*
X72833333Y-88453259D02*
X72738095Y-88405640D01*
X72738095Y-88405640D02*
X72642857Y-88310401D01*
X72642857Y-88310401D02*
X72595238Y-88119925D01*
X72595238Y-88119925D02*
X72595238Y-87786592D01*
X72595238Y-87786592D02*
X72642857Y-87596116D01*
X72642857Y-87596116D02*
X72738095Y-87500878D01*
X72738095Y-87500878D02*
X72833333Y-87453259D01*
X73690476Y-88453259D02*
X73690476Y-87453259D01*
X73690476Y-87453259D02*
X74261904Y-88453259D01*
X74261904Y-88453259D02*
X74261904Y-87453259D01*
X75833333Y-87929449D02*
X75976190Y-87977068D01*
X75976190Y-87977068D02*
X76023809Y-88024687D01*
X76023809Y-88024687D02*
X76071428Y-88119925D01*
X76071428Y-88119925D02*
X76071428Y-88262782D01*
X76071428Y-88262782D02*
X76023809Y-88358020D01*
X76023809Y-88358020D02*
X75976190Y-88405640D01*
X75976190Y-88405640D02*
X75880952Y-88453259D01*
X75880952Y-88453259D02*
X75500000Y-88453259D01*
X75500000Y-88453259D02*
X75500000Y-87453259D01*
X75500000Y-87453259D02*
X75833333Y-87453259D01*
X75833333Y-87453259D02*
X75928571Y-87500878D01*
X75928571Y-87500878D02*
X75976190Y-87548497D01*
X75976190Y-87548497D02*
X76023809Y-87643735D01*
X76023809Y-87643735D02*
X76023809Y-87738973D01*
X76023809Y-87738973D02*
X75976190Y-87834211D01*
X75976190Y-87834211D02*
X75928571Y-87881830D01*
X75928571Y-87881830D02*
X75833333Y-87929449D01*
X75833333Y-87929449D02*
X75500000Y-87929449D01*
X76500000Y-87929449D02*
X76833333Y-87929449D01*
X76976190Y-88453259D02*
X76500000Y-88453259D01*
X76500000Y-88453259D02*
X76500000Y-87453259D01*
X76500000Y-87453259D02*
X76976190Y-87453259D01*
X77738095Y-87929449D02*
X77404762Y-87929449D01*
X77404762Y-88453259D02*
X77404762Y-87453259D01*
X77404762Y-87453259D02*
X77880952Y-87453259D01*
X78452381Y-87453259D02*
X78642857Y-87453259D01*
X78642857Y-87453259D02*
X78738095Y-87500878D01*
X78738095Y-87500878D02*
X78833333Y-87596116D01*
X78833333Y-87596116D02*
X78880952Y-87786592D01*
X78880952Y-87786592D02*
X78880952Y-88119925D01*
X78880952Y-88119925D02*
X78833333Y-88310401D01*
X78833333Y-88310401D02*
X78738095Y-88405640D01*
X78738095Y-88405640D02*
X78642857Y-88453259D01*
X78642857Y-88453259D02*
X78452381Y-88453259D01*
X78452381Y-88453259D02*
X78357143Y-88405640D01*
X78357143Y-88405640D02*
X78261905Y-88310401D01*
X78261905Y-88310401D02*
X78214286Y-88119925D01*
X78214286Y-88119925D02*
X78214286Y-87786592D01*
X78214286Y-87786592D02*
X78261905Y-87596116D01*
X78261905Y-87596116D02*
X78357143Y-87500878D01*
X78357143Y-87500878D02*
X78452381Y-87453259D01*
X79880952Y-88453259D02*
X79547619Y-87977068D01*
X79309524Y-88453259D02*
X79309524Y-87453259D01*
X79309524Y-87453259D02*
X79690476Y-87453259D01*
X79690476Y-87453259D02*
X79785714Y-87500878D01*
X79785714Y-87500878D02*
X79833333Y-87548497D01*
X79833333Y-87548497D02*
X79880952Y-87643735D01*
X79880952Y-87643735D02*
X79880952Y-87786592D01*
X79880952Y-87786592D02*
X79833333Y-87881830D01*
X79833333Y-87881830D02*
X79785714Y-87929449D01*
X79785714Y-87929449D02*
X79690476Y-87977068D01*
X79690476Y-87977068D02*
X79309524Y-87977068D01*
X80309524Y-87929449D02*
X80642857Y-87929449D01*
X80785714Y-88453259D02*
X80309524Y-88453259D01*
X80309524Y-88453259D02*
X80309524Y-87453259D01*
X80309524Y-87453259D02*
X80785714Y-87453259D01*
X82642857Y-88548497D02*
X82547619Y-88500878D01*
X82547619Y-88500878D02*
X82452381Y-88405640D01*
X82452381Y-88405640D02*
X82309524Y-88262782D01*
X82309524Y-88262782D02*
X82214286Y-88215163D01*
X82214286Y-88215163D02*
X82119048Y-88215163D01*
X82166667Y-88453259D02*
X82071429Y-88405640D01*
X82071429Y-88405640D02*
X81976191Y-88310401D01*
X81976191Y-88310401D02*
X81928572Y-88119925D01*
X81928572Y-88119925D02*
X81928572Y-87786592D01*
X81928572Y-87786592D02*
X81976191Y-87596116D01*
X81976191Y-87596116D02*
X82071429Y-87500878D01*
X82071429Y-87500878D02*
X82166667Y-87453259D01*
X82166667Y-87453259D02*
X82357143Y-87453259D01*
X82357143Y-87453259D02*
X82452381Y-87500878D01*
X82452381Y-87500878D02*
X82547619Y-87596116D01*
X82547619Y-87596116D02*
X82595238Y-87786592D01*
X82595238Y-87786592D02*
X82595238Y-88119925D01*
X82595238Y-88119925D02*
X82547619Y-88310401D01*
X82547619Y-88310401D02*
X82452381Y-88405640D01*
X82452381Y-88405640D02*
X82357143Y-88453259D01*
X82357143Y-88453259D02*
X82166667Y-88453259D01*
X83023810Y-87453259D02*
X83023810Y-88262782D01*
X83023810Y-88262782D02*
X83071429Y-88358020D01*
X83071429Y-88358020D02*
X83119048Y-88405640D01*
X83119048Y-88405640D02*
X83214286Y-88453259D01*
X83214286Y-88453259D02*
X83404762Y-88453259D01*
X83404762Y-88453259D02*
X83500000Y-88405640D01*
X83500000Y-88405640D02*
X83547619Y-88358020D01*
X83547619Y-88358020D02*
X83595238Y-88262782D01*
X83595238Y-88262782D02*
X83595238Y-87453259D01*
X84023810Y-88167544D02*
X84500000Y-88167544D01*
X83928572Y-88453259D02*
X84261905Y-87453259D01*
X84261905Y-87453259D02*
X84595238Y-88453259D01*
X85404762Y-88453259D02*
X84928572Y-88453259D01*
X84928572Y-88453259D02*
X84928572Y-87453259D01*
X85738096Y-88453259D02*
X85738096Y-87453259D01*
X86547619Y-87929449D02*
X86214286Y-87929449D01*
X86214286Y-88453259D02*
X86214286Y-87453259D01*
X86214286Y-87453259D02*
X86690476Y-87453259D01*
X87071429Y-88453259D02*
X87071429Y-87453259D01*
X88119047Y-88358020D02*
X88071428Y-88405640D01*
X88071428Y-88405640D02*
X87928571Y-88453259D01*
X87928571Y-88453259D02*
X87833333Y-88453259D01*
X87833333Y-88453259D02*
X87690476Y-88405640D01*
X87690476Y-88405640D02*
X87595238Y-88310401D01*
X87595238Y-88310401D02*
X87547619Y-88215163D01*
X87547619Y-88215163D02*
X87500000Y-88024687D01*
X87500000Y-88024687D02*
X87500000Y-87881830D01*
X87500000Y-87881830D02*
X87547619Y-87691354D01*
X87547619Y-87691354D02*
X87595238Y-87596116D01*
X87595238Y-87596116D02*
X87690476Y-87500878D01*
X87690476Y-87500878D02*
X87833333Y-87453259D01*
X87833333Y-87453259D02*
X87928571Y-87453259D01*
X87928571Y-87453259D02*
X88071428Y-87500878D01*
X88071428Y-87500878D02*
X88119047Y-87548497D01*
X88500000Y-88167544D02*
X88976190Y-88167544D01*
X88404762Y-88453259D02*
X88738095Y-87453259D01*
X88738095Y-87453259D02*
X89071428Y-88453259D01*
X89261905Y-87453259D02*
X89833333Y-87453259D01*
X89547619Y-88453259D02*
X89547619Y-87453259D01*
X90166667Y-88453259D02*
X90166667Y-87453259D01*
X90833333Y-87453259D02*
X91023809Y-87453259D01*
X91023809Y-87453259D02*
X91119047Y-87500878D01*
X91119047Y-87500878D02*
X91214285Y-87596116D01*
X91214285Y-87596116D02*
X91261904Y-87786592D01*
X91261904Y-87786592D02*
X91261904Y-88119925D01*
X91261904Y-88119925D02*
X91214285Y-88310401D01*
X91214285Y-88310401D02*
X91119047Y-88405640D01*
X91119047Y-88405640D02*
X91023809Y-88453259D01*
X91023809Y-88453259D02*
X90833333Y-88453259D01*
X90833333Y-88453259D02*
X90738095Y-88405640D01*
X90738095Y-88405640D02*
X90642857Y-88310401D01*
X90642857Y-88310401D02*
X90595238Y-88119925D01*
X90595238Y-88119925D02*
X90595238Y-87786592D01*
X90595238Y-87786592D02*
X90642857Y-87596116D01*
X90642857Y-87596116D02*
X90738095Y-87500878D01*
X90738095Y-87500878D02*
X90833333Y-87453259D01*
X91690476Y-88453259D02*
X91690476Y-87453259D01*
X91690476Y-87453259D02*
X92261904Y-88453259D01*
X92261904Y-88453259D02*
X92261904Y-87453259D01*
X103547619Y-18453259D02*
X103071429Y-18453259D01*
X103071429Y-18453259D02*
X103071429Y-17453259D01*
X104071429Y-17453259D02*
X104261905Y-17453259D01*
X104261905Y-17453259D02*
X104357143Y-17500878D01*
X104357143Y-17500878D02*
X104452381Y-17596116D01*
X104452381Y-17596116D02*
X104500000Y-17786592D01*
X104500000Y-17786592D02*
X104500000Y-18119925D01*
X104500000Y-18119925D02*
X104452381Y-18310401D01*
X104452381Y-18310401D02*
X104357143Y-18405640D01*
X104357143Y-18405640D02*
X104261905Y-18453259D01*
X104261905Y-18453259D02*
X104071429Y-18453259D01*
X104071429Y-18453259D02*
X103976191Y-18405640D01*
X103976191Y-18405640D02*
X103880953Y-18310401D01*
X103880953Y-18310401D02*
X103833334Y-18119925D01*
X103833334Y-18119925D02*
X103833334Y-17786592D01*
X103833334Y-17786592D02*
X103880953Y-17596116D01*
X103880953Y-17596116D02*
X103976191Y-17500878D01*
X103976191Y-17500878D02*
X104071429Y-17453259D01*
X105452381Y-17500878D02*
X105357143Y-17453259D01*
X105357143Y-17453259D02*
X105214286Y-17453259D01*
X105214286Y-17453259D02*
X105071429Y-17500878D01*
X105071429Y-17500878D02*
X104976191Y-17596116D01*
X104976191Y-17596116D02*
X104928572Y-17691354D01*
X104928572Y-17691354D02*
X104880953Y-17881830D01*
X104880953Y-17881830D02*
X104880953Y-18024687D01*
X104880953Y-18024687D02*
X104928572Y-18215163D01*
X104928572Y-18215163D02*
X104976191Y-18310401D01*
X104976191Y-18310401D02*
X105071429Y-18405640D01*
X105071429Y-18405640D02*
X105214286Y-18453259D01*
X105214286Y-18453259D02*
X105309524Y-18453259D01*
X105309524Y-18453259D02*
X105452381Y-18405640D01*
X105452381Y-18405640D02*
X105500000Y-18358020D01*
X105500000Y-18358020D02*
X105500000Y-18024687D01*
X105500000Y-18024687D02*
X105309524Y-18024687D01*
X105928572Y-18453259D02*
X105928572Y-17453259D01*
X106976190Y-18358020D02*
X106928571Y-18405640D01*
X106928571Y-18405640D02*
X106785714Y-18453259D01*
X106785714Y-18453259D02*
X106690476Y-18453259D01*
X106690476Y-18453259D02*
X106547619Y-18405640D01*
X106547619Y-18405640D02*
X106452381Y-18310401D01*
X106452381Y-18310401D02*
X106404762Y-18215163D01*
X106404762Y-18215163D02*
X106357143Y-18024687D01*
X106357143Y-18024687D02*
X106357143Y-17881830D01*
X106357143Y-17881830D02*
X106404762Y-17691354D01*
X106404762Y-17691354D02*
X106452381Y-17596116D01*
X106452381Y-17596116D02*
X106547619Y-17500878D01*
X106547619Y-17500878D02*
X106690476Y-17453259D01*
X106690476Y-17453259D02*
X106785714Y-17453259D01*
X106785714Y-17453259D02*
X106928571Y-17500878D01*
X106928571Y-17500878D02*
X106976190Y-17548497D01*
X69342856Y-20345782D02*
X70028571Y-20345782D01*
X69685713Y-21545782D02*
X69685713Y-20345782D01*
X70314285Y-20345782D02*
X71114285Y-21545782D01*
X71114285Y-20345782D02*
X70314285Y-21545782D01*
X73057142Y-21545782D02*
X72485714Y-21545782D01*
X72485714Y-21545782D02*
X72485714Y-20345782D01*
X73457143Y-21545782D02*
X73457143Y-20345782D01*
X74028572Y-21545782D02*
X74028572Y-20345782D01*
X74028572Y-20345782D02*
X74714286Y-21545782D01*
X74714286Y-21545782D02*
X74714286Y-20345782D01*
X75285715Y-21545782D02*
X75285715Y-20345782D01*
X75971429Y-21545782D02*
X75457143Y-20860068D01*
X75971429Y-20345782D02*
X75285715Y-21031497D01*
X77400001Y-21545782D02*
X77400001Y-20345782D01*
X77400001Y-20345782D02*
X77685715Y-20345782D01*
X77685715Y-20345782D02*
X77857144Y-20402925D01*
X77857144Y-20402925D02*
X77971429Y-20517211D01*
X77971429Y-20517211D02*
X78028572Y-20631497D01*
X78028572Y-20631497D02*
X78085715Y-20860068D01*
X78085715Y-20860068D02*
X78085715Y-21031497D01*
X78085715Y-21031497D02*
X78028572Y-21260068D01*
X78028572Y-21260068D02*
X77971429Y-21374354D01*
X77971429Y-21374354D02*
X77857144Y-21488640D01*
X77857144Y-21488640D02*
X77685715Y-21545782D01*
X77685715Y-21545782D02*
X77400001Y-21545782D01*
X78600001Y-21545782D02*
X78600001Y-20345782D01*
X78600001Y-20345782D02*
X79285715Y-21545782D01*
X79285715Y-21545782D02*
X79285715Y-20345782D01*
X79857144Y-21545782D02*
X79857144Y-20345782D01*
X79857144Y-20345782D02*
X80314287Y-20345782D01*
X80314287Y-20345782D02*
X80428572Y-20402925D01*
X80428572Y-20402925D02*
X80485715Y-20460068D01*
X80485715Y-20460068D02*
X80542858Y-20574354D01*
X80542858Y-20574354D02*
X80542858Y-20745782D01*
X80542858Y-20745782D02*
X80485715Y-20860068D01*
X80485715Y-20860068D02*
X80428572Y-20917211D01*
X80428572Y-20917211D02*
X80314287Y-20974354D01*
X80314287Y-20974354D02*
X79857144Y-20974354D01*
X59057142Y-15545782D02*
X59057142Y-14345782D01*
X59057142Y-14345782D02*
X59514285Y-14345782D01*
X59514285Y-14345782D02*
X59628570Y-14402925D01*
X59628570Y-14402925D02*
X59685713Y-14460068D01*
X59685713Y-14460068D02*
X59742856Y-14574354D01*
X59742856Y-14574354D02*
X59742856Y-14745782D01*
X59742856Y-14745782D02*
X59685713Y-14860068D01*
X59685713Y-14860068D02*
X59628570Y-14917211D01*
X59628570Y-14917211D02*
X59514285Y-14974354D01*
X59514285Y-14974354D02*
X59057142Y-14974354D01*
X60257142Y-15545782D02*
X60257142Y-14345782D01*
X60257142Y-14917211D02*
X60942856Y-14917211D01*
X60942856Y-15545782D02*
X60942856Y-14345782D01*
X61457142Y-15202925D02*
X62028571Y-15202925D01*
X61342856Y-15545782D02*
X61742856Y-14345782D01*
X61742856Y-14345782D02*
X62142856Y-15545782D01*
X62485713Y-15488640D02*
X62657142Y-15545782D01*
X62657142Y-15545782D02*
X62942856Y-15545782D01*
X62942856Y-15545782D02*
X63057142Y-15488640D01*
X63057142Y-15488640D02*
X63114284Y-15431497D01*
X63114284Y-15431497D02*
X63171427Y-15317211D01*
X63171427Y-15317211D02*
X63171427Y-15202925D01*
X63171427Y-15202925D02*
X63114284Y-15088640D01*
X63114284Y-15088640D02*
X63057142Y-15031497D01*
X63057142Y-15031497D02*
X62942856Y-14974354D01*
X62942856Y-14974354D02*
X62714284Y-14917211D01*
X62714284Y-14917211D02*
X62599999Y-14860068D01*
X62599999Y-14860068D02*
X62542856Y-14802925D01*
X62542856Y-14802925D02*
X62485713Y-14688640D01*
X62485713Y-14688640D02*
X62485713Y-14574354D01*
X62485713Y-14574354D02*
X62542856Y-14460068D01*
X62542856Y-14460068D02*
X62599999Y-14402925D01*
X62599999Y-14402925D02*
X62714284Y-14345782D01*
X62714284Y-14345782D02*
X62999999Y-14345782D01*
X62999999Y-14345782D02*
X63171427Y-14402925D01*
X63685713Y-14917211D02*
X64085713Y-14917211D01*
X64257141Y-15545782D02*
X63685713Y-15545782D01*
X63685713Y-15545782D02*
X63685713Y-14345782D01*
X63685713Y-14345782D02*
X64257141Y-14345782D01*
X65571427Y-14345782D02*
X66314284Y-14345782D01*
X66314284Y-14345782D02*
X65914284Y-14802925D01*
X65914284Y-14802925D02*
X66085713Y-14802925D01*
X66085713Y-14802925D02*
X66199999Y-14860068D01*
X66199999Y-14860068D02*
X66257141Y-14917211D01*
X66257141Y-14917211D02*
X66314284Y-15031497D01*
X66314284Y-15031497D02*
X66314284Y-15317211D01*
X66314284Y-15317211D02*
X66257141Y-15431497D01*
X66257141Y-15431497D02*
X66199999Y-15488640D01*
X66199999Y-15488640D02*
X66085713Y-15545782D01*
X66085713Y-15545782D02*
X65742856Y-15545782D01*
X65742856Y-15545782D02*
X65628570Y-15488640D01*
X65628570Y-15488640D02*
X65571427Y-15431497D01*
X67457141Y-14402925D02*
X67342856Y-14345782D01*
X67342856Y-14345782D02*
X67171427Y-14345782D01*
X67171427Y-14345782D02*
X66999998Y-14402925D01*
X66999998Y-14402925D02*
X66885713Y-14517211D01*
X66885713Y-14517211D02*
X66828570Y-14631497D01*
X66828570Y-14631497D02*
X66771427Y-14860068D01*
X66771427Y-14860068D02*
X66771427Y-15031497D01*
X66771427Y-15031497D02*
X66828570Y-15260068D01*
X66828570Y-15260068D02*
X66885713Y-15374354D01*
X66885713Y-15374354D02*
X66999998Y-15488640D01*
X66999998Y-15488640D02*
X67171427Y-15545782D01*
X67171427Y-15545782D02*
X67285713Y-15545782D01*
X67285713Y-15545782D02*
X67457141Y-15488640D01*
X67457141Y-15488640D02*
X67514284Y-15431497D01*
X67514284Y-15431497D02*
X67514284Y-15031497D01*
X67514284Y-15031497D02*
X67285713Y-15031497D01*
X68942856Y-15545782D02*
X68942856Y-14345782D01*
X68942856Y-14345782D02*
X69399999Y-14345782D01*
X69399999Y-14345782D02*
X69514284Y-14402925D01*
X69514284Y-14402925D02*
X69571427Y-14460068D01*
X69571427Y-14460068D02*
X69628570Y-14574354D01*
X69628570Y-14574354D02*
X69628570Y-14745782D01*
X69628570Y-14745782D02*
X69571427Y-14860068D01*
X69571427Y-14860068D02*
X69514284Y-14917211D01*
X69514284Y-14917211D02*
X69399999Y-14974354D01*
X69399999Y-14974354D02*
X68942856Y-14974354D01*
X70828570Y-15545782D02*
X70428570Y-14974354D01*
X70142856Y-15545782D02*
X70142856Y-14345782D01*
X70142856Y-14345782D02*
X70599999Y-14345782D01*
X70599999Y-14345782D02*
X70714284Y-14402925D01*
X70714284Y-14402925D02*
X70771427Y-14460068D01*
X70771427Y-14460068D02*
X70828570Y-14574354D01*
X70828570Y-14574354D02*
X70828570Y-14745782D01*
X70828570Y-14745782D02*
X70771427Y-14860068D01*
X70771427Y-14860068D02*
X70714284Y-14917211D01*
X70714284Y-14917211D02*
X70599999Y-14974354D01*
X70599999Y-14974354D02*
X70142856Y-14974354D01*
X71571427Y-14345782D02*
X71799999Y-14345782D01*
X71799999Y-14345782D02*
X71914284Y-14402925D01*
X71914284Y-14402925D02*
X72028570Y-14517211D01*
X72028570Y-14517211D02*
X72085713Y-14745782D01*
X72085713Y-14745782D02*
X72085713Y-15145782D01*
X72085713Y-15145782D02*
X72028570Y-15374354D01*
X72028570Y-15374354D02*
X71914284Y-15488640D01*
X71914284Y-15488640D02*
X71799999Y-15545782D01*
X71799999Y-15545782D02*
X71571427Y-15545782D01*
X71571427Y-15545782D02*
X71457142Y-15488640D01*
X71457142Y-15488640D02*
X71342856Y-15374354D01*
X71342856Y-15374354D02*
X71285713Y-15145782D01*
X71285713Y-15145782D02*
X71285713Y-14745782D01*
X71285713Y-14745782D02*
X71342856Y-14517211D01*
X71342856Y-14517211D02*
X71457142Y-14402925D01*
X71457142Y-14402925D02*
X71571427Y-14345782D01*
X72428570Y-14345782D02*
X73114285Y-14345782D01*
X72771427Y-15545782D02*
X72771427Y-14345782D01*
X73742856Y-14345782D02*
X73971428Y-14345782D01*
X73971428Y-14345782D02*
X74085713Y-14402925D01*
X74085713Y-14402925D02*
X74199999Y-14517211D01*
X74199999Y-14517211D02*
X74257142Y-14745782D01*
X74257142Y-14745782D02*
X74257142Y-15145782D01*
X74257142Y-15145782D02*
X74199999Y-15374354D01*
X74199999Y-15374354D02*
X74085713Y-15488640D01*
X74085713Y-15488640D02*
X73971428Y-15545782D01*
X73971428Y-15545782D02*
X73742856Y-15545782D01*
X73742856Y-15545782D02*
X73628571Y-15488640D01*
X73628571Y-15488640D02*
X73514285Y-15374354D01*
X73514285Y-15374354D02*
X73457142Y-15145782D01*
X73457142Y-15145782D02*
X73457142Y-14745782D01*
X73457142Y-14745782D02*
X73514285Y-14517211D01*
X73514285Y-14517211D02*
X73628571Y-14402925D01*
X73628571Y-14402925D02*
X73742856Y-14345782D01*
X74599999Y-14345782D02*
X75285714Y-14345782D01*
X74942856Y-15545782D02*
X74942856Y-14345782D01*
X75914285Y-14974354D02*
X75914285Y-15545782D01*
X75514285Y-14345782D02*
X75914285Y-14974354D01*
X75914285Y-14974354D02*
X76314285Y-14345782D01*
X76714285Y-15545782D02*
X76714285Y-14345782D01*
X76714285Y-14345782D02*
X77171428Y-14345782D01*
X77171428Y-14345782D02*
X77285713Y-14402925D01*
X77285713Y-14402925D02*
X77342856Y-14460068D01*
X77342856Y-14460068D02*
X77399999Y-14574354D01*
X77399999Y-14574354D02*
X77399999Y-14745782D01*
X77399999Y-14745782D02*
X77342856Y-14860068D01*
X77342856Y-14860068D02*
X77285713Y-14917211D01*
X77285713Y-14917211D02*
X77171428Y-14974354D01*
X77171428Y-14974354D02*
X76714285Y-14974354D01*
X77914285Y-14917211D02*
X78314285Y-14917211D01*
X78485713Y-15545782D02*
X77914285Y-15545782D01*
X77914285Y-15545782D02*
X77914285Y-14345782D01*
X77914285Y-14345782D02*
X78485713Y-14345782D01*
X80771428Y-14288640D02*
X79742856Y-15831497D01*
X82485714Y-14917211D02*
X82657142Y-14974354D01*
X82657142Y-14974354D02*
X82714285Y-15031497D01*
X82714285Y-15031497D02*
X82771428Y-15145782D01*
X82771428Y-15145782D02*
X82771428Y-15317211D01*
X82771428Y-15317211D02*
X82714285Y-15431497D01*
X82714285Y-15431497D02*
X82657142Y-15488640D01*
X82657142Y-15488640D02*
X82542857Y-15545782D01*
X82542857Y-15545782D02*
X82085714Y-15545782D01*
X82085714Y-15545782D02*
X82085714Y-14345782D01*
X82085714Y-14345782D02*
X82485714Y-14345782D01*
X82485714Y-14345782D02*
X82600000Y-14402925D01*
X82600000Y-14402925D02*
X82657142Y-14460068D01*
X82657142Y-14460068D02*
X82714285Y-14574354D01*
X82714285Y-14574354D02*
X82714285Y-14688640D01*
X82714285Y-14688640D02*
X82657142Y-14802925D01*
X82657142Y-14802925D02*
X82600000Y-14860068D01*
X82600000Y-14860068D02*
X82485714Y-14917211D01*
X82485714Y-14917211D02*
X82085714Y-14917211D01*
X83285714Y-14917211D02*
X83685714Y-14917211D01*
X83857142Y-15545782D02*
X83285714Y-15545782D01*
X83285714Y-15545782D02*
X83285714Y-14345782D01*
X83285714Y-14345782D02*
X83857142Y-14345782D01*
X84371428Y-15545782D02*
X84371428Y-14345782D01*
X84371428Y-14345782D02*
X85057142Y-15545782D01*
X85057142Y-15545782D02*
X85057142Y-14345782D01*
X86314285Y-15431497D02*
X86257142Y-15488640D01*
X86257142Y-15488640D02*
X86085714Y-15545782D01*
X86085714Y-15545782D02*
X85971428Y-15545782D01*
X85971428Y-15545782D02*
X85799999Y-15488640D01*
X85799999Y-15488640D02*
X85685714Y-15374354D01*
X85685714Y-15374354D02*
X85628571Y-15260068D01*
X85628571Y-15260068D02*
X85571428Y-15031497D01*
X85571428Y-15031497D02*
X85571428Y-14860068D01*
X85571428Y-14860068D02*
X85628571Y-14631497D01*
X85628571Y-14631497D02*
X85685714Y-14517211D01*
X85685714Y-14517211D02*
X85799999Y-14402925D01*
X85799999Y-14402925D02*
X85971428Y-14345782D01*
X85971428Y-14345782D02*
X86085714Y-14345782D01*
X86085714Y-14345782D02*
X86257142Y-14402925D01*
X86257142Y-14402925D02*
X86314285Y-14460068D01*
X86828571Y-15545782D02*
X86828571Y-14345782D01*
X86828571Y-14917211D02*
X87514285Y-14917211D01*
X87514285Y-15545782D02*
X87514285Y-14345782D01*
X89228571Y-14345782D02*
X89457143Y-14345782D01*
X89457143Y-14345782D02*
X89571428Y-14402925D01*
X89571428Y-14402925D02*
X89685714Y-14517211D01*
X89685714Y-14517211D02*
X89742857Y-14745782D01*
X89742857Y-14745782D02*
X89742857Y-15145782D01*
X89742857Y-15145782D02*
X89685714Y-15374354D01*
X89685714Y-15374354D02*
X89571428Y-15488640D01*
X89571428Y-15488640D02*
X89457143Y-15545782D01*
X89457143Y-15545782D02*
X89228571Y-15545782D01*
X89228571Y-15545782D02*
X89114286Y-15488640D01*
X89114286Y-15488640D02*
X89000000Y-15374354D01*
X89000000Y-15374354D02*
X88942857Y-15145782D01*
X88942857Y-15145782D02*
X88942857Y-14745782D01*
X88942857Y-14745782D02*
X89000000Y-14517211D01*
X89000000Y-14517211D02*
X89114286Y-14402925D01*
X89114286Y-14402925D02*
X89228571Y-14345782D01*
X90257143Y-15545782D02*
X90257143Y-14345782D01*
X90257143Y-14345782D02*
X90942857Y-15545782D01*
X90942857Y-15545782D02*
X90942857Y-14345782D01*
X92085714Y-15545782D02*
X91514286Y-15545782D01*
X91514286Y-15545782D02*
X91514286Y-14345782D01*
X92714286Y-14974354D02*
X92714286Y-15545782D01*
X92314286Y-14345782D02*
X92714286Y-14974354D01*
X92714286Y-14974354D02*
X93114286Y-14345782D01*
X109485714Y-87345782D02*
X109485714Y-88317211D01*
X109485714Y-88317211D02*
X109542857Y-88431497D01*
X109542857Y-88431497D02*
X109600000Y-88488640D01*
X109600000Y-88488640D02*
X109714285Y-88545782D01*
X109714285Y-88545782D02*
X109942857Y-88545782D01*
X109942857Y-88545782D02*
X110057142Y-88488640D01*
X110057142Y-88488640D02*
X110114285Y-88431497D01*
X110114285Y-88431497D02*
X110171428Y-88317211D01*
X110171428Y-88317211D02*
X110171428Y-87345782D01*
X110685714Y-88488640D02*
X110857143Y-88545782D01*
X110857143Y-88545782D02*
X111142857Y-88545782D01*
X111142857Y-88545782D02*
X111257143Y-88488640D01*
X111257143Y-88488640D02*
X111314285Y-88431497D01*
X111314285Y-88431497D02*
X111371428Y-88317211D01*
X111371428Y-88317211D02*
X111371428Y-88202925D01*
X111371428Y-88202925D02*
X111314285Y-88088640D01*
X111314285Y-88088640D02*
X111257143Y-88031497D01*
X111257143Y-88031497D02*
X111142857Y-87974354D01*
X111142857Y-87974354D02*
X110914285Y-87917211D01*
X110914285Y-87917211D02*
X110800000Y-87860068D01*
X110800000Y-87860068D02*
X110742857Y-87802925D01*
X110742857Y-87802925D02*
X110685714Y-87688640D01*
X110685714Y-87688640D02*
X110685714Y-87574354D01*
X110685714Y-87574354D02*
X110742857Y-87460068D01*
X110742857Y-87460068D02*
X110800000Y-87402925D01*
X110800000Y-87402925D02*
X110914285Y-87345782D01*
X110914285Y-87345782D02*
X111200000Y-87345782D01*
X111200000Y-87345782D02*
X111371428Y-87402925D01*
X112285714Y-87917211D02*
X112457142Y-87974354D01*
X112457142Y-87974354D02*
X112514285Y-88031497D01*
X112514285Y-88031497D02*
X112571428Y-88145782D01*
X112571428Y-88145782D02*
X112571428Y-88317211D01*
X112571428Y-88317211D02*
X112514285Y-88431497D01*
X112514285Y-88431497D02*
X112457142Y-88488640D01*
X112457142Y-88488640D02*
X112342857Y-88545782D01*
X112342857Y-88545782D02*
X111885714Y-88545782D01*
X111885714Y-88545782D02*
X111885714Y-87345782D01*
X111885714Y-87345782D02*
X112285714Y-87345782D01*
X112285714Y-87345782D02*
X112400000Y-87402925D01*
X112400000Y-87402925D02*
X112457142Y-87460068D01*
X112457142Y-87460068D02*
X112514285Y-87574354D01*
X112514285Y-87574354D02*
X112514285Y-87688640D01*
X112514285Y-87688640D02*
X112457142Y-87802925D01*
X112457142Y-87802925D02*
X112400000Y-87860068D01*
X112400000Y-87860068D02*
X112285714Y-87917211D01*
X112285714Y-87917211D02*
X111885714Y-87917211D01*
D12*
X60647619Y-11889615D02*
X60876191Y-11965805D01*
X60876191Y-11965805D02*
X60952381Y-12041996D01*
X60952381Y-12041996D02*
X61028572Y-12194377D01*
X61028572Y-12194377D02*
X61028572Y-12422948D01*
X61028572Y-12422948D02*
X60952381Y-12575329D01*
X60952381Y-12575329D02*
X60876191Y-12651520D01*
X60876191Y-12651520D02*
X60723810Y-12727710D01*
X60723810Y-12727710D02*
X60114286Y-12727710D01*
X60114286Y-12727710D02*
X60114286Y-11127710D01*
X60114286Y-11127710D02*
X60647619Y-11127710D01*
X60647619Y-11127710D02*
X60800000Y-11203900D01*
X60800000Y-11203900D02*
X60876191Y-11280091D01*
X60876191Y-11280091D02*
X60952381Y-11432472D01*
X60952381Y-11432472D02*
X60952381Y-11584853D01*
X60952381Y-11584853D02*
X60876191Y-11737234D01*
X60876191Y-11737234D02*
X60800000Y-11813424D01*
X60800000Y-11813424D02*
X60647619Y-11889615D01*
X60647619Y-11889615D02*
X60114286Y-11889615D01*
X61714286Y-12727710D02*
X61714286Y-11127710D01*
X61714286Y-11127710D02*
X62247619Y-12270567D01*
X62247619Y-12270567D02*
X62780953Y-11127710D01*
X62780953Y-11127710D02*
X62780953Y-12727710D01*
X63390476Y-11127710D02*
X63771428Y-12727710D01*
X63771428Y-12727710D02*
X64076190Y-11584853D01*
X64076190Y-11584853D02*
X64380952Y-12727710D01*
X64380952Y-12727710D02*
X64761905Y-11127710D01*
X66590476Y-11889615D02*
X67123809Y-11889615D01*
X67352381Y-12727710D02*
X66590476Y-12727710D01*
X66590476Y-12727710D02*
X66590476Y-11127710D01*
X66590476Y-11127710D02*
X67352381Y-11127710D01*
X68114285Y-12727710D02*
X68419047Y-12727710D01*
X68419047Y-12727710D02*
X68571428Y-12651520D01*
X68571428Y-12651520D02*
X68647619Y-12575329D01*
X68647619Y-12575329D02*
X68800000Y-12346758D01*
X68800000Y-12346758D02*
X68876190Y-12041996D01*
X68876190Y-12041996D02*
X68876190Y-11432472D01*
X68876190Y-11432472D02*
X68800000Y-11280091D01*
X68800000Y-11280091D02*
X68723809Y-11203900D01*
X68723809Y-11203900D02*
X68571428Y-11127710D01*
X68571428Y-11127710D02*
X68266666Y-11127710D01*
X68266666Y-11127710D02*
X68114285Y-11203900D01*
X68114285Y-11203900D02*
X68038095Y-11280091D01*
X68038095Y-11280091D02*
X67961904Y-11432472D01*
X67961904Y-11432472D02*
X67961904Y-11813424D01*
X67961904Y-11813424D02*
X68038095Y-11965805D01*
X68038095Y-11965805D02*
X68114285Y-12041996D01*
X68114285Y-12041996D02*
X68266666Y-12118186D01*
X68266666Y-12118186D02*
X68571428Y-12118186D01*
X68571428Y-12118186D02*
X68723809Y-12041996D01*
X68723809Y-12041996D02*
X68800000Y-11965805D01*
X68800000Y-11965805D02*
X68876190Y-11813424D01*
X69409524Y-12727710D02*
X70247619Y-11661043D01*
X69409524Y-11661043D02*
X70247619Y-12727710D01*
X72076191Y-12727710D02*
X72076191Y-11127710D01*
X72990477Y-12727710D02*
X72304762Y-11813424D01*
X72990477Y-11127710D02*
X72076191Y-12041996D01*
X73676191Y-12118186D02*
X74895239Y-12118186D01*
X76571429Y-12575329D02*
X76495238Y-12651520D01*
X76495238Y-12651520D02*
X76266667Y-12727710D01*
X76266667Y-12727710D02*
X76114286Y-12727710D01*
X76114286Y-12727710D02*
X75885714Y-12651520D01*
X75885714Y-12651520D02*
X75733333Y-12499139D01*
X75733333Y-12499139D02*
X75657143Y-12346758D01*
X75657143Y-12346758D02*
X75580952Y-12041996D01*
X75580952Y-12041996D02*
X75580952Y-11813424D01*
X75580952Y-11813424D02*
X75657143Y-11508662D01*
X75657143Y-11508662D02*
X75733333Y-11356281D01*
X75733333Y-11356281D02*
X75885714Y-11203900D01*
X75885714Y-11203900D02*
X76114286Y-11127710D01*
X76114286Y-11127710D02*
X76266667Y-11127710D01*
X76266667Y-11127710D02*
X76495238Y-11203900D01*
X76495238Y-11203900D02*
X76571429Y-11280091D01*
X77180952Y-12270567D02*
X77942857Y-12270567D01*
X77028571Y-12727710D02*
X77561905Y-11127710D01*
X77561905Y-11127710D02*
X78095238Y-12727710D01*
X78628572Y-12727710D02*
X78628572Y-11127710D01*
X78628572Y-11127710D02*
X79542858Y-12727710D01*
X79542858Y-12727710D02*
X79542858Y-11127710D01*
X82438096Y-12727710D02*
X81904762Y-11965805D01*
X81523810Y-12727710D02*
X81523810Y-11127710D01*
X81523810Y-11127710D02*
X82133334Y-11127710D01*
X82133334Y-11127710D02*
X82285715Y-11203900D01*
X82285715Y-11203900D02*
X82361905Y-11280091D01*
X82361905Y-11280091D02*
X82438096Y-11432472D01*
X82438096Y-11432472D02*
X82438096Y-11661043D01*
X82438096Y-11661043D02*
X82361905Y-11813424D01*
X82361905Y-11813424D02*
X82285715Y-11889615D01*
X82285715Y-11889615D02*
X82133334Y-11965805D01*
X82133334Y-11965805D02*
X81523810Y-11965805D01*
X82971429Y-11127710D02*
X84038096Y-12727710D01*
X84038096Y-11127710D02*
X82971429Y-12727710D01*
X84647620Y-12118186D02*
X85866668Y-12118186D01*
X86933334Y-11127710D02*
X87238096Y-11127710D01*
X87238096Y-11127710D02*
X87390477Y-11203900D01*
X87390477Y-11203900D02*
X87542858Y-11356281D01*
X87542858Y-11356281D02*
X87619048Y-11661043D01*
X87619048Y-11661043D02*
X87619048Y-12194377D01*
X87619048Y-12194377D02*
X87542858Y-12499139D01*
X87542858Y-12499139D02*
X87390477Y-12651520D01*
X87390477Y-12651520D02*
X87238096Y-12727710D01*
X87238096Y-12727710D02*
X86933334Y-12727710D01*
X86933334Y-12727710D02*
X86780953Y-12651520D01*
X86780953Y-12651520D02*
X86628572Y-12499139D01*
X86628572Y-12499139D02*
X86552381Y-12194377D01*
X86552381Y-12194377D02*
X86552381Y-11661043D01*
X86552381Y-11661043D02*
X86628572Y-11356281D01*
X86628572Y-11356281D02*
X86780953Y-11203900D01*
X86780953Y-11203900D02*
X86933334Y-11127710D01*
X88304762Y-12727710D02*
X88304762Y-11127710D01*
X88304762Y-11127710D02*
X89219048Y-12727710D01*
X89219048Y-12727710D02*
X89219048Y-11127710D01*
X90742857Y-12727710D02*
X89980952Y-12727710D01*
X89980952Y-12727710D02*
X89980952Y-11127710D01*
X91580952Y-11965805D02*
X91580952Y-12727710D01*
X91047618Y-11127710D02*
X91580952Y-11965805D01*
X91580952Y-11965805D02*
X92114285Y-11127710D01*
%TO.C,C1*%
D13*
X50738748Y-64265000D02*
X51261252Y-64265000D01*
X50738748Y-65735000D02*
X51261252Y-65735000D01*
%TO.C,R12*%
X66772936Y-51265000D02*
X67227064Y-51265000D01*
X66772936Y-52735000D02*
X67227064Y-52735000D01*
%TO.C,J1*%
X22250000Y-74600000D02*
X22250000Y-75850000D01*
X22250000Y-75850000D02*
X23500000Y-75850000D01*
X24800000Y-67950000D02*
X24800000Y-68700000D01*
X24800000Y-68700000D02*
X27750000Y-68700000D01*
X24800000Y-74800000D02*
X27750000Y-74800000D01*
X24800000Y-75550000D02*
X24800000Y-74800000D01*
X27750000Y-68700000D02*
X27750000Y-71750000D01*
X27750000Y-74800000D02*
X27750000Y-71750000D01*
X22540000Y-67940000D02*
X28510000Y-67940000D01*
X28510000Y-75560000D01*
X22540000Y-75560000D01*
X22540000Y-67940000D01*
X22550000Y-67950000D02*
X23300000Y-67950000D01*
X23300000Y-69750000D01*
X22550000Y-69750000D01*
X22550000Y-67950000D01*
X22550000Y-71250000D02*
X23300000Y-71250000D01*
X23300000Y-72250000D01*
X22550000Y-72250000D01*
X22550000Y-71250000D01*
X22550000Y-73750000D02*
X23300000Y-73750000D01*
X23300000Y-75550000D01*
X22550000Y-75550000D01*
X22550000Y-73750000D01*
%TO.C,R15*%
X38772936Y-33265000D02*
X39227064Y-33265000D01*
X38772936Y-34735000D02*
X39227064Y-34735000D01*
%TO.C,U2*%
X83090000Y-46440000D02*
X84910000Y-46440000D01*
X83090000Y-46490000D02*
X83090000Y-46440000D01*
X83090000Y-49560000D02*
X83090000Y-49510000D01*
X84910000Y-46440000D02*
X84910000Y-46490000D01*
X84910000Y-47610000D02*
X84910000Y-48390000D01*
X84910000Y-49510000D02*
X84910000Y-49560000D01*
X84910000Y-49560000D02*
X83090000Y-49560000D01*
X82550000Y-46490000D02*
X82310000Y-46160000D01*
X82790000Y-46160000D01*
X82550000Y-46490000D01*
G36*
X82550000Y-46490000D02*
G01*
X82310000Y-46160000D01*
X82790000Y-46160000D01*
X82550000Y-46490000D01*
G37*
%TO.C,TP1*%
X43950000Y-84000000D02*
G75*
G02*
X42050000Y-84000000I-950000J0D01*
G01*
X42050000Y-84000000D02*
G75*
G02*
X43950000Y-84000000I950000J0D01*
G01*
%TO.C,TP13*%
X24950000Y-19000000D02*
G75*
G02*
X23050000Y-19000000I-950000J0D01*
G01*
X23050000Y-19000000D02*
G75*
G02*
X24950000Y-19000000I950000J0D01*
G01*
%TO.C,R8*%
X73772936Y-34265000D02*
X74227064Y-34265000D01*
X73772936Y-35735000D02*
X74227064Y-35735000D01*
%TO.C,R5*%
X91772936Y-47265000D02*
X92227064Y-47265000D01*
X91772936Y-48735000D02*
X92227064Y-48735000D01*
%TO.C,TP5*%
X84950000Y-19000000D02*
G75*
G02*
X83050000Y-19000000I-950000J0D01*
G01*
X83050000Y-19000000D02*
G75*
G02*
X84950000Y-19000000I950000J0D01*
G01*
%TO.C,U3*%
X55940000Y-69440000D02*
X60060000Y-69440000D01*
X55940000Y-69535000D02*
X55940000Y-69440000D01*
X55940000Y-74560000D02*
X55940000Y-74465000D01*
X60060000Y-69440000D02*
X60060000Y-69535000D01*
X60060000Y-74465000D02*
X60060000Y-74560000D01*
X60060000Y-74560000D02*
X55940000Y-74560000D01*
X55370000Y-69530000D02*
X55130000Y-69200000D01*
X55610000Y-69200000D01*
X55370000Y-69530000D01*
G36*
X55370000Y-69530000D02*
G01*
X55130000Y-69200000D01*
X55610000Y-69200000D01*
X55370000Y-69530000D01*
G37*
%TO.C,JP1*%
X71620000Y-49380000D02*
X71620000Y-48000000D01*
X73000000Y-49380000D02*
X71620000Y-49380000D01*
X74270000Y-46620000D02*
X76920000Y-46620000D01*
X74270000Y-49380000D02*
X74270000Y-46620000D01*
X74270000Y-49380000D02*
X76920000Y-49380000D01*
X76920000Y-49380000D02*
X76920000Y-46620000D01*
%TO.C,TP3*%
X91950000Y-74000000D02*
G75*
G02*
X90050000Y-74000000I-950000J0D01*
G01*
X90050000Y-74000000D02*
G75*
G02*
X91950000Y-74000000I950000J0D01*
G01*
%TO.C,TP9*%
X65950000Y-84000000D02*
G75*
G02*
X64050000Y-84000000I-950000J0D01*
G01*
X64050000Y-84000000D02*
G75*
G02*
X65950000Y-84000000I950000J0D01*
G01*
%TO.C,TP4*%
X86950000Y-25000000D02*
G75*
G02*
X85050000Y-25000000I-950000J0D01*
G01*
X85050000Y-25000000D02*
G75*
G02*
X86950000Y-25000000I950000J0D01*
G01*
%TO.C,C3*%
X64738748Y-56265000D02*
X65261252Y-56265000D01*
X64738748Y-57735000D02*
X65261252Y-57735000D01*
%TO.C,H1*%
X96670000Y-23270000D02*
X96670000Y-76670000D01*
X96670000Y-23270000D02*
X99330000Y-23270000D01*
X96670000Y-76670000D02*
X99330000Y-76670000D01*
X98000000Y-20670000D02*
X99330000Y-20670000D01*
X99330000Y-20670000D02*
X99330000Y-22000000D01*
X99330000Y-23270000D02*
X99330000Y-76670000D01*
%TO.C,R6*%
X73772936Y-30265000D02*
X74227064Y-30265000D01*
X73772936Y-31735000D02*
X74227064Y-31735000D01*
%TO.C,C4*%
X69288748Y-60090000D02*
X70711252Y-60090000D01*
X69288748Y-61910000D02*
X70711252Y-61910000D01*
%TO.C,TP6*%
X64950000Y-19000000D02*
G75*
G02*
X63050000Y-19000000I-950000J0D01*
G01*
X63050000Y-19000000D02*
G75*
G02*
X64950000Y-19000000I950000J0D01*
G01*
%TO.C,R4*%
X88772936Y-54265000D02*
X89227064Y-54265000D01*
X88772936Y-55735000D02*
X89227064Y-55735000D01*
%TO.C,TP12*%
X78950000Y-25000000D02*
G75*
G02*
X77050000Y-25000000I-950000J0D01*
G01*
X77050000Y-25000000D02*
G75*
G02*
X78950000Y-25000000I950000J0D01*
G01*
%TO.C,R11*%
X66772936Y-48265000D02*
X67227064Y-48265000D01*
X66772936Y-49735000D02*
X67227064Y-49735000D01*
%TO.C,R7*%
X80772936Y-30265000D02*
X81227064Y-30265000D01*
X80772936Y-31735000D02*
X81227064Y-31735000D01*
%TO.C,F1*%
X34613748Y-71290000D02*
X37386252Y-71290000D01*
X34613748Y-74710000D02*
X37386252Y-74710000D01*
%TO.C,C5*%
X50738748Y-53265000D02*
X51261252Y-53265000D01*
X50738748Y-54735000D02*
X51261252Y-54735000D01*
%TO.C,TP7*%
X91950000Y-19000000D02*
G75*
G02*
X90050000Y-19000000I-950000J0D01*
G01*
X90050000Y-19000000D02*
G75*
G02*
X91950000Y-19000000I950000J0D01*
G01*
%TO.C,R3*%
X81772936Y-54265000D02*
X82227064Y-54265000D01*
X81772936Y-55735000D02*
X82227064Y-55735000D01*
%TO.C,R10*%
X66772936Y-45265000D02*
X67227064Y-45265000D01*
X66772936Y-46735000D02*
X67227064Y-46735000D01*
%TO.C,C6*%
X83738748Y-40265000D02*
X84261252Y-40265000D01*
X83738748Y-41735000D02*
X84261252Y-41735000D01*
%TO.C,R9*%
X80772936Y-34265000D02*
X81227064Y-34265000D01*
X80772936Y-35735000D02*
X81227064Y-35735000D01*
%TO.C,R2*%
X68772936Y-37265000D02*
X69227064Y-37265000D01*
X68772936Y-38735000D02*
X69227064Y-38735000D01*
%TO.C,C2*%
X64738748Y-64265000D02*
X65261252Y-64265000D01*
X64738748Y-65735000D02*
X65261252Y-65735000D01*
%TO.C,TP2*%
X65950000Y-74000000D02*
G75*
G02*
X64050000Y-74000000I-950000J0D01*
G01*
X64050000Y-74000000D02*
G75*
G02*
X65950000Y-74000000I950000J0D01*
G01*
%TO.C,TP14*%
X31950000Y-19000000D02*
G75*
G02*
X30050000Y-19000000I-950000J0D01*
G01*
X30050000Y-19000000D02*
G75*
G02*
X31950000Y-19000000I950000J0D01*
G01*
%TO.C,TP11*%
X70950000Y-25000000D02*
G75*
G02*
X69050000Y-25000000I-950000J0D01*
G01*
X69050000Y-25000000D02*
G75*
G02*
X70950000Y-25000000I950000J0D01*
G01*
%TO.C,D1*%
X42490000Y-71350000D02*
X42490000Y-74650000D01*
X42490000Y-71350000D02*
X48000000Y-71350000D01*
X42490000Y-74650000D02*
X48000000Y-74650000D01*
%TO.C,J2*%
X22250000Y-30600000D02*
X22250000Y-31850000D01*
X22250000Y-31850000D02*
X23500000Y-31850000D01*
X24800000Y-21450000D02*
X24800000Y-22200000D01*
X24800000Y-22200000D02*
X27750000Y-22200000D01*
X24800000Y-30800000D02*
X27750000Y-30800000D01*
X24800000Y-31550000D02*
X24800000Y-30800000D01*
X27750000Y-22200000D02*
X27750000Y-26500000D01*
X27750000Y-30800000D02*
X27750000Y-26500000D01*
X22540000Y-21440000D02*
X28510000Y-21440000D01*
X28510000Y-31560000D01*
X22540000Y-31560000D01*
X22540000Y-21440000D01*
X22550000Y-21450000D02*
X23300000Y-21450000D01*
X23300000Y-23250000D01*
X22550000Y-23250000D01*
X22550000Y-21450000D01*
X22550000Y-24750000D02*
X23300000Y-24750000D01*
X23300000Y-28250000D01*
X22550000Y-28250000D01*
X22550000Y-24750000D01*
X22550000Y-29750000D02*
X23300000Y-29750000D01*
X23300000Y-31550000D01*
X22550000Y-31550000D01*
X22550000Y-29750000D01*
%TO.C,R13*%
X66772936Y-54265000D02*
X67227064Y-54265000D01*
X66772936Y-55735000D02*
X67227064Y-55735000D01*
%TO.C,R14*%
X38772936Y-27265000D02*
X39227064Y-27265000D01*
X38772936Y-28735000D02*
X39227064Y-28735000D01*
%TO.C,H2*%
X122070000Y-23270000D02*
X122070000Y-76670000D01*
X122070000Y-23270000D02*
X124730000Y-23270000D01*
X122070000Y-76670000D02*
X124730000Y-76670000D01*
X123400000Y-20670000D02*
X124730000Y-20670000D01*
X124730000Y-20670000D02*
X124730000Y-22000000D01*
X124730000Y-23270000D02*
X124730000Y-76670000D01*
%TO.C,U1*%
X51565000Y-38940000D02*
X51630000Y-38940000D01*
X51565000Y-43060000D02*
X51565000Y-38940000D01*
X51630000Y-43060000D02*
X51565000Y-43060000D01*
X60370000Y-38940000D02*
X60435000Y-38940000D01*
X60435000Y-38940000D02*
X60435000Y-43060000D01*
X60435000Y-43060000D02*
X60370000Y-43060000D01*
X51630000Y-43600000D02*
X51300000Y-43840000D01*
X51300000Y-43360000D01*
X51630000Y-43600000D01*
G36*
X51630000Y-43600000D02*
G01*
X51300000Y-43840000D01*
X51300000Y-43360000D01*
X51630000Y-43600000D01*
G37*
%TO.C,TP8*%
X98950000Y-84000000D02*
G75*
G02*
X97050000Y-84000000I-950000J0D01*
G01*
X97050000Y-84000000D02*
G75*
G02*
X98950000Y-84000000I950000J0D01*
G01*
%TO.C,TP10*%
X73950000Y-84000000D02*
G75*
G02*
X72050000Y-84000000I-950000J0D01*
G01*
X72050000Y-84000000D02*
G75*
G02*
X73950000Y-84000000I950000J0D01*
G01*
%TO.C,TP15*%
X38950000Y-19000000D02*
G75*
G02*
X37050000Y-19000000I-950000J0D01*
G01*
X37050000Y-19000000D02*
G75*
G02*
X38950000Y-19000000I950000J0D01*
G01*
%TO.C,R1*%
X44272936Y-56090000D02*
X45727064Y-56090000D01*
X44272936Y-57910000D02*
X45727064Y-57910000D01*
%TD*%
%LPC*%
D14*
%TO.C,C1*%
X50050000Y-65000000D03*
X51950000Y-65000000D03*
%TD*%
D15*
%TO.C,R12*%
X66087500Y-52000000D03*
X67912500Y-52000000D03*
%TD*%
D16*
%TO.C,MH4*%
X136000000Y-86000000D03*
%TD*%
D17*
%TO.C,J1*%
X25000000Y-73000000D03*
D18*
X25000000Y-70500000D03*
%TD*%
D15*
%TO.C,R15*%
X38087500Y-34000000D03*
X39912500Y-34000000D03*
%TD*%
D19*
%TO.C,U2*%
X82862500Y-47050000D03*
X82862500Y-48000000D03*
X82862500Y-48950000D03*
X85137500Y-48950000D03*
X85137500Y-47050000D03*
%TD*%
D20*
%TO.C,TP1*%
X43000000Y-84000000D03*
%TD*%
%TO.C,TP13*%
X24000000Y-19000000D03*
%TD*%
D15*
%TO.C,R8*%
X73087500Y-35000000D03*
X74912500Y-35000000D03*
%TD*%
%TO.C,R5*%
X91087500Y-48000000D03*
X92912500Y-48000000D03*
%TD*%
D20*
%TO.C,TP5*%
X84000000Y-19000000D03*
%TD*%
D21*
%TO.C,U3*%
X55375000Y-70095000D03*
X55375000Y-71365000D03*
X55375000Y-72635000D03*
X55375000Y-73905000D03*
X60625000Y-73905000D03*
X60625000Y-72635000D03*
X60625000Y-71365000D03*
X60625000Y-70095000D03*
D22*
X58000000Y-72000000D03*
%TD*%
D23*
%TO.C,JP1*%
X73000000Y-48000000D03*
D24*
X75540000Y-48000000D03*
%TD*%
D16*
%TO.C,MH2*%
X136000000Y-14000000D03*
%TD*%
D20*
%TO.C,TP3*%
X91000000Y-74000000D03*
%TD*%
%TO.C,TP9*%
X65000000Y-84000000D03*
%TD*%
%TO.C,TP4*%
X86000000Y-25000000D03*
%TD*%
D14*
%TO.C,C3*%
X64050000Y-57000000D03*
X65950000Y-57000000D03*
%TD*%
D23*
%TO.C,H1*%
X98000000Y-22000000D03*
D24*
X98000000Y-24540000D03*
X98000000Y-27080000D03*
X98000000Y-29620000D03*
X98000000Y-32160000D03*
X98000000Y-34700000D03*
X98000000Y-37240000D03*
X98000000Y-39780000D03*
X98000000Y-42320000D03*
X98000000Y-44860000D03*
X98000000Y-47400000D03*
X98000000Y-49940000D03*
X98000000Y-52480000D03*
X98000000Y-55020000D03*
X98000000Y-57560000D03*
X98000000Y-60100000D03*
X98000000Y-62640000D03*
X98000000Y-65180000D03*
X98000000Y-67720000D03*
X98000000Y-70260000D03*
X98000000Y-72800000D03*
X98000000Y-75340000D03*
%TD*%
D15*
%TO.C,R6*%
X73087500Y-31000000D03*
X74912500Y-31000000D03*
%TD*%
D25*
%TO.C,C4*%
X68525000Y-61000000D03*
X71475000Y-61000000D03*
%TD*%
D20*
%TO.C,TP6*%
X64000000Y-19000000D03*
%TD*%
D15*
%TO.C,R4*%
X88087500Y-55000000D03*
X89912500Y-55000000D03*
%TD*%
D20*
%TO.C,TP12*%
X78000000Y-25000000D03*
%TD*%
D15*
%TO.C,R11*%
X66087500Y-49000000D03*
X67912500Y-49000000D03*
%TD*%
%TO.C,R7*%
X80087500Y-31000000D03*
X81912500Y-31000000D03*
%TD*%
D26*
%TO.C,F1*%
X33775000Y-73000000D03*
X38225000Y-73000000D03*
%TD*%
D14*
%TO.C,C5*%
X50050000Y-54000000D03*
X51950000Y-54000000D03*
%TD*%
D20*
%TO.C,TP7*%
X91000000Y-19000000D03*
%TD*%
D15*
%TO.C,R3*%
X81087500Y-55000000D03*
X82912500Y-55000000D03*
%TD*%
%TO.C,R10*%
X66087500Y-46000000D03*
X67912500Y-46000000D03*
%TD*%
D14*
%TO.C,C6*%
X83050000Y-41000000D03*
X84950000Y-41000000D03*
%TD*%
D16*
%TO.C,MH3*%
X24000000Y-86000000D03*
%TD*%
D15*
%TO.C,R9*%
X80087500Y-35000000D03*
X81912500Y-35000000D03*
%TD*%
%TO.C,R2*%
X68087500Y-38000000D03*
X69912500Y-38000000D03*
%TD*%
D14*
%TO.C,C2*%
X64050000Y-65000000D03*
X65950000Y-65000000D03*
%TD*%
D20*
%TO.C,TP2*%
X65000000Y-74000000D03*
%TD*%
%TO.C,TP14*%
X31000000Y-19000000D03*
%TD*%
%TO.C,TP11*%
X70000000Y-25000000D03*
%TD*%
D27*
%TO.C,D1*%
X44000000Y-73000000D03*
X48000000Y-73000000D03*
%TD*%
D28*
%TO.C,J2*%
X25000000Y-29000000D03*
D29*
X25000000Y-26500000D03*
X25000000Y-24000000D03*
%TD*%
D15*
%TO.C,R13*%
X66087500Y-55000000D03*
X67912500Y-55000000D03*
%TD*%
%TO.C,R14*%
X38087500Y-28000000D03*
X39912500Y-28000000D03*
%TD*%
D23*
%TO.C,H2*%
X123400000Y-22000000D03*
D24*
X123400000Y-24540000D03*
X123400000Y-27080000D03*
X123400000Y-29620000D03*
X123400000Y-32160000D03*
X123400000Y-34700000D03*
X123400000Y-37240000D03*
X123400000Y-39780000D03*
X123400000Y-42320000D03*
X123400000Y-44860000D03*
X123400000Y-47400000D03*
X123400000Y-49940000D03*
X123400000Y-52480000D03*
X123400000Y-55020000D03*
X123400000Y-57560000D03*
X123400000Y-60100000D03*
X123400000Y-62640000D03*
X123400000Y-65180000D03*
X123400000Y-67720000D03*
X123400000Y-70260000D03*
X123400000Y-72800000D03*
X123400000Y-75340000D03*
%TD*%
D30*
%TO.C,U1*%
X52190000Y-43475000D03*
X53460000Y-43475000D03*
X54730000Y-43475000D03*
X56000000Y-43475000D03*
X57270000Y-43475000D03*
X58540000Y-43475000D03*
X59810000Y-43475000D03*
X59810000Y-38525000D03*
X58540000Y-38525000D03*
X57270000Y-38525000D03*
X56000000Y-38525000D03*
X54730000Y-38525000D03*
X53460000Y-38525000D03*
X52190000Y-38525000D03*
%TD*%
D20*
%TO.C,TP8*%
X98000000Y-84000000D03*
%TD*%
%TO.C,TP10*%
X73000000Y-84000000D03*
%TD*%
%TO.C,TP15*%
X38000000Y-19000000D03*
%TD*%
D16*
%TO.C,MH1*%
X24000000Y-14000000D03*
%TD*%
D31*
%TO.C,R1*%
X43537500Y-57000000D03*
X46462500Y-57000000D03*
%TD*%
%LPD*%
M02*
