%TF.GenerationSoftware,KiCad,Pcbnew,10.0.6*%
%TF.CreationDate,2026-10-04T02:30:08+02:00*%
%TF.ProjectId,BMW-E9x-KCAN-RXOnly,424d572d-4539-4782-9d4b-43414e2d5258,rev?*%
%TF.SameCoordinates,Original*%
%TF.FileFunction,Copper,L2,Bot*%
%TF.FilePolarity,Positive*%
%FSLAX46Y46*%
G04 Gerber Fmt 4.6, Leading zero omitted, Abs format (unit mm)*
G04 Created by KiCad (PCBNEW 10.0.6) date 2026-10-04 02:30:08*
%MOMM*%
%LPD*%
G01*
G04 APERTURE LIST*
G04 Aperture macros list*
%AMRoundRect*
0 Rectangle with rounded corners*
0 $1 Rounding radius*
0 $2 $3 $4 $5 $6 $7 $8 $9 X,Y pos of 4 corners*
0 Add a 4 corners polygon primitive as box body*
4,1,4,$2,$3,$4,$5,$6,$7,$8,$9,$2,$3,0*
0 Add four circle primitives for the rounded corners*
1,1,$1+$1,$2,$3*
1,1,$1+$1,$4,$5*
1,1,$1+$1,$6,$7*
1,1,$1+$1,$8,$9*
0 Add four rect primitives between the rounded corners*
20,1,$1+$1,$2,$3,$4,$5,0*
20,1,$1+$1,$4,$5,$6,$7,0*
20,1,$1+$1,$6,$7,$8,$9,0*
20,1,$1+$1,$8,$9,$2,$3,0*%
G04 Aperture macros list end*
%TA.AperFunction,ComponentPad*%
%ADD10RoundRect,0.250000X0.750000X-0.600000X0.750000X0.600000X-0.750000X0.600000X-0.750000X-0.600000X0*%
%TD*%
%TA.AperFunction,ComponentPad*%
%ADD11O,2.000000X1.700000*%
%TD*%
%TA.AperFunction,ComponentPad*%
%ADD12R,1.700000X1.700000*%
%TD*%
%TA.AperFunction,ComponentPad*%
%ADD13C,1.700000*%
%TD*%
%TA.AperFunction,ComponentPad*%
%ADD14RoundRect,0.250000X0.725000X-0.600000X0.725000X0.600000X-0.725000X0.600000X-0.725000X-0.600000X0*%
%TD*%
%TA.AperFunction,ComponentPad*%
%ADD15O,1.950000X1.700000*%
%TD*%
%TA.AperFunction,ViaPad*%
%ADD16C,0.600000*%
%TD*%
%TA.AperFunction,Conductor*%
%ADD17C,0.200000*%
%TD*%
G04 APERTURE END LIST*
D10*
%TO.P,J1,1*%
%TO.N,BAT_INPUT*%
X25000000Y-73000000D03*
D11*
%TO.P,J1,2*%
%TO.N,GND*%
X25000000Y-70500000D03*
%TD*%
D12*
%TO.P,JP1,1*%
%TO.N,5V_TJA*%
X73000000Y-48000000D03*
D13*
%TO.P,JP1,2*%
%TO.N,RX_MODE_FEED*%
X75540000Y-48000000D03*
%TD*%
D12*
%TO.P,H1,1*%
%TO.N,3V3*%
X98000000Y-22000000D03*
D13*
%TO.P,H1,2*%
%TO.N,N/C*%
X98000000Y-24540000D03*
%TO.P,H1,3*%
%TO.N,RESET*%
X98000000Y-27080000D03*
%TO.P,H1,4*%
%TO.N,RXD_GPIO*%
X98000000Y-29620000D03*
%TO.P,H1,5*%
%TO.N,TX_GPIO*%
X98000000Y-32160000D03*
%TO.P,H1,6*%
%TO.N,N/C*%
X98000000Y-34700000D03*
%TO.P,H1,7*%
%TO.N,ERR_GPIO*%
X98000000Y-37240000D03*
%TO.P,H1,8*%
%TO.N,N/C*%
X98000000Y-39780000D03*
%TO.P,H1,9*%
X98000000Y-42320000D03*
%TO.P,H1,10*%
X98000000Y-44860000D03*
%TO.P,H1,11*%
X98000000Y-47400000D03*
%TO.P,H1,12*%
X98000000Y-49940000D03*
%TO.P,H1,13*%
X98000000Y-52480000D03*
%TO.P,H1,14*%
X98000000Y-55020000D03*
%TO.P,H1,15*%
X98000000Y-57560000D03*
%TO.P,H1,16*%
X98000000Y-60100000D03*
%TO.P,H1,17*%
X98000000Y-62640000D03*
%TO.P,H1,18*%
X98000000Y-65180000D03*
%TO.P,H1,19*%
X98000000Y-67720000D03*
%TO.P,H1,20*%
X98000000Y-70260000D03*
%TO.P,H1,21*%
X98000000Y-72800000D03*
%TO.P,H1,22*%
X98000000Y-75340000D03*
%TD*%
D14*
%TO.P,J2,1*%
%TO.N,KCAN_H*%
X25000000Y-29000000D03*
D15*
%TO.P,J2,2*%
%TO.N,KCAN_L*%
X25000000Y-26500000D03*
%TO.P,J2,3*%
%TO.N,GND*%
X25000000Y-24000000D03*
%TD*%
D12*
%TO.P,H2,1*%
%TO.N,GND*%
X123400000Y-22000000D03*
D13*
%TO.P,H2,2*%
%TO.N,N/C*%
X123400000Y-24540000D03*
%TO.P,H2,3*%
X123400000Y-27080000D03*
%TO.P,H2,4*%
X123400000Y-29620000D03*
%TO.P,H2,5*%
X123400000Y-32160000D03*
%TO.P,H2,6*%
X123400000Y-34700000D03*
%TO.P,H2,7*%
X123400000Y-37240000D03*
%TO.P,H2,8*%
X123400000Y-39780000D03*
%TO.P,H2,9*%
X123400000Y-42320000D03*
%TO.P,H2,10*%
X123400000Y-44860000D03*
%TO.P,H2,11*%
X123400000Y-47400000D03*
%TO.P,H2,12*%
X123400000Y-49940000D03*
%TO.P,H2,13*%
X123400000Y-52480000D03*
%TO.P,H2,14*%
X123400000Y-55020000D03*
%TO.P,H2,15*%
X123400000Y-57560000D03*
%TO.P,H2,16*%
X123400000Y-60100000D03*
%TO.P,H2,17*%
X123400000Y-62640000D03*
%TO.P,H2,18*%
X123400000Y-65180000D03*
%TO.P,H2,19*%
X123400000Y-67720000D03*
%TO.P,H2,20*%
X123400000Y-70260000D03*
%TO.P,H2,21*%
X123400000Y-72800000D03*
%TO.P,H2,22*%
X123400000Y-75340000D03*
%TD*%
D16*
%TO.N,GND*%
X58800000Y-70000000D03*
X84053400Y-40106600D03*
X57200000Y-74000000D03*
X57200000Y-70000000D03*
X81864000Y-46437500D03*
X58800000Y-74000000D03*
X51978200Y-40007100D03*
%TO.N,EN_SAFE*%
X66966500Y-56510000D03*
X73012300Y-82737600D03*
%TO.N,KCAN_L*%
X31000000Y-20258300D03*
%TO.N,RTL*%
X51461700Y-34468500D03*
X55330700Y-36607800D03*
%TO.N,OE_SAFE*%
X82933700Y-26236400D03*
X83817900Y-55905400D03*
X83658700Y-46253900D03*
%TO.N,TX_GATE_OUT*%
X84890700Y-19890700D03*
X84866600Y-49774700D03*
%TO.N,3V3*%
X91126000Y-38112600D03*
%TO.N,BAT_LOCAL*%
X43894700Y-83105300D03*
X45000000Y-56827700D03*
%TO.N,ERR_OD*%
X75939500Y-35147600D03*
X58506100Y-41595700D03*
%TO.N,TX_GPIO*%
X90843500Y-46791300D03*
%TO.N,5V_TJA*%
X65596500Y-63770200D03*
X65596500Y-70143100D03*
%TO.N,STB_SAFE*%
X64494700Y-46147400D03*
X65898100Y-47779800D03*
X66252300Y-83903500D03*
%TO.N,RESET*%
X98383800Y-82739900D03*
%TO.N,RXD_OD*%
X54677800Y-41066100D03*
X65178300Y-25864600D03*
%TO.N,TXD_SAFE*%
X54481000Y-41983300D03*
X61318300Y-35147600D03*
%TD*%
%TO.N,GND*%
D17*
X25000000Y-70500000D02*
X25000000Y-69348300D01*
X23699900Y-68048200D02*
X23699900Y-25300100D01*
X81864000Y-42296000D02*
X84053400Y-40106600D01*
X25000000Y-69348300D02*
X23699900Y-68048200D01*
X56925000Y-70750000D02*
X51978200Y-65803200D01*
X56925000Y-73250000D02*
X56925000Y-72000000D01*
X56925000Y-72000000D02*
X56925000Y-70750000D01*
X23699900Y-25300100D02*
X25000000Y-24000000D01*
X51978200Y-65803200D02*
X51978200Y-40007100D01*
X81864000Y-46437500D02*
X81864000Y-42296000D01*
%TO.N,EN_SAFE*%
X73012300Y-82737600D02*
X73012300Y-62555800D01*
X73012300Y-62555800D02*
X66966500Y-56510000D01*
%TO.N,KCAN_L*%
X25000000Y-26500000D02*
X25000000Y-25348300D01*
X25910000Y-25348300D02*
X31000000Y-20258300D01*
X25000000Y-25348300D02*
X25910000Y-25348300D01*
%TO.N,RTL*%
X51461700Y-34468500D02*
X53191400Y-34468500D01*
X53191400Y-34468500D02*
X55330700Y-36607800D01*
%TO.N,OE_SAFE*%
X83658700Y-55746200D02*
X83658700Y-46253900D01*
X83817900Y-55905400D02*
X83658700Y-55746200D01*
X84666500Y-45246100D02*
X84666500Y-27969200D01*
X84666500Y-27969200D02*
X82933700Y-26236400D01*
X83658700Y-46253900D02*
X84666500Y-45246100D01*
%TO.N,TX_GATE_OUT*%
X85079500Y-20079500D02*
X84890700Y-19890700D01*
X85079500Y-49561800D02*
X85079500Y-20079500D01*
X84866600Y-49774700D02*
X85079500Y-49561800D01*
%TO.N,3V3*%
X91126000Y-38112600D02*
X91126000Y-29737800D01*
X98000000Y-22000000D02*
X98000000Y-23151700D01*
X97712100Y-23151700D02*
X98000000Y-23151700D01*
X91126000Y-29737800D02*
X97712100Y-23151700D01*
%TO.N,BAT_LOCAL*%
X45000000Y-82000000D02*
X43894700Y-83105300D01*
X45000000Y-56827700D02*
X45000000Y-82000000D01*
%TO.N,ERR_OD*%
X58506100Y-41595700D02*
X69491400Y-41595700D01*
X69491400Y-41595700D02*
X75939500Y-35147600D01*
%TO.N,TX_GPIO*%
X90843500Y-39316500D02*
X90843500Y-46791300D01*
X98000000Y-32160000D02*
X90843500Y-39316500D01*
%TO.N,5V_TJA*%
X65596500Y-70143100D02*
X65596500Y-63770200D01*
X73000000Y-48000000D02*
X73000000Y-49151700D01*
X65596500Y-63770200D02*
X65596500Y-56555200D01*
X65596500Y-56555200D02*
X73000000Y-49151700D01*
%TO.N,STB_SAFE*%
X64494700Y-46147400D02*
X64941300Y-46594000D01*
X64941300Y-47779800D02*
X64941300Y-82592500D01*
X64941300Y-46594000D02*
X64941300Y-47779800D01*
X64941300Y-47779800D02*
X65898100Y-47779800D01*
X64941300Y-82592500D02*
X66252300Y-83903500D01*
%TO.N,RESET*%
X99189700Y-28269700D02*
X99189700Y-81934000D01*
X99189700Y-81934000D02*
X98383800Y-82739900D01*
X98000000Y-27080000D02*
X99189700Y-28269700D01*
%TO.N,RXD_OD*%
X56734700Y-39009200D02*
X56734700Y-34308200D01*
X56734700Y-34308200D02*
X65178300Y-25864600D01*
X54677800Y-41066100D02*
X56734700Y-39009200D01*
%TO.N,TXD_SAFE*%
X61318300Y-35276500D02*
X61318300Y-35147600D01*
X54611500Y-41983300D02*
X61318300Y-35276500D01*
X54481000Y-41983300D02*
X54611500Y-41983300D01*
%TD*%
%TA.AperFunction,Conductor*%
%TO.N,GND*%
G36*
X139143039Y-10819685D02*
G01*
X139188794Y-10872489D01*
X139200000Y-10924000D01*
X139200000Y-89076000D01*
X139180315Y-89143039D01*
X139127511Y-89188794D01*
X139076000Y-89200000D01*
X20924000Y-89200000D01*
X20856961Y-89180315D01*
X20811206Y-89127511D01*
X20800000Y-89076000D01*
X20800000Y-85878711D01*
X22149500Y-85878711D01*
X22149500Y-86121288D01*
X22181161Y-86361785D01*
X22243947Y-86596104D01*
X22336773Y-86820205D01*
X22336776Y-86820212D01*
X22458064Y-87030289D01*
X22458066Y-87030292D01*
X22458067Y-87030293D01*
X22605733Y-87222736D01*
X22605739Y-87222743D01*
X22777256Y-87394260D01*
X22777262Y-87394265D01*
X22969711Y-87541936D01*
X23179788Y-87663224D01*
X23403900Y-87756054D01*
X23638211Y-87818838D01*
X23818586Y-87842584D01*
X23878711Y-87850500D01*
X23878712Y-87850500D01*
X24121289Y-87850500D01*
X24169388Y-87844167D01*
X24361789Y-87818838D01*
X24596100Y-87756054D01*
X24820212Y-87663224D01*
X25030289Y-87541936D01*
X25222738Y-87394265D01*
X25394265Y-87222738D01*
X25541936Y-87030289D01*
X25663224Y-86820212D01*
X25756054Y-86596100D01*
X25818838Y-86361789D01*
X25850500Y-86121288D01*
X25850500Y-85878712D01*
X25850500Y-85878711D01*
X134149500Y-85878711D01*
X134149500Y-86121288D01*
X134181161Y-86361785D01*
X134243947Y-86596104D01*
X134336773Y-86820205D01*
X134336776Y-86820212D01*
X134458064Y-87030289D01*
X134458066Y-87030292D01*
X134458067Y-87030293D01*
X134605733Y-87222736D01*
X134605739Y-87222743D01*
X134777256Y-87394260D01*
X134777262Y-87394265D01*
X134969711Y-87541936D01*
X135179788Y-87663224D01*
X135403900Y-87756054D01*
X135638211Y-87818838D01*
X135818586Y-87842584D01*
X135878711Y-87850500D01*
X135878712Y-87850500D01*
X136121289Y-87850500D01*
X136169388Y-87844167D01*
X136361789Y-87818838D01*
X136596100Y-87756054D01*
X136820212Y-87663224D01*
X137030289Y-87541936D01*
X137222738Y-87394265D01*
X137394265Y-87222738D01*
X137541936Y-87030289D01*
X137663224Y-86820212D01*
X137756054Y-86596100D01*
X137818838Y-86361789D01*
X137850500Y-86121288D01*
X137850500Y-85878712D01*
X137818838Y-85638211D01*
X137756054Y-85403900D01*
X137663224Y-85179788D01*
X137541936Y-84969711D01*
X137394265Y-84777262D01*
X137394260Y-84777256D01*
X137222743Y-84605739D01*
X137222736Y-84605733D01*
X137030293Y-84458067D01*
X137030292Y-84458066D01*
X137030289Y-84458064D01*
X136820212Y-84336776D01*
X136820205Y-84336773D01*
X136596104Y-84243947D01*
X136361785Y-84181161D01*
X136121289Y-84149500D01*
X136121288Y-84149500D01*
X135878712Y-84149500D01*
X135878711Y-84149500D01*
X135638214Y-84181161D01*
X135403895Y-84243947D01*
X135179794Y-84336773D01*
X135179785Y-84336777D01*
X134969706Y-84458067D01*
X134777263Y-84605733D01*
X134777256Y-84605739D01*
X134605739Y-84777256D01*
X134605733Y-84777263D01*
X134458067Y-84969706D01*
X134336777Y-85179785D01*
X134336773Y-85179794D01*
X134243947Y-85403895D01*
X134181161Y-85638214D01*
X134149500Y-85878711D01*
X25850500Y-85878711D01*
X25818838Y-85638211D01*
X25756054Y-85403900D01*
X25663224Y-85179788D01*
X25541936Y-84969711D01*
X25394265Y-84777262D01*
X25394260Y-84777256D01*
X25222743Y-84605739D01*
X25222736Y-84605733D01*
X25030293Y-84458067D01*
X25030292Y-84458066D01*
X25030289Y-84458064D01*
X24820212Y-84336776D01*
X24820205Y-84336773D01*
X24596104Y-84243947D01*
X24361785Y-84181161D01*
X24121289Y-84149500D01*
X24121288Y-84149500D01*
X23878712Y-84149500D01*
X23878711Y-84149500D01*
X23638214Y-84181161D01*
X23403895Y-84243947D01*
X23179794Y-84336773D01*
X23179785Y-84336777D01*
X22969706Y-84458067D01*
X22777263Y-84605733D01*
X22777256Y-84605739D01*
X22605739Y-84777256D01*
X22605733Y-84777263D01*
X22458067Y-84969706D01*
X22336777Y-85179785D01*
X22336773Y-85179794D01*
X22243947Y-85403895D01*
X22181161Y-85638214D01*
X22149500Y-85878711D01*
X20800000Y-85878711D01*
X20800000Y-83026243D01*
X43294200Y-83026243D01*
X43294200Y-83184357D01*
X43325991Y-83303000D01*
X43335123Y-83337083D01*
X43335126Y-83337090D01*
X43414175Y-83474009D01*
X43414179Y-83474014D01*
X43414180Y-83474016D01*
X43525984Y-83585820D01*
X43525986Y-83585821D01*
X43525990Y-83585824D01*
X43662909Y-83664873D01*
X43662916Y-83664877D01*
X43815643Y-83705800D01*
X43815645Y-83705800D01*
X43973755Y-83705800D01*
X43973757Y-83705800D01*
X44126484Y-83664877D01*
X44263416Y-83585820D01*
X44375220Y-83474016D01*
X44454277Y-83337084D01*
X44495200Y-83184357D01*
X44495200Y-83122555D01*
X44514885Y-83055516D01*
X44531519Y-83034874D01*
X44921167Y-82645226D01*
X45320480Y-82245913D01*
X45373207Y-82154588D01*
X45400500Y-82052727D01*
X45400500Y-81947273D01*
X45400500Y-57327798D01*
X45420185Y-57260759D01*
X45436819Y-57240117D01*
X45480520Y-57196416D01*
X45559577Y-57059484D01*
X45600500Y-56906757D01*
X45600500Y-56748643D01*
X45559577Y-56595916D01*
X45555617Y-56589057D01*
X45480524Y-56458990D01*
X45480518Y-56458982D01*
X45368717Y-56347181D01*
X45368709Y-56347175D01*
X45231790Y-56268126D01*
X45231786Y-56268124D01*
X45231784Y-56268123D01*
X45079057Y-56227200D01*
X44920943Y-56227200D01*
X44768216Y-56268123D01*
X44768209Y-56268126D01*
X44631290Y-56347175D01*
X44631282Y-56347181D01*
X44519481Y-56458982D01*
X44519475Y-56458990D01*
X44440426Y-56595909D01*
X44440423Y-56595916D01*
X44399500Y-56748643D01*
X44399500Y-56906757D01*
X44421946Y-56990524D01*
X44440423Y-57059483D01*
X44440426Y-57059490D01*
X44519475Y-57196409D01*
X44519481Y-57196417D01*
X44563181Y-57240117D01*
X44596666Y-57301440D01*
X44599500Y-57327798D01*
X44599500Y-81782745D01*
X44579815Y-81849784D01*
X44563181Y-81870426D01*
X43965126Y-82468481D01*
X43903803Y-82501966D01*
X43877445Y-82504800D01*
X43815643Y-82504800D01*
X43662916Y-82545723D01*
X43662909Y-82545726D01*
X43525990Y-82624775D01*
X43525982Y-82624781D01*
X43414181Y-82736582D01*
X43414175Y-82736590D01*
X43335126Y-82873509D01*
X43335123Y-82873516D01*
X43294200Y-83026243D01*
X20800000Y-83026243D01*
X20800000Y-70250000D01*
X23522769Y-70250000D01*
X24566988Y-70250000D01*
X24534075Y-70307007D01*
X24500000Y-70434174D01*
X24500000Y-70565826D01*
X24534075Y-70692993D01*
X24566988Y-70750000D01*
X23522769Y-70750000D01*
X23533242Y-70816126D01*
X23533242Y-70816129D01*
X23598904Y-71018217D01*
X23695379Y-71207557D01*
X23820272Y-71379459D01*
X23820276Y-71379464D01*
X23970535Y-71529723D01*
X23970540Y-71529727D01*
X24134560Y-71648894D01*
X24177226Y-71704223D01*
X24183205Y-71773837D01*
X24150600Y-71835632D01*
X24107166Y-71864566D01*
X23977658Y-71915638D01*
X23857077Y-72007077D01*
X23765639Y-72127656D01*
X23710122Y-72268438D01*
X23704188Y-72317853D01*
X23699500Y-72356898D01*
X23699500Y-73643102D01*
X23703637Y-73677553D01*
X23710122Y-73731561D01*
X23765639Y-73872343D01*
X23857077Y-73992922D01*
X23977656Y-74084360D01*
X23977657Y-74084360D01*
X23977658Y-74084361D01*
X24118436Y-74139877D01*
X24206898Y-74150500D01*
X24206903Y-74150500D01*
X25793097Y-74150500D01*
X25793102Y-74150500D01*
X25881564Y-74139877D01*
X26022342Y-74084361D01*
X26142922Y-73992922D01*
X26234361Y-73872342D01*
X26289877Y-73731564D01*
X26300500Y-73643102D01*
X26300500Y-72356898D01*
X26289877Y-72268436D01*
X26234361Y-72127658D01*
X26234360Y-72127657D01*
X26234360Y-72127656D01*
X26142922Y-72007077D01*
X26022341Y-71915638D01*
X25892833Y-71864566D01*
X25837690Y-71821660D01*
X25814497Y-71755752D01*
X25830618Y-71687768D01*
X25865439Y-71648893D01*
X26029466Y-71529721D01*
X26179723Y-71379464D01*
X26179727Y-71379459D01*
X26304620Y-71207557D01*
X26401095Y-71018217D01*
X26466757Y-70816129D01*
X26466757Y-70816126D01*
X26477231Y-70750000D01*
X25433012Y-70750000D01*
X25465925Y-70692993D01*
X25500000Y-70565826D01*
X25500000Y-70434174D01*
X25465925Y-70307007D01*
X25433012Y-70250000D01*
X26477231Y-70250000D01*
X26466757Y-70183873D01*
X26466757Y-70183870D01*
X26401095Y-69981782D01*
X26304620Y-69792442D01*
X26179727Y-69620540D01*
X26179723Y-69620535D01*
X26029464Y-69470276D01*
X26029459Y-69470272D01*
X25857557Y-69345379D01*
X25668217Y-69248904D01*
X25466129Y-69183242D01*
X25256246Y-69150000D01*
X25250000Y-69150000D01*
X25250000Y-70066988D01*
X25192993Y-70034075D01*
X25065826Y-70000000D01*
X24934174Y-70000000D01*
X24807007Y-70034075D01*
X24750000Y-70066988D01*
X24750000Y-69150000D01*
X24743754Y-69150000D01*
X24533872Y-69183242D01*
X24533869Y-69183242D01*
X24331782Y-69248904D01*
X24142442Y-69345379D01*
X23970540Y-69470272D01*
X23970535Y-69470276D01*
X23820276Y-69620535D01*
X23820272Y-69620540D01*
X23695379Y-69792442D01*
X23598904Y-69981782D01*
X23533242Y-70183870D01*
X23533242Y-70183873D01*
X23522769Y-70250000D01*
X20800000Y-70250000D01*
X20800000Y-46068343D01*
X63894200Y-46068343D01*
X63894200Y-46226457D01*
X63935043Y-46378883D01*
X63935123Y-46379183D01*
X63935126Y-46379190D01*
X64014175Y-46516109D01*
X64014179Y-46516114D01*
X64014180Y-46516116D01*
X64125984Y-46627920D01*
X64125986Y-46627921D01*
X64125990Y-46627924D01*
X64192490Y-46666317D01*
X64262916Y-46706977D01*
X64415643Y-46747900D01*
X64416800Y-46747900D01*
X64417738Y-46748175D01*
X64423703Y-46748961D01*
X64423580Y-46749891D01*
X64483839Y-46767585D01*
X64529594Y-46820389D01*
X64540800Y-46871900D01*
X64540800Y-47727073D01*
X64540800Y-82539773D01*
X64540800Y-82645227D01*
X64544984Y-82660843D01*
X64568093Y-82747089D01*
X64573904Y-82757153D01*
X64620820Y-82838413D01*
X64620822Y-82838415D01*
X65615481Y-83833074D01*
X65648966Y-83894397D01*
X65651800Y-83920755D01*
X65651800Y-83982556D01*
X65692723Y-84135283D01*
X65692726Y-84135290D01*
X65771775Y-84272209D01*
X65771779Y-84272214D01*
X65771780Y-84272216D01*
X65883584Y-84384020D01*
X65883586Y-84384021D01*
X65883590Y-84384024D01*
X66011833Y-84458064D01*
X66020516Y-84463077D01*
X66173243Y-84504000D01*
X66173245Y-84504000D01*
X66331355Y-84504000D01*
X66331357Y-84504000D01*
X66484084Y-84463077D01*
X66621016Y-84384020D01*
X66732820Y-84272216D01*
X66811877Y-84135284D01*
X66852800Y-83982557D01*
X66852800Y-83824443D01*
X66811877Y-83671716D01*
X66762288Y-83585824D01*
X66732824Y-83534790D01*
X66732818Y-83534782D01*
X66621017Y-83422981D01*
X66621009Y-83422975D01*
X66484090Y-83343926D01*
X66484086Y-83343924D01*
X66484084Y-83343923D01*
X66331357Y-83303000D01*
X66331356Y-83303000D01*
X66269555Y-83303000D01*
X66202516Y-83283315D01*
X66181874Y-83266681D01*
X65378119Y-82462926D01*
X65344634Y-82401603D01*
X65341800Y-82375245D01*
X65341800Y-70858136D01*
X65361485Y-70791097D01*
X65414289Y-70745342D01*
X65483447Y-70735398D01*
X65497880Y-70738358D01*
X65517443Y-70743600D01*
X65517446Y-70743600D01*
X65675555Y-70743600D01*
X65675557Y-70743600D01*
X65828284Y-70702677D01*
X65965216Y-70623620D01*
X66077020Y-70511816D01*
X66156077Y-70374884D01*
X66197000Y-70222157D01*
X66197000Y-70064043D01*
X66156077Y-69911316D01*
X66102410Y-69818361D01*
X66077024Y-69774390D01*
X66077018Y-69774382D01*
X66033319Y-69730683D01*
X65999834Y-69669360D01*
X65997000Y-69643002D01*
X65997000Y-64270298D01*
X66016685Y-64203259D01*
X66033319Y-64182617D01*
X66077020Y-64138916D01*
X66156077Y-64001984D01*
X66197000Y-63849257D01*
X66197000Y-63691143D01*
X66156077Y-63538416D01*
X66144035Y-63517558D01*
X66077024Y-63401490D01*
X66077018Y-63401482D01*
X66033319Y-63357783D01*
X65999834Y-63296460D01*
X65997000Y-63270102D01*
X65997000Y-56772454D01*
X66016685Y-56705415D01*
X66033315Y-56684777D01*
X66164056Y-56554036D01*
X66225378Y-56520552D01*
X66295070Y-56525536D01*
X66351003Y-56567408D01*
X66371511Y-56609624D01*
X66406923Y-56741785D01*
X66406926Y-56741790D01*
X66485975Y-56878709D01*
X66485979Y-56878714D01*
X66485980Y-56878716D01*
X66597784Y-56990520D01*
X66597786Y-56990521D01*
X66597790Y-56990524D01*
X66734709Y-57069573D01*
X66734716Y-57069577D01*
X66887443Y-57110500D01*
X66949245Y-57110500D01*
X67016284Y-57130185D01*
X67036926Y-57146819D01*
X72575481Y-62685374D01*
X72608966Y-62746697D01*
X72611800Y-62773055D01*
X72611800Y-82237502D01*
X72592115Y-82304541D01*
X72575481Y-82325183D01*
X72531781Y-82368882D01*
X72531775Y-82368890D01*
X72452726Y-82505809D01*
X72452723Y-82505816D01*
X72411800Y-82658543D01*
X72411800Y-82816657D01*
X72427036Y-82873516D01*
X72452723Y-82969383D01*
X72452726Y-82969390D01*
X72531775Y-83106309D01*
X72531779Y-83106314D01*
X72531780Y-83106316D01*
X72643584Y-83218120D01*
X72643586Y-83218121D01*
X72643590Y-83218124D01*
X72756506Y-83283315D01*
X72780516Y-83297177D01*
X72933243Y-83338100D01*
X72933245Y-83338100D01*
X73091355Y-83338100D01*
X73091357Y-83338100D01*
X73244084Y-83297177D01*
X73381016Y-83218120D01*
X73492820Y-83106316D01*
X73571877Y-82969384D01*
X73612800Y-82816657D01*
X73612800Y-82658543D01*
X73571877Y-82505816D01*
X73526146Y-82426607D01*
X73492824Y-82368890D01*
X73492818Y-82368882D01*
X73449119Y-82325183D01*
X73415634Y-82263860D01*
X73412800Y-82237502D01*
X73412800Y-62503075D01*
X73412800Y-62503073D01*
X73385507Y-62401213D01*
X73332780Y-62309887D01*
X73258213Y-62235320D01*
X67603319Y-56580426D01*
X67569834Y-56519103D01*
X67567000Y-56492745D01*
X67567000Y-56430945D01*
X67567000Y-56430943D01*
X67526077Y-56278216D01*
X67526073Y-56278209D01*
X67447024Y-56141290D01*
X67447018Y-56141282D01*
X67335217Y-56029481D01*
X67335209Y-56029475D01*
X67198290Y-55950426D01*
X67198285Y-55950423D01*
X67142528Y-55935483D01*
X67066121Y-55915010D01*
X67006463Y-55878646D01*
X66975934Y-55815799D01*
X66984229Y-55746423D01*
X67010533Y-55707558D01*
X73320480Y-49397613D01*
X73373207Y-49306288D01*
X73390323Y-49242405D01*
X73426687Y-49182746D01*
X73489534Y-49152216D01*
X73510098Y-49150499D01*
X73894856Y-49150499D01*
X73894864Y-49150499D01*
X73894879Y-49150497D01*
X73894882Y-49150497D01*
X73919987Y-49147586D01*
X73919988Y-49147585D01*
X73919991Y-49147585D01*
X74022765Y-49102206D01*
X74102206Y-49022765D01*
X74147585Y-48919991D01*
X74150500Y-48894865D01*
X74150499Y-48157125D01*
X74170183Y-48090089D01*
X74222987Y-48044334D01*
X74292146Y-48034390D01*
X74355702Y-48063415D01*
X74393476Y-48122193D01*
X74396972Y-48137729D01*
X74417829Y-48269410D01*
X74473787Y-48441636D01*
X74473788Y-48441639D01*
X74556006Y-48602997D01*
X74662441Y-48749494D01*
X74662445Y-48749499D01*
X74790500Y-48877554D01*
X74790505Y-48877558D01*
X74901523Y-48958216D01*
X74937006Y-48983996D01*
X75013094Y-49022765D01*
X75098360Y-49066211D01*
X75098363Y-49066212D01*
X75184476Y-49094191D01*
X75270591Y-49122171D01*
X75353429Y-49135291D01*
X75449449Y-49150500D01*
X75449454Y-49150500D01*
X75630551Y-49150500D01*
X75717259Y-49136765D01*
X75809409Y-49122171D01*
X75981639Y-49066211D01*
X76142994Y-48983996D01*
X76289501Y-48877553D01*
X76417553Y-48749501D01*
X76523996Y-48602994D01*
X76606211Y-48441639D01*
X76662171Y-48269409D01*
X76676765Y-48177259D01*
X76690500Y-48090551D01*
X76690500Y-47909448D01*
X76674019Y-47805397D01*
X76662171Y-47730591D01*
X76606211Y-47558361D01*
X76606211Y-47558360D01*
X76571657Y-47490546D01*
X76523996Y-47397006D01*
X76510396Y-47378287D01*
X76417558Y-47250505D01*
X76417554Y-47250500D01*
X76289499Y-47122445D01*
X76289494Y-47122441D01*
X76142997Y-47016006D01*
X76142996Y-47016005D01*
X76142994Y-47016004D01*
X76066906Y-46977235D01*
X75981639Y-46933788D01*
X75981636Y-46933787D01*
X75809410Y-46877829D01*
X75630551Y-46849500D01*
X75630546Y-46849500D01*
X75449454Y-46849500D01*
X75449449Y-46849500D01*
X75270589Y-46877829D01*
X75098363Y-46933787D01*
X75098360Y-46933788D01*
X74937002Y-47016006D01*
X74790505Y-47122441D01*
X74790500Y-47122445D01*
X74662445Y-47250500D01*
X74662441Y-47250505D01*
X74556006Y-47397002D01*
X74473788Y-47558360D01*
X74473787Y-47558363D01*
X74417829Y-47730589D01*
X74396972Y-47862271D01*
X74367042Y-47925405D01*
X74307731Y-47962336D01*
X74237868Y-47961338D01*
X74179636Y-47922728D01*
X74151522Y-47858764D01*
X74150499Y-47842872D01*
X74150499Y-47105143D01*
X74150499Y-47105136D01*
X74150497Y-47105117D01*
X74147586Y-47080012D01*
X74147585Y-47080010D01*
X74147585Y-47080009D01*
X74102206Y-46977235D01*
X74022765Y-46897794D01*
X74022763Y-46897793D01*
X73919992Y-46852415D01*
X73894865Y-46849500D01*
X72105143Y-46849500D01*
X72105117Y-46849502D01*
X72080012Y-46852413D01*
X72080008Y-46852415D01*
X71977235Y-46897793D01*
X71897794Y-46977234D01*
X71852415Y-47080006D01*
X71852415Y-47080008D01*
X71849500Y-47105131D01*
X71849500Y-48894856D01*
X71849502Y-48894882D01*
X71852413Y-48919987D01*
X71852415Y-48919991D01*
X71897793Y-49022764D01*
X71897794Y-49022765D01*
X71977235Y-49102206D01*
X72080009Y-49147585D01*
X72105135Y-49150500D01*
X72135443Y-49150499D01*
X72202480Y-49170182D01*
X72248237Y-49222984D01*
X72258182Y-49292142D01*
X72229159Y-49355699D01*
X72223125Y-49362180D01*
X65553481Y-56031825D01*
X65492158Y-56065310D01*
X65422466Y-56060326D01*
X65366533Y-56018454D01*
X65342116Y-55952990D01*
X65341800Y-55944144D01*
X65341800Y-48366792D01*
X65361485Y-48299753D01*
X65414289Y-48253998D01*
X65483447Y-48244054D01*
X65527800Y-48259405D01*
X65529382Y-48260318D01*
X65529384Y-48260320D01*
X65666316Y-48339377D01*
X65819043Y-48380300D01*
X65819045Y-48380300D01*
X65977155Y-48380300D01*
X65977157Y-48380300D01*
X66129884Y-48339377D01*
X66266816Y-48260320D01*
X66378620Y-48148516D01*
X66457677Y-48011584D01*
X66498600Y-47858857D01*
X66498600Y-47700743D01*
X66457677Y-47548016D01*
X66424497Y-47490546D01*
X66378624Y-47411090D01*
X66378618Y-47411082D01*
X66266817Y-47299281D01*
X66266809Y-47299275D01*
X66129890Y-47220226D01*
X66129886Y-47220224D01*
X66129884Y-47220223D01*
X65977157Y-47179300D01*
X65819043Y-47179300D01*
X65666316Y-47220223D01*
X65666315Y-47220223D01*
X65527799Y-47300195D01*
X65459899Y-47316667D01*
X65393872Y-47293814D01*
X65350682Y-47238892D01*
X65341800Y-47192807D01*
X65341800Y-46541275D01*
X65341800Y-46541273D01*
X65314507Y-46439413D01*
X65314507Y-46439412D01*
X65300992Y-46416004D01*
X65275299Y-46371502D01*
X65275298Y-46371501D01*
X65261780Y-46348087D01*
X65187213Y-46273520D01*
X65187212Y-46273519D01*
X65182882Y-46269189D01*
X65182882Y-46269188D01*
X65182876Y-46269183D01*
X65131518Y-46217824D01*
X65098034Y-46156501D01*
X65095200Y-46130144D01*
X65095200Y-46068345D01*
X65095200Y-46068343D01*
X65054277Y-45915616D01*
X65036706Y-45885182D01*
X64975224Y-45778690D01*
X64975218Y-45778682D01*
X64863417Y-45666881D01*
X64863409Y-45666875D01*
X64726490Y-45587826D01*
X64726486Y-45587824D01*
X64726484Y-45587823D01*
X64573757Y-45546900D01*
X64415643Y-45546900D01*
X64262916Y-45587823D01*
X64262909Y-45587826D01*
X64125990Y-45666875D01*
X64125982Y-45666881D01*
X64014181Y-45778682D01*
X64014175Y-45778690D01*
X63935126Y-45915609D01*
X63935123Y-45915616D01*
X63894200Y-46068343D01*
X20800000Y-46068343D01*
X20800000Y-41904243D01*
X53880500Y-41904243D01*
X53880500Y-42062357D01*
X53886846Y-42086038D01*
X53921423Y-42215083D01*
X53921426Y-42215090D01*
X54000475Y-42352009D01*
X54000479Y-42352014D01*
X54000480Y-42352016D01*
X54112284Y-42463820D01*
X54112286Y-42463821D01*
X54112290Y-42463824D01*
X54249209Y-42542873D01*
X54249216Y-42542877D01*
X54401943Y-42583800D01*
X54401945Y-42583800D01*
X54560055Y-42583800D01*
X54560057Y-42583800D01*
X54712784Y-42542877D01*
X54849716Y-42463820D01*
X54961520Y-42352016D01*
X55040577Y-42215084D01*
X55066555Y-42118128D01*
X55098646Y-42062545D01*
X55644548Y-41516643D01*
X57905600Y-41516643D01*
X57905600Y-41674757D01*
X57926168Y-41751516D01*
X57946523Y-41827483D01*
X57946526Y-41827490D01*
X58025575Y-41964409D01*
X58025579Y-41964414D01*
X58025580Y-41964416D01*
X58137384Y-42076220D01*
X58137386Y-42076221D01*
X58137390Y-42076224D01*
X58274309Y-42155273D01*
X58274316Y-42155277D01*
X58427043Y-42196200D01*
X58427045Y-42196200D01*
X58585155Y-42196200D01*
X58585157Y-42196200D01*
X58737884Y-42155277D01*
X58874816Y-42076220D01*
X58918517Y-42032519D01*
X58979840Y-41999034D01*
X59006198Y-41996200D01*
X69544125Y-41996200D01*
X69544127Y-41996200D01*
X69645988Y-41968907D01*
X69737313Y-41916180D01*
X75869074Y-35784419D01*
X75930397Y-35750934D01*
X75956755Y-35748100D01*
X76018555Y-35748100D01*
X76018557Y-35748100D01*
X76171284Y-35707177D01*
X76308216Y-35628120D01*
X76420020Y-35516316D01*
X76499077Y-35379384D01*
X76540000Y-35226657D01*
X76540000Y-35068543D01*
X76499077Y-34915816D01*
X76472048Y-34869000D01*
X76420024Y-34778890D01*
X76420018Y-34778882D01*
X76308217Y-34667081D01*
X76308209Y-34667075D01*
X76171290Y-34588026D01*
X76171286Y-34588024D01*
X76171284Y-34588023D01*
X76018557Y-34547100D01*
X75860443Y-34547100D01*
X75707716Y-34588023D01*
X75707709Y-34588026D01*
X75570790Y-34667075D01*
X75570782Y-34667081D01*
X75458981Y-34778882D01*
X75458975Y-34778890D01*
X75379926Y-34915809D01*
X75379923Y-34915816D01*
X75339000Y-35068543D01*
X75339000Y-35130345D01*
X75319315Y-35197384D01*
X75302681Y-35218026D01*
X69361826Y-41158881D01*
X69300503Y-41192366D01*
X69274145Y-41195200D01*
X59006198Y-41195200D01*
X58939159Y-41175515D01*
X58918517Y-41158881D01*
X58874817Y-41115181D01*
X58874809Y-41115175D01*
X58737890Y-41036126D01*
X58737886Y-41036124D01*
X58737884Y-41036123D01*
X58585157Y-40995200D01*
X58427043Y-40995200D01*
X58274316Y-41036123D01*
X58274309Y-41036126D01*
X58137390Y-41115175D01*
X58137382Y-41115181D01*
X58025581Y-41226982D01*
X58025575Y-41226990D01*
X57946526Y-41363909D01*
X57946523Y-41363916D01*
X57905600Y-41516643D01*
X55644548Y-41516643D01*
X61395358Y-35765832D01*
X61450941Y-35733741D01*
X61550084Y-35707177D01*
X61550088Y-35707174D01*
X61550090Y-35707174D01*
X61687009Y-35628124D01*
X61687008Y-35628124D01*
X61687016Y-35628120D01*
X61798820Y-35516316D01*
X61877877Y-35379384D01*
X61918800Y-35226657D01*
X61918800Y-35068543D01*
X61877877Y-34915816D01*
X61850848Y-34869000D01*
X61798824Y-34778890D01*
X61798818Y-34778882D01*
X61687017Y-34667081D01*
X61687009Y-34667075D01*
X61550090Y-34588026D01*
X61550086Y-34588024D01*
X61550084Y-34588023D01*
X61397357Y-34547100D01*
X61239243Y-34547100D01*
X61086516Y-34588023D01*
X61086509Y-34588026D01*
X60949590Y-34667075D01*
X60949582Y-34667081D01*
X60837781Y-34778882D01*
X60837775Y-34778890D01*
X60758726Y-34915809D01*
X60758723Y-34915816D01*
X60717800Y-35068543D01*
X60717800Y-35226656D01*
X60718861Y-35234718D01*
X60716743Y-35234996D01*
X60715345Y-35293572D01*
X60684917Y-35343489D01*
X57346881Y-38681526D01*
X57285558Y-38715011D01*
X57215866Y-38710027D01*
X57159933Y-38668155D01*
X57135516Y-38602691D01*
X57135200Y-38593845D01*
X57135200Y-34525454D01*
X57154885Y-34458415D01*
X57171519Y-34437773D01*
X65107873Y-26501419D01*
X65169196Y-26467934D01*
X65195554Y-26465100D01*
X65257355Y-26465100D01*
X65257357Y-26465100D01*
X65410084Y-26424177D01*
X65547016Y-26345120D01*
X65658820Y-26233316D01*
X65702683Y-26157343D01*
X82333200Y-26157343D01*
X82333200Y-26315457D01*
X82373297Y-26465099D01*
X82374123Y-26468183D01*
X82374126Y-26468190D01*
X82453175Y-26605109D01*
X82453179Y-26605114D01*
X82453180Y-26605116D01*
X82564984Y-26716920D01*
X82564986Y-26716921D01*
X82564990Y-26716924D01*
X82655898Y-26769409D01*
X82701916Y-26795977D01*
X82854643Y-26836900D01*
X82916445Y-26836900D01*
X82983484Y-26856585D01*
X83004126Y-26873219D01*
X84229681Y-28098774D01*
X84263166Y-28160097D01*
X84266000Y-28186455D01*
X84266000Y-45028845D01*
X84246315Y-45095884D01*
X84229681Y-45116526D01*
X83729126Y-45617081D01*
X83667803Y-45650566D01*
X83641445Y-45653400D01*
X83579643Y-45653400D01*
X83426916Y-45694323D01*
X83426909Y-45694326D01*
X83289990Y-45773375D01*
X83289982Y-45773381D01*
X83178181Y-45885182D01*
X83178175Y-45885190D01*
X83099126Y-46022109D01*
X83099123Y-46022116D01*
X83058200Y-46174843D01*
X83058200Y-46332957D01*
X83086725Y-46439412D01*
X83099123Y-46485683D01*
X83099126Y-46485690D01*
X83178175Y-46622609D01*
X83178181Y-46622617D01*
X83221881Y-46666317D01*
X83255366Y-46727640D01*
X83258200Y-46753998D01*
X83258200Y-55657750D01*
X83253975Y-55689842D01*
X83217400Y-55826343D01*
X83217400Y-55984457D01*
X83239065Y-56065310D01*
X83258323Y-56137183D01*
X83258326Y-56137190D01*
X83337375Y-56274109D01*
X83337379Y-56274114D01*
X83337380Y-56274116D01*
X83449184Y-56385920D01*
X83449186Y-56385921D01*
X83449190Y-56385924D01*
X83575732Y-56458982D01*
X83586116Y-56464977D01*
X83738843Y-56505900D01*
X83738845Y-56505900D01*
X83896955Y-56505900D01*
X83896957Y-56505900D01*
X84049684Y-56464977D01*
X84186616Y-56385920D01*
X84298420Y-56274116D01*
X84377477Y-56137184D01*
X84418400Y-55984457D01*
X84418400Y-55826343D01*
X84377477Y-55673616D01*
X84368317Y-55657750D01*
X84298424Y-55536690D01*
X84298418Y-55536682D01*
X84186617Y-55424881D01*
X84186612Y-55424877D01*
X84121200Y-55387112D01*
X84072985Y-55336545D01*
X84059200Y-55279725D01*
X84059200Y-50023468D01*
X84078885Y-49956429D01*
X84131689Y-49910674D01*
X84200847Y-49900730D01*
X84264403Y-49929755D01*
X84302177Y-49988533D01*
X84302975Y-49991375D01*
X84307023Y-50006483D01*
X84307026Y-50006490D01*
X84386075Y-50143409D01*
X84386079Y-50143414D01*
X84386080Y-50143416D01*
X84497884Y-50255220D01*
X84497886Y-50255221D01*
X84497890Y-50255224D01*
X84634809Y-50334273D01*
X84634816Y-50334277D01*
X84787543Y-50375200D01*
X84787545Y-50375200D01*
X84945655Y-50375200D01*
X84945657Y-50375200D01*
X85098384Y-50334277D01*
X85235316Y-50255220D01*
X85347120Y-50143416D01*
X85426177Y-50006484D01*
X85467100Y-49853757D01*
X85467100Y-49695643D01*
X85467100Y-49687515D01*
X85468097Y-49687515D01*
X85470572Y-49649709D01*
X85480000Y-49614527D01*
X85480000Y-49509073D01*
X85480000Y-46712243D01*
X90243000Y-46712243D01*
X90243000Y-46870357D01*
X90282027Y-47016006D01*
X90283923Y-47023083D01*
X90283926Y-47023090D01*
X90362975Y-47160009D01*
X90362979Y-47160014D01*
X90362980Y-47160016D01*
X90474784Y-47271820D01*
X90474786Y-47271821D01*
X90474790Y-47271824D01*
X90552462Y-47316667D01*
X90611716Y-47350877D01*
X90764443Y-47391800D01*
X90764445Y-47391800D01*
X90922555Y-47391800D01*
X90922557Y-47391800D01*
X91075284Y-47350877D01*
X91212216Y-47271820D01*
X91324020Y-47160016D01*
X91403077Y-47023084D01*
X91444000Y-46870357D01*
X91444000Y-46712243D01*
X91403077Y-46559516D01*
X91392546Y-46541275D01*
X91324024Y-46422590D01*
X91324018Y-46422582D01*
X91280319Y-46378883D01*
X91246834Y-46317560D01*
X91244000Y-46291202D01*
X91244000Y-39533754D01*
X91263685Y-39466715D01*
X91280314Y-39446078D01*
X97460719Y-33265672D01*
X97522040Y-33232189D01*
X97586716Y-33235424D01*
X97730591Y-33282171D01*
X97803639Y-33293740D01*
X97890678Y-33307527D01*
X97953813Y-33337456D01*
X97990744Y-33396768D01*
X97989746Y-33466631D01*
X97951136Y-33524863D01*
X97890678Y-33552473D01*
X97730589Y-33577829D01*
X97558363Y-33633787D01*
X97558360Y-33633788D01*
X97397006Y-33716003D01*
X97265747Y-33811367D01*
X97265740Y-33811373D01*
X97250499Y-33822447D01*
X97122447Y-33950499D01*
X97111373Y-33965740D01*
X97111367Y-33965747D01*
X97016003Y-34097006D01*
X96933788Y-34258360D01*
X96933787Y-34258363D01*
X96877829Y-34430589D01*
X96849500Y-34609448D01*
X96849500Y-34790551D01*
X96877829Y-34969410D01*
X96933787Y-35141636D01*
X96933788Y-35141639D01*
X96977108Y-35226657D01*
X97011203Y-35293572D01*
X97016006Y-35302997D01*
X97122441Y-35449494D01*
X97122445Y-35449499D01*
X97250500Y-35577554D01*
X97250505Y-35577558D01*
X97320104Y-35628124D01*
X97397006Y-35683996D01*
X97502484Y-35737740D01*
X97558360Y-35766211D01*
X97558363Y-35766212D01*
X97614400Y-35784419D01*
X97730591Y-35822171D01*
X97803639Y-35833740D01*
X97890678Y-35847527D01*
X97953813Y-35877456D01*
X97990744Y-35936768D01*
X97989746Y-36006631D01*
X97951136Y-36064863D01*
X97890678Y-36092473D01*
X97730589Y-36117829D01*
X97558363Y-36173787D01*
X97558360Y-36173788D01*
X97397002Y-36256006D01*
X97250505Y-36362441D01*
X97250500Y-36362445D01*
X97122445Y-36490500D01*
X97122441Y-36490505D01*
X97016006Y-36637002D01*
X96933788Y-36798360D01*
X96933787Y-36798363D01*
X96877829Y-36970589D01*
X96849500Y-37149448D01*
X96849500Y-37330551D01*
X96877829Y-37509410D01*
X96933787Y-37681636D01*
X96933788Y-37681639D01*
X97016006Y-37842997D01*
X97122441Y-37989494D01*
X97122445Y-37989499D01*
X97250500Y-38117554D01*
X97250505Y-38117558D01*
X97352495Y-38191657D01*
X97397006Y-38223996D01*
X97502484Y-38277740D01*
X97558360Y-38306211D01*
X97558363Y-38306212D01*
X97635597Y-38331306D01*
X97730591Y-38362171D01*
X97803639Y-38373740D01*
X97890678Y-38387527D01*
X97953813Y-38417456D01*
X97990744Y-38476768D01*
X97989746Y-38546631D01*
X97951136Y-38604863D01*
X97890678Y-38632473D01*
X97730589Y-38657829D01*
X97558363Y-38713787D01*
X97558360Y-38713788D01*
X97397002Y-38796006D01*
X97250505Y-38902441D01*
X97250500Y-38902445D01*
X97122445Y-39030500D01*
X97122441Y-39030505D01*
X97016006Y-39177002D01*
X96933788Y-39338360D01*
X96933787Y-39338363D01*
X96877829Y-39510589D01*
X96849500Y-39689448D01*
X96849500Y-39870551D01*
X96877829Y-40049410D01*
X96933787Y-40221636D01*
X96933788Y-40221639D01*
X97016006Y-40382997D01*
X97122441Y-40529494D01*
X97122445Y-40529499D01*
X97250500Y-40657554D01*
X97250505Y-40657558D01*
X97305330Y-40697390D01*
X97397006Y-40763996D01*
X97502484Y-40817740D01*
X97558360Y-40846211D01*
X97558363Y-40846212D01*
X97635597Y-40871306D01*
X97730591Y-40902171D01*
X97803639Y-40913740D01*
X97890678Y-40927527D01*
X97953813Y-40957456D01*
X97990744Y-41016768D01*
X97989746Y-41086631D01*
X97951136Y-41144863D01*
X97890678Y-41172473D01*
X97730589Y-41197829D01*
X97558363Y-41253787D01*
X97558360Y-41253788D01*
X97397002Y-41336006D01*
X97250505Y-41442441D01*
X97250500Y-41442445D01*
X97122445Y-41570500D01*
X97122441Y-41570505D01*
X97016006Y-41717002D01*
X96933788Y-41878360D01*
X96933787Y-41878363D01*
X96877829Y-42050589D01*
X96849500Y-42229448D01*
X96849500Y-42410551D01*
X96877829Y-42589410D01*
X96933787Y-42761636D01*
X96933788Y-42761639D01*
X97016006Y-42922997D01*
X97122441Y-43069494D01*
X97122445Y-43069499D01*
X97250500Y-43197554D01*
X97250505Y-43197558D01*
X97374071Y-43287333D01*
X97397006Y-43303996D01*
X97502484Y-43357740D01*
X97558360Y-43386211D01*
X97558363Y-43386212D01*
X97635597Y-43411306D01*
X97730591Y-43442171D01*
X97803639Y-43453740D01*
X97890678Y-43467527D01*
X97953813Y-43497456D01*
X97990744Y-43556768D01*
X97989746Y-43626631D01*
X97951136Y-43684863D01*
X97890678Y-43712473D01*
X97730589Y-43737829D01*
X97558363Y-43793787D01*
X97558360Y-43793788D01*
X97397002Y-43876006D01*
X97250505Y-43982441D01*
X97250500Y-43982445D01*
X97122445Y-44110500D01*
X97122441Y-44110505D01*
X97016006Y-44257002D01*
X96933788Y-44418360D01*
X96933787Y-44418363D01*
X96877829Y-44590589D01*
X96849500Y-44769448D01*
X96849500Y-44950551D01*
X96877829Y-45129410D01*
X96933787Y-45301636D01*
X96933788Y-45301639D01*
X97016006Y-45462997D01*
X97122441Y-45609494D01*
X97122445Y-45609499D01*
X97250500Y-45737554D01*
X97250505Y-45737558D01*
X97374071Y-45827333D01*
X97397006Y-45843996D01*
X97502484Y-45897740D01*
X97558360Y-45926211D01*
X97558363Y-45926212D01*
X97635597Y-45951306D01*
X97730591Y-45982171D01*
X97803639Y-45993740D01*
X97890678Y-46007527D01*
X97953813Y-46037456D01*
X97990744Y-46096768D01*
X97989746Y-46166631D01*
X97951136Y-46224863D01*
X97890678Y-46252473D01*
X97730589Y-46277829D01*
X97558363Y-46333787D01*
X97558360Y-46333788D01*
X97397002Y-46416006D01*
X97250505Y-46522441D01*
X97250500Y-46522445D01*
X97122445Y-46650500D01*
X97122441Y-46650505D01*
X97016006Y-46797002D01*
X96933788Y-46958360D01*
X96933787Y-46958363D01*
X96877829Y-47130589D01*
X96849500Y-47309448D01*
X96849500Y-47490551D01*
X96877829Y-47669410D01*
X96933787Y-47841636D01*
X96933788Y-47841639D01*
X97016006Y-48002997D01*
X97122441Y-48149494D01*
X97122445Y-48149499D01*
X97250500Y-48277554D01*
X97250505Y-48277558D01*
X97335593Y-48339377D01*
X97397006Y-48383996D01*
X97502484Y-48437740D01*
X97558360Y-48466211D01*
X97558363Y-48466212D01*
X97635597Y-48491306D01*
X97730591Y-48522171D01*
X97803639Y-48533740D01*
X97890678Y-48547527D01*
X97953813Y-48577456D01*
X97990744Y-48636768D01*
X97989746Y-48706631D01*
X97951136Y-48764863D01*
X97890678Y-48792473D01*
X97730589Y-48817829D01*
X97558363Y-48873787D01*
X97558360Y-48873788D01*
X97397002Y-48956006D01*
X97250505Y-49062441D01*
X97250500Y-49062445D01*
X97122445Y-49190500D01*
X97122441Y-49190505D01*
X97016006Y-49337002D01*
X96933788Y-49498360D01*
X96933787Y-49498363D01*
X96877829Y-49670589D01*
X96849500Y-49849448D01*
X96849500Y-50030551D01*
X96877829Y-50209410D01*
X96933787Y-50381636D01*
X96933788Y-50381639D01*
X97016006Y-50542997D01*
X97122441Y-50689494D01*
X97122445Y-50689499D01*
X97250500Y-50817554D01*
X97250505Y-50817558D01*
X97374071Y-50907333D01*
X97397006Y-50923996D01*
X97502484Y-50977740D01*
X97558360Y-51006211D01*
X97558363Y-51006212D01*
X97635597Y-51031306D01*
X97730591Y-51062171D01*
X97803639Y-51073740D01*
X97890678Y-51087527D01*
X97953813Y-51117456D01*
X97990744Y-51176768D01*
X97989746Y-51246631D01*
X97951136Y-51304863D01*
X97890678Y-51332473D01*
X97730589Y-51357829D01*
X97558363Y-51413787D01*
X97558360Y-51413788D01*
X97397002Y-51496006D01*
X97250505Y-51602441D01*
X97250500Y-51602445D01*
X97122445Y-51730500D01*
X97122441Y-51730505D01*
X97016006Y-51877002D01*
X96933788Y-52038360D01*
X96933787Y-52038363D01*
X96877829Y-52210589D01*
X96849500Y-52389448D01*
X96849500Y-52570551D01*
X96877829Y-52749410D01*
X96933787Y-52921636D01*
X96933788Y-52921639D01*
X97016006Y-53082997D01*
X97122441Y-53229494D01*
X97122445Y-53229499D01*
X97250500Y-53357554D01*
X97250505Y-53357558D01*
X97374071Y-53447333D01*
X97397006Y-53463996D01*
X97502484Y-53517740D01*
X97558360Y-53546211D01*
X97558363Y-53546212D01*
X97635597Y-53571306D01*
X97730591Y-53602171D01*
X97803639Y-53613740D01*
X97890678Y-53627527D01*
X97953813Y-53657456D01*
X97990744Y-53716768D01*
X97989746Y-53786631D01*
X97951136Y-53844863D01*
X97890678Y-53872473D01*
X97730589Y-53897829D01*
X97558363Y-53953787D01*
X97558360Y-53953788D01*
X97397002Y-54036006D01*
X97250505Y-54142441D01*
X97250500Y-54142445D01*
X97122445Y-54270500D01*
X97122441Y-54270505D01*
X97016006Y-54417002D01*
X96933788Y-54578360D01*
X96933787Y-54578363D01*
X96877829Y-54750589D01*
X96849500Y-54929448D01*
X96849500Y-55110551D01*
X96877829Y-55289410D01*
X96933787Y-55461636D01*
X96933788Y-55461639D01*
X97016006Y-55622997D01*
X97122441Y-55769494D01*
X97122445Y-55769499D01*
X97250500Y-55897554D01*
X97250505Y-55897558D01*
X97326802Y-55952990D01*
X97397006Y-56003996D01*
X97502484Y-56057740D01*
X97558360Y-56086211D01*
X97558363Y-56086212D01*
X97635597Y-56111306D01*
X97730591Y-56142171D01*
X97803639Y-56153740D01*
X97890678Y-56167527D01*
X97953813Y-56197456D01*
X97990744Y-56256768D01*
X97989746Y-56326631D01*
X97951136Y-56384863D01*
X97890678Y-56412473D01*
X97730589Y-56437829D01*
X97558363Y-56493787D01*
X97558360Y-56493788D01*
X97397002Y-56576006D01*
X97250505Y-56682441D01*
X97250500Y-56682445D01*
X97122445Y-56810500D01*
X97122441Y-56810505D01*
X97016006Y-56957002D01*
X96933788Y-57118360D01*
X96933787Y-57118363D01*
X96877829Y-57290589D01*
X96849500Y-57469448D01*
X96849500Y-57650551D01*
X96877829Y-57829410D01*
X96933787Y-58001636D01*
X96933788Y-58001639D01*
X97016006Y-58162997D01*
X97122441Y-58309494D01*
X97122445Y-58309499D01*
X97250500Y-58437554D01*
X97250505Y-58437558D01*
X97374071Y-58527333D01*
X97397006Y-58543996D01*
X97502484Y-58597740D01*
X97558360Y-58626211D01*
X97558363Y-58626212D01*
X97635597Y-58651306D01*
X97730591Y-58682171D01*
X97803639Y-58693740D01*
X97890678Y-58707527D01*
X97953813Y-58737456D01*
X97990744Y-58796768D01*
X97989746Y-58866631D01*
X97951136Y-58924863D01*
X97890678Y-58952473D01*
X97730589Y-58977829D01*
X97558363Y-59033787D01*
X97558360Y-59033788D01*
X97397002Y-59116006D01*
X97250505Y-59222441D01*
X97250500Y-59222445D01*
X97122445Y-59350500D01*
X97122441Y-59350505D01*
X97016006Y-59497002D01*
X96933788Y-59658360D01*
X96933787Y-59658363D01*
X96877829Y-59830589D01*
X96849500Y-60009448D01*
X96849500Y-60190551D01*
X96877829Y-60369410D01*
X96933787Y-60541636D01*
X96933788Y-60541639D01*
X97016006Y-60702997D01*
X97122441Y-60849494D01*
X97122445Y-60849499D01*
X97250500Y-60977554D01*
X97250505Y-60977558D01*
X97374071Y-61067333D01*
X97397006Y-61083996D01*
X97502484Y-61137740D01*
X97558360Y-61166211D01*
X97558363Y-61166212D01*
X97635597Y-61191306D01*
X97730591Y-61222171D01*
X97803639Y-61233740D01*
X97890678Y-61247527D01*
X97953813Y-61277456D01*
X97990744Y-61336768D01*
X97989746Y-61406631D01*
X97951136Y-61464863D01*
X97890678Y-61492473D01*
X97730589Y-61517829D01*
X97558363Y-61573787D01*
X97558360Y-61573788D01*
X97397002Y-61656006D01*
X97250505Y-61762441D01*
X97250500Y-61762445D01*
X97122445Y-61890500D01*
X97122441Y-61890505D01*
X97016006Y-62037002D01*
X96933788Y-62198360D01*
X96933787Y-62198363D01*
X96877829Y-62370589D01*
X96849500Y-62549448D01*
X96849500Y-62730551D01*
X96877829Y-62909410D01*
X96933787Y-63081636D01*
X96933788Y-63081639D01*
X97016006Y-63242997D01*
X97122441Y-63389494D01*
X97122445Y-63389499D01*
X97250500Y-63517554D01*
X97250505Y-63517558D01*
X97374071Y-63607333D01*
X97397006Y-63623996D01*
X97502484Y-63677740D01*
X97558360Y-63706211D01*
X97558363Y-63706212D01*
X97635597Y-63731306D01*
X97730591Y-63762171D01*
X97803639Y-63773740D01*
X97890678Y-63787527D01*
X97953813Y-63817456D01*
X97990744Y-63876768D01*
X97989746Y-63946631D01*
X97951136Y-64004863D01*
X97890678Y-64032473D01*
X97730589Y-64057829D01*
X97558363Y-64113787D01*
X97558360Y-64113788D01*
X97397002Y-64196006D01*
X97250505Y-64302441D01*
X97250500Y-64302445D01*
X97122445Y-64430500D01*
X97122441Y-64430505D01*
X97016006Y-64577002D01*
X96933788Y-64738360D01*
X96933787Y-64738363D01*
X96877829Y-64910589D01*
X96849500Y-65089448D01*
X96849500Y-65270551D01*
X96877829Y-65449410D01*
X96933787Y-65621636D01*
X96933788Y-65621639D01*
X97016006Y-65782997D01*
X97122441Y-65929494D01*
X97122445Y-65929499D01*
X97250500Y-66057554D01*
X97250505Y-66057558D01*
X97374071Y-66147333D01*
X97397006Y-66163996D01*
X97502484Y-66217740D01*
X97558360Y-66246211D01*
X97558363Y-66246212D01*
X97635597Y-66271306D01*
X97730591Y-66302171D01*
X97803639Y-66313740D01*
X97890678Y-66327527D01*
X97953813Y-66357456D01*
X97990744Y-66416768D01*
X97989746Y-66486631D01*
X97951136Y-66544863D01*
X97890678Y-66572473D01*
X97730589Y-66597829D01*
X97558363Y-66653787D01*
X97558360Y-66653788D01*
X97397002Y-66736006D01*
X97250505Y-66842441D01*
X97250500Y-66842445D01*
X97122445Y-66970500D01*
X97122441Y-66970505D01*
X97016006Y-67117002D01*
X96933788Y-67278360D01*
X96933787Y-67278363D01*
X96877829Y-67450589D01*
X96849500Y-67629448D01*
X96849500Y-67810551D01*
X96877829Y-67989410D01*
X96933787Y-68161636D01*
X96933788Y-68161639D01*
X97016006Y-68322997D01*
X97122441Y-68469494D01*
X97122445Y-68469499D01*
X97250500Y-68597554D01*
X97250505Y-68597558D01*
X97374071Y-68687333D01*
X97397006Y-68703996D01*
X97502484Y-68757740D01*
X97558360Y-68786211D01*
X97558363Y-68786212D01*
X97635597Y-68811306D01*
X97730591Y-68842171D01*
X97803639Y-68853740D01*
X97890678Y-68867527D01*
X97953813Y-68897456D01*
X97990744Y-68956768D01*
X97989746Y-69026631D01*
X97951136Y-69084863D01*
X97890678Y-69112473D01*
X97730589Y-69137829D01*
X97558363Y-69193787D01*
X97558360Y-69193788D01*
X97397002Y-69276006D01*
X97250505Y-69382441D01*
X97250500Y-69382445D01*
X97122445Y-69510500D01*
X97122441Y-69510505D01*
X97016006Y-69657002D01*
X96933788Y-69818360D01*
X96933787Y-69818363D01*
X96877829Y-69990589D01*
X96849500Y-70169448D01*
X96849500Y-70350551D01*
X96877829Y-70529410D01*
X96933787Y-70701636D01*
X96933788Y-70701639D01*
X97016006Y-70862997D01*
X97122441Y-71009494D01*
X97122445Y-71009499D01*
X97250500Y-71137554D01*
X97250505Y-71137558D01*
X97346852Y-71207557D01*
X97397006Y-71243996D01*
X97502484Y-71297740D01*
X97558360Y-71326211D01*
X97558363Y-71326212D01*
X97635597Y-71351306D01*
X97730591Y-71382171D01*
X97803639Y-71393740D01*
X97890678Y-71407527D01*
X97953813Y-71437456D01*
X97990744Y-71496768D01*
X97989746Y-71566631D01*
X97951136Y-71624863D01*
X97890678Y-71652473D01*
X97730589Y-71677829D01*
X97558363Y-71733787D01*
X97558360Y-71733788D01*
X97397002Y-71816006D01*
X97250505Y-71922441D01*
X97250500Y-71922445D01*
X97122445Y-72050500D01*
X97122441Y-72050505D01*
X97016006Y-72197002D01*
X96933788Y-72358360D01*
X96933787Y-72358363D01*
X96877829Y-72530589D01*
X96849500Y-72709448D01*
X96849500Y-72890551D01*
X96877829Y-73069410D01*
X96933787Y-73241636D01*
X96933788Y-73241639D01*
X97016006Y-73402997D01*
X97122441Y-73549494D01*
X97122445Y-73549499D01*
X97250500Y-73677554D01*
X97250505Y-73677558D01*
X97324835Y-73731561D01*
X97397006Y-73783996D01*
X97502484Y-73837740D01*
X97558360Y-73866211D01*
X97558363Y-73866212D01*
X97635597Y-73891306D01*
X97730591Y-73922171D01*
X97803639Y-73933740D01*
X97890678Y-73947527D01*
X97953813Y-73977456D01*
X97990744Y-74036768D01*
X97989746Y-74106631D01*
X97951136Y-74164863D01*
X97890678Y-74192473D01*
X97730589Y-74217829D01*
X97558363Y-74273787D01*
X97558360Y-74273788D01*
X97397002Y-74356006D01*
X97250505Y-74462441D01*
X97250500Y-74462445D01*
X97122445Y-74590500D01*
X97122441Y-74590505D01*
X97016006Y-74737002D01*
X96933788Y-74898360D01*
X96933787Y-74898363D01*
X96877829Y-75070589D01*
X96849500Y-75249448D01*
X96849500Y-75430551D01*
X96877829Y-75609410D01*
X96933787Y-75781636D01*
X96933788Y-75781639D01*
X97016006Y-75942997D01*
X97122441Y-76089494D01*
X97122445Y-76089499D01*
X97250500Y-76217554D01*
X97250505Y-76217558D01*
X97374071Y-76307333D01*
X97397006Y-76323996D01*
X97502484Y-76377740D01*
X97558360Y-76406211D01*
X97558363Y-76406212D01*
X97635597Y-76431306D01*
X97730591Y-76462171D01*
X97813429Y-76475291D01*
X97909449Y-76490500D01*
X97909454Y-76490500D01*
X98090551Y-76490500D01*
X98177259Y-76476765D01*
X98269409Y-76462171D01*
X98441639Y-76406211D01*
X98602994Y-76323996D01*
X98602994Y-76323995D01*
X98607335Y-76321784D01*
X98608200Y-76323483D01*
X98667804Y-76307333D01*
X98734415Y-76328421D01*
X98779051Y-76382175D01*
X98789200Y-76431306D01*
X98789200Y-81716745D01*
X98769515Y-81783784D01*
X98752881Y-81804426D01*
X98454226Y-82103081D01*
X98392903Y-82136566D01*
X98366545Y-82139400D01*
X98304743Y-82139400D01*
X98152016Y-82180323D01*
X98152009Y-82180326D01*
X98015090Y-82259375D01*
X98015082Y-82259381D01*
X97903281Y-82371182D01*
X97903275Y-82371190D01*
X97824226Y-82508109D01*
X97824223Y-82508116D01*
X97783300Y-82660843D01*
X97783300Y-82818957D01*
X97823609Y-82969390D01*
X97824223Y-82971683D01*
X97824226Y-82971690D01*
X97903275Y-83108609D01*
X97903279Y-83108614D01*
X97903280Y-83108616D01*
X98015084Y-83220420D01*
X98015086Y-83220421D01*
X98015090Y-83220424D01*
X98148032Y-83297177D01*
X98152016Y-83299477D01*
X98304743Y-83340400D01*
X98304745Y-83340400D01*
X98462855Y-83340400D01*
X98462857Y-83340400D01*
X98615584Y-83299477D01*
X98752516Y-83220420D01*
X98864320Y-83108616D01*
X98943377Y-82971684D01*
X98984300Y-82818957D01*
X98984300Y-82757153D01*
X99003985Y-82690114D01*
X99020615Y-82669476D01*
X99425403Y-82264687D01*
X99425408Y-82264684D01*
X99435611Y-82254480D01*
X99435613Y-82254480D01*
X99510180Y-82179913D01*
X99562907Y-82088587D01*
X99563766Y-82085378D01*
X99572517Y-82052726D01*
X99579990Y-82024831D01*
X99590201Y-81986727D01*
X99590201Y-81881273D01*
X99590201Y-81873678D01*
X99590200Y-81873660D01*
X99590200Y-28216976D01*
X99590200Y-28216973D01*
X99571240Y-28146211D01*
X99562907Y-28115112D01*
X99510180Y-28023787D01*
X99105674Y-27619281D01*
X99072189Y-27557958D01*
X99075423Y-27493284D01*
X99122171Y-27349409D01*
X99137995Y-27249501D01*
X99150500Y-27170551D01*
X99150500Y-26989448D01*
X99132090Y-26873219D01*
X99122171Y-26810591D01*
X99066211Y-26638361D01*
X99066211Y-26638360D01*
X99037740Y-26582484D01*
X98983996Y-26477006D01*
X98888176Y-26345120D01*
X98877558Y-26330505D01*
X98877554Y-26330500D01*
X98749499Y-26202445D01*
X98749494Y-26202441D01*
X98602997Y-26096006D01*
X98602996Y-26096005D01*
X98602994Y-26096004D01*
X98529114Y-26058360D01*
X98441639Y-26013788D01*
X98441636Y-26013787D01*
X98269410Y-25957829D01*
X98109321Y-25932473D01*
X98046186Y-25902544D01*
X98009255Y-25843232D01*
X98010253Y-25773370D01*
X98048863Y-25715137D01*
X98109321Y-25687527D01*
X98179425Y-25676422D01*
X98269409Y-25662171D01*
X98441639Y-25606211D01*
X98602994Y-25523996D01*
X98749501Y-25417553D01*
X98877553Y-25289501D01*
X98983996Y-25142994D01*
X99066211Y-24981639D01*
X99122171Y-24809409D01*
X99138303Y-24707557D01*
X99150500Y-24630551D01*
X99150500Y-24449448D01*
X99129383Y-24316126D01*
X99122171Y-24270591D01*
X99066211Y-24098361D01*
X99066211Y-24098360D01*
X99016093Y-24000000D01*
X98983996Y-23937006D01*
X98896558Y-23816657D01*
X98877558Y-23790505D01*
X98877554Y-23790500D01*
X98749499Y-23662445D01*
X98749494Y-23662441D01*
X98602997Y-23556006D01*
X98602996Y-23556005D01*
X98602994Y-23556004D01*
X98441639Y-23473789D01*
X98441638Y-23473788D01*
X98441633Y-23473786D01*
X98438574Y-23472519D01*
X98437588Y-23471725D01*
X98437298Y-23471577D01*
X98437329Y-23471515D01*
X98384168Y-23428681D01*
X98362100Y-23362388D01*
X98371461Y-23310500D01*
X98373202Y-23306294D01*
X98373207Y-23306287D01*
X98390324Y-23242404D01*
X98426687Y-23182746D01*
X98489534Y-23152216D01*
X98510098Y-23150499D01*
X98894856Y-23150499D01*
X98894864Y-23150499D01*
X98894879Y-23150497D01*
X98894882Y-23150497D01*
X98919987Y-23147586D01*
X98919988Y-23147585D01*
X98919991Y-23147585D01*
X99022765Y-23102206D01*
X99102206Y-23022765D01*
X99147585Y-22919991D01*
X99150500Y-22894865D01*
X99150499Y-21934174D01*
X99150499Y-21105130D01*
X99150154Y-21102155D01*
X122050000Y-21102155D01*
X122050000Y-21750000D01*
X122966988Y-21750000D01*
X122934075Y-21807007D01*
X122900000Y-21934174D01*
X122900000Y-22065826D01*
X122934075Y-22192993D01*
X122966988Y-22250000D01*
X122050000Y-22250000D01*
X122050000Y-22897844D01*
X122056401Y-22957372D01*
X122056403Y-22957379D01*
X122106645Y-23092086D01*
X122106649Y-23092093D01*
X122192809Y-23207187D01*
X122192812Y-23207190D01*
X122307906Y-23293350D01*
X122307913Y-23293354D01*
X122442620Y-23343596D01*
X122442627Y-23343598D01*
X122502155Y-23349999D01*
X122502172Y-23350000D01*
X122698913Y-23350000D01*
X122765952Y-23369685D01*
X122811707Y-23422489D01*
X122821651Y-23491647D01*
X122792626Y-23555203D01*
X122771798Y-23574318D01*
X122650504Y-23662441D01*
X122522445Y-23790500D01*
X122522441Y-23790505D01*
X122416006Y-23937002D01*
X122333788Y-24098360D01*
X122333787Y-24098363D01*
X122277829Y-24270589D01*
X122249500Y-24449448D01*
X122249500Y-24630551D01*
X122277829Y-24809410D01*
X122333787Y-24981636D01*
X122333788Y-24981639D01*
X122416006Y-25142997D01*
X122522441Y-25289494D01*
X122522445Y-25289499D01*
X122650500Y-25417554D01*
X122650505Y-25417558D01*
X122726038Y-25472435D01*
X122797006Y-25523996D01*
X122902484Y-25577740D01*
X122958360Y-25606211D01*
X122958363Y-25606212D01*
X123008331Y-25622447D01*
X123130591Y-25662171D01*
X123203639Y-25673740D01*
X123290678Y-25687527D01*
X123353813Y-25717456D01*
X123390744Y-25776768D01*
X123389746Y-25846631D01*
X123351136Y-25904863D01*
X123290678Y-25932473D01*
X123130589Y-25957829D01*
X122958363Y-26013787D01*
X122958360Y-26013788D01*
X122797002Y-26096006D01*
X122650505Y-26202441D01*
X122650500Y-26202445D01*
X122522445Y-26330500D01*
X122522441Y-26330505D01*
X122416006Y-26477002D01*
X122333788Y-26638360D01*
X122333787Y-26638363D01*
X122277829Y-26810589D01*
X122249500Y-26989448D01*
X122249500Y-27170551D01*
X122277829Y-27349410D01*
X122333787Y-27521636D01*
X122333788Y-27521639D01*
X122356500Y-27566212D01*
X122399447Y-27650500D01*
X122416006Y-27682997D01*
X122522441Y-27829494D01*
X122522445Y-27829499D01*
X122650500Y-27957554D01*
X122650505Y-27957558D01*
X122741663Y-28023787D01*
X122797006Y-28063996D01*
X122897320Y-28115109D01*
X122958360Y-28146211D01*
X122958363Y-28146212D01*
X123001098Y-28160097D01*
X123130591Y-28202171D01*
X123203639Y-28213740D01*
X123290678Y-28227527D01*
X123353813Y-28257456D01*
X123390744Y-28316768D01*
X123389746Y-28386631D01*
X123351136Y-28444863D01*
X123290678Y-28472473D01*
X123130589Y-28497829D01*
X122958363Y-28553787D01*
X122958360Y-28553788D01*
X122797002Y-28636006D01*
X122650505Y-28742441D01*
X122650500Y-28742445D01*
X122522445Y-28870500D01*
X122522441Y-28870505D01*
X122416006Y-29017002D01*
X122333788Y-29178360D01*
X122333787Y-29178363D01*
X122277829Y-29350589D01*
X122249500Y-29529448D01*
X122249500Y-29710551D01*
X122277829Y-29889410D01*
X122333787Y-30061636D01*
X122333788Y-30061639D01*
X122416006Y-30222997D01*
X122522441Y-30369494D01*
X122522445Y-30369499D01*
X122650500Y-30497554D01*
X122650505Y-30497558D01*
X122774071Y-30587333D01*
X122797006Y-30603996D01*
X122902484Y-30657740D01*
X122958360Y-30686211D01*
X122958363Y-30686212D01*
X123035597Y-30711306D01*
X123130591Y-30742171D01*
X123203639Y-30753740D01*
X123290678Y-30767527D01*
X123353813Y-30797456D01*
X123390744Y-30856768D01*
X123389746Y-30926631D01*
X123351136Y-30984863D01*
X123290678Y-31012473D01*
X123130589Y-31037829D01*
X122958363Y-31093787D01*
X122958360Y-31093788D01*
X122797002Y-31176006D01*
X122650505Y-31282441D01*
X122650500Y-31282445D01*
X122522445Y-31410500D01*
X122522441Y-31410505D01*
X122416006Y-31557002D01*
X122333788Y-31718360D01*
X122333787Y-31718363D01*
X122277829Y-31890589D01*
X122249500Y-32069448D01*
X122249500Y-32250551D01*
X122277829Y-32429410D01*
X122333787Y-32601636D01*
X122333788Y-32601639D01*
X122416006Y-32762997D01*
X122522441Y-32909494D01*
X122522445Y-32909499D01*
X122650500Y-33037554D01*
X122650505Y-33037558D01*
X122774071Y-33127333D01*
X122797006Y-33143996D01*
X122902484Y-33197740D01*
X122958360Y-33226211D01*
X122958363Y-33226212D01*
X123035597Y-33251306D01*
X123130591Y-33282171D01*
X123203639Y-33293740D01*
X123290678Y-33307527D01*
X123353813Y-33337456D01*
X123390744Y-33396768D01*
X123389746Y-33466631D01*
X123351136Y-33524863D01*
X123290678Y-33552473D01*
X123130589Y-33577829D01*
X122958363Y-33633787D01*
X122958360Y-33633788D01*
X122797002Y-33716006D01*
X122650505Y-33822441D01*
X122650500Y-33822445D01*
X122522445Y-33950500D01*
X122522441Y-33950505D01*
X122416006Y-34097002D01*
X122333788Y-34258360D01*
X122333787Y-34258363D01*
X122277829Y-34430589D01*
X122249500Y-34609448D01*
X122249500Y-34790551D01*
X122277829Y-34969410D01*
X122333787Y-35141636D01*
X122333788Y-35141639D01*
X122377108Y-35226657D01*
X122411203Y-35293572D01*
X122416006Y-35302997D01*
X122522441Y-35449494D01*
X122522445Y-35449499D01*
X122650500Y-35577554D01*
X122650505Y-35577558D01*
X122720104Y-35628124D01*
X122797006Y-35683996D01*
X122902484Y-35737740D01*
X122958360Y-35766211D01*
X122958363Y-35766212D01*
X123014400Y-35784419D01*
X123130591Y-35822171D01*
X123203639Y-35833740D01*
X123290678Y-35847527D01*
X123353813Y-35877456D01*
X123390744Y-35936768D01*
X123389746Y-36006631D01*
X123351136Y-36064863D01*
X123290678Y-36092473D01*
X123130589Y-36117829D01*
X122958363Y-36173787D01*
X122958360Y-36173788D01*
X122797002Y-36256006D01*
X122650505Y-36362441D01*
X122650500Y-36362445D01*
X122522445Y-36490500D01*
X122522441Y-36490505D01*
X122416006Y-36637002D01*
X122333788Y-36798360D01*
X122333787Y-36798363D01*
X122277829Y-36970589D01*
X122249500Y-37149448D01*
X122249500Y-37330551D01*
X122277829Y-37509410D01*
X122333787Y-37681636D01*
X122333788Y-37681639D01*
X122416006Y-37842997D01*
X122522441Y-37989494D01*
X122522445Y-37989499D01*
X122650500Y-38117554D01*
X122650505Y-38117558D01*
X122752495Y-38191657D01*
X122797006Y-38223996D01*
X122902484Y-38277740D01*
X122958360Y-38306211D01*
X122958363Y-38306212D01*
X123035597Y-38331306D01*
X123130591Y-38362171D01*
X123203639Y-38373740D01*
X123290678Y-38387527D01*
X123353813Y-38417456D01*
X123390744Y-38476768D01*
X123389746Y-38546631D01*
X123351136Y-38604863D01*
X123290678Y-38632473D01*
X123130589Y-38657829D01*
X122958363Y-38713787D01*
X122958360Y-38713788D01*
X122797002Y-38796006D01*
X122650505Y-38902441D01*
X122650500Y-38902445D01*
X122522445Y-39030500D01*
X122522441Y-39030505D01*
X122416006Y-39177002D01*
X122333788Y-39338360D01*
X122333787Y-39338363D01*
X122277829Y-39510589D01*
X122249500Y-39689448D01*
X122249500Y-39870551D01*
X122277829Y-40049410D01*
X122333787Y-40221636D01*
X122333788Y-40221639D01*
X122416006Y-40382997D01*
X122522441Y-40529494D01*
X122522445Y-40529499D01*
X122650500Y-40657554D01*
X122650505Y-40657558D01*
X122705330Y-40697390D01*
X122797006Y-40763996D01*
X122902484Y-40817740D01*
X122958360Y-40846211D01*
X122958363Y-40846212D01*
X123035597Y-40871306D01*
X123130591Y-40902171D01*
X123203639Y-40913740D01*
X123290678Y-40927527D01*
X123353813Y-40957456D01*
X123390744Y-41016768D01*
X123389746Y-41086631D01*
X123351136Y-41144863D01*
X123290678Y-41172473D01*
X123130589Y-41197829D01*
X122958363Y-41253787D01*
X122958360Y-41253788D01*
X122797002Y-41336006D01*
X122650505Y-41442441D01*
X122650500Y-41442445D01*
X122522445Y-41570500D01*
X122522441Y-41570505D01*
X122416006Y-41717002D01*
X122333788Y-41878360D01*
X122333787Y-41878363D01*
X122277829Y-42050589D01*
X122249500Y-42229448D01*
X122249500Y-42410551D01*
X122277829Y-42589410D01*
X122333787Y-42761636D01*
X122333788Y-42761639D01*
X122416006Y-42922997D01*
X122522441Y-43069494D01*
X122522445Y-43069499D01*
X122650500Y-43197554D01*
X122650505Y-43197558D01*
X122774071Y-43287333D01*
X122797006Y-43303996D01*
X122902484Y-43357740D01*
X122958360Y-43386211D01*
X122958363Y-43386212D01*
X123035597Y-43411306D01*
X123130591Y-43442171D01*
X123203639Y-43453740D01*
X123290678Y-43467527D01*
X123353813Y-43497456D01*
X123390744Y-43556768D01*
X123389746Y-43626631D01*
X123351136Y-43684863D01*
X123290678Y-43712473D01*
X123130589Y-43737829D01*
X122958363Y-43793787D01*
X122958360Y-43793788D01*
X122797002Y-43876006D01*
X122650505Y-43982441D01*
X122650500Y-43982445D01*
X122522445Y-44110500D01*
X122522441Y-44110505D01*
X122416006Y-44257002D01*
X122333788Y-44418360D01*
X122333787Y-44418363D01*
X122277829Y-44590589D01*
X122249500Y-44769448D01*
X122249500Y-44950551D01*
X122277829Y-45129410D01*
X122333787Y-45301636D01*
X122333788Y-45301639D01*
X122416006Y-45462997D01*
X122522441Y-45609494D01*
X122522445Y-45609499D01*
X122650500Y-45737554D01*
X122650505Y-45737558D01*
X122774071Y-45827333D01*
X122797006Y-45843996D01*
X122902484Y-45897740D01*
X122958360Y-45926211D01*
X122958363Y-45926212D01*
X123035597Y-45951306D01*
X123130591Y-45982171D01*
X123203639Y-45993740D01*
X123290678Y-46007527D01*
X123353813Y-46037456D01*
X123390744Y-46096768D01*
X123389746Y-46166631D01*
X123351136Y-46224863D01*
X123290678Y-46252473D01*
X123130589Y-46277829D01*
X122958363Y-46333787D01*
X122958360Y-46333788D01*
X122797002Y-46416006D01*
X122650505Y-46522441D01*
X122650500Y-46522445D01*
X122522445Y-46650500D01*
X122522441Y-46650505D01*
X122416006Y-46797002D01*
X122333788Y-46958360D01*
X122333787Y-46958363D01*
X122277829Y-47130589D01*
X122249500Y-47309448D01*
X122249500Y-47490551D01*
X122277829Y-47669410D01*
X122333787Y-47841636D01*
X122333788Y-47841639D01*
X122416006Y-48002997D01*
X122522441Y-48149494D01*
X122522445Y-48149499D01*
X122650500Y-48277554D01*
X122650505Y-48277558D01*
X122735593Y-48339377D01*
X122797006Y-48383996D01*
X122902484Y-48437740D01*
X122958360Y-48466211D01*
X122958363Y-48466212D01*
X123035597Y-48491306D01*
X123130591Y-48522171D01*
X123203639Y-48533740D01*
X123290678Y-48547527D01*
X123353813Y-48577456D01*
X123390744Y-48636768D01*
X123389746Y-48706631D01*
X123351136Y-48764863D01*
X123290678Y-48792473D01*
X123130589Y-48817829D01*
X122958363Y-48873787D01*
X122958360Y-48873788D01*
X122797002Y-48956006D01*
X122650505Y-49062441D01*
X122650500Y-49062445D01*
X122522445Y-49190500D01*
X122522441Y-49190505D01*
X122416006Y-49337002D01*
X122333788Y-49498360D01*
X122333787Y-49498363D01*
X122277829Y-49670589D01*
X122249500Y-49849448D01*
X122249500Y-50030551D01*
X122277829Y-50209410D01*
X122333787Y-50381636D01*
X122333788Y-50381639D01*
X122416006Y-50542997D01*
X122522441Y-50689494D01*
X122522445Y-50689499D01*
X122650500Y-50817554D01*
X122650505Y-50817558D01*
X122774071Y-50907333D01*
X122797006Y-50923996D01*
X122902484Y-50977740D01*
X122958360Y-51006211D01*
X122958363Y-51006212D01*
X123035597Y-51031306D01*
X123130591Y-51062171D01*
X123203639Y-51073740D01*
X123290678Y-51087527D01*
X123353813Y-51117456D01*
X123390744Y-51176768D01*
X123389746Y-51246631D01*
X123351136Y-51304863D01*
X123290678Y-51332473D01*
X123130589Y-51357829D01*
X122958363Y-51413787D01*
X122958360Y-51413788D01*
X122797002Y-51496006D01*
X122650505Y-51602441D01*
X122650500Y-51602445D01*
X122522445Y-51730500D01*
X122522441Y-51730505D01*
X122416006Y-51877002D01*
X122333788Y-52038360D01*
X122333787Y-52038363D01*
X122277829Y-52210589D01*
X122249500Y-52389448D01*
X122249500Y-52570551D01*
X122277829Y-52749410D01*
X122333787Y-52921636D01*
X122333788Y-52921639D01*
X122416006Y-53082997D01*
X122522441Y-53229494D01*
X122522445Y-53229499D01*
X122650500Y-53357554D01*
X122650505Y-53357558D01*
X122774071Y-53447333D01*
X122797006Y-53463996D01*
X122902484Y-53517740D01*
X122958360Y-53546211D01*
X122958363Y-53546212D01*
X123035597Y-53571306D01*
X123130591Y-53602171D01*
X123203639Y-53613740D01*
X123290678Y-53627527D01*
X123353813Y-53657456D01*
X123390744Y-53716768D01*
X123389746Y-53786631D01*
X123351136Y-53844863D01*
X123290678Y-53872473D01*
X123130589Y-53897829D01*
X122958363Y-53953787D01*
X122958360Y-53953788D01*
X122797002Y-54036006D01*
X122650505Y-54142441D01*
X122650500Y-54142445D01*
X122522445Y-54270500D01*
X122522441Y-54270505D01*
X122416006Y-54417002D01*
X122333788Y-54578360D01*
X122333787Y-54578363D01*
X122277829Y-54750589D01*
X122249500Y-54929448D01*
X122249500Y-55110551D01*
X122277829Y-55289410D01*
X122333787Y-55461636D01*
X122333788Y-55461639D01*
X122416006Y-55622997D01*
X122522441Y-55769494D01*
X122522445Y-55769499D01*
X122650500Y-55897554D01*
X122650505Y-55897558D01*
X122726802Y-55952990D01*
X122797006Y-56003996D01*
X122902484Y-56057740D01*
X122958360Y-56086211D01*
X122958363Y-56086212D01*
X123035597Y-56111306D01*
X123130591Y-56142171D01*
X123203639Y-56153740D01*
X123290678Y-56167527D01*
X123353813Y-56197456D01*
X123390744Y-56256768D01*
X123389746Y-56326631D01*
X123351136Y-56384863D01*
X123290678Y-56412473D01*
X123130589Y-56437829D01*
X122958363Y-56493787D01*
X122958360Y-56493788D01*
X122797002Y-56576006D01*
X122650505Y-56682441D01*
X122650500Y-56682445D01*
X122522445Y-56810500D01*
X122522441Y-56810505D01*
X122416006Y-56957002D01*
X122333788Y-57118360D01*
X122333787Y-57118363D01*
X122277829Y-57290589D01*
X122249500Y-57469448D01*
X122249500Y-57650551D01*
X122277829Y-57829410D01*
X122333787Y-58001636D01*
X122333788Y-58001639D01*
X122416006Y-58162997D01*
X122522441Y-58309494D01*
X122522445Y-58309499D01*
X122650500Y-58437554D01*
X122650505Y-58437558D01*
X122774071Y-58527333D01*
X122797006Y-58543996D01*
X122902484Y-58597740D01*
X122958360Y-58626211D01*
X122958363Y-58626212D01*
X123035597Y-58651306D01*
X123130591Y-58682171D01*
X123203639Y-58693740D01*
X123290678Y-58707527D01*
X123353813Y-58737456D01*
X123390744Y-58796768D01*
X123389746Y-58866631D01*
X123351136Y-58924863D01*
X123290678Y-58952473D01*
X123130589Y-58977829D01*
X122958363Y-59033787D01*
X122958360Y-59033788D01*
X122797002Y-59116006D01*
X122650505Y-59222441D01*
X122650500Y-59222445D01*
X122522445Y-59350500D01*
X122522441Y-59350505D01*
X122416006Y-59497002D01*
X122333788Y-59658360D01*
X122333787Y-59658363D01*
X122277829Y-59830589D01*
X122249500Y-60009448D01*
X122249500Y-60190551D01*
X122277829Y-60369410D01*
X122333787Y-60541636D01*
X122333788Y-60541639D01*
X122416006Y-60702997D01*
X122522441Y-60849494D01*
X122522445Y-60849499D01*
X122650500Y-60977554D01*
X122650505Y-60977558D01*
X122774071Y-61067333D01*
X122797006Y-61083996D01*
X122902484Y-61137740D01*
X122958360Y-61166211D01*
X122958363Y-61166212D01*
X123035597Y-61191306D01*
X123130591Y-61222171D01*
X123203639Y-61233740D01*
X123290678Y-61247527D01*
X123353813Y-61277456D01*
X123390744Y-61336768D01*
X123389746Y-61406631D01*
X123351136Y-61464863D01*
X123290678Y-61492473D01*
X123130589Y-61517829D01*
X122958363Y-61573787D01*
X122958360Y-61573788D01*
X122797002Y-61656006D01*
X122650505Y-61762441D01*
X122650500Y-61762445D01*
X122522445Y-61890500D01*
X122522441Y-61890505D01*
X122416006Y-62037002D01*
X122333788Y-62198360D01*
X122333787Y-62198363D01*
X122277829Y-62370589D01*
X122249500Y-62549448D01*
X122249500Y-62730551D01*
X122277829Y-62909410D01*
X122333787Y-63081636D01*
X122333788Y-63081639D01*
X122416006Y-63242997D01*
X122522441Y-63389494D01*
X122522445Y-63389499D01*
X122650500Y-63517554D01*
X122650505Y-63517558D01*
X122774071Y-63607333D01*
X122797006Y-63623996D01*
X122902484Y-63677740D01*
X122958360Y-63706211D01*
X122958363Y-63706212D01*
X123035597Y-63731306D01*
X123130591Y-63762171D01*
X123203639Y-63773740D01*
X123290678Y-63787527D01*
X123353813Y-63817456D01*
X123390744Y-63876768D01*
X123389746Y-63946631D01*
X123351136Y-64004863D01*
X123290678Y-64032473D01*
X123130589Y-64057829D01*
X122958363Y-64113787D01*
X122958360Y-64113788D01*
X122797002Y-64196006D01*
X122650505Y-64302441D01*
X122650500Y-64302445D01*
X122522445Y-64430500D01*
X122522441Y-64430505D01*
X122416006Y-64577002D01*
X122333788Y-64738360D01*
X122333787Y-64738363D01*
X122277829Y-64910589D01*
X122249500Y-65089448D01*
X122249500Y-65270551D01*
X122277829Y-65449410D01*
X122333787Y-65621636D01*
X122333788Y-65621639D01*
X122416006Y-65782997D01*
X122522441Y-65929494D01*
X122522445Y-65929499D01*
X122650500Y-66057554D01*
X122650505Y-66057558D01*
X122774071Y-66147333D01*
X122797006Y-66163996D01*
X122902484Y-66217740D01*
X122958360Y-66246211D01*
X122958363Y-66246212D01*
X123035597Y-66271306D01*
X123130591Y-66302171D01*
X123203639Y-66313740D01*
X123290678Y-66327527D01*
X123353813Y-66357456D01*
X123390744Y-66416768D01*
X123389746Y-66486631D01*
X123351136Y-66544863D01*
X123290678Y-66572473D01*
X123130589Y-66597829D01*
X122958363Y-66653787D01*
X122958360Y-66653788D01*
X122797002Y-66736006D01*
X122650505Y-66842441D01*
X122650500Y-66842445D01*
X122522445Y-66970500D01*
X122522441Y-66970505D01*
X122416006Y-67117002D01*
X122333788Y-67278360D01*
X122333787Y-67278363D01*
X122277829Y-67450589D01*
X122249500Y-67629448D01*
X122249500Y-67810551D01*
X122277829Y-67989410D01*
X122333787Y-68161636D01*
X122333788Y-68161639D01*
X122416006Y-68322997D01*
X122522441Y-68469494D01*
X122522445Y-68469499D01*
X122650500Y-68597554D01*
X122650505Y-68597558D01*
X122774071Y-68687333D01*
X122797006Y-68703996D01*
X122902484Y-68757740D01*
X122958360Y-68786211D01*
X122958363Y-68786212D01*
X123035597Y-68811306D01*
X123130591Y-68842171D01*
X123203639Y-68853740D01*
X123290678Y-68867527D01*
X123353813Y-68897456D01*
X123390744Y-68956768D01*
X123389746Y-69026631D01*
X123351136Y-69084863D01*
X123290678Y-69112473D01*
X123130589Y-69137829D01*
X122958363Y-69193787D01*
X122958360Y-69193788D01*
X122797002Y-69276006D01*
X122650505Y-69382441D01*
X122650500Y-69382445D01*
X122522445Y-69510500D01*
X122522441Y-69510505D01*
X122416006Y-69657002D01*
X122333788Y-69818360D01*
X122333787Y-69818363D01*
X122277829Y-69990589D01*
X122249500Y-70169448D01*
X122249500Y-70350551D01*
X122277829Y-70529410D01*
X122333787Y-70701636D01*
X122333788Y-70701639D01*
X122416006Y-70862997D01*
X122522441Y-71009494D01*
X122522445Y-71009499D01*
X122650500Y-71137554D01*
X122650505Y-71137558D01*
X122746852Y-71207557D01*
X122797006Y-71243996D01*
X122902484Y-71297740D01*
X122958360Y-71326211D01*
X122958363Y-71326212D01*
X123035597Y-71351306D01*
X123130591Y-71382171D01*
X123203639Y-71393740D01*
X123290678Y-71407527D01*
X123353813Y-71437456D01*
X123390744Y-71496768D01*
X123389746Y-71566631D01*
X123351136Y-71624863D01*
X123290678Y-71652473D01*
X123130589Y-71677829D01*
X122958363Y-71733787D01*
X122958360Y-71733788D01*
X122797002Y-71816006D01*
X122650505Y-71922441D01*
X122650500Y-71922445D01*
X122522445Y-72050500D01*
X122522441Y-72050505D01*
X122416006Y-72197002D01*
X122333788Y-72358360D01*
X122333787Y-72358363D01*
X122277829Y-72530589D01*
X122249500Y-72709448D01*
X122249500Y-72890551D01*
X122277829Y-73069410D01*
X122333787Y-73241636D01*
X122333788Y-73241639D01*
X122416006Y-73402997D01*
X122522441Y-73549494D01*
X122522445Y-73549499D01*
X122650500Y-73677554D01*
X122650505Y-73677558D01*
X122724835Y-73731561D01*
X122797006Y-73783996D01*
X122902484Y-73837740D01*
X122958360Y-73866211D01*
X122958363Y-73866212D01*
X123035597Y-73891306D01*
X123130591Y-73922171D01*
X123203639Y-73933740D01*
X123290678Y-73947527D01*
X123353813Y-73977456D01*
X123390744Y-74036768D01*
X123389746Y-74106631D01*
X123351136Y-74164863D01*
X123290678Y-74192473D01*
X123130589Y-74217829D01*
X122958363Y-74273787D01*
X122958360Y-74273788D01*
X122797002Y-74356006D01*
X122650505Y-74462441D01*
X122650500Y-74462445D01*
X122522445Y-74590500D01*
X122522441Y-74590505D01*
X122416006Y-74737002D01*
X122333788Y-74898360D01*
X122333787Y-74898363D01*
X122277829Y-75070589D01*
X122249500Y-75249448D01*
X122249500Y-75430551D01*
X122277829Y-75609410D01*
X122333787Y-75781636D01*
X122333788Y-75781639D01*
X122416006Y-75942997D01*
X122522441Y-76089494D01*
X122522445Y-76089499D01*
X122650500Y-76217554D01*
X122650505Y-76217558D01*
X122774071Y-76307333D01*
X122797006Y-76323996D01*
X122902484Y-76377740D01*
X122958360Y-76406211D01*
X122958363Y-76406212D01*
X123035597Y-76431306D01*
X123130591Y-76462171D01*
X123213429Y-76475291D01*
X123309449Y-76490500D01*
X123309454Y-76490500D01*
X123490551Y-76490500D01*
X123577259Y-76476765D01*
X123669409Y-76462171D01*
X123841639Y-76406211D01*
X124002994Y-76323996D01*
X124149501Y-76217553D01*
X124277553Y-76089501D01*
X124383996Y-75942994D01*
X124466211Y-75781639D01*
X124522171Y-75609409D01*
X124536765Y-75517259D01*
X124550500Y-75430551D01*
X124550500Y-75249448D01*
X124534019Y-75145397D01*
X124522171Y-75070591D01*
X124466211Y-74898361D01*
X124466211Y-74898360D01*
X124437740Y-74842484D01*
X124383996Y-74737006D01*
X124370396Y-74718287D01*
X124277558Y-74590505D01*
X124277554Y-74590500D01*
X124149499Y-74462445D01*
X124149494Y-74462441D01*
X124002997Y-74356006D01*
X124002996Y-74356005D01*
X124002994Y-74356004D01*
X123951300Y-74329664D01*
X123841639Y-74273788D01*
X123841636Y-74273787D01*
X123669410Y-74217829D01*
X123509321Y-74192473D01*
X123446186Y-74162544D01*
X123409255Y-74103232D01*
X123410253Y-74033370D01*
X123448863Y-73975137D01*
X123509321Y-73947527D01*
X123579425Y-73936422D01*
X123669409Y-73922171D01*
X123841639Y-73866211D01*
X124002994Y-73783996D01*
X124149501Y-73677553D01*
X124277553Y-73549501D01*
X124383996Y-73402994D01*
X124466211Y-73241639D01*
X124522171Y-73069409D01*
X124536765Y-72977259D01*
X124550500Y-72890551D01*
X124550500Y-72709448D01*
X124534019Y-72605397D01*
X124522171Y-72530591D01*
X124466211Y-72358361D01*
X124466211Y-72358360D01*
X124437740Y-72302484D01*
X124383996Y-72197006D01*
X124333611Y-72127656D01*
X124277558Y-72050505D01*
X124277554Y-72050500D01*
X124149499Y-71922445D01*
X124149494Y-71922441D01*
X124002997Y-71816006D01*
X124002996Y-71816005D01*
X124002994Y-71816004D01*
X123951300Y-71789664D01*
X123841639Y-71733788D01*
X123841636Y-71733787D01*
X123669410Y-71677829D01*
X123509321Y-71652473D01*
X123446186Y-71622544D01*
X123409255Y-71563232D01*
X123410253Y-71493370D01*
X123448863Y-71435137D01*
X123509321Y-71407527D01*
X123579425Y-71396422D01*
X123669409Y-71382171D01*
X123841639Y-71326211D01*
X124002994Y-71243996D01*
X124149501Y-71137553D01*
X124277553Y-71009501D01*
X124383996Y-70862994D01*
X124466211Y-70701639D01*
X124522171Y-70529409D01*
X124537255Y-70434174D01*
X124550500Y-70350551D01*
X124550500Y-70169448D01*
X124523661Y-70000000D01*
X124522171Y-69990591D01*
X124466211Y-69818361D01*
X124466211Y-69818360D01*
X124437740Y-69762484D01*
X124383996Y-69657006D01*
X124357498Y-69620535D01*
X124277558Y-69510505D01*
X124277554Y-69510500D01*
X124149499Y-69382445D01*
X124149494Y-69382441D01*
X124002997Y-69276006D01*
X124002996Y-69276005D01*
X124002994Y-69276004D01*
X123949808Y-69248904D01*
X123841639Y-69193788D01*
X123841636Y-69193787D01*
X123669410Y-69137829D01*
X123509321Y-69112473D01*
X123446186Y-69082544D01*
X123409255Y-69023232D01*
X123410253Y-68953370D01*
X123448863Y-68895137D01*
X123509321Y-68867527D01*
X123579425Y-68856422D01*
X123669409Y-68842171D01*
X123841639Y-68786211D01*
X124002994Y-68703996D01*
X124149501Y-68597553D01*
X124277553Y-68469501D01*
X124383996Y-68322994D01*
X124466211Y-68161639D01*
X124522171Y-67989409D01*
X124536765Y-67897259D01*
X124550500Y-67810551D01*
X124550500Y-67629448D01*
X124534019Y-67525397D01*
X124522171Y-67450591D01*
X124466211Y-67278361D01*
X124466211Y-67278360D01*
X124437740Y-67222484D01*
X124383996Y-67117006D01*
X124370396Y-67098287D01*
X124277558Y-66970505D01*
X124277554Y-66970500D01*
X124149499Y-66842445D01*
X124149494Y-66842441D01*
X124002997Y-66736006D01*
X124002996Y-66736005D01*
X124002994Y-66736004D01*
X123951300Y-66709664D01*
X123841639Y-66653788D01*
X123841636Y-66653787D01*
X123669410Y-66597829D01*
X123509321Y-66572473D01*
X123446186Y-66542544D01*
X123409255Y-66483232D01*
X123410253Y-66413370D01*
X123448863Y-66355137D01*
X123509321Y-66327527D01*
X123579425Y-66316422D01*
X123669409Y-66302171D01*
X123841639Y-66246211D01*
X124002994Y-66163996D01*
X124149501Y-66057553D01*
X124277553Y-65929501D01*
X124383996Y-65782994D01*
X124466211Y-65621639D01*
X124522171Y-65449409D01*
X124536765Y-65357259D01*
X124550500Y-65270551D01*
X124550500Y-65089448D01*
X124534019Y-64985397D01*
X124522171Y-64910591D01*
X124466211Y-64738361D01*
X124466211Y-64738360D01*
X124437740Y-64682484D01*
X124383996Y-64577006D01*
X124370396Y-64558287D01*
X124277558Y-64430505D01*
X124277554Y-64430500D01*
X124149499Y-64302445D01*
X124149494Y-64302441D01*
X124002997Y-64196006D01*
X124002996Y-64196005D01*
X124002994Y-64196004D01*
X123951300Y-64169664D01*
X123841639Y-64113788D01*
X123841636Y-64113787D01*
X123669410Y-64057829D01*
X123509321Y-64032473D01*
X123446186Y-64002544D01*
X123409255Y-63943232D01*
X123410253Y-63873370D01*
X123448863Y-63815137D01*
X123509321Y-63787527D01*
X123579425Y-63776422D01*
X123669409Y-63762171D01*
X123841639Y-63706211D01*
X124002994Y-63623996D01*
X124149501Y-63517553D01*
X124277553Y-63389501D01*
X124383996Y-63242994D01*
X124466211Y-63081639D01*
X124522171Y-62909409D01*
X124536765Y-62817259D01*
X124550500Y-62730551D01*
X124550500Y-62549448D01*
X124527021Y-62401213D01*
X124522171Y-62370591D01*
X124466211Y-62198361D01*
X124466211Y-62198360D01*
X124437740Y-62142484D01*
X124383996Y-62037006D01*
X124370396Y-62018287D01*
X124277558Y-61890505D01*
X124277554Y-61890500D01*
X124149499Y-61762445D01*
X124149494Y-61762441D01*
X124002997Y-61656006D01*
X124002996Y-61656005D01*
X124002994Y-61656004D01*
X123951300Y-61629664D01*
X123841639Y-61573788D01*
X123841636Y-61573787D01*
X123669410Y-61517829D01*
X123509321Y-61492473D01*
X123446186Y-61462544D01*
X123409255Y-61403232D01*
X123410253Y-61333370D01*
X123448863Y-61275137D01*
X123509321Y-61247527D01*
X123579425Y-61236422D01*
X123669409Y-61222171D01*
X123841639Y-61166211D01*
X124002994Y-61083996D01*
X124149501Y-60977553D01*
X124277553Y-60849501D01*
X124383996Y-60702994D01*
X124466211Y-60541639D01*
X124522171Y-60369409D01*
X124536765Y-60277259D01*
X124550500Y-60190551D01*
X124550500Y-60009448D01*
X124534019Y-59905397D01*
X124522171Y-59830591D01*
X124466211Y-59658361D01*
X124466211Y-59658360D01*
X124437740Y-59602484D01*
X124383996Y-59497006D01*
X124370396Y-59478287D01*
X124277558Y-59350505D01*
X124277554Y-59350500D01*
X124149499Y-59222445D01*
X124149494Y-59222441D01*
X124002997Y-59116006D01*
X124002996Y-59116005D01*
X124002994Y-59116004D01*
X123951300Y-59089664D01*
X123841639Y-59033788D01*
X123841636Y-59033787D01*
X123669410Y-58977829D01*
X123509321Y-58952473D01*
X123446186Y-58922544D01*
X123409255Y-58863232D01*
X123410253Y-58793370D01*
X123448863Y-58735137D01*
X123509321Y-58707527D01*
X123579425Y-58696422D01*
X123669409Y-58682171D01*
X123841639Y-58626211D01*
X124002994Y-58543996D01*
X124149501Y-58437553D01*
X124277553Y-58309501D01*
X124383996Y-58162994D01*
X124466211Y-58001639D01*
X124522171Y-57829409D01*
X124536765Y-57737259D01*
X124550500Y-57650551D01*
X124550500Y-57469448D01*
X124523889Y-57301440D01*
X124522171Y-57290591D01*
X124491570Y-57196409D01*
X124466212Y-57118363D01*
X124466211Y-57118360D01*
X124401071Y-56990518D01*
X124383996Y-56957006D01*
X124347488Y-56906757D01*
X124277558Y-56810505D01*
X124277554Y-56810500D01*
X124149499Y-56682445D01*
X124149494Y-56682441D01*
X124002997Y-56576006D01*
X124002996Y-56576005D01*
X124002994Y-56576004D01*
X123940393Y-56544107D01*
X123841639Y-56493788D01*
X123841636Y-56493787D01*
X123669410Y-56437829D01*
X123509321Y-56412473D01*
X123446186Y-56382544D01*
X123409255Y-56323232D01*
X123410253Y-56253370D01*
X123448863Y-56195137D01*
X123509321Y-56167527D01*
X123579425Y-56156422D01*
X123669409Y-56142171D01*
X123841639Y-56086211D01*
X124002994Y-56003996D01*
X124149501Y-55897553D01*
X124277553Y-55769501D01*
X124383996Y-55622994D01*
X124466211Y-55461639D01*
X124522171Y-55289409D01*
X124536765Y-55197259D01*
X124550500Y-55110551D01*
X124550500Y-54929448D01*
X124534019Y-54825397D01*
X124522171Y-54750591D01*
X124466211Y-54578361D01*
X124466211Y-54578360D01*
X124437740Y-54522484D01*
X124383996Y-54417006D01*
X124370396Y-54398287D01*
X124277558Y-54270505D01*
X124277554Y-54270500D01*
X124149499Y-54142445D01*
X124149494Y-54142441D01*
X124002997Y-54036006D01*
X124002996Y-54036005D01*
X124002994Y-54036004D01*
X123951300Y-54009664D01*
X123841639Y-53953788D01*
X123841636Y-53953787D01*
X123669410Y-53897829D01*
X123509321Y-53872473D01*
X123446186Y-53842544D01*
X123409255Y-53783232D01*
X123410253Y-53713370D01*
X123448863Y-53655137D01*
X123509321Y-53627527D01*
X123579425Y-53616422D01*
X123669409Y-53602171D01*
X123841639Y-53546211D01*
X124002994Y-53463996D01*
X124149501Y-53357553D01*
X124277553Y-53229501D01*
X124383996Y-53082994D01*
X124466211Y-52921639D01*
X124522171Y-52749409D01*
X124536765Y-52657259D01*
X124550500Y-52570551D01*
X124550500Y-52389448D01*
X124534019Y-52285397D01*
X124522171Y-52210591D01*
X124466211Y-52038361D01*
X124466211Y-52038360D01*
X124437740Y-51982484D01*
X124383996Y-51877006D01*
X124370396Y-51858287D01*
X124277558Y-51730505D01*
X124277554Y-51730500D01*
X124149499Y-51602445D01*
X124149494Y-51602441D01*
X124002997Y-51496006D01*
X124002996Y-51496005D01*
X124002994Y-51496004D01*
X123951300Y-51469664D01*
X123841639Y-51413788D01*
X123841636Y-51413787D01*
X123669410Y-51357829D01*
X123509321Y-51332473D01*
X123446186Y-51302544D01*
X123409255Y-51243232D01*
X123410253Y-51173370D01*
X123448863Y-51115137D01*
X123509321Y-51087527D01*
X123579425Y-51076422D01*
X123669409Y-51062171D01*
X123841639Y-51006211D01*
X124002994Y-50923996D01*
X124149501Y-50817553D01*
X124277553Y-50689501D01*
X124383996Y-50542994D01*
X124466211Y-50381639D01*
X124522171Y-50209409D01*
X124536765Y-50117259D01*
X124550500Y-50030551D01*
X124550500Y-49849448D01*
X124534019Y-49745397D01*
X124522171Y-49670591D01*
X124480685Y-49542909D01*
X124466212Y-49498363D01*
X124466211Y-49498360D01*
X124414876Y-49397612D01*
X124383996Y-49337006D01*
X124351401Y-49292142D01*
X124277558Y-49190505D01*
X124277554Y-49190500D01*
X124149499Y-49062445D01*
X124149494Y-49062441D01*
X124002997Y-48956006D01*
X124002996Y-48956005D01*
X124002994Y-48956004D01*
X123932307Y-48919987D01*
X123841639Y-48873788D01*
X123841636Y-48873787D01*
X123669410Y-48817829D01*
X123509321Y-48792473D01*
X123446186Y-48762544D01*
X123409255Y-48703232D01*
X123410253Y-48633370D01*
X123448863Y-48575137D01*
X123509321Y-48547527D01*
X123579425Y-48536422D01*
X123669409Y-48522171D01*
X123841639Y-48466211D01*
X124002994Y-48383996D01*
X124149501Y-48277553D01*
X124277553Y-48149501D01*
X124383996Y-48002994D01*
X124466211Y-47841639D01*
X124522171Y-47669409D01*
X124539759Y-47558361D01*
X124550500Y-47490551D01*
X124550500Y-47309448D01*
X124532025Y-47192807D01*
X124522171Y-47130591D01*
X124487242Y-47023090D01*
X124466212Y-46958363D01*
X124466211Y-46958360D01*
X124435350Y-46897793D01*
X124383996Y-46797006D01*
X124349765Y-46749891D01*
X124277558Y-46650505D01*
X124277554Y-46650500D01*
X124149499Y-46522445D01*
X124149494Y-46522441D01*
X124002997Y-46416006D01*
X124002996Y-46416005D01*
X124002994Y-46416004D01*
X123930743Y-46379190D01*
X123841639Y-46333788D01*
X123841636Y-46333787D01*
X123669410Y-46277829D01*
X123509321Y-46252473D01*
X123446186Y-46222544D01*
X123409255Y-46163232D01*
X123410253Y-46093370D01*
X123448863Y-46035137D01*
X123509321Y-46007527D01*
X123579425Y-45996422D01*
X123669409Y-45982171D01*
X123841639Y-45926211D01*
X124002994Y-45843996D01*
X124149501Y-45737553D01*
X124277553Y-45609501D01*
X124383996Y-45462994D01*
X124466211Y-45301639D01*
X124522171Y-45129409D01*
X124538099Y-45028845D01*
X124550500Y-44950551D01*
X124550500Y-44769448D01*
X124534019Y-44665397D01*
X124522171Y-44590591D01*
X124466211Y-44418361D01*
X124466211Y-44418360D01*
X124437740Y-44362484D01*
X124383996Y-44257006D01*
X124370396Y-44238287D01*
X124277558Y-44110505D01*
X124277554Y-44110500D01*
X124149499Y-43982445D01*
X124149494Y-43982441D01*
X124002997Y-43876006D01*
X124002996Y-43876005D01*
X124002994Y-43876004D01*
X123951300Y-43849664D01*
X123841639Y-43793788D01*
X123841636Y-43793787D01*
X123669410Y-43737829D01*
X123509321Y-43712473D01*
X123446186Y-43682544D01*
X123409255Y-43623232D01*
X123410253Y-43553370D01*
X123448863Y-43495137D01*
X123509321Y-43467527D01*
X123579425Y-43456422D01*
X123669409Y-43442171D01*
X123841639Y-43386211D01*
X124002994Y-43303996D01*
X124149501Y-43197553D01*
X124277553Y-43069501D01*
X124383996Y-42922994D01*
X124466211Y-42761639D01*
X124522171Y-42589409D01*
X124542062Y-42463824D01*
X124550500Y-42410551D01*
X124550500Y-42229448D01*
X124527785Y-42086038D01*
X124522171Y-42050591D01*
X124478498Y-41916177D01*
X124466212Y-41878363D01*
X124466211Y-41878360D01*
X124437740Y-41822484D01*
X124383996Y-41717006D01*
X124370396Y-41698287D01*
X124277558Y-41570505D01*
X124277554Y-41570500D01*
X124149499Y-41442445D01*
X124149494Y-41442441D01*
X124002997Y-41336006D01*
X124002996Y-41336005D01*
X124002994Y-41336004D01*
X123928178Y-41297883D01*
X123841639Y-41253788D01*
X123841636Y-41253787D01*
X123669410Y-41197829D01*
X123509321Y-41172473D01*
X123446186Y-41142544D01*
X123409255Y-41083232D01*
X123410253Y-41013370D01*
X123448863Y-40955137D01*
X123509321Y-40927527D01*
X123579425Y-40916422D01*
X123669409Y-40902171D01*
X123841639Y-40846211D01*
X124002994Y-40763996D01*
X124149501Y-40657553D01*
X124277553Y-40529501D01*
X124383996Y-40382994D01*
X124466211Y-40221639D01*
X124522171Y-40049409D01*
X124536765Y-39957259D01*
X124550500Y-39870551D01*
X124550500Y-39689448D01*
X124534019Y-39585397D01*
X124522171Y-39510591D01*
X124466211Y-39338361D01*
X124466211Y-39338360D01*
X124428206Y-39263773D01*
X124383996Y-39177006D01*
X124306681Y-39070590D01*
X124277558Y-39030505D01*
X124277554Y-39030500D01*
X124149499Y-38902445D01*
X124149494Y-38902441D01*
X124002997Y-38796006D01*
X124002996Y-38796005D01*
X124002994Y-38796004D01*
X123951300Y-38769664D01*
X123841639Y-38713788D01*
X123841636Y-38713787D01*
X123669410Y-38657829D01*
X123509321Y-38632473D01*
X123446186Y-38602544D01*
X123409255Y-38543232D01*
X123410253Y-38473370D01*
X123448863Y-38415137D01*
X123509321Y-38387527D01*
X123579425Y-38376422D01*
X123669409Y-38362171D01*
X123841639Y-38306211D01*
X124002994Y-38223996D01*
X124149501Y-38117553D01*
X124277553Y-37989501D01*
X124383996Y-37842994D01*
X124466211Y-37681639D01*
X124522171Y-37509409D01*
X124536765Y-37417259D01*
X124550500Y-37330551D01*
X124550500Y-37149448D01*
X124534019Y-37045397D01*
X124522171Y-36970591D01*
X124466211Y-36798361D01*
X124466211Y-36798360D01*
X124437740Y-36742484D01*
X124383996Y-36637006D01*
X124337997Y-36573693D01*
X124277558Y-36490505D01*
X124277554Y-36490500D01*
X124149499Y-36362445D01*
X124149494Y-36362441D01*
X124002997Y-36256006D01*
X124002996Y-36256005D01*
X124002994Y-36256004D01*
X123951300Y-36229664D01*
X123841639Y-36173788D01*
X123841636Y-36173787D01*
X123669410Y-36117829D01*
X123509321Y-36092473D01*
X123446186Y-36062544D01*
X123409255Y-36003232D01*
X123410253Y-35933370D01*
X123448863Y-35875137D01*
X123509321Y-35847527D01*
X123579425Y-35836422D01*
X123669409Y-35822171D01*
X123841639Y-35766211D01*
X124002994Y-35683996D01*
X124149501Y-35577553D01*
X124277553Y-35449501D01*
X124383996Y-35302994D01*
X124466211Y-35141639D01*
X124522171Y-34969409D01*
X124543108Y-34837217D01*
X124550500Y-34790551D01*
X124550500Y-34609448D01*
X124529061Y-34474092D01*
X124522171Y-34430591D01*
X124466211Y-34258361D01*
X124466211Y-34258360D01*
X124437740Y-34202484D01*
X124383996Y-34097006D01*
X124336535Y-34031681D01*
X124277558Y-33950505D01*
X124277554Y-33950500D01*
X124149499Y-33822445D01*
X124149494Y-33822441D01*
X124002997Y-33716006D01*
X124002996Y-33716005D01*
X124002994Y-33716004D01*
X123951300Y-33689664D01*
X123841639Y-33633788D01*
X123841636Y-33633787D01*
X123669410Y-33577829D01*
X123509321Y-33552473D01*
X123446186Y-33522544D01*
X123409255Y-33463232D01*
X123410253Y-33393370D01*
X123448863Y-33335137D01*
X123509321Y-33307527D01*
X123579425Y-33296422D01*
X123669409Y-33282171D01*
X123841639Y-33226211D01*
X124002994Y-33143996D01*
X124149501Y-33037553D01*
X124277553Y-32909501D01*
X124383996Y-32762994D01*
X124466211Y-32601639D01*
X124522171Y-32429409D01*
X124536765Y-32337259D01*
X124550500Y-32250551D01*
X124550500Y-32069448D01*
X124534019Y-31965397D01*
X124522171Y-31890591D01*
X124466211Y-31718361D01*
X124466211Y-31718360D01*
X124437740Y-31662484D01*
X124383996Y-31557006D01*
X124370396Y-31538287D01*
X124277558Y-31410505D01*
X124277554Y-31410500D01*
X124149499Y-31282445D01*
X124149494Y-31282441D01*
X124002997Y-31176006D01*
X124002996Y-31176005D01*
X124002994Y-31176004D01*
X123951300Y-31149664D01*
X123841639Y-31093788D01*
X123841636Y-31093787D01*
X123669410Y-31037829D01*
X123509321Y-31012473D01*
X123446186Y-30982544D01*
X123409255Y-30923232D01*
X123410253Y-30853370D01*
X123448863Y-30795137D01*
X123509321Y-30767527D01*
X123579425Y-30756422D01*
X123669409Y-30742171D01*
X123841639Y-30686211D01*
X124002994Y-30603996D01*
X124149501Y-30497553D01*
X124277553Y-30369501D01*
X124383996Y-30222994D01*
X124466211Y-30061639D01*
X124522171Y-29889409D01*
X124536765Y-29797259D01*
X124550500Y-29710551D01*
X124550500Y-29529448D01*
X124534019Y-29425397D01*
X124522171Y-29350591D01*
X124466211Y-29178361D01*
X124466211Y-29178360D01*
X124437740Y-29122484D01*
X124383996Y-29017006D01*
X124370396Y-28998287D01*
X124277558Y-28870505D01*
X124277554Y-28870500D01*
X124149499Y-28742445D01*
X124149494Y-28742441D01*
X124002997Y-28636006D01*
X124002996Y-28636005D01*
X124002994Y-28636004D01*
X123951300Y-28609664D01*
X123841639Y-28553788D01*
X123841636Y-28553787D01*
X123669410Y-28497829D01*
X123509321Y-28472473D01*
X123446186Y-28442544D01*
X123409255Y-28383232D01*
X123410253Y-28313370D01*
X123448863Y-28255137D01*
X123509321Y-28227527D01*
X123579425Y-28216422D01*
X123669409Y-28202171D01*
X123841639Y-28146211D01*
X124002994Y-28063996D01*
X124149501Y-27957553D01*
X124277553Y-27829501D01*
X124383996Y-27682994D01*
X124466211Y-27521639D01*
X124522171Y-27349409D01*
X124541283Y-27228739D01*
X124550500Y-27170551D01*
X124550500Y-26989448D01*
X124532090Y-26873219D01*
X124522171Y-26810591D01*
X124466211Y-26638361D01*
X124466211Y-26638360D01*
X124437740Y-26582484D01*
X124383996Y-26477006D01*
X124288176Y-26345120D01*
X124277558Y-26330505D01*
X124277554Y-26330500D01*
X124149499Y-26202445D01*
X124149494Y-26202441D01*
X124002997Y-26096006D01*
X124002996Y-26096005D01*
X124002994Y-26096004D01*
X123929114Y-26058360D01*
X123841639Y-26013788D01*
X123841636Y-26013787D01*
X123669410Y-25957829D01*
X123509321Y-25932473D01*
X123446186Y-25902544D01*
X123409255Y-25843232D01*
X123410253Y-25773370D01*
X123448863Y-25715137D01*
X123509321Y-25687527D01*
X123579425Y-25676422D01*
X123669409Y-25662171D01*
X123841639Y-25606211D01*
X124002994Y-25523996D01*
X124149501Y-25417553D01*
X124277553Y-25289501D01*
X124383996Y-25142994D01*
X124466211Y-24981639D01*
X124522171Y-24809409D01*
X124538303Y-24707557D01*
X124550500Y-24630551D01*
X124550500Y-24449448D01*
X124529383Y-24316126D01*
X124522171Y-24270591D01*
X124466211Y-24098361D01*
X124466211Y-24098360D01*
X124416093Y-24000000D01*
X124383996Y-23937006D01*
X124296558Y-23816657D01*
X124277558Y-23790505D01*
X124277554Y-23790500D01*
X124149495Y-23662441D01*
X124028202Y-23574318D01*
X123985536Y-23518989D01*
X123979557Y-23449375D01*
X124012162Y-23387580D01*
X124073001Y-23353223D01*
X124101087Y-23350000D01*
X124297828Y-23350000D01*
X124297844Y-23349999D01*
X124357372Y-23343598D01*
X124357379Y-23343596D01*
X124492086Y-23293354D01*
X124492093Y-23293350D01*
X124607187Y-23207190D01*
X124607190Y-23207187D01*
X124693350Y-23092093D01*
X124693354Y-23092086D01*
X124743596Y-22957379D01*
X124743598Y-22957372D01*
X124749999Y-22897844D01*
X124750000Y-22897827D01*
X124750000Y-22250000D01*
X123833012Y-22250000D01*
X123865925Y-22192993D01*
X123900000Y-22065826D01*
X123900000Y-21934174D01*
X123865925Y-21807007D01*
X123833012Y-21750000D01*
X124750000Y-21750000D01*
X124750000Y-21102172D01*
X124749999Y-21102155D01*
X124743598Y-21042627D01*
X124743596Y-21042620D01*
X124693354Y-20907913D01*
X124693350Y-20907906D01*
X124607190Y-20792812D01*
X124607187Y-20792809D01*
X124492093Y-20706649D01*
X124492086Y-20706645D01*
X124357379Y-20656403D01*
X124357372Y-20656401D01*
X124297844Y-20650000D01*
X123650000Y-20650000D01*
X123650000Y-21566988D01*
X123592993Y-21534075D01*
X123465826Y-21500000D01*
X123334174Y-21500000D01*
X123207007Y-21534075D01*
X123150000Y-21566988D01*
X123150000Y-20650000D01*
X122502155Y-20650000D01*
X122442627Y-20656401D01*
X122442620Y-20656403D01*
X122307913Y-20706645D01*
X122307906Y-20706649D01*
X122192812Y-20792809D01*
X122192809Y-20792812D01*
X122106649Y-20907906D01*
X122106645Y-20907913D01*
X122056403Y-21042620D01*
X122056401Y-21042627D01*
X122050000Y-21102155D01*
X99150154Y-21102155D01*
X99147586Y-21080012D01*
X99147585Y-21080010D01*
X99147585Y-21080009D01*
X99102206Y-20977235D01*
X99022765Y-20897794D01*
X99016707Y-20895119D01*
X98919992Y-20852415D01*
X98894865Y-20849500D01*
X97105143Y-20849500D01*
X97105117Y-20849502D01*
X97080012Y-20852413D01*
X97080008Y-20852415D01*
X96977235Y-20897793D01*
X96897794Y-20977234D01*
X96852415Y-21080006D01*
X96852415Y-21080008D01*
X96849500Y-21105131D01*
X96849500Y-22894856D01*
X96849502Y-22894882D01*
X96852413Y-22919987D01*
X96852415Y-22919991D01*
X96897793Y-23022764D01*
X96897794Y-23022765D01*
X96977235Y-23102206D01*
X96977238Y-23102207D01*
X96983395Y-23106425D01*
X97027578Y-23160552D01*
X97035484Y-23229973D01*
X97004603Y-23292648D01*
X97000999Y-23296406D01*
X90805522Y-29491884D01*
X90805518Y-29491890D01*
X90752792Y-29583212D01*
X90752793Y-29583213D01*
X90725500Y-29685073D01*
X90725500Y-37612502D01*
X90705815Y-37679541D01*
X90689181Y-37700183D01*
X90645481Y-37743882D01*
X90645475Y-37743890D01*
X90566426Y-37880809D01*
X90566423Y-37880816D01*
X90525500Y-38033543D01*
X90525500Y-38191657D01*
X90534165Y-38223993D01*
X90566423Y-38344383D01*
X90566426Y-38344390D01*
X90645475Y-38481309D01*
X90645479Y-38481314D01*
X90645480Y-38481316D01*
X90757284Y-38593120D01*
X90771517Y-38601337D01*
X90819733Y-38651903D01*
X90832957Y-38720510D01*
X90806990Y-38785375D01*
X90797200Y-38796406D01*
X90523019Y-39070588D01*
X90523018Y-39070590D01*
X90470293Y-39161910D01*
X90468126Y-39169998D01*
X90466251Y-39177002D01*
X90466250Y-39177004D01*
X90466249Y-39177006D01*
X90443000Y-39263773D01*
X90443000Y-46291202D01*
X90423315Y-46358241D01*
X90406681Y-46378883D01*
X90362981Y-46422582D01*
X90362975Y-46422590D01*
X90283926Y-46559509D01*
X90283923Y-46559516D01*
X90243000Y-46712243D01*
X85480000Y-46712243D01*
X85480000Y-20142229D01*
X85480001Y-20142216D01*
X85480001Y-20027874D01*
X85484227Y-19995778D01*
X85491200Y-19969757D01*
X85491200Y-19811643D01*
X85450277Y-19658916D01*
X85449633Y-19657800D01*
X85371224Y-19521990D01*
X85371218Y-19521982D01*
X85259417Y-19410181D01*
X85259409Y-19410175D01*
X85122490Y-19331126D01*
X85122486Y-19331124D01*
X85122484Y-19331123D01*
X84969757Y-19290200D01*
X84811643Y-19290200D01*
X84658916Y-19331123D01*
X84658909Y-19331126D01*
X84521990Y-19410175D01*
X84521982Y-19410181D01*
X84410181Y-19521982D01*
X84410175Y-19521990D01*
X84331126Y-19658909D01*
X84331123Y-19658916D01*
X84290200Y-19811643D01*
X84290200Y-19969757D01*
X84305773Y-20027874D01*
X84331123Y-20122483D01*
X84331126Y-20122490D01*
X84410175Y-20259409D01*
X84410179Y-20259414D01*
X84410180Y-20259416D01*
X84521984Y-20371220D01*
X84616999Y-20426076D01*
X84665215Y-20476643D01*
X84679000Y-20533464D01*
X84679000Y-27115945D01*
X84659315Y-27182984D01*
X84606511Y-27228739D01*
X84537353Y-27238683D01*
X84473797Y-27209658D01*
X84467319Y-27203626D01*
X83570519Y-26306826D01*
X83537034Y-26245503D01*
X83534200Y-26219145D01*
X83534200Y-26157345D01*
X83534200Y-26157343D01*
X83493277Y-26004616D01*
X83458082Y-25943656D01*
X83414224Y-25867690D01*
X83414218Y-25867682D01*
X83302417Y-25755881D01*
X83302409Y-25755875D01*
X83165490Y-25676826D01*
X83165486Y-25676824D01*
X83165484Y-25676823D01*
X83012757Y-25635900D01*
X82854643Y-25635900D01*
X82701916Y-25676823D01*
X82701909Y-25676826D01*
X82564990Y-25755875D01*
X82564982Y-25755881D01*
X82453181Y-25867682D01*
X82453175Y-25867690D01*
X82374126Y-26004609D01*
X82374123Y-26004616D01*
X82333200Y-26157343D01*
X65702683Y-26157343D01*
X65737877Y-26096384D01*
X65778800Y-25943657D01*
X65778800Y-25785543D01*
X65737877Y-25632816D01*
X65722517Y-25606211D01*
X65658824Y-25495890D01*
X65658818Y-25495882D01*
X65547017Y-25384081D01*
X65547009Y-25384075D01*
X65410090Y-25305026D01*
X65410086Y-25305024D01*
X65410084Y-25305023D01*
X65257357Y-25264100D01*
X65099243Y-25264100D01*
X64946516Y-25305023D01*
X64946509Y-25305026D01*
X64809590Y-25384075D01*
X64809582Y-25384081D01*
X64697781Y-25495882D01*
X64697775Y-25495890D01*
X64618726Y-25632809D01*
X64618723Y-25632816D01*
X64577800Y-25785543D01*
X64577800Y-25847345D01*
X64558115Y-25914384D01*
X64541481Y-25935026D01*
X56414222Y-34062284D01*
X56414220Y-34062287D01*
X56361491Y-34153613D01*
X56343012Y-34222585D01*
X56343012Y-34222586D01*
X56334200Y-34255472D01*
X56334200Y-38791945D01*
X56314515Y-38858984D01*
X56297881Y-38879626D01*
X54748226Y-40429281D01*
X54686903Y-40462766D01*
X54660545Y-40465600D01*
X54598743Y-40465600D01*
X54446016Y-40506523D01*
X54446009Y-40506526D01*
X54309090Y-40585575D01*
X54309082Y-40585581D01*
X54197281Y-40697382D01*
X54197275Y-40697390D01*
X54118226Y-40834309D01*
X54118223Y-40834316D01*
X54077300Y-40987043D01*
X54077300Y-41145157D01*
X54117647Y-41295732D01*
X54118223Y-41297883D01*
X54118223Y-41297884D01*
X54144006Y-41342542D01*
X54160477Y-41410442D01*
X54137625Y-41476469D01*
X54117905Y-41496907D01*
X54118031Y-41497033D01*
X54000481Y-41614582D01*
X54000475Y-41614590D01*
X53921426Y-41751509D01*
X53921423Y-41751516D01*
X53880500Y-41904243D01*
X20800000Y-41904243D01*
X20800000Y-34389443D01*
X50861200Y-34389443D01*
X50861200Y-34547557D01*
X50893227Y-34667081D01*
X50902123Y-34700283D01*
X50902126Y-34700290D01*
X50981175Y-34837209D01*
X50981179Y-34837214D01*
X50981180Y-34837216D01*
X51092984Y-34949020D01*
X51092986Y-34949021D01*
X51092990Y-34949024D01*
X51229909Y-35028073D01*
X51229916Y-35028077D01*
X51382643Y-35069000D01*
X51382645Y-35069000D01*
X51540755Y-35069000D01*
X51540757Y-35069000D01*
X51693484Y-35028077D01*
X51830416Y-34949020D01*
X51874117Y-34905319D01*
X51935440Y-34871834D01*
X51961798Y-34869000D01*
X52974145Y-34869000D01*
X53041184Y-34888685D01*
X53061826Y-34905319D01*
X54693881Y-36537374D01*
X54727366Y-36598697D01*
X54730200Y-36625055D01*
X54730200Y-36686857D01*
X54760078Y-36798361D01*
X54771123Y-36839583D01*
X54771126Y-36839590D01*
X54850175Y-36976509D01*
X54850179Y-36976514D01*
X54850180Y-36976516D01*
X54961984Y-37088320D01*
X54961986Y-37088321D01*
X54961990Y-37088324D01*
X55067862Y-37149448D01*
X55098916Y-37167377D01*
X55251643Y-37208300D01*
X55251645Y-37208300D01*
X55409755Y-37208300D01*
X55409757Y-37208300D01*
X55562484Y-37167377D01*
X55699416Y-37088320D01*
X55811220Y-36976516D01*
X55890277Y-36839584D01*
X55931200Y-36686857D01*
X55931200Y-36528743D01*
X55890277Y-36376016D01*
X55882440Y-36362441D01*
X55811224Y-36239090D01*
X55811218Y-36239082D01*
X55699417Y-36127281D01*
X55699409Y-36127275D01*
X55562490Y-36048226D01*
X55562486Y-36048224D01*
X55562484Y-36048223D01*
X55409757Y-36007300D01*
X55409756Y-36007300D01*
X55347955Y-36007300D01*
X55280916Y-35987615D01*
X55260274Y-35970981D01*
X53437315Y-34148022D01*
X53437313Y-34148020D01*
X53391650Y-34121656D01*
X53345989Y-34095293D01*
X53295057Y-34081646D01*
X53244127Y-34068000D01*
X53244126Y-34068000D01*
X51961798Y-34068000D01*
X51894759Y-34048315D01*
X51874117Y-34031681D01*
X51830417Y-33987981D01*
X51830409Y-33987975D01*
X51693490Y-33908926D01*
X51693486Y-33908924D01*
X51693484Y-33908923D01*
X51540757Y-33868000D01*
X51382643Y-33868000D01*
X51229916Y-33908923D01*
X51229909Y-33908926D01*
X51092990Y-33987975D01*
X51092982Y-33987981D01*
X50981181Y-34099782D01*
X50981175Y-34099790D01*
X50902126Y-34236709D01*
X50902123Y-34236716D01*
X50861200Y-34389443D01*
X20800000Y-34389443D01*
X20800000Y-23750000D01*
X23547769Y-23750000D01*
X24595854Y-23750000D01*
X24557370Y-23816657D01*
X24525000Y-23937465D01*
X24525000Y-24062535D01*
X24557370Y-24183343D01*
X24595854Y-24250000D01*
X23547769Y-24250000D01*
X23558242Y-24316126D01*
X23558242Y-24316129D01*
X23623904Y-24518217D01*
X23720379Y-24707557D01*
X23845272Y-24879459D01*
X23845276Y-24879464D01*
X23995535Y-25029723D01*
X23995540Y-25029727D01*
X24167442Y-25154620D01*
X24357511Y-25251466D01*
X24408307Y-25299441D01*
X24425102Y-25367262D01*
X24402565Y-25433397D01*
X24357512Y-25472435D01*
X24272004Y-25516004D01*
X24125505Y-25622441D01*
X24125500Y-25622445D01*
X23997445Y-25750500D01*
X23997441Y-25750505D01*
X23891006Y-25897002D01*
X23808788Y-26058360D01*
X23808787Y-26058363D01*
X23752829Y-26230589D01*
X23724500Y-26409448D01*
X23724500Y-26590551D01*
X23752829Y-26769410D01*
X23808787Y-26941636D01*
X23808788Y-26941639D01*
X23891006Y-27102997D01*
X23997441Y-27249494D01*
X23997445Y-27249499D01*
X24125500Y-27377554D01*
X24125505Y-27377558D01*
X24177463Y-27415307D01*
X24272006Y-27483996D01*
X24377484Y-27537740D01*
X24433360Y-27566211D01*
X24433363Y-27566212D01*
X24560649Y-27607569D01*
X24618324Y-27647006D01*
X24645523Y-27711364D01*
X24633609Y-27780211D01*
X24586365Y-27831687D01*
X24522331Y-27849500D01*
X24231898Y-27849500D01*
X24192853Y-27854188D01*
X24143438Y-27860122D01*
X24002656Y-27915639D01*
X23882077Y-28007077D01*
X23790639Y-28127656D01*
X23735122Y-28268438D01*
X23729727Y-28313370D01*
X23724500Y-28356898D01*
X23724500Y-29643102D01*
X23729540Y-29685073D01*
X23735122Y-29731561D01*
X23790639Y-29872343D01*
X23882077Y-29992922D01*
X24002656Y-30084360D01*
X24002657Y-30084360D01*
X24002658Y-30084361D01*
X24143436Y-30139877D01*
X24231898Y-30150500D01*
X24231903Y-30150500D01*
X25768097Y-30150500D01*
X25768102Y-30150500D01*
X25856564Y-30139877D01*
X25997342Y-30084361D01*
X26117922Y-29992922D01*
X26209361Y-29872342D01*
X26264877Y-29731564D01*
X26275500Y-29643102D01*
X26275500Y-28356898D01*
X26264877Y-28268436D01*
X26209361Y-28127658D01*
X26209360Y-28127657D01*
X26209360Y-28127656D01*
X26117922Y-28007077D01*
X25997343Y-27915639D01*
X25856561Y-27860122D01*
X25810926Y-27854642D01*
X25768102Y-27849500D01*
X25477669Y-27849500D01*
X25410630Y-27829815D01*
X25364875Y-27777011D01*
X25354931Y-27707853D01*
X25383956Y-27644297D01*
X25439351Y-27607569D01*
X25566636Y-27566212D01*
X25566639Y-27566211D01*
X25582836Y-27557958D01*
X25727994Y-27483996D01*
X25874501Y-27377553D01*
X26002553Y-27249501D01*
X26108996Y-27102994D01*
X26191211Y-26941639D01*
X26247171Y-26769409D01*
X26267927Y-26638360D01*
X26275500Y-26590551D01*
X26275500Y-26409448D01*
X26253493Y-26270507D01*
X26247171Y-26230591D01*
X26203565Y-26096384D01*
X26191212Y-26058363D01*
X26191211Y-26058360D01*
X26108996Y-25897006D01*
X26086992Y-25866720D01*
X26063513Y-25800913D01*
X26079339Y-25732859D01*
X26125311Y-25686448D01*
X26155913Y-25668780D01*
X27824693Y-24000000D01*
X71000000Y-24000000D01*
X77000000Y-24000000D01*
X77000000Y-16000000D01*
X71000000Y-16000000D01*
X71000000Y-24000000D01*
X27824693Y-24000000D01*
X30929574Y-20895119D01*
X30990897Y-20861634D01*
X31017255Y-20858800D01*
X31079055Y-20858800D01*
X31079057Y-20858800D01*
X31231784Y-20817877D01*
X31368716Y-20738820D01*
X31480520Y-20627016D01*
X31559577Y-20490084D01*
X31600500Y-20337357D01*
X31600500Y-20179243D01*
X31559577Y-20026516D01*
X31541831Y-19995778D01*
X31480524Y-19889590D01*
X31480518Y-19889582D01*
X31368717Y-19777781D01*
X31368709Y-19777775D01*
X31231790Y-19698726D01*
X31231786Y-19698724D01*
X31231784Y-19698723D01*
X31079057Y-19657800D01*
X30920943Y-19657800D01*
X30768216Y-19698723D01*
X30768209Y-19698726D01*
X30631290Y-19777775D01*
X30631282Y-19777781D01*
X30519481Y-19889582D01*
X30519475Y-19889590D01*
X30440426Y-20026509D01*
X30440423Y-20026516D01*
X30399500Y-20179243D01*
X30399500Y-20241045D01*
X30379815Y-20308084D01*
X30363181Y-20328726D01*
X26478226Y-24213681D01*
X26416903Y-24247166D01*
X26390545Y-24250000D01*
X25404146Y-24250000D01*
X25442630Y-24183343D01*
X25475000Y-24062535D01*
X25475000Y-23937465D01*
X25442630Y-23816657D01*
X25404146Y-23750000D01*
X26452231Y-23750000D01*
X26441757Y-23683873D01*
X26441757Y-23683870D01*
X26376095Y-23481782D01*
X26279620Y-23292442D01*
X26154727Y-23120540D01*
X26154723Y-23120535D01*
X26004464Y-22970276D01*
X26004459Y-22970272D01*
X25832557Y-22845379D01*
X25643217Y-22748904D01*
X25441128Y-22683242D01*
X25250000Y-22652969D01*
X25250000Y-23595854D01*
X25183343Y-23557370D01*
X25062535Y-23525000D01*
X24937465Y-23525000D01*
X24816657Y-23557370D01*
X24750000Y-23595854D01*
X24750000Y-22652969D01*
X24558872Y-22683242D01*
X24558869Y-22683242D01*
X24356782Y-22748904D01*
X24167442Y-22845379D01*
X23995540Y-22970272D01*
X23995535Y-22970276D01*
X23845276Y-23120535D01*
X23845272Y-23120540D01*
X23720379Y-23292442D01*
X23623904Y-23481782D01*
X23558242Y-23683870D01*
X23558242Y-23683873D01*
X23547769Y-23750000D01*
X20800000Y-23750000D01*
X20800000Y-13878711D01*
X22149500Y-13878711D01*
X22149500Y-14121288D01*
X22181161Y-14361785D01*
X22243947Y-14596104D01*
X22336773Y-14820205D01*
X22336776Y-14820212D01*
X22458064Y-15030289D01*
X22458066Y-15030292D01*
X22458067Y-15030293D01*
X22605733Y-15222736D01*
X22605739Y-15222743D01*
X22777256Y-15394260D01*
X22777262Y-15394265D01*
X22969711Y-15541936D01*
X23179788Y-15663224D01*
X23403900Y-15756054D01*
X23638211Y-15818838D01*
X23818586Y-15842584D01*
X23878711Y-15850500D01*
X23878712Y-15850500D01*
X24121289Y-15850500D01*
X24238029Y-15835130D01*
X24361789Y-15818838D01*
X24596100Y-15756054D01*
X24820212Y-15663224D01*
X25030289Y-15541936D01*
X25222738Y-15394265D01*
X25394265Y-15222738D01*
X25541936Y-15030289D01*
X25663224Y-14820212D01*
X25756054Y-14596100D01*
X25818838Y-14361789D01*
X25850500Y-14121288D01*
X25850500Y-13878712D01*
X25850500Y-13878711D01*
X134149500Y-13878711D01*
X134149500Y-14121288D01*
X134181161Y-14361785D01*
X134243947Y-14596104D01*
X134336773Y-14820205D01*
X134336776Y-14820212D01*
X134458064Y-15030289D01*
X134458066Y-15030292D01*
X134458067Y-15030293D01*
X134605733Y-15222736D01*
X134605739Y-15222743D01*
X134777256Y-15394260D01*
X134777262Y-15394265D01*
X134969711Y-15541936D01*
X135179788Y-15663224D01*
X135403900Y-15756054D01*
X135638211Y-15818838D01*
X135818586Y-15842584D01*
X135878711Y-15850500D01*
X135878712Y-15850500D01*
X136121289Y-15850500D01*
X136169388Y-15844167D01*
X136361789Y-15818838D01*
X136596100Y-15756054D01*
X136820212Y-15663224D01*
X137030289Y-15541936D01*
X137222738Y-15394265D01*
X137394265Y-15222738D01*
X137541936Y-15030289D01*
X137663224Y-14820212D01*
X137756054Y-14596100D01*
X137818838Y-14361789D01*
X137850500Y-14121288D01*
X137850500Y-13878712D01*
X137818838Y-13638211D01*
X137756054Y-13403900D01*
X137663224Y-13179788D01*
X137541936Y-12969711D01*
X137394265Y-12777262D01*
X137394260Y-12777256D01*
X137222743Y-12605739D01*
X137222736Y-12605733D01*
X137030293Y-12458067D01*
X137030292Y-12458066D01*
X137030289Y-12458064D01*
X136820212Y-12336776D01*
X136820205Y-12336773D01*
X136596104Y-12243947D01*
X136361785Y-12181161D01*
X136121289Y-12149500D01*
X136121288Y-12149500D01*
X135878712Y-12149500D01*
X135878711Y-12149500D01*
X135638214Y-12181161D01*
X135403895Y-12243947D01*
X135179794Y-12336773D01*
X135179785Y-12336777D01*
X134969706Y-12458067D01*
X134777263Y-12605733D01*
X134777256Y-12605739D01*
X134605739Y-12777256D01*
X134605733Y-12777263D01*
X134458067Y-12969706D01*
X134336777Y-13179785D01*
X134336773Y-13179794D01*
X134243947Y-13403895D01*
X134181161Y-13638214D01*
X134149500Y-13878711D01*
X25850500Y-13878711D01*
X25818838Y-13638211D01*
X25756054Y-13403900D01*
X25663224Y-13179788D01*
X25541936Y-12969711D01*
X25394265Y-12777262D01*
X25394260Y-12777256D01*
X25222743Y-12605739D01*
X25222736Y-12605733D01*
X25030293Y-12458067D01*
X25030292Y-12458066D01*
X25030289Y-12458064D01*
X24820212Y-12336776D01*
X24820205Y-12336773D01*
X24596104Y-12243947D01*
X24361785Y-12181161D01*
X24121289Y-12149500D01*
X24121288Y-12149500D01*
X23878712Y-12149500D01*
X23878711Y-12149500D01*
X23638214Y-12181161D01*
X23403895Y-12243947D01*
X23179794Y-12336773D01*
X23179785Y-12336777D01*
X22969706Y-12458067D01*
X22777263Y-12605733D01*
X22777256Y-12605739D01*
X22605739Y-12777256D01*
X22605733Y-12777263D01*
X22458067Y-12969706D01*
X22336777Y-13179785D01*
X22336773Y-13179794D01*
X22243947Y-13403895D01*
X22181161Y-13638214D01*
X22149500Y-13878711D01*
X20800000Y-13878711D01*
X20800000Y-10924000D01*
X20819685Y-10856961D01*
X20872489Y-10811206D01*
X20924000Y-10800000D01*
X139076000Y-10800000D01*
X139143039Y-10819685D01*
G37*
%TD.AperFunction*%
%TD*%
M02*
